<?xml version="1.0" standalone="no"?>
<!DOCTYPE svg PUBLIC "-//W3C//DTD SVG 1.1//EN" "http://www.w3.org/Graphics/SVG/1.1/DTD/svg11.dtd" >
<svg xmlns="http://www.w3.org/2000/svg" xmlns:xlink="http://www.w3.org/1999/xlink" version="1.1">
<metadata>
Created by FontForge 20170924 at Thu Feb  6 10:09:04 2020
 By www-data
(c) 2000-2020 JetBrains s.r.o. Developed with drive and IntelliJ IDEA.
</metadata>
<defs>
<font id="JetBrainsMono-Regular" horiz-adv-x="600" >
  <font-face 
    font-family="JetBrains Mono"
    font-weight="400"
    font-stretch="normal"
    units-per-em="1000"
    panose-1="2 11 5 9 2 1 2 5 0 4"
    ascent="800"
    descent="-200"
    x-height="550"
    cap-height="720"
    bbox="-1740 -270 715 970"
    underline-thickness="45"
    underline-position="-142"
    unicode-range="U+000A-E0B3"
  />
<missing-glyph 
d="M90 0v720h420v-720h-420zM160 50h300v561zM440 670h-300v-561z" />
    <glyph glyph-name=".notdef" 
d="M90 0v720h420v-720h-420zM160 50h300v561zM440 670h-300v-561z" />
    <glyph glyph-name=".null" horiz-adv-x="0" 
 />
    <glyph glyph-name=".null" horiz-adv-x="0" 
 />
    <glyph glyph-name="uni000D" unicode="&#xd;" 
 />
    <glyph glyph-name="uni00A0" unicode=" " 
 />
    <glyph glyph-name="uni00A0" unicode="&#xa0;" 
 />
    <glyph glyph-name="H" unicode="H" 
d="M90 0v720h90v-304h240v304h90v-720h-90v334h-240v-334h-90z" />
    <glyph glyph-name="n" unicode="n" 
d="M88 550h85v-95h8q13 51 52 78t99 27q43 0 76.5 -14.5t57 -40.5t35.5 -61.5t12 -77.5v-366h-90v351q0 63 -32 98t-89 35t-90.5 -37.5t-33.5 -101.5v-345h-90v550z" />
    <glyph glyph-name="p" unicode="p" 
d="M88 550h85v-95h8q13 50 53 77.5t101 27.5q42 0 76 -15t58 -42.5t37.5 -67.5t13.5 -90v-140q0 -50 -13.5 -90t-37.5 -67.5t-58 -42.5t-76 -15q-61 0 -101 27.5t-53 77.5h-8q1 -17 3 -34q1 -15 1.5 -31t0.5 -30v-170h-90v720zM178 345v-140q0 -63 33.5 -100t89.5 -37
q60 0 94.5 37t34.5 100v140q0 65 -34 101t-95 36q-56 0 -89.5 -37t-33.5 -100z" />
    <glyph glyph-name="parenleft" unicode="(" 
d="M185 455q0 73 21 136.5t60 114t94.5 86.5t124.5 53v-85q-48 -11 -87 -38t-66 -67t-42 -90.5t-15 -109.5v-190q0 -58 14.5 -108t42 -89t66.5 -66t87 -38v-89q-71 18 -126.5 53t-94 85t-59 113.5t-20.5 138.5v190z" />
    <glyph glyph-name="o" unicode="o" 
d="M300 -10q-51 0 -91.5 15t-69 43t-44 68t-15.5 89v140q0 50 15.5 89.5t44 67.5t69 43t91.5 15q102 0 161 -57t59 -157v-141q0 -100 -58.5 -157.5t-161.5 -57.5zM170 205q0 -63 34.5 -99t95.5 -36q60 0 95 36t35 99v140q0 63 -35 99t-95 36t-95 -36t-35 -99v-140z" />
    <glyph glyph-name="i" unicode="i" 
d="M95 0v82h200v386h-175v82h265v-468h165v-82h-455zM315 765h20q29 0 47 -17t18 -44t-18 -43t-47 -16h-20q-29 0 -47 15.5t-18 43.5q0 27 18 44t47 17z" />
    <glyph glyph-name="l" unicode="l" 
d="M40 648v82h272v-570q0 -37 20 -57.5t55 -20.5h163v-82h-163q-77 0 -121 42.5t-44 117.5v488h-182z" />
    <glyph glyph-name="O" unicode="O" 
d="M300 -10q-51 0 -91.5 15t-69 43t-44 68t-15.5 89v310q0 49 15.5 89t44 68t69 43t91.5 15t91.5 -15t69 -43t44 -68t15.5 -89v-310q0 -49 -15.5 -88.5t-44 -67.5t-69.5 -43.5t-91 -15.5zM170 205q0 -62 35 -98.5t95 -36.5t95 36.5t35 98.5v310q0 62 -35 98.5t-95 36.5
t-95 -36.5t-35 -98.5v-310z" />
    <glyph glyph-name="h" unicode="h" 
d="M88 0v720h90v-170q0 -14 -0.5 -30.5t-1.5 -30.5q-2 -17 -3 -34h8q13 50 52.5 77.5t98.5 27.5q41 0 74.5 -14t57 -39.5t36.5 -61t13 -79.5v-366h-90v351q0 63 -32 98t-89 35t-90.5 -37.5t-33.5 -101.5v-345h-90z" />
    <glyph glyph-name="k" unicode="k" 
d="M93 720h90v-400h108l168 230h103l-195 -266l198 -284h-105l-168 240h-109v-240h-90v720z" />
    <glyph glyph-name="g" unicode="g" 
d="M73 350q0 48 13 87t37.5 66t59.5 42t78 15q60 0 102 -28.5t57 -81.5h7v100h85v-515q0 -97 -57 -151t-160 -54h-135v82h135q60 0 93.5 32t33.5 91v25l4 95h-6q-15 -53 -57 -81.5t-102 -28.5q-43 0 -77.5 15t-59 42t-38 66t-13.5 87v95zM165 255q0 -62 34.5 -97t94.5 -35
t94 35t34 97v95q0 62 -34 97t-94 35t-94.5 -35t-34.5 -97v-95z" />
    <glyph glyph-name="greater" unicode="&#x3e;" 
d="M85 65v90l310 151q12 6 22 10t18 6q8 3 15 4v7q-7 1 -15 4q-17 3 -40 15l-310 154v89l430 -215v-100z" />
    <glyph glyph-name="braceright" unicode="}" 
d="M130 830q44 0 79.5 -11t59.5 -32.5t36 -52.5t10 -70l-10 -164q-1 -27 2 -46t14 -31t31 -17.5t53 -5.5h110v-80h-110q-32 0 -52.5 -5.5t-31.5 -17.5t-14 -31t-2 -46l10 -164q2 -39 -10 -70t-36 -52.5t-59.5 -32.5t-79.5 -11h-45v80h45q48 0 72.5 21.5t22.5 64.5l-10 164
q-1 27 5.5 51.5t21 43t36.5 29.5t52 12v5q-30 1 -52.5 12.5t-36.5 30.5t-20.5 44t-5.5 52l10 164q2 43 -22.5 64.5t-72.5 21.5h-45v80h45z" />
    <glyph glyph-name="A" unicode="A" 
d="M240 720h126l190 -720h-96l-50 203h-221l-51 -203h-94zM392 278l-70 285q-5 21 -9 38.5t-6 31.5q-2 15 -4 27h-4q-2 -12 -5 -27q-2 -14 -6 -31.5t-9 -38.5l-71 -285h184z" />
    <glyph glyph-name="B" unicode="B" 
d="M301 720q102 0 160 -51t58 -139q0 -64 -36.5 -104.5t-96.5 -45.5v-6q69 -4 107.5 -49t38.5 -122q0 -47 -15 -84.5t-43.5 -64t-69.5 -40.5t-92 -14h-222v720h211zM179 330v-248h123q64 0 99.5 33t35.5 91t-36 91t-99 33h-123zM300 408q57 0 90.5 30.5t33.5 84.5t-33 84.5
t-90 30.5h-122v-230h121z" />
    <glyph glyph-name="C" unicode="C" 
d="M306 -10q-51 0 -91.5 15t-69 43t-44 68t-15.5 89v310q0 49 15.5 89t44 68t69 43t91.5 15q94 0 151.5 -51.5t68.5 -143.5h-90q-6 54 -40.5 84.5t-89.5 30.5q-60 0 -95 -36t-35 -99v-310q0 -63 34.5 -99t95.5 -36q55 0 89.5 30.5t40.5 84.5h90q-11 -92 -68.5 -143.5
t-151.5 -51.5z" />
    <glyph glyph-name="D" unicode="D" 
d="M88 720h201q52 0 94.5 -16t73 -44.5t47 -69t16.5 -89.5v-281q0 -49 -16.5 -90t-47 -69.5t-73 -44.5t-94.5 -16h-201v720zM178 80h111q63 0 101.5 38.5t38.5 101.5v281q0 63 -38.5 101t-101.5 38h-111v-560z" />
    <glyph glyph-name="E" unicode="E" 
d="M95 0v720h425v-82h-335v-226h300v-82h-300v-248h335v-82h-425z" />
    <glyph glyph-name="F" unicode="F" 
d="M95 721h430v-80h-342v-233h316v-80h-314v-328h-90v721z" />
    <glyph glyph-name="G" unicode="G" 
d="M80 205v310q0 48 16 88t44.5 68t69.5 43.5t90 15.5q91 0 149 -46t76 -134h-92q-10 47 -45 73.5t-88 26.5q-60 0 -95 -36t-35 -99v-310q0 -63 35 -99t95 -36t95 36t35 99v85h-146v80h236v-165q0 -49 -15.5 -89t-44 -68t-69 -43t-91.5 -15q-50 0 -91 15t-69.5 43t-44 68
t-15.5 89z" />
    <glyph glyph-name="I" unicode="I" 
d="M254 79v562h-159v79h410v-79h-159v-562h159v-79h-410v79h159z" />
    <glyph glyph-name="J" unicode="J" 
d="M135 175q9 -48 46 -76.5t89 -28.5q64 0 102 36.5t38 98.5v435h-280v80h370v-515q0 -49 -16 -89t-46 -68t-72.5 -43t-95.5 -15q-44 0 -82 13t-67.5 37.5t-49 58.5t-26.5 76h90z" />
    <glyph glyph-name="K" unicode="K" 
d="M90 720h90v-306h115l164 306h106l-191 -342l201 -378h-107l-173 335h-115v-335h-90v720z" />
    <glyph glyph-name="L" unicode="L" 
d="M195 720v-638h340v-82h-430v720h90z" />
    <glyph glyph-name="M" unicode="M" 
d="M187 720l86 -244q5 -15 9.5 -32t8.5 -31q4 -17 7 -33h8q4 16 8 33q4 14 8.5 31t9.5 32l81 244h112v-720h-83v505q0 26 1.5 51t3.5 45q1 23 4 43h-10q-5 -19 -11 -41q-5 -20 -12.5 -44.5t-17.5 -53.5l-62 -185h-74l-62 185q-11 32 -19 58t-14 44q-6 22 -11 38h-7
q2 -21 4 -44q1 -20 2 -45t1 -51v-505h-83v720h112z" />
    <glyph glyph-name="N" unicode="N" 
d="M199 720l191 -483q8 -18 15 -41.5t12 -44.5q7 -25 13 -51h8l-1 10.5t-3 28.5t-3.5 41.5t-1.5 49.5v490h86v-720h-114l-188 484q-8 23 -16 47t-13 44q-7 23 -12 46h-8q2 -16 4 -36q1 -17 2 -40.5t1 -52.5v-492h-86v720h114z" />
    <glyph glyph-name="P" unicode="P" 
d="M333 720q49 0 89 -15t68.5 -43t44 -66.5t15.5 -85.5t-16 -85.5t-44.5 -66.5t-68.5 -43t-88 -15h-153v-300h-90v720h243zM180 380h153q56 0 90 35.5t34 94.5t-34 94.5t-90 35.5h-153v-260z" />
    <glyph glyph-name="Q" unicode="Q" 
d="M80 205v310q0 49 15.5 89t44 68t69 43t91.5 15t91.5 -15t69 -43t44 -68t15.5 -89v-310q0 -68 -29 -117.5t-82 -74.5l117 -178h-104l-103 156q-3 -1 -8 -1h-11q-51 0 -91.5 15t-69 43t-44 68t-15.5 89zM300 70q60 0 95 36.5t35 98.5v310q0 62 -35 98.5t-95 36.5t-95 -36.5
t-35 -98.5v-310q0 -62 35 -98.5t95 -36.5z" />
    <glyph glyph-name="R" unicode="R" 
d="M90 720h230q49 0 89 -15t68.5 -43t44 -66.5t15.5 -85.5q0 -75 -38.5 -127.5t-104.5 -72.5l153 -310h-106l-140 300h-121v-300h-90v720zM180 380h140q57 0 90.5 35.5t33.5 94.5t-34 94.5t-90 35.5h-140v-260z" />
    <glyph glyph-name="S" unicode="S" 
d="M70 185h95q0 -52 37.5 -83.5t99.5 -31.5q64 0 100 29.5t36 80.5q0 44 -26 77.5t-71 49.5l-85 30q-164 59 -164 203q0 88 57 139t156 51q48 0 87.5 -13.5t68 -38.5t44 -60.5t16.5 -78.5h-95q0 51 -33.5 81t-88.5 30q-56 0 -89 -27.5t-33 -74.5q0 -44 24 -73t78 -49l89 -32
q76 -27 116.5 -81.5t40.5 -129.5q0 -90 -61.5 -141.5t-168.5 -51.5q-51 0 -93 14t-72 39.5t-47 61.5t-18 80z" />
    <glyph glyph-name="T" unicode="T" 
d="M45 641v79h510v-79h-209v-641h-92v641h-209z" />
    <glyph glyph-name="U" unicode="U" 
d="M300 -10q-103 0 -159 56t-56 154v520h90v-520q0 -60 32 -95t93 -35q60 0 92.5 35t32.5 95v520h90v-520q0 -99 -56 -154.5t-159 -55.5z" />
    <glyph glyph-name="V" unicode="V" 
d="M44 720h96l138 -563q5 -21 9 -38.5t6 -30.5q2 -16 4 -28h4q2 12 5 28q2 13 6 30.5t9 38.5l141 563h94l-196 -720h-126z" />
    <glyph glyph-name="W" unicode="W" 
d="M25 720h85l47 -526q2 -23 3 -47.5t2 -44.5q1 -24 2 -47h13q1 23 3 47q1 20 3 44.5t5 47.5l69 526h88l66 -526q3 -22 5 -46.5t4 -45.5q1 -24 3 -47h14q1 23 3 47q2 20 3.5 44.5t3.5 47.5l46 526h82l-73 -720h-128l-59 529q-6 59 -6 95q0 21 1 38h-17q1 -17 0 -38
q0 -17 -1 -41.5t-5 -53.5l-64 -529h-128z" />
    <glyph glyph-name="X" unicode="X" 
d="M250 367l-199 353h104l113 -209q14 -24 22 -44q6 -10 10 -20h3q4 9 10 20l22 44l115 209h99l-199 -347l210 -373h-103l-125 229l-22 44q-6 11 -10 21h-3q-4 -10 -9 -21q-5 -9 -10.5 -20.5t-11.5 -22.5l-126 -230h-100z" />
    <glyph glyph-name="Y" unicode="Y" 
d="M125 720l148 -317q7 -14 11.5 -28t8.5 -25q4 -13 7 -26h4q3 13 8 26q3 11 8 25t11 28l143 317h96l-225 -470v-250h-90v250l-225 470h95z" />
    <glyph glyph-name="Z" unicode="Z" 
d="M504 720v-81l-329 -562v-2l70 4h270v-79h-430v80l329 562v2l-72 -3h-249v79h411z" />
    <glyph glyph-name="period" unicode="." 
d="M214 79q0 39 23.5 62.5t62.5 23.5t62.5 -23.5t23.5 -62.5q0 -40 -23.5 -64.5t-62.5 -24.5t-62.5 24.5t-23.5 64.5z" />
    <glyph glyph-name="a" unicode="a" 
d="M63 160q0 39 13.5 70.5t39 53.5t61.5 34t81 12h164v45q0 51 -33.5 79.5t-96.5 28.5q-46 0 -78.5 -17t-43.5 -47h-90q14 65 71.5 103t142.5 38q102 0 160 -47.5t58 -132.5v-380h-82v105h-8q-13 -53 -61 -84t-117 -31q-83 0 -132 46t-49 124zM153 162q0 -46 29 -72t82 -26
q34 0 63 9t50 25.5t33 38.5t12 48v75h-162q-50 0 -78.5 -26t-28.5 -72z" />
    <glyph glyph-name="b" unicode="b" 
d="M88 720h90v-160q0 -14 -0.5 -32.5t-1.5 -34.5q-2 -19 -3 -38h8q13 50 53 77.5t101 27.5q42 0 76 -15t58 -42.5t37.5 -67.5t13.5 -90v-140q0 -50 -13.5 -90t-37.5 -67.5t-58 -42.5t-76 -15q-61 0 -101 27.5t-53 77.5h-8v-95h-85v720zM178 205q0 -63 33.5 -100t89.5 -37
q60 0 94.5 37t34.5 100v140q0 65 -34 101t-95 36q-56 0 -89.5 -37t-33.5 -100v-140z" />
    <glyph glyph-name="c" unicode="c" 
d="M308 -10q-51 0 -91.5 15t-69 43t-44 68t-15.5 89v140q0 49 15.5 89t44 68t69 43t91.5 15q91 0 149.5 -49.5t70.5 -135.5h-90q-7 48 -42.5 76.5t-87.5 28.5q-60 0 -95 -36t-35 -99v-140q0 -63 34.5 -99t95.5 -36q52 0 87.5 28.5t42.5 76.5h90q-13 -87 -71.5 -136
t-148.5 -49z" />
    <glyph glyph-name="e" unicode="e" 
d="M80 350q0 98 58.5 154t161.5 56t161.5 -56t58.5 -154v-101h-350v-44q0 -63 34.5 -99t95.5 -36q45 0 78 14t49 41h90q-17 -63 -75.5 -99t-141.5 -36q-103 0 -161.5 56t-58.5 154v150zM170 324h260v26q0 62 -34 96t-96 34t-96 -34t-34 -96v-26z" />
    <glyph glyph-name="f" unicode="f" 
d="M60 413v82h160v85q0 66 41 103t113 37h161v-82h-161q-64 0 -64 -58v-85h225v-82h-225v-413h-90v413h-160z" />
    <glyph glyph-name="j" unicode="j" 
d="M85 -87h120q63 0 101.5 38t38.5 99v418h-230v82h320v-500q0 -48 -17 -88.5t-47.5 -70t-72.5 -45.5t-93 -16h-120v83zM305 704q0 27 18 44t47 17h20q29 0 47 -17t18 -44t-18 -43t-47 -16h-20q-29 0 -47 15.5t-18 43.5z" />
    <glyph glyph-name="m" unicode="m" 
d="M62 0v550h78v-81h7q4 44 26 67.5t62 23.5q74 0 95 -91h6q4 44 28 67.5t64 23.5q51 0 80.5 -37.5t29.5 -103.5v-419h-86v419q0 35 -14.5 53.5t-41.5 18.5q-29 0 -45 -20t-16 -57v-414h-70v419q0 35 -15.5 53.5t-43.5 18.5q-29 0 -44 -20t-15 -57v-414h-85z" />
    <glyph glyph-name="r" unicode="r" 
d="M197 550v-95h8q13 49 54 77t101 28q87 0 136.5 -54.5t49.5 -149.5v-31h-90v20q0 65 -32.5 100.5t-92.5 35.5q-59 0 -94 -36.5t-35 -99.5v-345h-90v550h85z" />
    <glyph glyph-name="s" unicode="s" 
d="M77 135h95q6 -29 37 -47t76 -18h28q54 0 84 22.5t30 60.5q0 65 -92 79l-83 12q-81 12 -121 51t-40 109q0 74 52.5 115t146.5 41h28q40 0 74 -10t60 -28.5t42.5 -44t21.5 -56.5h-95q-6 26 -34 42.5t-69 16.5h-28q-51 0 -79.5 -20t-28.5 -60q0 -32 19.5 -48.5t63.5 -22.5
l83 -12q89 -13 129.5 -52t40.5 -111q0 -77 -53.5 -120.5t-151.5 -43.5h-28q-87 0 -143.5 39.5t-64.5 105.5z" />
    <glyph glyph-name="t" unicode="t" 
d="M60 550h160v170h90v-170h215v-82h-215v-326q0 -28 17.5 -44t47.5 -16h140v-82h-140q-71 0 -113 39t-42 103v326h-160v82z" />
    <glyph glyph-name="v" unicode="v" 
d="M50 550h95l134 -389q8 -23 12 -40.5t6 -29.5q2 -15 2 -26h9q-1 11 1 26q2 12 5 29.5t11 40.5l127 389h98l-197 -550h-102z" />
    <glyph glyph-name="w" unicode="w" 
d="M30 550h80l49 -377q2 -18 4 -40t4 -41l4 -44h11q2 22 5 44q2 19 5 41t6 40l58 377h86l58 -377q3 -19 6 -41t5 -41q3 -22 5 -43h12l4 44q2 19 5 40.5t5 40.5l50 377h78l-78 -550h-123l-57 389q-2 17 -3.5 35.5t-2.5 34.5v36h-13q0 -18 -1 -36q-1 -16 -2 -34.5t-4 -35.5
l-59 -389h-120z" />
    <glyph glyph-name="x" unicode="x" 
d="M48 0l199 282l-187 268h108l115 -175q5 -7 8 -13.5t5 -11.5t3 -10h4q1 5 3 10t5 11.5t8 13.5l115 175h107l-187 -267l198 -283h-108l-123 186q-4 7 -7.5 13.5t-6.5 12.5q-3 7 -5 13h-4q-2 -7 -5 -13t-6 -13t-8 -13l-124 -186h-107z" />
    <glyph glyph-name="y" unicode="y" 
d="M50 550h100l126 -316q9 -23 14.5 -43t8.5 -35q4 -19 5 -34h7q1 15 5 33q3 16 8 36t13 43l116 316h97l-268 -720h-96l77 210z" />
    <glyph glyph-name="z" unicode="z" 
d="M80 100l335 367v6q-11 -1 -23 -1q-10 -1 -23.5 -1.5t-27.5 -0.5h-253v80h421v-101l-339 -367v-6q11 1 24 2q11 1 24 1.5t27 0.5h275v-80h-440v100z" />
    <glyph glyph-name="comma" unicode="," 
d="M375 151l-130 -311h-80l80 311h130z" />
    <glyph glyph-name="zero" unicode="0" 
d="M80 515q0 49 15.5 89t44 68t69 43t91.5 15t91.5 -15t69 -43t44 -68t15.5 -89v-310q0 -49 -15.5 -88.5t-44 -67.5t-69.5 -43.5t-91 -15.5q-51 0 -91.5 15t-69 43t-44 68t-15.5 89v310zM170 205q0 -62 35 -98.5t95 -36.5t95 36.5t35 98.5v310q0 62 -35 98.5t-95 36.5
t-95 -36.5t-35 -98.5v-310zM250 435q0 25 13.5 40t36.5 15t36.5 -15t13.5 -40v-160q0 -25 -13.5 -40t-36.5 -15t-36.5 15t-13.5 40v160z" />
    <glyph glyph-name="one" unicode="1" 
d="M90 0v80h193v505q0 8 0.5 18.5t0.5 19.5t0.5 15.5l0.5 6.5h-2q-7 -6 -14 -11q-6 -5 -12.5 -10t-12.5 -9l-141 -96v91l155 110h115v-640h162v-80h-445z" />
    <glyph glyph-name="two" unicode="2" 
d="M65 530q2 45 19 82t47.5 63t72 40.5t92.5 14.5q50 0 90 -14t68 -40t43.5 -63t15.5 -83q0 -81 -44.5 -156.5t-141.5 -159.5l-121 -105q-5 -4 -11 -8l-12 -8q-8 -5 -15 -9v-4q16 1 31 1q14 1 28.5 1h26.5h266v-82h-450v100l190 163q43 37 73.5 70t49.5 65t28 64t9 67
q0 56 -33.5 88.5t-90.5 32.5q-63 0 -100.5 -33t-37.5 -87h-93z" />
    <glyph glyph-name="three" unicode="3" 
d="M294 -10q-47 0 -86.5 14t-69 39.5t-48 61.5t-22.5 80h90q8 -52 45 -83.5t91 -31.5q63 0 101 38.5t38 101.5t-39 101.5t-104 38.5h-84v95l143 145q10 10 21 19t21 16q11 9 23 17v2q-11 -1 -23 -2q-11 -1 -23.5 -1.5t-26.5 -0.5h-251v80h400v-100l-169 -161q-6 -6 -12 -11
t-11 -9q-5 -5 -10 -9q54 0 97.5 -15.5t74 -44t47.5 -69.5t17 -91q0 -51 -16 -91.5t-46 -69t-72.5 -44t-95.5 -15.5z" />
    <glyph glyph-name="four" unicode="4" 
d="M369 720h98l-292 -445v-40h235v175h90v-410h-90v155h-325v130z" />
    <glyph glyph-name="five" unicode="5" 
d="M170 150q10 -36 43.5 -58t85.5 -22q61 0 97 35t36 95v50q0 60 -36 95t-98 35q-77 0 -114 -55h-92l5 395h396v-82h-309l-3 -254h6q9 21 28 38q16 14 43.5 26t72.5 12q91 0 142.5 -56.5t51.5 -153.5v-50q0 -48 -16 -87t-45.5 -66t-71.5 -42t-94 -15q-92 0 -151 43.5
t-72 116.5h95z" />
    <glyph glyph-name="six" unicode="6" 
d="M70 215q0 60 28 128t77 150l136 227h109l-152 -240q-20 -32 -33.5 -52t-21.5 -31q-9 -12 -14 -17h15q8 16 23 28q14 11 36 19.5t56 8.5q44 0 81 -16t63.5 -45t41.5 -69.5t15 -90.5t-17 -91.5t-47.5 -71t-72.5 -46t-92 -16.5q-51 0 -93.5 16t-73 45.5t-47.5 71t-17 92.5z
M160 215q0 -66 39 -105.5t102 -39.5q30 0 55.5 10.5t44 29.5t29 45.5t10.5 59.5t-10.5 59.5t-29 45.5t-44 29.5t-55.5 10.5q-62 0 -101.5 -40t-39.5 -105z" />
    <glyph glyph-name="seven" unicode="7" 
d="M75 720h450v-102l-253 -618h-101l243 574q7 17 12.5 28t9.5 18q5 9 9 14v6q-16 -1 -31 -1q-13 0 -26.5 -0.5t-23.5 -0.5h-199v-108h-90v190z" />
    <glyph glyph-name="eight" unicode="8" 
d="M70 197q0 35 10.5 65t29.5 53t45.5 38.5t59.5 20.5v5q-29 5 -53 19.5t-41 35.5t-26.5 48t-9.5 57q0 43 15.5 78t44 60t68 39t87.5 14t87.5 -14t68 -39t44 -60t15.5 -78q0 -30 -9.5 -57t-26.5 -48.5t-41 -35.5t-53 -19v-5q66 -11 105.5 -58t39.5 -116q0 -46 -16 -85
t-46 -66.5t-72.5 -43t-95.5 -15.5t-95.5 15t-72.5 42t-46 65.5t-16 84.5zM300 342q-62 0 -99.5 -37.5t-37.5 -99.5q0 -61 37.5 -100.5t99.5 -39.5t99.5 39.5t37.5 100.5q0 62 -37.5 99.5t-99.5 37.5zM300 655q-57 0 -89.5 -33t-32.5 -87q0 -55 33.5 -91t88.5 -36t88.5 36
t33.5 91q0 54 -32.5 87t-89.5 33z" />
    <glyph glyph-name="nine" unicode="9" 
d="M70 505q0 50 17 91.5t47.5 71t72.5 46t92 16.5q51 0 93.5 -16t73 -45.5t47.5 -71t17 -92.5q0 -60 -28 -128t-77 -150l-136 -227h-109l152 240q21 33 34 52.5t21 30.5q9 12 14 17h-15q-8 -16 -23 -28q-14 -11 -35.5 -19.5t-56.5 -8.5q-44 0 -81 16t-63.5 45t-41.5 69.5
t-15 90.5zM299 360q62 0 101.5 40t39.5 105q0 66 -39 105.5t-102 39.5q-30 0 -55.5 -10.5t-44 -29.5t-29 -45.5t-10.5 -59.5t10.5 -59.5t29 -45.5t44 -29.5t55.5 -10.5z" />
    <glyph glyph-name="hyphen" unicode="-" 
d="M100 370h400v-80h-400v80z" />
    <glyph glyph-name="plus" unicode="+" 
d="M65 370h191v195h88v-195h191v-80h-191v-195h-88v195h-191v80z" />
    <glyph glyph-name="asterisk" unicode="*" 
d="M34 387l30 83l89 -32q16 -6 32.5 -14.5t33 -18t31 -19.5t26.5 -19l5 4q-8 28 -16.5 68.5t-8.5 75.5v95h88v-95q0 -35 -9 -75.5t-17 -68.5l5 -4q12 9 26.5 19t31 19.5t33 18t32.5 14.5l89 32l30 -83l-89 -32q-31 -11 -69 -17t-67 -8l-4 -8q23 -18 51.5 -45.5t47.5 -54.5
l55 -78l-72 -50l-55 78q-19 27 -35 64t-25 64h-7q-10 -27 -26 -63.5t-35 -64.5l-54 -78l-72 50l54 78q20 28 49 55.5t51 45.5l-3 7q-29 2 -67.5 8t-69.5 17z" />
    <glyph glyph-name="slash" unicode="/" 
d="M430 830h95l-355 -940h-95z" />
    <glyph glyph-name="backslash" unicode="\" 
d="M525 -110h-95l-355 940h95z" />
    <glyph glyph-name="colon" unicode=":" 
d="M218 71q0 36 23 58.5t59 22.5t59 -22.5t23 -58.5t-23 -58.5t-59 -22.5t-59 22.5t-23 58.5zM218 479q0 36 23 58.5t59 22.5t59 -22.5t23 -58.5t-23 -58.5t-59 -22.5t-59 22.5t-23 58.5z" />
    <glyph glyph-name="semicolon" unicode=";" 
d="M165 -160l80 311h130l-130 -311h-80zM300 560q37 0 59.5 -23t22.5 -58q0 -37 -23 -59t-59 -22q-37 0 -59.5 22.5t-22.5 58.5q0 35 22.5 58t59.5 23z" />
    <glyph glyph-name="less" unicode="&#x3c;" 
d="M85 380l430 215v-90l-310 -151q-12 -6 -22 -10t-17 -6q-9 -3 -16 -4v-7q7 -1 16 -3q7 -2 17 -6t22 -10l310 -154v-89l-430 215v100z" />
    <glyph glyph-name="equal" unicode="=" 
d="M80 250h440v-80h-440v80zM520 490v-80h-440v80h440z" />
    <glyph glyph-name="exclam" unicode="!" 
d="M353 720v-120l-21 -385h-64l-21 385v120h106zM225 54q0 27 18 44t47 17h20q29 0 47 -17t18 -44t-18 -43t-47 -16h-20q-29 0 -47 15.5t-18 43.5z" />
    <glyph glyph-name="question" unicode="?" 
d="M135 720h125q53 0 95.5 -14.5t72.5 -42t46 -66.5t16 -87q0 -43 -13.5 -78.5t-38.5 -62t-60 -42t-77 -17.5v-105h-90v180h50q65 0 102 33t37 92t-37 92t-103 33h-125v85zM180 54q0 27 18 44t47 17h20q29 0 47 -17t18 -44t-18 -43t-47 -16h-20q-29 0 -47 15.5t-18 43.5z
" />
    <glyph glyph-name="quotesingle" unicode="'" 
d="M246 730h97v-150l-11 -150h-74l-12 150v150z" />
    <glyph glyph-name="quotedbl" unicode="&#x22;" 
d="M353 730h97v-150l-11 -150h-74l-12 150v150zM150 580v150h97v-150l-11 -150h-74z" />
    <glyph glyph-name="numbersign" unicode="#" 
d="M132 265l36 190h-99v65h111l37 200h70l-37 -200h160l37 200h70l-37 -200h85v-65h-97l-36 -190h98v-65h-110l-37 -200h-70l37 200h-160l-37 -200h-70l37 200h-85v65h97zM202 265h160l36 190h-160z" />
    <glyph glyph-name="percent" unicode="%" 
d="M35 525v65q0 63 33.5 99t96.5 36t96.5 -36t33.5 -99v-65q0 -63 -33.5 -99t-96.5 -36t-96.5 36t-33.5 99zM305 130v65q0 63 33.5 99t96.5 36t96.5 -36t33.5 -99v-65q0 -63 -33.5 -99t-96.5 -36t-96.5 36t-33.5 99zM30 211l540 358v-63l-540 -358v63zM365 195v-65
q0 -37 17.5 -58.5t52.5 -21.5q38 0 54 23.5t16 56.5v65q0 37 -17.5 58.5t-52.5 21.5t-52.5 -21.5t-17.5 -58.5zM95 525q0 -37 17.5 -58.5t52.5 -21.5q38 0 54 23.5t16 56.5v65q0 37 -17.5 58.5t-52.5 21.5t-52.5 -21.5t-17.5 -58.5v-65z" />
    <glyph glyph-name="braceleft" unicode="{" 
d="M85 319v80h110q32 0 52.5 5.5t31.5 17.5t14.5 31t1.5 46l-10 165q-2 39 10 70t36 52.5t59.5 32.5t79.5 11h45v-80h-45q-48 0 -72.5 -21.5t-22.5 -64.5l10 -165q2 -27 -5 -51.5t-21.5 -43t-36.5 -29.5t-52 -12v-5q30 -1 52.5 -12.5t36.5 -30.5t21 -44t5 -52l-10 -163
q-2 -43 22.5 -64.5t72.5 -21.5h45v-80h-45q-44 0 -79.5 11t-59.5 32.5t-36 52.5t-10 70l10 163q2 27 -1.5 46t-14.5 31t-31 17.5t-53 5.5h-110z" />
    <glyph glyph-name="bar" unicode="|" 
d="M255 830h90v-940h-90v940z" />
    <glyph glyph-name="bracketleft" unicode="[" 
d="M210 -110v940h245v-80h-155v-780h155v-80h-245z" />
    <glyph glyph-name="underscore" unicode="_" 
d="M60 -25h480v-75h-480v75z" />
    <glyph glyph-name="parenright" unicode=")" 
d="M115 845q69 -17 124.5 -53t94.5 -86.5t60 -114t21 -136.5v-190q0 -75 -20.5 -138.5t-59 -113.5t-94 -85t-126.5 -53v89q48 11 87 38t66.5 66t42 89t14.5 108v190q0 59 -15 109.5t-42 90.5t-66 67t-87 38v85z" />
    <glyph glyph-name="d" unicode="d" 
d="M80 345q0 50 13.5 90t37.5 67.5t58 42.5t76 15q61 0 101 -27.5t53 -77.5h8l-2 34q-2 15 -2.5 31.5t-0.5 29.5v170h90v-720h-85v95h-8q-13 -50 -53 -77.5t-101 -27.5q-42 0 -76 15t-58 42.5t-37.5 67.5t-13.5 90v140zM170 345v-140q0 -63 34.5 -100t94.5 -37q56 0 89.5 37
t33.5 100v140q0 63 -33.5 100t-89.5 37q-61 0 -95 -36t-34 -101z" />
    <glyph glyph-name="q" unicode="q" 
d="M88 355q0 46 13.5 84t37.5 65t58 41.5t76 14.5q61 0 101 -27.5t53 -77.5h8v95h85v-720h-90v170q0 14 0.5 30t2.5 31l2 34h-8q-13 -50 -53 -77.5t-101 -27.5q-42 0 -76 14.5t-58 41.5t-37.5 65t-13.5 84v160zM178 205q0 -63 34.5 -100t94.5 -37q56 0 89.5 37t33.5 100v140
q0 63 -33.5 100t-89.5 37q-61 0 -95 -36t-34 -101v-140z" />
    <glyph glyph-name="u" unicode="u" 
d="M180 550v-356q0 -125 119 -125q121 0 121 125v356h90v-356q0 -98 -54.5 -151t-156.5 -53q-100 0 -154.5 53.5t-54.5 150.5v356h90z" />
    <glyph glyph-name="emdash" unicode="&#x2014;" 
d="M15 370h570v-80h-570v80z" />
    <glyph glyph-name="asciicircum" unicode="^" 
d="M259 720h84l177 -390h-82l-113 260q-5 14 -9 26t-7 22q-2 12 -4 22h-6q-2 -10 -5 -22q-2 -10 -6 -22t-10 -26l-115 -260h-83z" />
    <glyph glyph-name="divide" unicode="&#xf7;" 
d="M100 370h400v-75h-400v75zM290 580h20q29 0 47 -17t18 -44t-18 -43t-47 -16h-20q-29 0 -47 15.5t-18 43.5q0 27 18 44t47 17zM290 205h20q29 0 47 -17t18 -44t-18 -43t-47 -16h-20q-29 0 -47 15.5t-18 43.5q0 27 18 44t47 17z" />
    <glyph glyph-name="multiply" unicode="&#xd7;" 
d="M102 188l141 141l-141 142l51 51l142 -141l145 145l51 -52l-145 -145l142 -141l-52 -52l-141 142l-142 -142z" />
    <glyph glyph-name="plusminus" unicode="&#xb1;" 
d="M65 316v80h191v195h88v-195h191v-80h-191v-195h-88v195h-191zM530 70v-70h-460v70h460z" />
    <glyph glyph-name="minus" unicode="&#x2212;" 
d="M100 370h400v-80h-400v80z" />
    <glyph glyph-name="at" unicode="@" 
d="M45 125v315q0 68 18.5 121.5t53.5 91t85 57.5t113 20q115 0 180 -56t65 -164v-435h-71l-1 98q-24 -108 -118 -108q-63 0 -96.5 45.5t-33.5 129.5v80q0 83 34 129t96 46q43 0 73.5 -25.5t40.5 -67.5q-1 13 -2.5 37t-1.5 51v20q0 76 -43.5 113t-121.5 37
q-91 0 -140.5 -57.5t-49.5 -162.5v-315q0 -48 14.5 -88t40.5 -68t63 -43.5t82 -15.5h70v-75h-70q-64 0 -116 20.5t-88.5 58t-56 91.5t-19.5 120zM320 320v-80q0 -54 18.5 -83t52.5 -29q89 0 89 122v61q0 121 -89 121q-34 0 -52.5 -29t-18.5 -83z" />
    <glyph glyph-name="ampersand" unicode="&#x26;" 
d="M55 280q0 53 27.5 87.5t78.5 48.5l-7 10q-29 42 -41.5 74.5t-12.5 64.5q0 36 12.5 66.5t36 52.5t56.5 34t75 12q89 0 139 -46.5t50 -124.5h-90q0 41 -26.5 67t-72.5 26q-42 0 -66 -25.5t-24 -63.5q0 -44 35 -93l172 -237l71 127h94l-113 -199l117 -161h-99l-64 87
q-36 -48 -80 -72.5t-93 -24.5q-82 0 -128.5 43.5t-46.5 121.5v125zM235 70q34 0 65.5 22.5t53.5 61.5l-155 211q-54 -17 -54 -85v-125q0 -41 23.5 -63t66.5 -22z" />
    <glyph glyph-name="bracketright" unicode="]" 
d="M150 -110v80h155v780h-155v80h245v-940h-245z" />
    <glyph glyph-name="dollar" unicode="$" 
d="M162 185q0 -48 30.5 -78t82.5 -37v264l-23 8q-80 28 -120.5 78.5t-40.5 120.5q0 80 49 130t135 58v121h60v-121q84 -8 134 -59t52 -131h-92q0 44 -25.5 73t-68.5 37v-241l38 -14q76 -28 116.5 -82.5t40.5 -128.5q0 -81 -52 -132t-143 -59v-132h-60v131q-94 7 -148.5 58
t-56.5 136h92zM335 312v-242q51 8 79 36t28 74t-26 79.5t-75 50.5zM179 547q0 -80 96 -117v220q-45 -7 -70.5 -34t-25.5 -69z" />
    <glyph glyph-name="uni000A" unicode="&#xa;" 
 />
    <glyph glyph-name="endash" unicode="&#x2013;" 
d="M70 370h460v-80h-460v80z" />
    <glyph glyph-name="periodcentered" unicode="&#xb7;" 
d="M214 349q0 39 23.5 62.5t62.5 23.5t62.5 -23.5t23.5 -62.5q0 -40 -23.5 -64.5t-62.5 -24.5t-62.5 24.5t-23.5 64.5z" />
    <glyph glyph-name="hyphen_hyphen_greater.liga" 
d="M-1100 370h1506q-4 5 -8 9.5t-9 10.5l-186 235h106l231 -295l-232 -295h-105l190 239q4 5 7 8.5t6 7.5h-1506v80z" />
    <glyph glyph-name="slash_slash.liga" 
d="M355 830h95l-355 -940h-95zM-95 830h95l-355 -940h-95z" />
    <glyph glyph-name="slash_asterisk.liga" 
d="M-170 830h95l-355 -940h-95zM-17 517l30 83l89 -32q16 -6 32.5 -14.5t33 -18t31 -19.5t26.5 -19l5 4q-8 28 -16.5 68.5t-8.5 75.5v95h88v-95q0 -35 -9 -75.5t-17 -68.5l5 -4q12 9 26.5 19t31 19.5t33 18t32.5 14.5l89 32l30 -83l-89 -32q-31 -11 -69 -17t-67 -8l-4 -8
q23 -18 51.5 -45.5t47.5 -54.5l55 -78l-72 -50l-55 78q-19 27 -35 64t-25 64h-7q-10 -27 -26 -63.5t-35 -64.5l-54 -78l-72 50l54 78q20 28 49 55.5t51 45.5l-3 7q-29 2 -67.5 8t-69.5 17z" />
    <glyph glyph-name="asterisk_slash.liga" 
d="M-515 307l30 83l89 -32q16 -6 32.5 -14.5t33 -18t31 -19.5t26.5 -19l5 4q-8 28 -16.5 68.5t-8.5 75.5v95h88v-95q0 -35 -9 -75.5t-17 -68.5l5 -4q12 9 26.5 19t31 19.5t33 18t32.5 14.5l89 32l30 -83l-89 -32q-31 -11 -69 -17t-67 -8l-4 -8q23 -18 51.5 -45.5t47.5 -54.5
l55 -78l-72 -50l-55 78q-19 27 -35 64t-25 64h-7q-10 -27 -26 -63.5t-35 -64.5l-54 -78l-72 50l54 78q20 28 49 55.5t51 45.5l-3 7q-29 2 -67.5 8t-69.5 17zM430 830h95l-355 -940h-95z" />
    <glyph glyph-name="less_exclam_hyphen_hyphen.liga" 
d="M-900 370h1400v-80h-1400v80zM-1740 330l231 295h106l-186 -236q-5 -5 -8.5 -9.5t-7.5 -9.5h365v-80h-366q3 -4 6.5 -8t7.5 -9l189 -238h-105zM-1123 720h106v-120l-21 -385h-64l-21 385v120zM-1080 115h20q29 0 47 -17t18 -44t-18 -43t-47 -16h-20q-29 0 -47 15.5
t-18 43.5q0 27 18 44t47 17z" />
    <glyph glyph-name="colon_equal.liga" 
d="M-80 250h550v-80h-550v80zM-80 490h550v-80h-550v80zM-350 560q36 0 58 -22t22 -58q0 -37 -22 -58.5t-58 -21.5t-58 21.5t-22 58.5q0 36 22 58t58 22zM-430 181q0 36 22 57.5t58 21.5t58 -21.5t22 -57.5q0 -37 -22 -59t-58 -22t-58 22t-22 59z" />
    <glyph glyph-name="hyphen_greater_greater.liga" 
d="M116 370q-4 5 -8 9.5t-9 10.5l-186 235h106l231 -295l-232 -295h-105l190 239q4 5 7 8.5t6 7.5h-1216v80h1216zM203 625h106l231 -295l-232 -295h-105l190 239q24 30 39 43q8 7 14 11v3q-6 4 -14 12q-8 7 -18.5 18.5t-24.5 28.5z" />
    <glyph glyph-name="less_less_hyphen.liga" 
d="M-619 625h106l-186 -236q-5 -5 -8.5 -9.5t-7.5 -9.5h1215v-75h-1221q8 -8 19 -22l189 -238h-105l-232 295zM-909 625h106l-186 -236q-14 -17 -24.5 -28.5t-17.5 -18.5q-9 -8 -15 -12v-3q6 -4 14 -11q7 -6 17 -16.5t23 -26.5l189 -238h-105l-232 295z" />
    <glyph glyph-name="hyphen_greater.liga" 
d="M-500 370h906q-4 5 -8 9.5t-9 10.5l-186 235h106l231 -295l-232 -295h-105l190 239q4 5 7 8.5t6 7.5h-906v80z" />
    <glyph glyph-name="less_hyphen.liga" 
d="M-309 625h106l-186 -236q-5 -5 -8.5 -9.5t-7.5 -9.5h905v-80h-906q3 -4 6.5 -8t7.5 -9l189 -238h-105l-232 295z" />
    <glyph glyph-name="less_equal_greater.liga" 
d="M-909 625h106l-106 -135h1219l-107 135h106l231 -295l-232 -295h-105l107 135h-1220l107 -135h-105l-232 295zM-1046 330v-3q6 -4 15 -11q7 -6 16.5 -16t22.5 -27l18 -23h1348l19 24q24 30 39 43q8 7 14 11v3q-6 4 -14 12q-8 7 -18.5 18.5t-24.5 28.5l-16 20h-1345
l-17 -21q-14 -17 -24.5 -28.5t-18.5 -18.5q-8 -8 -14 -12z" />
    <glyph glyph-name="equal_equal.liga" 
d="M-520 410v80h1040v-80h-1040zM520 250v-80h-1040v80h1040z" />
    <glyph glyph-name="exclam_equal.liga" 
d="M-520 250h422l103 160h-525v80h577l113 175h90l-113 -175h373v-80h-425l-103 -160h528v-80h-580l-110 -170h-90l110 170h-370v80z" />
    <glyph glyph-name="less_equal.liga" 
d="M-305 375v100l610 225v-90l-490 -168q-12 -4 -22 -6.5l-18 -4.5q-8 -1 -15 -2v-7q7 0 15 -2q8 -1 18 -3t22 -7l490 -171v-89zM-305 240l610 -226v-88l-610 226v88z" />
    <glyph glyph-name="greater_equal.liga" 
d="M-305 612v88l610 -225v-100l-610 -225v90l490 168q12 5 22 7t18 4q8 1 15 2v7q-7 1 -15 2l-18 4.5t-22 6.5zM-305 -74v90l610 225v-90z" />
    <glyph glyph-name="equal_colon_equal.liga" 
d="M-575 490v-80h-545v80h545zM-1120 170v80h545v-80h-545zM-25 170v80h545v-80h-545zM-25 490h545v-80h-545v80zM-300 560q36 0 58 -22t22 -58q0 -37 -22 -58.5t-58 -21.5t-58 21.5t-22 58.5q0 36 22 58t58 22zM-300 260q36 0 58 -21.5t22 -58.5q0 -36 -22 -58t-58 -22
t-58 22t-22 58q0 37 22 58.5t58 21.5z" />
    <glyph glyph-name="exclam_equal_equal.liga" 
d="M-1120 550h918l91 140h84l-90 -140h637v-70h-683l-74 -115h757v-70h-802l-75 -115h877v-70h-922l-87 -135h-85l87 135h-633v70h679l74 115h-753v70h799l74 115h-873v70z" />
    <glyph glyph-name="dotlessi" unicode="&#x131;" 
d="M90 82h205v386h-180v82h270v-468h160v-82h-455v82z" />
    <glyph glyph-name="ampersand_ampersand.liga" 
d="M15 280q0 53 27.5 87.5t78.5 48.5l-7 10q-29 42 -41.5 74.5t-12.5 64.5q0 36 12.5 66.5t36 52.5t56.5 34t75 12q89 0 139 -46.5t50 -124.5h-90q0 41 -26.5 67t-72.5 26q-42 0 -66 -25.5t-24 -63.5q0 -44 35 -93l172 -237l71 127h94l-113 -199l117 -161h-99l-64 87
q-36 -48 -80 -72.5t-93 -24.5q-82 0 -128.5 43.5t-46.5 121.5v125zM-495 280q0 53 27.5 87.5t78.5 48.5l-7 10q-29 42 -41.5 74.5t-12.5 64.5q0 36 12.5 66.5t36 52.5t56.5 34t75 12q89 0 139 -46.5t50 -124.5h-90q0 41 -26.5 67t-72.5 26q-42 0 -66 -25.5t-24 -63.5
q0 -44 35 -93l341 -470h-99l-64 87q-36 -48 -80 -72.5t-93 -24.5q-82 0 -128.5 43.5t-46.5 121.5v125zM195 70q34 0 65.5 22.5t53.5 61.5l-155 211q-54 -17 -54 -85v-125q0 -41 23.5 -63t66.5 -22zM-405 280v-125q0 -41 23.5 -63t66.5 -22q34 0 65.5 22.5t53.5 61.5
l-155 211q-54 -17 -54 -85z" />
    <glyph glyph-name="bar_bar.liga" 
d="M195 830h90v-940h-90v940zM-285 830h90v-940h-90v940z" />
    <glyph glyph-name="period_period_period.liga" 
d="M-885 79q0 39 23.5 62.5t62.5 23.5t62.5 -23.5t23.5 -62.5q0 -40 -23.5 -64.5t-62.5 -24.5t-62.5 24.5t-23.5 64.5zM-386 79q0 39 23.5 62.5t62.5 23.5t62.5 -23.5t23.5 -62.5q0 -40 -23.5 -64.5t-62.5 -24.5t-62.5 24.5t-23.5 64.5zM113 79q0 39 23.5 62.5t62.5 23.5
t62.5 -23.5t23.5 -62.5q0 -40 -23.5 -64.5t-62.5 -24.5t-62.5 24.5t-23.5 64.5z" />
    <glyph glyph-name="period_period.liga" 
d="M-305 79q0 39 23.5 62.5t62.5 23.5t62.5 -23.5t23.5 -62.5q0 -40 -23.5 -64.5t-62.5 -24.5t-62.5 24.5t-23.5 64.5zM133 79q0 39 23.5 62.5t62.5 23.5t62.5 -23.5t23.5 -62.5q0 -40 -23.5 -64.5t-62.5 -24.5t-62.5 24.5t-23.5 64.5z" />
    <glyph glyph-name="Euro" unicode="&#x20ac;" 
d="M345 470v-60h-159v-100h159v-60h-159v-45q0 -63 34.5 -99t95.5 -36q55 0 89.5 30.5t40.5 84.5h90q-11 -92 -68.5 -143.5t-151.5 -51.5q-51 0 -91.5 15t-69 43t-44 68t-15.5 89v45h-71v60h71v100h-71v60h71v45q0 49 15.5 89t44 68t69 43t91.5 15q94 0 151.5 -51.5
t68.5 -143.5h-90q-6 54 -40.5 84.5t-89.5 30.5q-60 0 -95 -36t-35 -99v-45h159z" />
    <glyph glyph-name="bullet" unicode="&#x2022;" 
d="M175 355q0 26 9.5 49t26.5 40t40 26.5t49 9.5t49 -9.5t40 -26.5t26.5 -40t9.5 -49t-9.5 -49t-26.5 -40t-40 -26.5t-49 -9.5t-49 9.5t-40 26.5t-26.5 40t-9.5 49z" />
    <glyph glyph-name="brokenbar" unicode="&#xa6;" 
d="M255 830h90v-380h-90v380zM345 270v-380h-90v380h90z" />
    <glyph glyph-name="guillemotright" unicode="&#xbb;" 
d="M263 520h106l201 -240l-202 -240h-105l177 204q8 9 14 15.5t11 11.5q6 5 10 8v2q-4 3 -10 8q-5 5 -11 11.5t-14 15.5zM30 40l177 204q8 9 14 15.5t11 11.5q6 5 10 8v2q-4 3 -10 8q-5 5 -11 11.5t-14 15.5l-177 204h106l201 -240l-202 -240h-105z" />
    <glyph glyph-name="guillemotleft" unicode="&#xab;" 
d="M464 520h106l-177 -204q-8 -9 -14 -15.5t-11 -11.5q-6 -5 -10 -8v-2q4 -3 10 -8q5 -5 11 -11.5t14 -15.5l177 -204h-105l-202 240zM30 280l201 240h106l-177 -204q-8 -9 -14 -15.5t-11 -11.5q-6 -5 -10 -8v-2q4 -3 10 -8q5 -5 11 -11.5t14 -15.5l177 -204h-105z" />
    <glyph glyph-name="guilsinglleft" unicode="&#x2039;" 
d="M348 520h106l-177 -204q-8 -9 -14 -15.5t-11 -11.5q-6 -5 -10 -8v-2q4 -3 10 -8q5 -5 11 -11.5t14 -15.5l177 -204h-105l-202 240z" />
    <glyph glyph-name="guilsinglright" unicode="&#x203a;" 
d="M146 40l177 204q8 9 14 15.5t11 11.5q6 5 10 8v2q-4 3 -10 8q-5 5 -11 11.5t-14 15.5l-177 204h106l201 -240l-202 -240h-105z" />
    <glyph glyph-name="quoteleft" unicode="&#x2018;" 
d="M225 464l130 311h80l-80 -311h-130z" />
    <glyph glyph-name="quoteright" unicode="&#x2019;" 
d="M375 776l-130 -311h-80l80 311h130z" />
    <glyph glyph-name="quotedblleft" unicode="&#x201c;" 
d="M485 775h80l-80 -311h-130zM80 464l130 311h80l-80 -311h-130z" />
    <glyph glyph-name="quotedblright" unicode="&#x201d;" 
d="M310 465l80 311h130l-130 -311h-80zM115 776h130l-130 -311h-80z" />
    <glyph glyph-name="quotesinglbase" unicode="&#x201a;" 
d="M375 151l-130 -311h-80l80 311h130z" />
    <glyph glyph-name="quotedblbase" unicode="&#x201e;" 
d="M310 -160l80 311h130l-130 -311h-80zM115 151h130l-130 -311h-80z" />
    <glyph glyph-name="tilde" unicode="&#x2dc;" 
d="M105 675q0 58 29 89t81 31q34 0 56 -12.5t40 -27.5t35 -27.5t39 -12.5q21 0 33 14.5t12 40.5v20h65v-20q0 -58 -29 -89t-81 -31q-34 0 -56 12.5t-40 27.5t-34.5 27.5t-39.5 12.5q-21 0 -33 -14.5t-12 -40.5v-20h-65v20z" />
    <glyph glyph-name="macron" unicode="&#xaf;" 
d="M170 770h260v-75h-260v75z" />
    <glyph glyph-name="asciitilde" unicode="~" 
d="M65 255v70q0 59 35.5 94.5t94.5 35.5q31 0 54 -9.5t40.5 -24t31 -31.5t26 -31.5t26 -24t30.5 -9.5q47 0 47 55v70h85v-70q0 -58 -35.5 -94t-94.5 -36q-31 0 -54 9.5t-40.5 24t-31 31.5t-26 31.5t-26 24t-30.5 9.5q-47 0 -47 -55v-70h-85z" />
    <glyph glyph-name="breve" unicode="&#x2d8;" 
d="M130 790h75q0 -34 26 -52t68 -18t69 18t27 52h75q0 -30 -13 -55t-36 -43t-54 -27.5t-67 -9.5t-67 9.5t-54 27.5t-36 43t-13 55z" />
    <glyph glyph-name="dotaccent" unicode="&#x2d9;" 
d="M280 805h20q29 0 47 -17t18 -44t-18 -43t-47 -16h-20q-29 0 -47 15.5t-18 43.5q0 27 18 44t47 17z" />
    <glyph glyph-name="ring" unicode="&#x2da;" 
d="M300 810q54 0 87 -27.5t33 -72.5t-33 -72.5t-87 -27.5t-87 27.5t-33 72.5t33 72.5t87 27.5zM240 710q0 -22 16.5 -35.5t42.5 -13.5q28 0 44.5 13.5t16.5 35.5q0 26 -16 38t-45 12q-26 0 -42.5 -13.5t-16.5 -36.5z" />
    <glyph glyph-name="grave" unicode="`" 
d="M170 796h110l110 -146h-90z" />
    <glyph glyph-name="acute" unicode="&#xb4;" 
d="M320 650h-90l110 146h110z" />
    <glyph glyph-name="hungarumlaut" unicode="&#x2dd;" 
d="M340.011 796h-109.993l-109.994 -146h89.9951zM540.011 796h-109.993l-109.994 -146h89.9951z" />
    <glyph glyph-name="agrave" unicode="&#xe0;" 
d="M63 160q0 39 13.5 70.5t39 53.5t61.5 34t81 12h164v45q0 51 -33.5 79.5t-96.5 28.5q-46 0 -78.5 -17t-43.5 -47h-90q14 65 71.5 103t142.5 38q102 0 160 -47.5t58 -132.5v-380h-82v105h-8q-13 -53 -61 -84t-117 -31q-83 0 -132 46t-49 124zM153 162q0 -46 29 -72t82 -26
q34 0 63 9t50 25.5t33 38.5t12 48v75h-162q-50 0 -78.5 -26t-28.5 -72zM170 796h110l110 -146h-90z" />
    <glyph glyph-name="ntilde" unicode="&#xf1;" 
d="M88 550h85v-95h8q13 51 52 78t99 27q43 0 76.5 -14.5t57 -40.5t35.5 -61.5t12 -77.5v-366h-90v351q0 63 -32 98t-89 35t-90.5 -37.5t-33.5 -101.5v-345h-90v550zM105 675q0 58 29 89t81 31q34 0 56 -12.5t40 -27.5t35 -27.5t39 -12.5q21 0 33 14.5t12 40.5v20h65v-20
q0 -58 -29 -89t-81 -31q-34 0 -56 12.5t-40 27.5t-34.5 27.5t-39.5 12.5q-21 0 -33 -14.5t-12 -40.5v-20h-65v20z" />
    <glyph glyph-name="Uhungarumlaut" unicode="&#x170;" 
d="M300 -10q-103 0 -159 56t-56 154v520h90v-520q0 -60 32 -95t93 -35q60 0 92.5 35t32.5 95v520h90v-520q0 -99 -56 -154.5t-159 -55.5zM340.011 956h-109.993l-109.994 -146h89.9951zM540.011 956h-109.993l-109.994 -146h89.9951z" />
    <glyph glyph-name="uhungarumlaut" unicode="&#x171;" 
d="M180 550v-356q0 -125 119 -125q121 0 121 125v356h90v-356q0 -98 -54.5 -151t-156.5 -53q-100 0 -154.5 53.5t-54.5 150.5v356h90zM340.011 796h-109.993l-109.994 -146h89.9951zM540.011 796h-109.993l-109.994 -146h89.9951z" />
    <glyph glyph-name="dieresis" unicode="&#xa8;" 
d="M400 787q27 0 43.5 -16.5t16.5 -43.5t-16.5 -43.5t-43.5 -16.5t-43.5 16.5t-16.5 43.5t16.5 43.5t43.5 16.5zM140 727q0 27 16.5 43.5t43.5 16.5t43.5 -16.5t16.5 -43.5t-16.5 -43.5t-43.5 -16.5t-43.5 16.5t-16.5 43.5z" />
    <glyph glyph-name="adieresis" unicode="&#xe4;" 
d="M63 160q0 39 13.5 70.5t39 53.5t61.5 34t81 12h164v45q0 51 -33.5 79.5t-96.5 28.5q-46 0 -78.5 -17t-43.5 -47h-90q14 65 71.5 103t142.5 38q102 0 160 -47.5t58 -132.5v-380h-82v105h-8q-13 -53 -61 -84t-117 -31q-83 0 -132 46t-49 124zM153 162q0 -46 29 -72t82 -26
q34 0 63 9t50 25.5t33 38.5t12 48v75h-162q-50 0 -78.5 -26t-28.5 -72zM400 787q27 0 43.5 -16.5t16.5 -43.5t-16.5 -43.5t-43.5 -16.5t-43.5 16.5t-16.5 43.5t16.5 43.5t43.5 16.5zM140 727q0 27 16.5 43.5t43.5 16.5t43.5 -16.5t16.5 -43.5t-16.5 -43.5t-43.5 -16.5
t-43.5 16.5t-16.5 43.5z" />
    <glyph glyph-name="circumflex" unicode="&#x2c6;" 
d="M265 795h70l130 -145h-78l-55 57q-9 10 -14.5 16t-9.5 10q-4 5 -6 8h-3q-2 -3 -6 -7q-4 -5 -9.5 -11t-14.5 -15l-56 -58h-78z" />
    <glyph glyph-name="caron" unicode="&#x2c7;" 
d="M135 795h78l56 -58q9 -9 14.5 -15t9.5 -10q4 -5 6 -8h3q2 3 6 8q4 4 9.5 10.5t14.5 15.5l55 57h78l-130 -145h-70z" />
    <glyph glyph-name="ccaron" unicode="&#x10d;" 
d="M308 -10q-51 0 -91.5 15t-69 43t-44 68t-15.5 89v140q0 49 15.5 89t44 68t69 43t91.5 15q91 0 149.5 -49.5t70.5 -135.5h-90q-7 48 -42.5 76.5t-87.5 28.5q-60 0 -95 -36t-35 -99v-140q0 -63 34.5 -99t95.5 -36q52 0 87.5 28.5t42.5 76.5h90q-13 -87 -71.5 -136
t-148.5 -49zM135 795h78l56 -58q9 -9 14.5 -15t9.5 -10q4 -5 6 -8h3q2 3 6 8q4 4 9.5 10.5t14.5 15.5l55 57h78l-130 -145h-70z" />
    <glyph glyph-name="cedilla" unicode="&#xb8;" 
d="M205 -190v55h70q22 0 35.5 8t13.5 22q0 17 -27 26.5t-78 9.5l35 95h57l-21 -61q34 -3 60 -12q23 -8 41.5 -24t18.5 -42q0 -35 -33 -56t-87 -21h-85z" />
    <glyph glyph-name="ogonek" unicode="&#x2db;" 
d="M270 10h75l-11 -9q-34 -28 -49 -50.5t-15 -43.5q0 -22 14.5 -34.5t40.5 -12.5h60v-60h-78q-56 0 -89 24.5t-33 65.5q0 29 18.5 58t66.5 62z" />
    <glyph glyph-name="Uogonek" unicode="&#x172;" 
d="M300 -10q-103 0 -159 56t-56 154v520h90v-520q0 -60 32 -95t93 -35q60 0 92.5 35t32.5 95v520h90v-520q0 -99 -56 -154.5t-159 -55.5zM345 10h75l-11 -9q-34 -28 -49 -50.5t-15 -43.5q0 -22 14.5 -34.5t40.5 -12.5h60v-60h-78q-56 0 -89 24.5t-33 65.5q0 29 18.5 58
t66.5 62z" />
    <glyph glyph-name="uogonek" unicode="&#x173;" 
d="M180 550v-356q0 -125 119 -125q121 0 121 125v356h90v-356q0 -98 -54.5 -151t-156.5 -53q-100 0 -154.5 53.5t-54.5 150.5v356h90zM335 10h75l-11 -9q-34 -28 -49 -50.5t-15 -43.5q0 -22 14.5 -34.5t40.5 -12.5h60v-60h-78q-56 0 -89 24.5t-33 65.5q0 29 18.5 58t66.5 62
z" />
    <glyph glyph-name="ccedilla" unicode="&#xe7;" 
d="M308 -10q-51 0 -91.5 15t-69 43t-44 68t-15.5 89v140q0 49 15.5 89t44 68t69 43t91.5 15q91 0 149.5 -49.5t70.5 -135.5h-90q-7 48 -42.5 76.5t-87.5 28.5q-60 0 -95 -36t-35 -99v-140q0 -63 34.5 -99t95.5 -36q52 0 87.5 28.5t42.5 76.5h90q-13 -87 -71.5 -136
t-148.5 -49zM205 -190v55h70q22 0 35.5 8t13.5 22q0 17 -27 26.5t-78 9.5l35 95h57l-21 -61q34 -3 60 -12q23 -8 41.5 -24t18.5 -42q0 -35 -33 -56t-87 -21h-85z" />
    <glyph glyph-name="Agrave" unicode="&#xc0;" 
d="M240 720h126l190 -720h-96l-50 203h-221l-51 -203h-94zM392 278l-70 285q-5 21 -9 38.5t-6 31.5q-2 15 -4 27h-4q-2 -12 -5 -27q-2 -14 -6 -31.5t-9 -38.5l-71 -285h184zM170 946h110l110 -146h-90z" />
    <glyph glyph-name="Aacute" unicode="&#xc1;" 
d="M240 720h126l190 -720h-96l-50 203h-221l-51 -203h-94zM392 278l-70 285q-5 21 -9 38.5t-6 31.5q-2 15 -4 27h-4q-2 -12 -5 -27q-2 -14 -6 -31.5t-9 -38.5l-71 -285h184zM320 810h-90l110 146h110z" />
    <glyph glyph-name="Acircumflex" unicode="&#xc2;" 
d="M240 720h126l190 -720h-96l-50 203h-221l-51 -203h-94zM392 278l-70 285q-5 21 -9 38.5t-6 31.5q-2 15 -4 27h-4q-2 -12 -5 -27q-2 -14 -6 -31.5t-9 -38.5l-71 -285h184zM265 955h70l130 -145h-78l-55 57q-9 10 -14.5 16t-9.5 10q-4 5 -6 8h-3q-2 -3 -6 -7
q-4 -5 -9.5 -11t-14.5 -15l-56 -58h-78z" />
    <glyph glyph-name="Atilde" unicode="&#xc3;" 
d="M240 720h126l190 -720h-96l-50 203h-221l-51 -203h-94zM392 278l-70 285q-5 21 -9 38.5t-6 31.5q-2 15 -4 27h-4q-2 -12 -5 -27q-2 -14 -6 -31.5t-9 -38.5l-71 -285h184zM105 835q0 58 29 89t81 31q34 0 56 -12.5t40 -27.5t35 -27.5t39 -12.5q21 0 33 14.5t12 40.5v20h65
v-20q0 -58 -29 -89t-81 -31q-34 0 -56 12.5t-40 27.5t-34.5 27.5t-39.5 12.5q-21 0 -33 -14.5t-12 -40.5v-20h-65v20z" />
    <glyph glyph-name="Adieresis" unicode="&#xc4;" 
d="M240 720h126l190 -720h-96l-50 203h-221l-51 -203h-94zM392 278l-70 285q-5 21 -9 38.5t-6 31.5q-2 15 -4 27h-4q-2 -12 -5 -27q-2 -14 -6 -31.5t-9 -38.5l-71 -285h184zM400 947q27 0 43.5 -16.5t16.5 -43.5t-16.5 -43.5t-43.5 -16.5t-43.5 16.5t-16.5 43.5t16.5 43.5
t43.5 16.5zM140 887q0 27 16.5 43.5t43.5 16.5t43.5 -16.5t16.5 -43.5t-16.5 -43.5t-43.5 -16.5t-43.5 16.5t-16.5 43.5z" />
    <glyph glyph-name="Aring" unicode="&#xc5;" 
d="M240 720h126l190 -720h-96l-50 203h-221l-51 -203h-94zM392 278l-70 285q-5 21 -9 38.5t-6 31.5q-2 15 -4 27h-4q-2 -12 -5 -27q-2 -14 -6 -31.5t-9 -38.5l-71 -285h184zM300 960q54 0 87 -27.5t33 -72.5t-33 -72.5t-87 -27.5t-87 27.5t-33 72.5t33 72.5t87 27.5z
M240 860q0 -22 16.5 -35.5t42.5 -13.5q28 0 44.5 13.5t16.5 35.5q0 26 -16 38t-45 12q-26 0 -42.5 -13.5t-16.5 -36.5z" />
    <glyph glyph-name="Ccedilla" unicode="&#xc7;" 
d="M306 -10q-51 0 -91.5 15t-69 43t-44 68t-15.5 89v310q0 49 15.5 89t44 68t69 43t91.5 15q94 0 151.5 -51.5t68.5 -143.5h-90q-6 54 -40.5 84.5t-89.5 30.5q-60 0 -95 -36t-35 -99v-310q0 -63 34.5 -99t95.5 -36q55 0 89.5 30.5t40.5 84.5h90q-11 -92 -68.5 -143.5
t-151.5 -51.5zM205 -190v55h70q22 0 35.5 8t13.5 22q0 17 -27 26.5t-78 9.5l35 95h57l-21 -61q34 -3 60 -12q23 -8 41.5 -24t18.5 -42q0 -35 -33 -56t-87 -21h-85z" />
    <glyph glyph-name="Egrave" unicode="&#xc8;" 
d="M95 0v720h425v-82h-335v-226h300v-82h-300v-248h335v-82h-425zM170 956h110l110 -146h-90z" />
    <glyph glyph-name="Eacute" unicode="&#xc9;" 
d="M95 0v720h425v-82h-335v-226h300v-82h-300v-248h335v-82h-425zM320 810h-90l110 146h110z" />
    <glyph glyph-name="Ecircumflex" unicode="&#xca;" 
d="M95 0v720h425v-82h-335v-226h300v-82h-300v-248h335v-82h-425zM265 955h70l130 -145h-78l-55 57q-9 10 -14.5 16t-9.5 10q-4 5 -6 8h-3q-2 -3 -6 -7q-4 -5 -9.5 -11t-14.5 -15l-56 -58h-78z" />
    <glyph glyph-name="Edieresis" unicode="&#xcb;" 
d="M95 0v720h425v-82h-335v-226h300v-82h-300v-248h335v-82h-425zM400 947q27 0 43.5 -16.5t16.5 -43.5t-16.5 -43.5t-43.5 -16.5t-43.5 16.5t-16.5 43.5t16.5 43.5t43.5 16.5zM140 887q0 27 16.5 43.5t43.5 16.5t43.5 -16.5t16.5 -43.5t-16.5 -43.5t-43.5 -16.5t-43.5 16.5
t-16.5 43.5z" />
    <glyph glyph-name="Igrave" unicode="&#xcc;" 
d="M254 79v562h-159v79h410v-79h-159v-562h159v-79h-410v79h159zM170 956h110l110 -146h-90z" />
    <glyph glyph-name="Iacute" unicode="&#xcd;" 
d="M254 79v562h-159v79h410v-79h-159v-562h159v-79h-410v79h159zM320 810h-90l110 146h110z" />
    <glyph glyph-name="Icircumflex" unicode="&#xce;" 
d="M254 79v562h-159v79h410v-79h-159v-562h159v-79h-410v79h159zM265 955h70l130 -145h-78l-55 57q-9 10 -14.5 16t-9.5 10q-4 5 -6 8h-3q-2 -3 -6 -7q-4 -5 -9.5 -11t-14.5 -15l-56 -58h-78z" />
    <glyph glyph-name="Idieresis" unicode="&#xcf;" 
d="M254 79v562h-159v79h410v-79h-159v-562h159v-79h-410v79h159zM400 947q27 0 43.5 -16.5t16.5 -43.5t-16.5 -43.5t-43.5 -16.5t-43.5 16.5t-16.5 43.5t16.5 43.5t43.5 16.5zM140 887q0 27 16.5 43.5t43.5 16.5t43.5 -16.5t16.5 -43.5t-16.5 -43.5t-43.5 -16.5t-43.5 16.5
t-16.5 43.5z" />
    <glyph glyph-name="Ograve" unicode="&#xd2;" 
d="M300 -10q-51 0 -91.5 15t-69 43t-44 68t-15.5 89v310q0 49 15.5 89t44 68t69 43t91.5 15t91.5 -15t69 -43t44 -68t15.5 -89v-310q0 -49 -15.5 -88.5t-44 -67.5t-69.5 -43.5t-91 -15.5zM170 205q0 -62 35 -98.5t95 -36.5t95 36.5t35 98.5v310q0 62 -35 98.5t-95 36.5
t-95 -36.5t-35 -98.5v-310zM170 956h110l110 -146h-90z" />
    <glyph glyph-name="Oacute" unicode="&#xd3;" 
d="M300 -10q-51 0 -91.5 15t-69 43t-44 68t-15.5 89v310q0 49 15.5 89t44 68t69 43t91.5 15t91.5 -15t69 -43t44 -68t15.5 -89v-310q0 -49 -15.5 -88.5t-44 -67.5t-69.5 -43.5t-91 -15.5zM170 205q0 -62 35 -98.5t95 -36.5t95 36.5t35 98.5v310q0 62 -35 98.5t-95 36.5
t-95 -36.5t-35 -98.5v-310zM320 810h-90l110 146h110z" />
    <glyph glyph-name="Ocircumflex" unicode="&#xd4;" 
d="M300 -10q-51 0 -91.5 15t-69 43t-44 68t-15.5 89v310q0 49 15.5 89t44 68t69 43t91.5 15t91.5 -15t69 -43t44 -68t15.5 -89v-310q0 -49 -15.5 -88.5t-44 -67.5t-69.5 -43.5t-91 -15.5zM170 205q0 -62 35 -98.5t95 -36.5t95 36.5t35 98.5v310q0 62 -35 98.5t-95 36.5
t-95 -36.5t-35 -98.5v-310zM265 955h70l130 -145h-78l-55 57q-9 10 -14.5 16t-9.5 10q-4 5 -6 8h-3q-2 -3 -6 -7q-4 -5 -9.5 -11t-14.5 -15l-56 -58h-78z" />
    <glyph glyph-name="Otilde" unicode="&#xd5;" 
d="M300 -10q-51 0 -91.5 15t-69 43t-44 68t-15.5 89v310q0 49 15.5 89t44 68t69 43t91.5 15t91.5 -15t69 -43t44 -68t15.5 -89v-310q0 -49 -15.5 -88.5t-44 -67.5t-69.5 -43.5t-91 -15.5zM170 205q0 -62 35 -98.5t95 -36.5t95 36.5t35 98.5v310q0 62 -35 98.5t-95 36.5
t-95 -36.5t-35 -98.5v-310zM105 835q0 58 29 89t81 31q34 0 56 -12.5t40 -27.5t35 -27.5t39 -12.5q21 0 33 14.5t12 40.5v20h65v-20q0 -58 -29 -89t-81 -31q-34 0 -56 12.5t-40 27.5t-34.5 27.5t-39.5 12.5q-21 0 -33 -14.5t-12 -40.5v-20h-65v20z" />
    <glyph glyph-name="Odieresis" unicode="&#xd6;" 
d="M300 -10q-51 0 -91.5 15t-69 43t-44 68t-15.5 89v310q0 49 15.5 89t44 68t69 43t91.5 15t91.5 -15t69 -43t44 -68t15.5 -89v-310q0 -49 -15.5 -88.5t-44 -67.5t-69.5 -43.5t-91 -15.5zM170 205q0 -62 35 -98.5t95 -36.5t95 36.5t35 98.5v310q0 62 -35 98.5t-95 36.5
t-95 -36.5t-35 -98.5v-310zM400 947q27 0 43.5 -16.5t16.5 -43.5t-16.5 -43.5t-43.5 -16.5t-43.5 16.5t-16.5 43.5t16.5 43.5t43.5 16.5zM140 887q0 27 16.5 43.5t43.5 16.5t43.5 -16.5t16.5 -43.5t-16.5 -43.5t-43.5 -16.5t-43.5 16.5t-16.5 43.5z" />
    <glyph glyph-name="Scaron" unicode="&#x160;" 
d="M70 185h95q0 -52 37.5 -83.5t99.5 -31.5q64 0 100 29.5t36 80.5q0 44 -26 77.5t-71 49.5l-85 30q-164 59 -164 203q0 88 57 139t156 51q48 0 87.5 -13.5t68 -38.5t44 -60.5t16.5 -78.5h-95q0 51 -33.5 81t-88.5 30q-56 0 -89 -27.5t-33 -74.5q0 -44 24 -73t78 -49l89 -32
q76 -27 116.5 -81.5t40.5 -129.5q0 -90 -61.5 -141.5t-168.5 -51.5q-51 0 -93 14t-72 39.5t-47 61.5t-18 80zM135 955h78l56 -58q9 -9 14.5 -15t9.5 -10q4 -5 6 -8h3q2 3 6 8q4 4 9.5 10.5t14.5 15.5l55 57h78l-130 -145h-70z" />
    <glyph glyph-name="Ugrave" unicode="&#xd9;" 
d="M300 -10q-103 0 -159 56t-56 154v520h90v-520q0 -60 32 -95t93 -35q60 0 92.5 35t32.5 95v520h90v-520q0 -99 -56 -154.5t-159 -55.5zM170 956h110l110 -146h-90z" />
    <glyph glyph-name="Uacute" unicode="&#xda;" 
d="M300 -10q-103 0 -159 56t-56 154v520h90v-520q0 -60 32 -95t93 -35q60 0 92.5 35t32.5 95v520h90v-520q0 -99 -56 -154.5t-159 -55.5zM320 810h-90l110 146h110z" />
    <glyph glyph-name="Ucircumflex" unicode="&#xdb;" 
d="M300 -10q-103 0 -159 56t-56 154v520h90v-520q0 -60 32 -95t93 -35q60 0 92.5 35t32.5 95v520h90v-520q0 -99 -56 -154.5t-159 -55.5zM265 955h70l130 -145h-78l-55 57q-9 10 -14.5 16t-9.5 10q-4 5 -6 8h-3q-2 -3 -6 -7q-4 -5 -9.5 -11t-14.5 -15l-56 -58h-78z" />
    <glyph glyph-name="Udieresis" unicode="&#xdc;" 
d="M300 -10q-103 0 -159 56t-56 154v520h90v-520q0 -60 32 -95t93 -35q60 0 92.5 35t32.5 95v520h90v-520q0 -99 -56 -154.5t-159 -55.5zM400 947q27 0 43.5 -16.5t16.5 -43.5t-16.5 -43.5t-43.5 -16.5t-43.5 16.5t-16.5 43.5t16.5 43.5t43.5 16.5zM140 887q0 27 16.5 43.5
t43.5 16.5t43.5 -16.5t16.5 -43.5t-16.5 -43.5t-43.5 -16.5t-43.5 16.5t-16.5 43.5z" />
    <glyph glyph-name="Ydieresis" unicode="&#x178;" 
d="M125 720l148 -317q7 -14 11.5 -28t8.5 -25q4 -13 7 -26h4q3 13 8 26q3 11 8 25t11 28l143 317h96l-225 -470v-250h-90v250l-225 470h95zM400 947q27 0 43.5 -16.5t16.5 -43.5t-16.5 -43.5t-43.5 -16.5t-43.5 16.5t-16.5 43.5t16.5 43.5t43.5 16.5zM140 887
q0 27 16.5 43.5t43.5 16.5t43.5 -16.5t16.5 -43.5t-16.5 -43.5t-43.5 -16.5t-43.5 16.5t-16.5 43.5z" />
    <glyph glyph-name="Yacute" unicode="&#xdd;" 
d="M125 720l148 -317q7 -14 11.5 -28t8.5 -25q4 -13 7 -26h4q3 13 8 26q3 11 8 25t11 28l143 317h96l-225 -470v-250h-90v250l-225 470h95zM320 810h-90l110 146h110z" />
    <glyph glyph-name="Zcaron" unicode="&#x17d;" 
d="M504 720v-81l-329 -562v-2l70 4h270v-79h-430v80l329 562v2l-72 -3h-249v79h411zM135 955h78l56 -58q9 -9 14.5 -15t9.5 -10q4 -5 6 -8h3q2 3 6 8q4 4 9.5 10.5t14.5 15.5l55 57h78l-130 -145h-70z" />
    <glyph glyph-name="aacute" unicode="&#xe1;" 
d="M63 160q0 39 13.5 70.5t39 53.5t61.5 34t81 12h164v45q0 51 -33.5 79.5t-96.5 28.5q-46 0 -78.5 -17t-43.5 -47h-90q14 65 71.5 103t142.5 38q102 0 160 -47.5t58 -132.5v-380h-82v105h-8q-13 -53 -61 -84t-117 -31q-83 0 -132 46t-49 124zM153 162q0 -46 29 -72t82 -26
q34 0 63 9t50 25.5t33 38.5t12 48v75h-162q-50 0 -78.5 -26t-28.5 -72zM320 650h-90l110 146h110z" />
    <glyph glyph-name="acircumflex" unicode="&#xe2;" 
d="M63 160q0 39 13.5 70.5t39 53.5t61.5 34t81 12h164v45q0 51 -33.5 79.5t-96.5 28.5q-46 0 -78.5 -17t-43.5 -47h-90q14 65 71.5 103t142.5 38q102 0 160 -47.5t58 -132.5v-380h-82v105h-8q-13 -53 -61 -84t-117 -31q-83 0 -132 46t-49 124zM153 162q0 -46 29 -72t82 -26
q34 0 63 9t50 25.5t33 38.5t12 48v75h-162q-50 0 -78.5 -26t-28.5 -72zM265 795h70l130 -145h-78l-55 57q-9 10 -14.5 16t-9.5 10q-4 5 -6 8h-3q-2 -3 -6 -7q-4 -5 -9.5 -11t-14.5 -15l-56 -58h-78z" />
    <glyph glyph-name="atilde" unicode="&#xe3;" 
d="M63 160q0 39 13.5 70.5t39 53.5t61.5 34t81 12h164v45q0 51 -33.5 79.5t-96.5 28.5q-46 0 -78.5 -17t-43.5 -47h-90q14 65 71.5 103t142.5 38q102 0 160 -47.5t58 -132.5v-380h-82v105h-8q-13 -53 -61 -84t-117 -31q-83 0 -132 46t-49 124zM153 162q0 -46 29 -72t82 -26
q34 0 63 9t50 25.5t33 38.5t12 48v75h-162q-50 0 -78.5 -26t-28.5 -72zM105 675q0 58 29 89t81 31q34 0 56 -12.5t40 -27.5t35 -27.5t39 -12.5q21 0 33 14.5t12 40.5v20h65v-20q0 -58 -29 -89t-81 -31q-34 0 -56 12.5t-40 27.5t-34.5 27.5t-39.5 12.5q-21 0 -33 -14.5
t-12 -40.5v-20h-65v20z" />
    <glyph glyph-name="aring" unicode="&#xe5;" 
d="M63 160q0 39 13.5 70.5t39 53.5t61.5 34t81 12h164v45q0 51 -33.5 79.5t-96.5 28.5q-46 0 -78.5 -17t-43.5 -47h-90q14 65 71.5 103t142.5 38q102 0 160 -47.5t58 -132.5v-380h-82v105h-8q-13 -53 -61 -84t-117 -31q-83 0 -132 46t-49 124zM153 162q0 -46 29 -72t82 -26
q34 0 63 9t50 25.5t33 38.5t12 48v75h-162q-50 0 -78.5 -26t-28.5 -72zM300 810q54 0 87 -27.5t33 -72.5t-33 -72.5t-87 -27.5t-87 27.5t-33 72.5t33 72.5t87 27.5zM240 710q0 -22 16.5 -35.5t42.5 -13.5q28 0 44.5 13.5t16.5 35.5q0 26 -16 38t-45 12q-26 0 -42.5 -13.5
t-16.5 -36.5z" />
    <glyph glyph-name="egrave" unicode="&#xe8;" 
d="M80 350q0 98 58.5 154t161.5 56t161.5 -56t58.5 -154v-101h-350v-44q0 -63 34.5 -99t95.5 -36q45 0 78 14t49 41h90q-17 -63 -75.5 -99t-141.5 -36q-103 0 -161.5 56t-58.5 154v150zM170 324h260v26q0 62 -34 96t-96 34t-96 -34t-34 -96v-26zM170 796h110l110 -146h-90z
" />
    <glyph glyph-name="eacute" unicode="&#xe9;" 
d="M80 350q0 98 58.5 154t161.5 56t161.5 -56t58.5 -154v-101h-350v-44q0 -63 34.5 -99t95.5 -36q45 0 78 14t49 41h90q-17 -63 -75.5 -99t-141.5 -36q-103 0 -161.5 56t-58.5 154v150zM170 324h260v26q0 62 -34 96t-96 34t-96 -34t-34 -96v-26zM320 650h-90l110 146h110z
" />
    <glyph glyph-name="ecircumflex" unicode="&#xea;" 
d="M80 350q0 98 58.5 154t161.5 56t161.5 -56t58.5 -154v-101h-350v-44q0 -63 34.5 -99t95.5 -36q45 0 78 14t49 41h90q-17 -63 -75.5 -99t-141.5 -36q-103 0 -161.5 56t-58.5 154v150zM170 324h260v26q0 62 -34 96t-96 34t-96 -34t-34 -96v-26zM265 795h70l130 -145h-78
l-55 57q-9 10 -14.5 16t-9.5 10q-4 5 -6 8h-3q-2 -3 -6 -7q-4 -5 -9.5 -11t-14.5 -15l-56 -58h-78z" />
    <glyph glyph-name="edieresis" unicode="&#xeb;" 
d="M80 350q0 98 58.5 154t161.5 56t161.5 -56t58.5 -154v-101h-350v-44q0 -63 34.5 -99t95.5 -36q45 0 78 14t49 41h90q-17 -63 -75.5 -99t-141.5 -36q-103 0 -161.5 56t-58.5 154v150zM170 324h260v26q0 62 -34 96t-96 34t-96 -34t-34 -96v-26zM400 787q27 0 43.5 -16.5
t16.5 -43.5t-16.5 -43.5t-43.5 -16.5t-43.5 16.5t-16.5 43.5t16.5 43.5t43.5 16.5zM140 727q0 27 16.5 43.5t43.5 16.5t43.5 -16.5t16.5 -43.5t-16.5 -43.5t-43.5 -16.5t-43.5 16.5t-16.5 43.5z" />
    <glyph glyph-name="igrave" unicode="&#xec;" 
d="M90 82h205v386h-180v82h270v-468h160v-82h-455v82zM170 796h110l110 -146h-90z" />
    <glyph glyph-name="iacute" unicode="&#xed;" 
d="M90 82h205v386h-180v82h270v-468h160v-82h-455v82zM320 650h-90l110 146h110z" />
    <glyph glyph-name="icircumflex" unicode="&#xee;" 
d="M90 82h205v386h-180v82h270v-468h160v-82h-455v82zM265 795h70l130 -145h-78l-55 57q-9 10 -14.5 16t-9.5 10q-4 5 -6 8h-3q-2 -3 -6 -7q-4 -5 -9.5 -11t-14.5 -15l-56 -58h-78z" />
    <glyph glyph-name="idieresis" unicode="&#xef;" 
d="M90 82h205v386h-180v82h270v-468h160v-82h-455v82zM400 787q27 0 43.5 -16.5t16.5 -43.5t-16.5 -43.5t-43.5 -16.5t-43.5 16.5t-16.5 43.5t16.5 43.5t43.5 16.5zM140 727q0 27 16.5 43.5t43.5 16.5t43.5 -16.5t16.5 -43.5t-16.5 -43.5t-43.5 -16.5t-43.5 16.5t-16.5 43.5
z" />
    <glyph glyph-name="ograve" unicode="&#xf2;" 
d="M300 -10q-51 0 -91.5 15t-69 43t-44 68t-15.5 89v140q0 50 15.5 89.5t44 67.5t69 43t91.5 15q102 0 161 -57t59 -157v-141q0 -100 -58.5 -157.5t-161.5 -57.5zM170 205q0 -63 34.5 -99t95.5 -36q60 0 95 36t35 99v140q0 63 -35 99t-95 36t-95 -36t-35 -99v-140zM170 796
h110l110 -146h-90z" />
    <glyph glyph-name="oacute" unicode="&#xf3;" 
d="M300 -10q-51 0 -91.5 15t-69 43t-44 68t-15.5 89v140q0 50 15.5 89.5t44 67.5t69 43t91.5 15q102 0 161 -57t59 -157v-141q0 -100 -58.5 -157.5t-161.5 -57.5zM170 205q0 -63 34.5 -99t95.5 -36q60 0 95 36t35 99v140q0 63 -35 99t-95 36t-95 -36t-35 -99v-140zM320 650
h-90l110 146h110z" />
    <glyph glyph-name="ocircumflex" unicode="&#xf4;" 
d="M300 -10q-51 0 -91.5 15t-69 43t-44 68t-15.5 89v140q0 50 15.5 89.5t44 67.5t69 43t91.5 15q102 0 161 -57t59 -157v-141q0 -100 -58.5 -157.5t-161.5 -57.5zM170 205q0 -63 34.5 -99t95.5 -36q60 0 95 36t35 99v140q0 63 -35 99t-95 36t-95 -36t-35 -99v-140zM265 795
h70l130 -145h-78l-55 57q-9 10 -14.5 16t-9.5 10q-4 5 -6 8h-3q-2 -3 -6 -7q-4 -5 -9.5 -11t-14.5 -15l-56 -58h-78z" />
    <glyph glyph-name="otilde" unicode="&#xf5;" 
d="M300 -10q-51 0 -91.5 15t-69 43t-44 68t-15.5 89v140q0 50 15.5 89.5t44 67.5t69 43t91.5 15q102 0 161 -57t59 -157v-141q0 -100 -58.5 -157.5t-161.5 -57.5zM170 205q0 -63 34.5 -99t95.5 -36q60 0 95 36t35 99v140q0 63 -35 99t-95 36t-95 -36t-35 -99v-140zM105 675
q0 58 29 89t81 31q34 0 56 -12.5t40 -27.5t35 -27.5t39 -12.5q21 0 33 14.5t12 40.5v20h65v-20q0 -58 -29 -89t-81 -31q-34 0 -56 12.5t-40 27.5t-34.5 27.5t-39.5 12.5q-21 0 -33 -14.5t-12 -40.5v-20h-65v20z" />
    <glyph glyph-name="odieresis" unicode="&#xf6;" 
d="M300 -10q-51 0 -91.5 15t-69 43t-44 68t-15.5 89v140q0 50 15.5 89.5t44 67.5t69 43t91.5 15q102 0 161 -57t59 -157v-141q0 -100 -58.5 -157.5t-161.5 -57.5zM170 205q0 -63 34.5 -99t95.5 -36q60 0 95 36t35 99v140q0 63 -35 99t-95 36t-95 -36t-35 -99v-140zM400 787
q27 0 43.5 -16.5t16.5 -43.5t-16.5 -43.5t-43.5 -16.5t-43.5 16.5t-16.5 43.5t16.5 43.5t43.5 16.5zM140 727q0 27 16.5 43.5t43.5 16.5t43.5 -16.5t16.5 -43.5t-16.5 -43.5t-43.5 -16.5t-43.5 16.5t-16.5 43.5z" />
    <glyph glyph-name="scaron" unicode="&#x161;" 
d="M77 135h95q6 -29 37 -47t76 -18h28q54 0 84 22.5t30 60.5q0 65 -92 79l-83 12q-81 12 -121 51t-40 109q0 74 52.5 115t146.5 41h28q40 0 74 -10t60 -28.5t42.5 -44t21.5 -56.5h-95q-6 26 -34 42.5t-69 16.5h-28q-51 0 -79.5 -20t-28.5 -60q0 -32 19.5 -48.5t63.5 -22.5
l83 -12q89 -13 129.5 -52t40.5 -111q0 -77 -53.5 -120.5t-151.5 -43.5h-28q-87 0 -143.5 39.5t-64.5 105.5zM135 795h78l56 -58q9 -9 14.5 -15t9.5 -10q4 -5 6 -8h3q2 3 6 8q4 4 9.5 10.5t14.5 15.5l55 57h78l-130 -145h-70z" />
    <glyph glyph-name="ugrave" unicode="&#xf9;" 
d="M180 550v-356q0 -125 119 -125q121 0 121 125v356h90v-356q0 -98 -54.5 -151t-156.5 -53q-100 0 -154.5 53.5t-54.5 150.5v356h90zM170 796h110l110 -146h-90z" />
    <glyph glyph-name="uacute" unicode="&#xfa;" 
d="M180 550v-356q0 -125 119 -125q121 0 121 125v356h90v-356q0 -98 -54.5 -151t-156.5 -53q-100 0 -154.5 53.5t-54.5 150.5v356h90zM320 650h-90l110 146h110z" />
    <glyph glyph-name="ucircumflex" unicode="&#xfb;" 
d="M180 550v-356q0 -125 119 -125q121 0 121 125v356h90v-356q0 -98 -54.5 -151t-156.5 -53q-100 0 -154.5 53.5t-54.5 150.5v356h90zM265 795h70l130 -145h-78l-55 57q-9 10 -14.5 16t-9.5 10q-4 5 -6 8h-3q-2 -3 -6 -7q-4 -5 -9.5 -11t-14.5 -15l-56 -58h-78z" />
    <glyph glyph-name="udieresis" unicode="&#xfc;" 
d="M180 550v-356q0 -125 119 -125q121 0 121 125v356h90v-356q0 -98 -54.5 -151t-156.5 -53q-100 0 -154.5 53.5t-54.5 150.5v356h90zM400 787q27 0 43.5 -16.5t16.5 -43.5t-16.5 -43.5t-43.5 -16.5t-43.5 16.5t-16.5 43.5t16.5 43.5t43.5 16.5zM140 727q0 27 16.5 43.5
t43.5 16.5t43.5 -16.5t16.5 -43.5t-16.5 -43.5t-43.5 -16.5t-43.5 16.5t-16.5 43.5z" />
    <glyph glyph-name="yacute" unicode="&#xfd;" 
d="M50 550h100l126 -316q9 -23 14.5 -43t8.5 -35q4 -19 5 -34h7q1 15 5 33q3 16 8 36t13 43l116 316h97l-268 -720h-96l77 210zM320 650h-90l110 146h110z" />
    <glyph glyph-name="ydieresis" unicode="&#xff;" 
d="M50 550h100l126 -316q9 -23 14.5 -43t8.5 -35q4 -19 5 -34h7q1 15 5 33q3 16 8 36t13 43l116 316h97l-268 -720h-96l77 210zM400 787q27 0 43.5 -16.5t16.5 -43.5t-16.5 -43.5t-43.5 -16.5t-43.5 16.5t-16.5 43.5t16.5 43.5t43.5 16.5zM140 727q0 27 16.5 43.5t43.5 16.5
t43.5 -16.5t16.5 -43.5t-16.5 -43.5t-43.5 -16.5t-43.5 16.5t-16.5 43.5z" />
    <glyph glyph-name="zcaron" unicode="&#x17e;" 
d="M80 100l335 367v6q-11 -1 -23 -1q-10 -1 -23.5 -1.5t-27.5 -0.5h-253v80h421v-101l-339 -367v-6q11 1 24 2q11 1 24 1.5t27 0.5h275v-80h-440v100zM135 795h78l56 -58q9 -9 14.5 -15t9.5 -10q4 -5 6 -8h3q2 3 6 8q4 4 9.5 10.5t14.5 15.5l55 57h78l-130 -145h-70z" />
    <glyph glyph-name="Ntilde" unicode="&#xd1;" 
d="M199 720l191 -483q8 -18 15 -41.5t12 -44.5q7 -25 13 -51h8l-1 10.5t-3 28.5t-3.5 41.5t-1.5 49.5v490h86v-720h-114l-188 484q-8 23 -16 47t-13 44q-7 23 -12 46h-8q2 -16 4 -36q1 -17 2 -40.5t1 -52.5v-492h-86v720h114zM105 835q0 58 29 89t81 31q34 0 56 -12.5
t40 -27.5t35 -27.5t39 -12.5q21 0 33 14.5t12 40.5v20h65v-20q0 -58 -29 -89t-81 -31q-34 0 -56 12.5t-40 27.5t-34.5 27.5t-39.5 12.5q-21 0 -33 -14.5t-12 -40.5v-20h-65v20z" />
    <glyph glyph-name="Dcroat" unicode="&#x110;" 
d="M88 395v325h201q52 0 94.5 -16t73 -44.5t47 -69t16.5 -89.5v-281q0 -49 -16.5 -90t-47 -69.5t-73 -44.5t-94.5 -16h-201v320h-53v75h53zM300 395v-75h-122v-240h111q63 0 101.5 38.5t38.5 101.5v281q0 63 -38.5 101t-101.5 38h-111v-245h122z" />
    <glyph glyph-name="Eth" unicode="&#xd0;" 
d="M88 395v325h201q52 0 94.5 -16t73 -44.5t47 -69t16.5 -89.5v-281q0 -49 -16.5 -90t-47 -69.5t-73 -44.5t-94.5 -16h-201v320h-53v75h53zM300 395v-75h-122v-240h111q63 0 101.5 38.5t38.5 101.5v281q0 63 -38.5 101t-101.5 38h-111v-245h122z" />
    <glyph glyph-name="thorn" unicode="&#xfe;" 
d="M173 720v-160q0 -14 -0.5 -32.5t-1.5 -34.5q-2 -19 -3 -38h8q13 50 53 77.5t101 27.5q42 0 76 -15t58 -42.5t37.5 -67.5t13.5 -90v-140q0 -50 -13.5 -90t-37.5 -67.5t-58 -42.5t-76 -15q-61 0 -101 27.5t-53 77.5h-8v-265h-85v890h90zM173 205q0 -63 33.5 -100t89.5 -37
q60 0 94.5 37t34.5 100v140q0 65 -34 101t-95 36q-56 0 -89.5 -37t-33.5 -100v-140z" />
    <glyph glyph-name="Oslash" unicode="&#xd8;" 
d="M35 -40l73 130q-28 50 -28 115v310q0 49 15.5 89t44 68t69 43t91.5 15q43 0 78 -10.5t63 -30.5l34 61h90l-70 -125q25 -48 25 -110v-310q0 -49 -15.5 -88.5t-44 -67.5t-69.5 -43.5t-91 -15.5q-81 0 -137 39l-38 -69h-90zM397 610q-34 40 -97 40q-60 0 -95 -36.5
t-35 -98.5v-310v-3zM206 106q36 -36 94 -36q60 0 95 36.5t35 98.5v303z" />
    <glyph glyph-name="oslash" unicode="&#xf8;" 
d="M35 -30l78 111q-16 25 -24.5 56t-8.5 68v140q0 50 15.5 89.5t44 67.5t69 43t91.5 15q74 0 127 -31l43 61h95l-81 -115q36 -53 36 -129v-141q0 -100 -58.5 -157.5t-161.5 -57.5q-79 0 -132 35l-39 -55h-94zM217 95q33 -25 83 -25q60 0 95 36t35 99v140q0 24 -6 45z
M378 458q-33 22 -78 22q-60 0 -95 -36t-35 -99v-140q0 -22 4 -37z" />
    <glyph glyph-name="lslash" unicode="&#x142;" 
d="M40 730h272v-277l158 107v-80l-158 -107v-213q0 -37 20 -57.5t55 -20.5h163v-82h-163q-77 0 -121 42.5t-44 117.5v152l-122 -82v80l122 82v256h-182v82z" />
    <glyph glyph-name="Lslash" unicode="&#x141;" 
d="M20 310l85 57v353h90v-292l195 132v-80l-195 -132v-266h340v-82h-430v287l-85 -57v80z" />
    <glyph glyph-name="Amacron" unicode="&#x100;" 
d="M240 720h126l190 -720h-96l-50 203h-221l-51 -203h-94zM392 278l-70 285q-5 21 -9 38.5t-6 31.5q-2 15 -4 27h-4q-2 -12 -5 -27q-2 -14 -6 -31.5t-9 -38.5l-71 -285h184zM170 930h260v-75h-260v75z" />
    <glyph glyph-name="amacron" unicode="&#x101;" 
d="M63 160q0 39 13.5 70.5t39 53.5t61.5 34t81 12h164v45q0 51 -33.5 79.5t-96.5 28.5q-46 0 -78.5 -17t-43.5 -47h-90q14 65 71.5 103t142.5 38q102 0 160 -47.5t58 -132.5v-380h-82v105h-8q-13 -53 -61 -84t-117 -31q-83 0 -132 46t-49 124zM153 162q0 -46 29 -72t82 -26
q34 0 63 9t50 25.5t33 38.5t12 48v75h-162q-50 0 -78.5 -26t-28.5 -72zM170 770h260v-75h-260v75z" />
    <glyph glyph-name="Abreve" unicode="&#x102;" 
d="M240 720h126l190 -720h-96l-50 203h-221l-51 -203h-94zM392 278l-70 285q-5 21 -9 38.5t-6 31.5q-2 15 -4 27h-4q-2 -12 -5 -27q-2 -14 -6 -31.5t-9 -38.5l-71 -285h184zM130 950h75q0 -34 26 -52t68 -18t69 18t27 52h75q0 -30 -13 -55t-36 -43t-54 -27.5t-67 -9.5
t-67 9.5t-54 27.5t-36 43t-13 55z" />
    <glyph glyph-name="abreve" unicode="&#x103;" 
d="M63 160q0 39 13.5 70.5t39 53.5t61.5 34t81 12h164v45q0 51 -33.5 79.5t-96.5 28.5q-46 0 -78.5 -17t-43.5 -47h-90q14 65 71.5 103t142.5 38q102 0 160 -47.5t58 -132.5v-380h-82v105h-8q-13 -53 -61 -84t-117 -31q-83 0 -132 46t-49 124zM153 162q0 -46 29 -72t82 -26
q34 0 63 9t50 25.5t33 38.5t12 48v75h-162q-50 0 -78.5 -26t-28.5 -72zM130 790h75q0 -34 26 -52t68 -18t69 18t27 52h75q0 -30 -13 -55t-36 -43t-54 -27.5t-67 -9.5t-67 9.5t-54 27.5t-36 43t-13 55z" />
    <glyph glyph-name="Aogonek" unicode="&#x104;" 
d="M240 720h126l190 -720h-96l-50 203h-221l-51 -203h-94zM392 278l-70 285q-5 21 -9 38.5t-6 31.5q-2 15 -4 27h-4q-2 -12 -5 -27q-2 -14 -6 -31.5t-9 -38.5l-71 -285h184zM465 10h75l-11 -9q-34 -28 -49 -50.5t-15 -43.5q0 -22 14.5 -34.5t40.5 -12.5h60v-60h-78
q-56 0 -89 24.5t-33 65.5q0 29 18.5 58t66.5 62z" />
    <glyph glyph-name="aogonek" unicode="&#x105;" 
d="M63 160q0 39 13.5 70.5t39 53.5t61.5 34t81 12h164v45q0 51 -33.5 79.5t-96.5 28.5q-46 0 -78.5 -17t-43.5 -47h-90q14 65 71.5 103t142.5 38q102 0 160 -47.5t58 -132.5v-380h-82v105h-8q-13 -53 -61 -84t-117 -31q-83 0 -132 46t-49 124zM153 162q0 -46 29 -72t82 -26
q34 0 63 9t50 25.5t33 38.5t12 48v75h-162q-50 0 -78.5 -26t-28.5 -72zM435 10h75l-11 -9q-34 -28 -49 -50.5t-15 -43.5q0 -22 14.5 -34.5t40.5 -12.5h60v-60h-78q-56 0 -89 24.5t-33 65.5q0 29 18.5 58t66.5 62z" />
    <glyph glyph-name="Cacute" unicode="&#x106;" 
d="M306 -10q-51 0 -91.5 15t-69 43t-44 68t-15.5 89v310q0 49 15.5 89t44 68t69 43t91.5 15q94 0 151.5 -51.5t68.5 -143.5h-90q-6 54 -40.5 84.5t-89.5 30.5q-60 0 -95 -36t-35 -99v-310q0 -63 34.5 -99t95.5 -36q55 0 89.5 30.5t40.5 84.5h90q-11 -92 -68.5 -143.5
t-151.5 -51.5zM320 810h-90l110 146h110z" />
    <glyph glyph-name="cacute" unicode="&#x107;" 
d="M308 -10q-51 0 -91.5 15t-69 43t-44 68t-15.5 89v140q0 49 15.5 89t44 68t69 43t91.5 15q91 0 149.5 -49.5t70.5 -135.5h-90q-7 48 -42.5 76.5t-87.5 28.5q-60 0 -95 -36t-35 -99v-140q0 -63 34.5 -99t95.5 -36q52 0 87.5 28.5t42.5 76.5h90q-13 -87 -71.5 -136
t-148.5 -49zM320 650h-90l110 146h110z" />
    <glyph glyph-name="Ccircumflex" unicode="&#x108;" 
d="M306 -10q-51 0 -91.5 15t-69 43t-44 68t-15.5 89v310q0 49 15.5 89t44 68t69 43t91.5 15q94 0 151.5 -51.5t68.5 -143.5h-90q-6 54 -40.5 84.5t-89.5 30.5q-60 0 -95 -36t-35 -99v-310q0 -63 34.5 -99t95.5 -36q55 0 89.5 30.5t40.5 84.5h90q-11 -92 -68.5 -143.5
t-151.5 -51.5zM265 955h70l130 -145h-78l-55 57q-9 10 -14.5 16t-9.5 10q-4 5 -6 8h-3q-2 -3 -6 -7q-4 -5 -9.5 -11t-14.5 -15l-56 -58h-78z" />
    <glyph glyph-name="ccircumflex" unicode="&#x109;" 
d="M308 -10q-51 0 -91.5 15t-69 43t-44 68t-15.5 89v140q0 49 15.5 89t44 68t69 43t91.5 15q91 0 149.5 -49.5t70.5 -135.5h-90q-7 48 -42.5 76.5t-87.5 28.5q-60 0 -95 -36t-35 -99v-140q0 -63 34.5 -99t95.5 -36q52 0 87.5 28.5t42.5 76.5h90q-13 -87 -71.5 -136
t-148.5 -49zM265 795h70l130 -145h-78l-55 57q-9 10 -14.5 16t-9.5 10q-4 5 -6 8h-3q-2 -3 -6 -7q-4 -5 -9.5 -11t-14.5 -15l-56 -58h-78z" />
    <glyph glyph-name="Cdotaccent" unicode="&#x10a;" 
d="M306 -10q-51 0 -91.5 15t-69 43t-44 68t-15.5 89v310q0 49 15.5 89t44 68t69 43t91.5 15q94 0 151.5 -51.5t68.5 -143.5h-90q-6 54 -40.5 84.5t-89.5 30.5q-60 0 -95 -36t-35 -99v-310q0 -63 34.5 -99t95.5 -36q55 0 89.5 30.5t40.5 84.5h90q-11 -92 -68.5 -143.5
t-151.5 -51.5zM280 965h20q29 0 47 -17t18 -44t-18 -43t-47 -16h-20q-29 0 -47 15.5t-18 43.5q0 27 18 44t47 17z" />
    <glyph glyph-name="cdotaccent" unicode="&#x10b;" 
d="M308 -10q-51 0 -91.5 15t-69 43t-44 68t-15.5 89v140q0 49 15.5 89t44 68t69 43t91.5 15q91 0 149.5 -49.5t70.5 -135.5h-90q-7 48 -42.5 76.5t-87.5 28.5q-60 0 -95 -36t-35 -99v-140q0 -63 34.5 -99t95.5 -36q52 0 87.5 28.5t42.5 76.5h90q-13 -87 -71.5 -136
t-148.5 -49zM280 805h20q29 0 47 -17t18 -44t-18 -43t-47 -16h-20q-29 0 -47 15.5t-18 43.5q0 27 18 44t47 17z" />
    <glyph glyph-name="Ccaron" unicode="&#x10c;" 
d="M306 -10q-51 0 -91.5 15t-69 43t-44 68t-15.5 89v310q0 49 15.5 89t44 68t69 43t91.5 15q94 0 151.5 -51.5t68.5 -143.5h-90q-6 54 -40.5 84.5t-89.5 30.5q-60 0 -95 -36t-35 -99v-310q0 -63 34.5 -99t95.5 -36q55 0 89.5 30.5t40.5 84.5h90q-11 -92 -68.5 -143.5
t-151.5 -51.5zM135 955h78l56 -58q9 -9 14.5 -15t9.5 -10q4 -5 6 -8h3q2 3 6 8q4 4 9.5 10.5t14.5 15.5l55 57h78l-130 -145h-70z" />
    <glyph glyph-name="Dcaron" unicode="&#x10e;" 
d="M88 720h201q52 0 94.5 -16t73 -44.5t47 -69t16.5 -89.5v-281q0 -49 -16.5 -90t-47 -69.5t-73 -44.5t-94.5 -16h-201v720zM178 80h111q63 0 101.5 38.5t38.5 101.5v281q0 63 -38.5 101t-101.5 38h-111v-560zM135 955h78l56 -58q9 -9 14.5 -15t9.5 -10q4 -5 6 -8h3q2 3 6 8
q4 4 9.5 10.5t14.5 15.5l55 57h78l-130 -145h-70z" />
    <glyph glyph-name="dcaron" unicode="&#x10f;" 
d="M60 345q0 50 13.5 90t37.5 67.5t58 42.5t76 15q61 0 101 -27.5t53 -77.5h8l-2 34q-2 15 -2.5 31.5t-0.5 29.5v170h90v-720h-85v95h-8q-13 -50 -53 -77.5t-101 -27.5q-42 0 -76 15t-58 42.5t-37.5 67.5t-13.5 90v140zM279 68q56 0 89.5 37t33.5 100v140q0 63 -33.5 100
t-89.5 37q-61 0 -95 -36t-34 -101v-140q0 -63 34.5 -100t94.5 -37zM564 756h90l-70 -146h-70z" />
    <glyph glyph-name="Emacron" unicode="&#x112;" 
d="M95 0v720h425v-82h-335v-226h300v-82h-300v-248h335v-82h-425zM170 930h260v-75h-260v75z" />
    <glyph glyph-name="emacron" unicode="&#x113;" 
d="M80 350q0 98 58.5 154t161.5 56t161.5 -56t58.5 -154v-101h-350v-44q0 -63 34.5 -99t95.5 -36q45 0 78 14t49 41h90q-17 -63 -75.5 -99t-141.5 -36q-103 0 -161.5 56t-58.5 154v150zM170 324h260v26q0 62 -34 96t-96 34t-96 -34t-34 -96v-26zM170 770h260v-75h-260v75z
" />
    <glyph glyph-name="Ebreve" unicode="&#x114;" 
d="M95 0v720h425v-82h-335v-226h300v-82h-300v-248h335v-82h-425zM130 950h75q0 -34 26 -52t68 -18t69 18t27 52h75q0 -30 -13 -55t-36 -43t-54 -27.5t-67 -9.5t-67 9.5t-54 27.5t-36 43t-13 55z" />
    <glyph glyph-name="ebreve" unicode="&#x115;" 
d="M80 350q0 98 58.5 154t161.5 56t161.5 -56t58.5 -154v-101h-350v-44q0 -63 34.5 -99t95.5 -36q45 0 78 14t49 41h90q-17 -63 -75.5 -99t-141.5 -36q-103 0 -161.5 56t-58.5 154v150zM170 324h260v26q0 62 -34 96t-96 34t-96 -34t-34 -96v-26zM130 790h75q0 -34 26 -52
t68 -18t69 18t27 52h75q0 -30 -13 -55t-36 -43t-54 -27.5t-67 -9.5t-67 9.5t-54 27.5t-36 43t-13 55z" />
    <glyph glyph-name="Edotaccent" unicode="&#x116;" 
d="M95 0v720h425v-82h-335v-226h300v-82h-300v-248h335v-82h-425zM280 965h20q29 0 47 -17t18 -44t-18 -43t-47 -16h-20q-29 0 -47 15.5t-18 43.5q0 27 18 44t47 17z" />
    <glyph glyph-name="edotaccent" unicode="&#x117;" 
d="M80 350q0 98 58.5 154t161.5 56t161.5 -56t58.5 -154v-101h-350v-44q0 -63 34.5 -99t95.5 -36q45 0 78 14t49 41h90q-17 -63 -75.5 -99t-141.5 -36q-103 0 -161.5 56t-58.5 154v150zM170 324h260v26q0 62 -34 96t-96 34t-96 -34t-34 -96v-26zM280 805h20q29 0 47 -17
t18 -44t-18 -43t-47 -16h-20q-29 0 -47 15.5t-18 43.5q0 27 18 44t47 17z" />
    <glyph glyph-name="Eogonek" unicode="&#x118;" 
d="M95 0v720h425v-82h-335v-226h300v-82h-300v-248h335v-82h-425zM405 10h75l-11 -9q-34 -28 -49 -50.5t-15 -43.5q0 -22 14.5 -34.5t40.5 -12.5h60v-60h-78q-56 0 -89 24.5t-33 65.5q0 29 18.5 58t66.5 62z" />
    <glyph glyph-name="eogonek" unicode="&#x119;" 
d="M80 350q0 98 58.5 154t161.5 56t161.5 -56t58.5 -154v-101h-350v-44q0 -63 34.5 -99t95.5 -36q45 0 78 14t49 41h90q-15 -52 -59 -87l-39 -38q-26 -26 -38 -46t-12 -40q0 -25 16 -39.5t45 -14.5h70v-60h-94q-27 0 -49.5 7.5t-38 20.5t-24 29.5t-8.5 34.5q0 23 11.5 46
t32.5 44l11 11q-19 -3 -41 -3q-103 0 -161.5 56t-58.5 154v150zM170 324h260v26q0 62 -34 96t-96 34t-96 -34t-34 -96v-26z" />
    <glyph glyph-name="Ecaron" unicode="&#x11a;" 
d="M95 0v720h425v-82h-335v-226h300v-82h-300v-248h335v-82h-425zM135 955h78l56 -58q9 -9 14.5 -15t9.5 -10q4 -5 6 -8h3q2 3 6 8q4 4 9.5 10.5t14.5 15.5l55 57h78l-130 -145h-70z" />
    <glyph glyph-name="ecaron" unicode="&#x11b;" 
d="M80 350q0 98 58.5 154t161.5 56t161.5 -56t58.5 -154v-101h-350v-44q0 -63 34.5 -99t95.5 -36q45 0 78 14t49 41h90q-17 -63 -75.5 -99t-141.5 -36q-103 0 -161.5 56t-58.5 154v150zM170 324h260v26q0 62 -34 96t-96 34t-96 -34t-34 -96v-26zM135 795h78l56 -58
q9 -9 14.5 -15t9.5 -10q4 -5 6 -8h3q2 3 6 8q4 4 9.5 10.5t14.5 15.5l55 57h78l-130 -145h-70z" />
    <glyph glyph-name="Gcircumflex" unicode="&#x11c;" 
d="M80 205v310q0 48 16 88t44.5 68t69.5 43.5t90 15.5q91 0 149 -46t76 -134h-92q-10 47 -45 73.5t-88 26.5q-60 0 -95 -36t-35 -99v-310q0 -63 35 -99t95 -36t95 36t35 99v85h-146v80h236v-165q0 -49 -15.5 -89t-44 -68t-69 -43t-91.5 -15q-50 0 -91 15t-69.5 43t-44 68
t-15.5 89zM265 955h70l130 -145h-78l-55 57q-9 10 -14.5 16t-9.5 10q-4 5 -6 8h-3q-2 -3 -6 -7q-4 -5 -9.5 -11t-14.5 -15l-56 -58h-78z" />
    <glyph glyph-name="gcircumflex" unicode="&#x11d;" 
d="M73 350q0 48 13 87t37.5 66t59.5 42t78 15q60 0 102 -28.5t57 -81.5h7v100h85v-515q0 -97 -57 -151t-160 -54h-135v82h135q60 0 93.5 32t33.5 91v25l4 95h-6q-15 -53 -57 -81.5t-102 -28.5q-43 0 -77.5 15t-59 42t-38 66t-13.5 87v95zM165 255q0 -62 34.5 -97t94.5 -35
t94 35t34 97v95q0 62 -34 97t-94 35t-94.5 -35t-34.5 -97v-95zM265 795h70l130 -145h-78l-55 57q-9 10 -14.5 16t-9.5 10q-4 5 -6 8h-3q-2 -3 -6 -7q-4 -5 -9.5 -11t-14.5 -15l-56 -58h-78z" />
    <glyph glyph-name="Gbreve" unicode="&#x11e;" 
d="M80 205v310q0 48 16 88t44.5 68t69.5 43.5t90 15.5q91 0 149 -46t76 -134h-92q-10 47 -45 73.5t-88 26.5q-60 0 -95 -36t-35 -99v-310q0 -63 35 -99t95 -36t95 36t35 99v85h-146v80h236v-165q0 -49 -15.5 -89t-44 -68t-69 -43t-91.5 -15q-50 0 -91 15t-69.5 43t-44 68
t-15.5 89zM130 950h75q0 -34 26 -52t68 -18t69 18t27 52h75q0 -30 -13 -55t-36 -43t-54 -27.5t-67 -9.5t-67 9.5t-54 27.5t-36 43t-13 55z" />
    <glyph glyph-name="gbreve" unicode="&#x11f;" 
d="M73 350q0 48 13 87t37.5 66t59.5 42t78 15q60 0 102 -28.5t57 -81.5h7v100h85v-515q0 -97 -57 -151t-160 -54h-135v82h135q60 0 93.5 32t33.5 91v25l4 95h-6q-15 -53 -57 -81.5t-102 -28.5q-43 0 -77.5 15t-59 42t-38 66t-13.5 87v95zM165 255q0 -62 34.5 -97t94.5 -35
t94 35t34 97v95q0 62 -34 97t-94 35t-94.5 -35t-34.5 -97v-95zM130 790h75q0 -34 26 -52t68 -18t69 18t27 52h75q0 -30 -13 -55t-36 -43t-54 -27.5t-67 -9.5t-67 9.5t-54 27.5t-36 43t-13 55z" />
    <glyph glyph-name="Gdotaccent" unicode="&#x120;" 
d="M80 205v310q0 48 16 88t44.5 68t69.5 43.5t90 15.5q91 0 149 -46t76 -134h-92q-10 47 -45 73.5t-88 26.5q-60 0 -95 -36t-35 -99v-310q0 -63 35 -99t95 -36t95 36t35 99v85h-146v80h236v-165q0 -49 -15.5 -89t-44 -68t-69 -43t-91.5 -15q-50 0 -91 15t-69.5 43t-44 68
t-15.5 89zM280 965h20q29 0 47 -17t18 -44t-18 -43t-47 -16h-20q-29 0 -47 15.5t-18 43.5q0 27 18 44t47 17z" />
    <glyph glyph-name="gdotaccent" unicode="&#x121;" 
d="M73 350q0 48 13 87t37.5 66t59.5 42t78 15q60 0 102 -28.5t57 -81.5h7v100h85v-515q0 -97 -57 -151t-160 -54h-135v82h135q60 0 93.5 32t33.5 91v25l4 95h-6q-15 -53 -57 -81.5t-102 -28.5q-43 0 -77.5 15t-59 42t-38 66t-13.5 87v95zM165 255q0 -62 34.5 -97t94.5 -35
t94 35t34 97v95q0 62 -34 97t-94 35t-94.5 -35t-34.5 -97v-95zM280 805h20q29 0 47 -17t18 -44t-18 -43t-47 -16h-20q-29 0 -47 15.5t-18 43.5q0 27 18 44t47 17z" />
    <glyph glyph-name="Hcircumflex" unicode="&#x124;" 
d="M90 0v720h90v-304h240v304h90v-720h-90v334h-240v-334h-90zM265 955h70l130 -145h-78l-55 57q-9 10 -14.5 16t-9.5 10q-4 5 -6 8h-3q-2 -3 -6 -7q-4 -5 -9.5 -11t-14.5 -15l-56 -58h-78z" />
    <glyph glyph-name="hcircumflex" unicode="&#x125;" 
d="M88 0v720h90v-170q0 -14 -0.5 -30.5t-1.5 -30.5q-2 -17 -3 -34h8q13 50 52.5 77.5t98.5 27.5q41 0 74.5 -14t57 -39.5t36.5 -61t13 -79.5v-366h-90v351q0 63 -32 98t-89 35t-90.5 -37.5t-33.5 -101.5v-345h-90zM115 955h70l130 -145h-78l-55 57q-9 10 -14.5 16t-9.5 10
q-4 5 -6 8h-3q-2 -3 -6 -7q-4 -5 -9.5 -11t-14.5 -15l-56 -58h-78z" />
    <glyph glyph-name="Itilde" unicode="&#x128;" 
d="M254 79v562h-159v79h410v-79h-159v-562h159v-79h-410v79h159zM105 835q0 58 29 89t81 31q34 0 56 -12.5t40 -27.5t35 -27.5t39 -12.5q21 0 33 14.5t12 40.5v20h65v-20q0 -58 -29 -89t-81 -31q-34 0 -56 12.5t-40 27.5t-34.5 27.5t-39.5 12.5q-21 0 -33 -14.5t-12 -40.5
v-20h-65v20z" />
    <glyph glyph-name="itilde" unicode="&#x129;" 
d="M90 82h205v386h-180v82h270v-468h160v-82h-455v82zM105 675q0 58 29 89t81 31q34 0 56 -12.5t40 -27.5t35 -27.5t39 -12.5q21 0 33 14.5t12 40.5v20h65v-20q0 -58 -29 -89t-81 -31q-34 0 -56 12.5t-40 27.5t-34.5 27.5t-39.5 12.5q-21 0 -33 -14.5t-12 -40.5v-20h-65v20z
" />
    <glyph glyph-name="Imacron" unicode="&#x12a;" 
d="M254 79v562h-159v79h410v-79h-159v-562h159v-79h-410v79h159zM170 930h260v-75h-260v75z" />
    <glyph glyph-name="imacron" unicode="&#x12b;" 
d="M90 82h205v386h-180v82h270v-468h160v-82h-455v82zM170 770h260v-75h-260v75z" />
    <glyph glyph-name="Iogonek" unicode="&#x12e;" 
d="M254 79v562h-159v79h410v-79h-159v-562h159v-79h-410v79h159zM271 10h75l-11 -9q-34 -28 -49 -50.5t-15 -43.5q0 -22 14.5 -34.5t40.5 -12.5h60v-60h-78q-56 0 -89 24.5t-33 65.5q0 29 18.5 58t66.5 62z" />
    <glyph glyph-name="iogonek" unicode="&#x12f;" 
d="M95 0v82h200v386h-175v82h265v-468h165v-82h-455zM315 765h20q29 0 47 -17t18 -44t-18 -43t-47 -16h-20q-29 0 -47 15.5t-18 43.5q0 27 18 44t47 17zM309 10h75l-11 -9q-34 -28 -49 -50.5t-15 -43.5q0 -22 14.5 -34.5t40.5 -12.5h60v-60h-78q-56 0 -89 24.5t-33 65.5
q0 29 18.5 58t66.5 62z" />
    <glyph glyph-name="Idotaccent" unicode="&#x130;" 
d="M254 79v562h-159v79h410v-79h-159v-562h159v-79h-410v79h159zM280 965h20q29 0 47 -17t18 -44t-18 -43t-47 -16h-20q-29 0 -47 15.5t-18 43.5q0 27 18 44t47 17z" />
    <glyph glyph-name="Nacute" unicode="&#x143;" 
d="M199 720l191 -483q8 -18 15 -41.5t12 -44.5q7 -25 13 -51h8l-1 10.5t-3 28.5t-3.5 41.5t-1.5 49.5v490h86v-720h-114l-188 484q-8 23 -16 47t-13 44q-7 23 -12 46h-8q2 -16 4 -36q1 -17 2 -40.5t1 -52.5v-492h-86v720h114zM320 810h-90l110 146h110z" />
    <glyph glyph-name="nacute" unicode="&#x144;" 
d="M88 550h85v-95h8q13 51 52 78t99 27q43 0 76.5 -14.5t57 -40.5t35.5 -61.5t12 -77.5v-366h-90v351q0 63 -32 98t-89 35t-90.5 -37.5t-33.5 -101.5v-345h-90v550zM320 650h-90l110 146h110z" />
    <glyph glyph-name="Ncaron" unicode="&#x147;" 
d="M199 720l191 -483q8 -18 15 -41.5t12 -44.5q7 -25 13 -51h8l-1 10.5t-3 28.5t-3.5 41.5t-1.5 49.5v490h86v-720h-114l-188 484q-8 23 -16 47t-13 44q-7 23 -12 46h-8q2 -16 4 -36q1 -17 2 -40.5t1 -52.5v-492h-86v720h114zM135 955h78l56 -58q9 -9 14.5 -15t9.5 -10
q4 -5 6 -8h3q2 3 6 8q4 4 9.5 10.5t14.5 15.5l55 57h78l-130 -145h-70z" />
    <glyph glyph-name="ncaron" unicode="&#x148;" 
d="M88 550h85v-95h8q13 51 52 78t99 27q43 0 76.5 -14.5t57 -40.5t35.5 -61.5t12 -77.5v-366h-90v351q0 63 -32 98t-89 35t-90.5 -37.5t-33.5 -101.5v-345h-90v550zM135 795h78l56 -58q9 -9 14.5 -15t9.5 -10q4 -5 6 -8h3q2 3 6 8q4 4 9.5 10.5t14.5 15.5l55 57h78
l-130 -145h-70z" />
    <glyph glyph-name="Omacron" unicode="&#x14c;" 
d="M300 -10q-51 0 -91.5 15t-69 43t-44 68t-15.5 89v310q0 49 15.5 89t44 68t69 43t91.5 15t91.5 -15t69 -43t44 -68t15.5 -89v-310q0 -49 -15.5 -88.5t-44 -67.5t-69.5 -43.5t-91 -15.5zM170 205q0 -62 35 -98.5t95 -36.5t95 36.5t35 98.5v310q0 62 -35 98.5t-95 36.5
t-95 -36.5t-35 -98.5v-310zM170 930h260v-75h-260v75z" />
    <glyph glyph-name="omacron" unicode="&#x14d;" 
d="M300 -10q-51 0 -91.5 15t-69 43t-44 68t-15.5 89v140q0 50 15.5 89.5t44 67.5t69 43t91.5 15q102 0 161 -57t59 -157v-141q0 -100 -58.5 -157.5t-161.5 -57.5zM170 205q0 -63 34.5 -99t95.5 -36q60 0 95 36t35 99v140q0 63 -35 99t-95 36t-95 -36t-35 -99v-140zM170 770
h260v-75h-260v75z" />
    <glyph glyph-name="Obreve" unicode="&#x14e;" 
d="M300 -10q-51 0 -91.5 15t-69 43t-44 68t-15.5 89v310q0 49 15.5 89t44 68t69 43t91.5 15t91.5 -15t69 -43t44 -68t15.5 -89v-310q0 -49 -15.5 -88.5t-44 -67.5t-69.5 -43.5t-91 -15.5zM170 205q0 -62 35 -98.5t95 -36.5t95 36.5t35 98.5v310q0 62 -35 98.5t-95 36.5
t-95 -36.5t-35 -98.5v-310zM130 950h75q0 -34 26 -52t68 -18t69 18t27 52h75q0 -30 -13 -55t-36 -43t-54 -27.5t-67 -9.5t-67 9.5t-54 27.5t-36 43t-13 55z" />
    <glyph glyph-name="obreve" unicode="&#x14f;" 
d="M300 -10q-51 0 -91.5 15t-69 43t-44 68t-15.5 89v140q0 50 15.5 89.5t44 67.5t69 43t91.5 15q102 0 161 -57t59 -157v-141q0 -100 -58.5 -157.5t-161.5 -57.5zM170 205q0 -63 34.5 -99t95.5 -36q60 0 95 36t35 99v140q0 63 -35 99t-95 36t-95 -36t-35 -99v-140zM130 790
h75q0 -34 26 -52t68 -18t69 18t27 52h75q0 -30 -13 -55t-36 -43t-54 -27.5t-67 -9.5t-67 9.5t-54 27.5t-36 43t-13 55z" />
    <glyph glyph-name="Ohungarumlaut" unicode="&#x150;" 
d="M300 -10q-51 0 -91.5 15t-69 43t-44 68t-15.5 89v310q0 49 15.5 89t44 68t69 43t91.5 15t91.5 -15t69 -43t44 -68t15.5 -89v-310q0 -49 -15.5 -88.5t-44 -67.5t-69.5 -43.5t-91 -15.5zM170 205q0 -62 35 -98.5t95 -36.5t95 36.5t35 98.5v310q0 62 -35 98.5t-95 36.5
t-95 -36.5t-35 -98.5v-310zM340.011 956h-109.993l-109.994 -146h89.9951zM540.011 956h-109.993l-109.994 -146h89.9951z" />
    <glyph glyph-name="ohungarumlaut" unicode="&#x151;" 
d="M300 -10q-51 0 -91.5 15t-69 43t-44 68t-15.5 89v140q0 50 15.5 89.5t44 67.5t69 43t91.5 15q102 0 161 -57t59 -157v-141q0 -100 -58.5 -157.5t-161.5 -57.5zM170 205q0 -63 34.5 -99t95.5 -36q60 0 95 36t35 99v140q0 63 -35 99t-95 36t-95 -36t-35 -99v-140z
M340.011 796h-109.993l-109.994 -146h89.9951zM540.011 796h-109.993l-109.994 -146h89.9951z" />
    <glyph glyph-name="Racute" unicode="&#x154;" 
d="M90 720h230q49 0 89 -15t68.5 -43t44 -66.5t15.5 -85.5q0 -75 -38.5 -127.5t-104.5 -72.5l153 -310h-106l-140 300h-121v-300h-90v720zM180 380h140q57 0 90.5 35.5t33.5 94.5t-34 94.5t-90 35.5h-140v-260zM320 810h-90l110 146h110z" />
    <glyph glyph-name="racute" unicode="&#x155;" 
d="M197 550v-95h8q13 49 54 77t101 28q87 0 136.5 -54.5t49.5 -149.5v-31h-90v20q0 65 -32.5 100.5t-92.5 35.5q-59 0 -94 -36.5t-35 -99.5v-345h-90v550h85zM320 650h-90l110 146h110z" />
    <glyph glyph-name="Rcaron" unicode="&#x158;" 
d="M90 720h230q49 0 89 -15t68.5 -43t44 -66.5t15.5 -85.5q0 -75 -38.5 -127.5t-104.5 -72.5l153 -310h-106l-140 300h-121v-300h-90v720zM180 380h140q57 0 90.5 35.5t33.5 94.5t-34 94.5t-90 35.5h-140v-260zM135 955h78l56 -58q9 -9 14.5 -15t9.5 -10q4 -5 6 -8h3
q2 3 6 8q4 4 9.5 10.5t14.5 15.5l55 57h78l-130 -145h-70z" />
    <glyph glyph-name="rcaron" unicode="&#x159;" 
d="M197 550v-95h8q13 49 54 77t101 28q87 0 136.5 -54.5t49.5 -149.5v-31h-90v20q0 65 -32.5 100.5t-92.5 35.5q-59 0 -94 -36.5t-35 -99.5v-345h-90v550h85zM135 795h78l56 -58q9 -9 14.5 -15t9.5 -10q4 -5 6 -8h3q2 3 6 8q4 4 9.5 10.5t14.5 15.5l55 57h78l-130 -145h-70z
" />
    <glyph glyph-name="Sacute" unicode="&#x15a;" 
d="M70 185h95q0 -52 37.5 -83.5t99.5 -31.5q64 0 100 29.5t36 80.5q0 44 -26 77.5t-71 49.5l-85 30q-164 59 -164 203q0 88 57 139t156 51q48 0 87.5 -13.5t68 -38.5t44 -60.5t16.5 -78.5h-95q0 51 -33.5 81t-88.5 30q-56 0 -89 -27.5t-33 -74.5q0 -44 24 -73t78 -49l89 -32
q76 -27 116.5 -81.5t40.5 -129.5q0 -90 -61.5 -141.5t-168.5 -51.5q-51 0 -93 14t-72 39.5t-47 61.5t-18 80zM320 810h-90l110 146h110z" />
    <glyph glyph-name="sacute" unicode="&#x15b;" 
d="M77 135h95q6 -29 37 -47t76 -18h28q54 0 84 22.5t30 60.5q0 65 -92 79l-83 12q-81 12 -121 51t-40 109q0 74 52.5 115t146.5 41h28q40 0 74 -10t60 -28.5t42.5 -44t21.5 -56.5h-95q-6 26 -34 42.5t-69 16.5h-28q-51 0 -79.5 -20t-28.5 -60q0 -32 19.5 -48.5t63.5 -22.5
l83 -12q89 -13 129.5 -52t40.5 -111q0 -77 -53.5 -120.5t-151.5 -43.5h-28q-87 0 -143.5 39.5t-64.5 105.5zM320 650h-90l110 146h110z" />
    <glyph glyph-name="Scircumflex" unicode="&#x15c;" 
d="M70 185h95q0 -52 37.5 -83.5t99.5 -31.5q64 0 100 29.5t36 80.5q0 44 -26 77.5t-71 49.5l-85 30q-164 59 -164 203q0 88 57 139t156 51q48 0 87.5 -13.5t68 -38.5t44 -60.5t16.5 -78.5h-95q0 51 -33.5 81t-88.5 30q-56 0 -89 -27.5t-33 -74.5q0 -44 24 -73t78 -49l89 -32
q76 -27 116.5 -81.5t40.5 -129.5q0 -90 -61.5 -141.5t-168.5 -51.5q-51 0 -93 14t-72 39.5t-47 61.5t-18 80zM265 955h70l130 -145h-78l-55 57q-9 10 -14.5 16t-9.5 10q-4 5 -6 8h-3q-2 -3 -6 -7q-4 -5 -9.5 -11t-14.5 -15l-56 -58h-78z" />
    <glyph glyph-name="scircumflex" unicode="&#x15d;" 
d="M77 135h95q6 -29 37 -47t76 -18h28q54 0 84 22.5t30 60.5q0 65 -92 79l-83 12q-81 12 -121 51t-40 109q0 74 52.5 115t146.5 41h28q40 0 74 -10t60 -28.5t42.5 -44t21.5 -56.5h-95q-6 26 -34 42.5t-69 16.5h-28q-51 0 -79.5 -20t-28.5 -60q0 -32 19.5 -48.5t63.5 -22.5
l83 -12q89 -13 129.5 -52t40.5 -111q0 -77 -53.5 -120.5t-151.5 -43.5h-28q-87 0 -143.5 39.5t-64.5 105.5zM265 795h70l130 -145h-78l-55 57q-9 10 -14.5 16t-9.5 10q-4 5 -6 8h-3q-2 -3 -6 -7q-4 -5 -9.5 -11t-14.5 -15l-56 -58h-78z" />
    <glyph glyph-name="Scedilla" unicode="&#x15e;" 
d="M70 185h95q0 -52 37.5 -83.5t99.5 -31.5q64 0 100 29.5t36 80.5q0 44 -26 77.5t-71 49.5l-85 30q-164 59 -164 203q0 88 57 139t156 51q48 0 87.5 -13.5t68 -38.5t44 -60.5t16.5 -78.5h-95q0 51 -33.5 81t-88.5 30q-56 0 -89 -27.5t-33 -74.5q0 -44 24 -73t78 -49l89 -32
q76 -27 116.5 -81.5t40.5 -129.5q0 -90 -61.5 -141.5t-168.5 -51.5q-51 0 -93 14t-72 39.5t-47 61.5t-18 80zM205 -190v55h70q22 0 35.5 8t13.5 22q0 17 -27 26.5t-78 9.5l35 95h57l-21 -61q34 -3 60 -12q23 -8 41.5 -24t18.5 -42q0 -35 -33 -56t-87 -21h-85z" />
    <glyph glyph-name="scedilla" unicode="&#x15f;" 
d="M77 135h95q6 -29 37 -47t76 -18h28q54 0 84 22.5t30 60.5q0 65 -92 79l-83 12q-81 12 -121 51t-40 109q0 74 52.5 115t146.5 41h28q40 0 74 -10t60 -28.5t42.5 -44t21.5 -56.5h-95q-6 26 -34 42.5t-69 16.5h-28q-51 0 -79.5 -20t-28.5 -60q0 -32 19.5 -48.5t63.5 -22.5
l83 -12q89 -13 129.5 -52t40.5 -111q0 -77 -53.5 -120.5t-151.5 -43.5h-28q-87 0 -143.5 39.5t-64.5 105.5zM205 -190v55h70q22 0 35.5 8t13.5 22q0 17 -27 26.5t-78 9.5l35 95h57l-21 -61q34 -3 60 -12q23 -8 41.5 -24t18.5 -42q0 -35 -33 -56t-87 -21h-85z" />
    <glyph glyph-name="Tcaron" unicode="&#x164;" 
d="M45 641v79h510v-79h-209v-641h-92v641h-209zM135 955h78l56 -58q9 -9 14.5 -15t9.5 -10q4 -5 6 -8h3q2 3 6 8q4 4 9.5 10.5t14.5 15.5l55 57h78l-130 -145h-70z" />
    <glyph glyph-name="Utilde" unicode="&#x168;" 
d="M300 -10q-103 0 -159 56t-56 154v520h90v-520q0 -60 32 -95t93 -35q60 0 92.5 35t32.5 95v520h90v-520q0 -99 -56 -154.5t-159 -55.5zM105 835q0 58 29 89t81 31q34 0 56 -12.5t40 -27.5t35 -27.5t39 -12.5q21 0 33 14.5t12 40.5v20h65v-20q0 -58 -29 -89t-81 -31
q-34 0 -56 12.5t-40 27.5t-34.5 27.5t-39.5 12.5q-21 0 -33 -14.5t-12 -40.5v-20h-65v20z" />
    <glyph glyph-name="utilde" unicode="&#x169;" 
d="M180 550v-356q0 -125 119 -125q121 0 121 125v356h90v-356q0 -98 -54.5 -151t-156.5 -53q-100 0 -154.5 53.5t-54.5 150.5v356h90zM105 675q0 58 29 89t81 31q34 0 56 -12.5t40 -27.5t35 -27.5t39 -12.5q21 0 33 14.5t12 40.5v20h65v-20q0 -58 -29 -89t-81 -31
q-34 0 -56 12.5t-40 27.5t-34.5 27.5t-39.5 12.5q-21 0 -33 -14.5t-12 -40.5v-20h-65v20z" />
    <glyph glyph-name="Umacron" unicode="&#x16a;" 
d="M300 -10q-103 0 -159 56t-56 154v520h90v-520q0 -60 32 -95t93 -35q60 0 92.5 35t32.5 95v520h90v-520q0 -99 -56 -154.5t-159 -55.5zM170 930h260v-75h-260v75z" />
    <glyph glyph-name="umacron" unicode="&#x16b;" 
d="M180 550v-356q0 -125 119 -125q121 0 121 125v356h90v-356q0 -98 -54.5 -151t-156.5 -53q-100 0 -154.5 53.5t-54.5 150.5v356h90zM170 770h260v-75h-260v75z" />
    <glyph glyph-name="Ubreve" unicode="&#x16c;" 
d="M300 -10q-103 0 -159 56t-56 154v520h90v-520q0 -60 32 -95t93 -35q60 0 92.5 35t32.5 95v520h90v-520q0 -99 -56 -154.5t-159 -55.5zM130 950h75q0 -34 26 -52t68 -18t69 18t27 52h75q0 -30 -13 -55t-36 -43t-54 -27.5t-67 -9.5t-67 9.5t-54 27.5t-36 43t-13 55z" />
    <glyph glyph-name="ubreve" unicode="&#x16d;" 
d="M180 550v-356q0 -125 119 -125q121 0 121 125v356h90v-356q0 -98 -54.5 -151t-156.5 -53q-100 0 -154.5 53.5t-54.5 150.5v356h90zM130 790h75q0 -34 26 -52t68 -18t69 18t27 52h75q0 -30 -13 -55t-36 -43t-54 -27.5t-67 -9.5t-67 9.5t-54 27.5t-36 43t-13 55z" />
    <glyph glyph-name="Uring" unicode="&#x16e;" 
d="M300 -10q-103 0 -159 56t-56 154v520h90v-520q0 -60 32 -95t93 -35q60 0 92.5 35t32.5 95v520h90v-520q0 -99 -56 -154.5t-159 -55.5zM300 970q54 0 87 -27.5t33 -72.5t-33 -72.5t-87 -27.5t-87 27.5t-33 72.5t33 72.5t87 27.5zM240 870q0 -22 16.5 -35.5t42.5 -13.5
q28 0 44.5 13.5t16.5 35.5q0 26 -16 38t-45 12q-26 0 -42.5 -13.5t-16.5 -36.5z" />
    <glyph glyph-name="uring" unicode="&#x16f;" 
d="M180 550v-356q0 -125 119 -125q121 0 121 125v356h90v-356q0 -98 -54.5 -151t-156.5 -53q-100 0 -154.5 53.5t-54.5 150.5v356h90zM300 810q54 0 87 -27.5t33 -72.5t-33 -72.5t-87 -27.5t-87 27.5t-33 72.5t33 72.5t87 27.5zM240 710q0 -22 16.5 -35.5t42.5 -13.5
q28 0 44.5 13.5t16.5 35.5q0 26 -16 38t-45 12q-26 0 -42.5 -13.5t-16.5 -36.5z" />
    <glyph glyph-name="Wcircumflex" unicode="&#x174;" 
d="M25 720h85l47 -526q2 -23 3 -47.5t2 -44.5q1 -24 2 -47h13q1 23 3 47q1 20 3 44.5t5 47.5l69 526h88l66 -526q3 -22 5 -46.5t4 -45.5q1 -24 3 -47h14q1 23 3 47q2 20 3.5 44.5t3.5 47.5l46 526h82l-73 -720h-128l-59 529q-6 59 -6 95q0 21 1 38h-17q1 -17 0 -38
q0 -17 -1 -41.5t-5 -53.5l-64 -529h-128zM265 955h70l130 -145h-78l-55 57q-9 10 -14.5 16t-9.5 10q-4 5 -6 8h-3q-2 -3 -6 -7q-4 -5 -9.5 -11t-14.5 -15l-56 -58h-78z" />
    <glyph glyph-name="wcircumflex" unicode="&#x175;" 
d="M30 550h80l49 -377q2 -18 4 -40t4 -41l4 -44h11q2 22 5 44q2 19 5 41t6 40l58 377h86l58 -377q3 -19 6 -41t5 -41q3 -22 5 -43h12l4 44q2 19 5 40.5t5 40.5l50 377h78l-78 -550h-123l-57 389q-2 17 -3.5 35.5t-2.5 34.5v36h-13q0 -18 -1 -36q-1 -16 -2 -34.5t-4 -35.5
l-59 -389h-120zM265 795h70l130 -145h-78l-55 57q-9 10 -14.5 16t-9.5 10q-4 5 -6 8h-3q-2 -3 -6 -7q-4 -5 -9.5 -11t-14.5 -15l-56 -58h-78z" />
    <glyph glyph-name="Ycircumflex" unicode="&#x176;" 
d="M125 720l148 -317q7 -14 11.5 -28t8.5 -25q4 -13 7 -26h4q3 13 8 26q3 11 8 25t11 28l143 317h96l-225 -470v-250h-90v250l-225 470h95zM265 955h70l130 -145h-78l-55 57q-9 10 -14.5 16t-9.5 10q-4 5 -6 8h-3q-2 -3 -6 -7q-4 -5 -9.5 -11t-14.5 -15l-56 -58h-78z" />
    <glyph glyph-name="ycircumflex" unicode="&#x177;" 
d="M50 550h100l126 -316q9 -23 14.5 -43t8.5 -35q4 -19 5 -34h7q1 15 5 33q3 16 8 36t13 43l116 316h97l-268 -720h-96l77 210zM265 795h70l130 -145h-78l-55 57q-9 10 -14.5 16t-9.5 10q-4 5 -6 8h-3q-2 -3 -6 -7q-4 -5 -9.5 -11t-14.5 -15l-56 -58h-78z" />
    <glyph glyph-name="Zacute" unicode="&#x179;" 
d="M504 720v-81l-329 -562v-2l70 4h270v-79h-430v80l329 562v2l-72 -3h-249v79h411zM320 810h-90l110 146h110z" />
    <glyph glyph-name="zacute" unicode="&#x17a;" 
d="M80 100l335 367v6q-11 -1 -23 -1q-10 -1 -23.5 -1.5t-27.5 -0.5h-253v80h421v-101l-339 -367v-6q11 1 24 2q11 1 24 1.5t27 0.5h275v-80h-440v100zM320 650h-90l110 146h110z" />
    <glyph glyph-name="Zdotaccent" unicode="&#x17b;" 
d="M504 720v-81l-329 -562v-2l70 4h270v-79h-430v80l329 562v2l-72 -3h-249v79h411zM290 965h20q29 0 47 -17t18 -44t-18 -43t-47 -16h-20q-29 0 -47 15.5t-18 43.5q0 27 18 44t47 17z" />
    <glyph glyph-name="zdotaccent" unicode="&#x17c;" 
d="M80 100l335 367v6q-11 -1 -23 -1q-10 -1 -23.5 -1.5t-27.5 -0.5h-253v80h421v-101l-339 -367v-6q11 1 24 2q11 1 24 1.5t27 0.5h275v-80h-440v100zM290 805h20q29 0 47 -17t18 -44t-18 -43t-47 -16h-20q-29 0 -47 15.5t-18 43.5q0 27 18 44t47 17z" />
    <glyph glyph-name="Wgrave" unicode="&#x1e80;" 
d="M25 720h85l47 -526q2 -23 3 -47.5t2 -44.5q1 -24 2 -47h13q1 23 3 47q1 20 3 44.5t5 47.5l69 526h88l66 -526q3 -22 5 -46.5t4 -45.5q1 -24 3 -47h14q1 23 3 47q2 20 3.5 44.5t3.5 47.5l46 526h82l-73 -720h-128l-59 529q-6 59 -6 95q0 21 1 38h-17q1 -17 0 -38
q0 -17 -1 -41.5t-5 -53.5l-64 -529h-128zM170 956h110l110 -146h-90z" />
    <glyph glyph-name="wgrave" unicode="&#x1e81;" 
d="M30 550h80l49 -377q2 -18 4 -40t4 -41l4 -44h11q2 22 5 44q2 19 5 41t6 40l58 377h86l58 -377q3 -19 6 -41t5 -41q3 -22 5 -43h12l4 44q2 19 5 40.5t5 40.5l50 377h78l-78 -550h-123l-57 389q-2 17 -3.5 35.5t-2.5 34.5v36h-13q0 -18 -1 -36q-1 -16 -2 -34.5t-4 -35.5
l-59 -389h-120zM170 796h110l110 -146h-90z" />
    <glyph glyph-name="Wacute" unicode="&#x1e82;" 
d="M25 720h85l47 -526q2 -23 3 -47.5t2 -44.5q1 -24 2 -47h13q1 23 3 47q1 20 3 44.5t5 47.5l69 526h88l66 -526q3 -22 5 -46.5t4 -45.5q1 -24 3 -47h14q1 23 3 47q2 20 3.5 44.5t3.5 47.5l46 526h82l-73 -720h-128l-59 529q-6 59 -6 95q0 21 1 38h-17q1 -17 0 -38
q0 -17 -1 -41.5t-5 -53.5l-64 -529h-128zM320 810h-90l110 146h110z" />
    <glyph glyph-name="wacute" unicode="&#x1e83;" 
d="M30 550h80l49 -377q2 -18 4 -40t4 -41l4 -44h11q2 22 5 44q2 19 5 41t6 40l58 377h86l58 -377q3 -19 6 -41t5 -41q3 -22 5 -43h12l4 44q2 19 5 40.5t5 40.5l50 377h78l-78 -550h-123l-57 389q-2 17 -3.5 35.5t-2.5 34.5v36h-13q0 -18 -1 -36q-1 -16 -2 -34.5t-4 -35.5
l-59 -389h-120zM320 650h-90l110 146h110z" />
    <glyph glyph-name="Wdieresis" unicode="&#x1e84;" 
d="M25 720h85l47 -526q2 -23 3 -47.5t2 -44.5q1 -24 2 -47h13q1 23 3 47q1 20 3 44.5t5 47.5l69 526h88l66 -526q3 -22 5 -46.5t4 -45.5q1 -24 3 -47h14q1 23 3 47q2 20 3.5 44.5t3.5 47.5l46 526h82l-73 -720h-128l-59 529q-6 59 -6 95q0 21 1 38h-17q1 -17 0 -38
q0 -17 -1 -41.5t-5 -53.5l-64 -529h-128zM400 947q27 0 43.5 -16.5t16.5 -43.5t-16.5 -43.5t-43.5 -16.5t-43.5 16.5t-16.5 43.5t16.5 43.5t43.5 16.5zM140 887q0 27 16.5 43.5t43.5 16.5t43.5 -16.5t16.5 -43.5t-16.5 -43.5t-43.5 -16.5t-43.5 16.5t-16.5 43.5z" />
    <glyph glyph-name="wdieresis" unicode="&#x1e85;" 
d="M30 550h80l49 -377q2 -18 4 -40t4 -41l4 -44h11q2 22 5 44q2 19 5 41t6 40l58 377h86l58 -377q3 -19 6 -41t5 -41q3 -22 5 -43h12l4 44q2 19 5 40.5t5 40.5l50 377h78l-78 -550h-123l-57 389q-2 17 -3.5 35.5t-2.5 34.5v36h-13q0 -18 -1 -36q-1 -16 -2 -34.5t-4 -35.5
l-59 -389h-120zM400 787q27 0 43.5 -16.5t16.5 -43.5t-16.5 -43.5t-43.5 -16.5t-43.5 16.5t-16.5 43.5t16.5 43.5t43.5 16.5zM140 727q0 27 16.5 43.5t43.5 16.5t43.5 -16.5t16.5 -43.5t-16.5 -43.5t-43.5 -16.5t-43.5 16.5t-16.5 43.5z" />
    <glyph glyph-name="grave.case" 
d="M170 956h110l110 -146h-90z" />
    <glyph glyph-name="dieresis.case" 
d="M400 947q27 0 43.5 -16.5t16.5 -43.5t-16.5 -43.5t-43.5 -16.5t-43.5 16.5t-16.5 43.5t16.5 43.5t43.5 16.5zM140 887q0 27 16.5 43.5t43.5 16.5t43.5 -16.5t16.5 -43.5t-16.5 -43.5t-43.5 -16.5t-43.5 16.5t-16.5 43.5z" />
    <glyph glyph-name="macron.case" 
d="M170 930h260v-75h-260v75z" />
    <glyph glyph-name="acute.case" 
d="M280 800h-90l110 146h110z" />
    <glyph glyph-name="circumflex.case" 
d="M265 955h70l130 -145h-78l-55 57q-9 10 -14.5 16t-9.5 10q-4 5 -6 8h-3q-2 -3 -6 -7q-4 -5 -9.5 -11t-14.5 -15l-56 -58h-78z" />
    <glyph glyph-name="caron.case" 
d="M135 955h78l56 -58q9 -9 14.5 -15t9.5 -10q4 -5 6 -8h3q2 3 6 8q4 4 9.5 10.5t14.5 15.5l55 57h78l-130 -145h-70z" />
    <glyph glyph-name="breve.case" 
d="M140 940h75q0 -70 84 -70q42 0 64 18t22 52h75q0 -61 -44 -98t-116 -37t-116 37t-44 98z" />
    <glyph glyph-name="dotaccent.case" 
d="M280 965h20q29 0 47 -17t18 -44t-18 -43t-47 -16h-20q-29 0 -47 15.5t-18 43.5q0 27 18 44t47 17z" />
    <glyph glyph-name="ring.case" 
d="M300 960q54 0 87 -27.5t33 -72.5t-33 -72.5t-87 -27.5t-87 27.5t-33 72.5t33 72.5t87 27.5zM240 860q0 -22 16.5 -35.5t42.5 -13.5q28 0 44.5 13.5t16.5 35.5q0 26 -16 38t-45 12q-26 0 -42.5 -13.5t-16.5 -36.5z" />
    <glyph glyph-name="tilde.case" 
d="M105 835q0 58 29 89t81 31q34 0 56 -12.5t40 -27.5t35 -27.5t39 -12.5q21 0 33 14.5t12 40.5v20h65v-20q0 -58 -29 -89t-81 -31q-34 0 -56 12.5t-40 27.5t-34.5 27.5t-39.5 12.5q-21 0 -33 -14.5t-12 -40.5v-20h-65v20z" />
    <glyph glyph-name="hungarumlaut.case" 
d="M340.011 956h-109.993l-109.994 -146h89.9951zM540.011 956h-109.993l-109.994 -146h89.9951z" />
    <glyph glyph-name="caron.salt" 
d="M135 795h78l56 -58q9 -9 14.5 -15t9.5 -10q4 -5 6 -8h3q2 3 6 8q4 4 9.5 10.5t14.5 15.5l55 57h78l-130 -145h-70z" />
    <glyph glyph-name="uni0326" 
d="M385 -94l-80 -146h-90l60 146h110z" />
    <glyph glyph-name="uni0326.salt" 
d="M385 -94l-80 -146h-90l60 146h110z" />
    <glyph glyph-name="Ldot" unicode="&#x13f;" 
d="M195 720v-638h340v-82h-430v720h90zM309 349q0 39 23.5 62.5t62.5 23.5t62.5 -23.5t23.5 -62.5q0 -40 -23.5 -64.5t-62.5 -24.5t-62.5 24.5t-23.5 64.5z" />
    <glyph glyph-name="ldot" unicode="&#x140;" 
d="M20 648v82h272v-570q0 -37 20 -57.5t55 -20.5h163v-82h-163q-77 0 -121 42.5t-44 117.5v488h-182zM374 349q0 39 23.5 62.5t62.5 23.5t62.5 -23.5t23.5 -62.5q0 -40 -23.5 -64.5t-62.5 -24.5t-62.5 24.5t-23.5 64.5z" />
    <glyph glyph-name="degree" unicode="&#xb0;" 
d="M300 740q68 0 109 -39.5t41 -105.5t-41 -105.5t-109 -39.5t-109 39.5t-41 105.5t41 105.5t109 39.5zM210 595q0 -42 24.5 -68t64.5 -26q42 0 66.5 26t24.5 68q0 43 -24.5 69t-66.5 26q-40 0 -64.5 -26t-24.5 -69z" />
    <glyph glyph-name="uni021B" unicode="&#x21b;" 
d="M60 550h160v170h90v-170h215v-82h-215v-326q0 -28 17.5 -44t47.5 -16h140v-82h-140q-71 0 -113 39t-42 103v326h-160v82zM385 -94l-80 -146h-90l60 146h110z" />
    <glyph glyph-name="uni013B" unicode="&#x13b;" 
d="M195 720v-638h340v-82h-430v720h90zM385 -94l-80 -146h-90l60 146h110z" />
    <glyph glyph-name="uni0219" unicode="&#x219;" 
d="M77 135h95q6 -29 37 -47t76 -18h28q54 0 84 22.5t30 60.5q0 65 -92 79l-83 12q-81 12 -121 51t-40 109q0 74 52.5 115t146.5 41h28q40 0 74 -10t60 -28.5t42.5 -44t21.5 -56.5h-95q-6 26 -34 42.5t-69 16.5h-28q-51 0 -79.5 -20t-28.5 -60q0 -32 19.5 -48.5t63.5 -22.5
l83 -12q89 -13 129.5 -52t40.5 -111q0 -77 -53.5 -120.5t-151.5 -43.5h-28q-87 0 -143.5 39.5t-64.5 105.5zM374 -94l-80 -146h-90l60 146h110z" />
    <glyph glyph-name="uni0146" unicode="&#x146;" 
d="M88 550h85v-95h8q13 51 52 78t99 27q43 0 76.5 -14.5t57 -40.5t35.5 -61.5t12 -77.5v-366h-90v351q0 63 -32 98t-89 35t-90.5 -37.5t-33.5 -101.5v-345h-90v550zM374 -94l-80 -146h-90l60 146h110z" />
    <glyph glyph-name="uni021A" unicode="&#x21a;" 
d="M45 641v79h510v-79h-209v-641h-92v641h-209zM385 -94l-80 -146h-90l60 146h110z" />
    <glyph glyph-name="uni0145" unicode="&#x145;" 
d="M199 720l191 -483q8 -18 15 -41.5t12 -44.5q7 -25 13 -51h8l-1 10.5t-3 28.5t-3.5 41.5t-1.5 49.5v490h86v-720h-114l-188 484q-8 23 -16 47t-13 44q-7 23 -12 46h-8q2 -16 4 -36q1 -17 2 -40.5t1 -52.5v-492h-86v720h114zM385 -94l-80 -146h-90l60 146h110z" />
    <glyph glyph-name="uni0136" unicode="&#x136;" 
d="M90 720h90v-306h115l164 306h106l-191 -342l201 -378h-107l-173 335h-115v-335h-90v720zM385 -94l-80 -146h-90l60 146h110z" />
    <glyph glyph-name="uni0137" unicode="&#x137;" 
d="M93 720h90v-400h108l168 230h103l-195 -266l198 -284h-105l-168 240h-109v-240h-90v720zM385 -94l-80 -146h-90l60 146h110z" />
    <glyph glyph-name="uni0122" unicode="&#x122;" 
d="M80 205v310q0 48 16 88t44.5 68t69.5 43.5t90 15.5q91 0 149 -46t76 -134h-92q-10 47 -45 73.5t-88 26.5q-60 0 -95 -36t-35 -99v-310q0 -63 35 -99t95 -36t95 36t35 99v85h-146v80h236v-165q0 -49 -15.5 -89t-44 -68t-69 -43t-91.5 -15q-50 0 -91 15t-69.5 43t-44 68
t-15.5 89zM385 -94l-80 -146h-90l60 146h110z" />
    <glyph glyph-name="lacute" unicode="&#x13a;" 
d="M40 648v82h272v-570q0 -37 20 -57.5t55 -20.5h163v-82h-163q-77 0 -121 42.5t-44 117.5v488h-182zM320 810h-90l110 146h110z" />
    <glyph glyph-name="uni013C" unicode="&#x13c;" 
d="M40 648v82h272v-570q0 -37 20 -57.5t55 -20.5h163v-82h-163q-77 0 -121 42.5t-44 117.5v488h-182zM385 -94l-80 -146h-90l60 146h110z" />
    <glyph glyph-name="uni0157" unicode="&#x157;" 
d="M197 550v-95h8q13 49 54 77t101 28q87 0 136.5 -54.5t49.5 -149.5v-31h-90v20q0 65 -32.5 100.5t-92.5 35.5q-59 0 -94 -36.5t-35 -99.5v-345h-90v550h85zM385 -94l-80 -146h-90l60 146h110z" />
    <glyph glyph-name="uni0156" unicode="&#x156;" 
d="M90 720h230q49 0 89 -15t68.5 -43t44 -66.5t15.5 -85.5q0 -75 -38.5 -127.5t-104.5 -72.5l153 -310h-106l-140 300h-121v-300h-90v720zM180 380h140q57 0 90.5 35.5t33.5 94.5t-34 94.5t-90 35.5h-140v-260zM385 -94l-80 -146h-90l60 146h110z" />
    <glyph glyph-name="Lcaron" unicode="&#x13d;" 
d="M195 720v-638h340v-82h-430v720h90zM444 620h-90l110 146h110z" />
    <glyph glyph-name="lcaron" unicode="&#x13e;" 
d="M40 648v82h272v-570q0 -37 20 -57.5t55 -20.5h163v-82h-163q-77 0 -121 42.5t-44 117.5v488h-182zM510 620h-90l110 146h110z" />
    <glyph glyph-name="Tbar" unicode="&#x166;" 
d="M45 641v79h510v-79h-209v-641h-92v641h-209zM170 400h260v-75h-260v75z" />
    <glyph glyph-name="tbar" unicode="&#x167;" 
d="M60 550h160v170h90v-170h215v-82h-215v-326q0 -28 17.5 -44t47.5 -16h140v-82h-140q-71 0 -113 39t-42 103v326h-160v82zM140 330h260v-75h-260v75z" />
    <glyph glyph-name="hbar" unicode="&#x127;" 
d="M20 675h68v55h90v-55h102v-75h-102v-50q0 -14 -0.5 -30.5t-1.5 -30.5q-2 -17 -3 -34h8q13 50 52.5 77.5t98.5 27.5q41 0 74.5 -14t57 -39.5t36.5 -61t13 -79.5v-366h-90v351q0 63 -32 98t-89 35t-90.5 -37.5t-33.5 -101.5v-345h-90v600h-68v75z" />
    <glyph glyph-name="Lacute" unicode="&#x139;" 
d="M195 720v-638h340v-82h-430v720h90zM190 800h-90l110 146h110z" />
    <glyph glyph-name="copyright" unicode="&#xa9;" 
d="M45 500q0 54 18.5 98.5t52 76t80.5 48.5t104 17t104 -17t80.5 -48.5t52 -76t18.5 -98.5v-150q0 -54 -18.5 -98t-52 -75.5t-80.5 -49t-104 -17.5t-104 17.5t-80.5 49t-52 75.5t-18.5 98v150zM300 690q-45 0 -81.5 -13.5t-63 -38.5t-41 -60t-14.5 -78v-150q0 -43 14.5 -78
t41 -60t63 -38.5t81.5 -13.5t82 13.5t63 38.5t40.5 60t14.5 78v150q0 43 -14.5 78t-40.5 60t-63 38.5t-82 13.5zM180 490q0 52 34 83.5t91 31.5q98 0 124 -95h-65q-7 19 -22.5 29.5t-36.5 10.5q-27 0 -43.5 -16.5t-16.5 -43.5v-130q0 -27 16.5 -43.5t43.5 -16.5
q21 0 36.5 10.5t22.5 29.5h65q-26 -95 -124 -95q-57 0 -91 31.5t-34 83.5v130z" />
    <glyph glyph-name="registered" unicode="&#xae;" 
d="M300 740q57 0 104 -17t80.5 -48.5t52 -76t18.5 -98.5v-150q0 -54 -18.5 -98t-52 -75.5t-80.5 -49t-104 -17.5t-104 17.5t-80.5 49t-52 75.5t-18.5 98v150q0 54 18.5 98.5t52 76t80.5 48.5t104 17zM300 160q45 0 82 13.5t63 38.5t40.5 60t14.5 78v150q0 43 -14.5 78
t-40.5 60t-63 38.5t-82 13.5t-81.5 -13.5t-63 -38.5t-41 -60t-14.5 -78v-150q0 -43 14.5 -78t41 -60t63 -38.5t81.5 -13.5zM190 250v350h114q54 0 85.5 -28.5t31.5 -76.5q0 -34 -15.5 -58t-44.5 -36l66 -151h-64l-59 140v0h-54v-140h-60zM250 440h54q26 0 41 14.5t15 40.5
t-15 40.5t-41 14.5h-54v-110z" />
    <glyph glyph-name="exclamdown" unicode="&#xa1;" 
d="M247 -50l21 385h64l21 -385v-120h-106v120zM225 496q0 27 18 43t47 16h20q29 0 47 -15.5t18 -42.5q0 -28 -18 -45t-47 -17h-20q-29 0 -47 17t-18 44z" />
    <glyph glyph-name="questiondown" unicode="&#xbf;" 
d="M110 40q0 43 13.5 78.5t38.5 62t60 42t77 17.5v105h90v-180h-50q-65 0 -102 -33t-37 -92t37 -92t103 -33h125v-85h-125q-53 0 -95.5 14.5t-72.5 42t-46 66.5t-16 87zM335 555h20q29 0 47 -15.5t18 -42.5q0 -28 -18 -45t-47 -17h-20q-29 0 -47 17t-18 44t18 43t47 16z" />
    <glyph glyph-name="napostrophe" unicode="&#x149;" 
d="M88 550h85v-95h8q13 51 52 78t99 27q43 0 76.5 -14.5t57 -40.5t35.5 -61.5t12 -77.5v-366h-90v351q0 63 -32 98t-89 35t-90.5 -37.5t-33.5 -101.5v-345h-90v550zM155 731l-80 -146h-90l60 146h110z" />
    <glyph glyph-name="uni0218" unicode="&#x218;" 
d="M70 185h95q0 -52 37.5 -83.5t99.5 -31.5q64 0 100 29.5t36 80.5q0 44 -26 77.5t-71 49.5l-85 30q-164 59 -164 203q0 88 57 139t156 51q48 0 87.5 -13.5t68 -38.5t44 -60.5t16.5 -78.5h-95q0 51 -33.5 81t-88.5 30q-56 0 -89 -27.5t-33 -74.5q0 -44 24 -73t78 -49l89 -32
q76 -27 116.5 -81.5t40.5 -129.5q0 -90 -61.5 -141.5t-168.5 -51.5q-51 0 -93 14t-72 39.5t-47 61.5t-18 80zM385 -94l-80 -146h-90l60 146h110z" />
    <glyph glyph-name="Thorn" unicode="&#xde;" 
d="M180 710v-135h153q49 0 89 -14.5t68.5 -40.5t44 -63t15.5 -82q0 -46 -15.5 -83t-43.5 -63t-68 -40t-90 -14h-153v-175h-90v710h90zM180 255h153q58 0 91 32t33 88t-33.5 88t-90.5 32h-153v-240z" />
    <glyph glyph-name="uni0237" unicode="&#x237;" 
d="M85 -87h120q63 0 101.5 38t38.5 99v418h-230v82h320v-500q0 -48 -17 -88.5t-47.5 -70t-72.5 -45.5t-93 -16h-120v83z" />
    <glyph glyph-name="uni0162" unicode="&#x162;" 
d="M45 641v79h510v-79h-209v-641h-92v641h-209zM225 -190v55h70q22 0 35.5 8t13.5 22q0 17 -27 26.5t-78 9.5l35 95h57l-21 -61q34 -3 60 -12q23 -8 41.5 -24t18.5 -42q0 -35 -33 -56t-87 -21h-85z" />
    <glyph glyph-name="uni0163" unicode="&#x163;" 
d="M60 550h160v170h90v-170h215v-82h-215v-326q0 -28 17.5 -44t47.5 -16h140v-82h-140q-71 0 -113 39t-42 103v326h-160v82zM255 -190v55h70q22 0 35.5 8t13.5 22q0 17 -27 26.5t-78 9.5l35 95h57l-21 -61q34 -3 60 -12q23 -8 41.5 -24t18.5 -42q0 -35 -33 -56t-87 -21h-85z
" />
    <glyph glyph-name="dcroat" unicode="&#x111;" 
d="M80 205v140q0 50 13.5 90t37.5 67.5t58 42.5t76 15q61 0 101 -27.5t53 -77.5h8l-2 34q-2 15 -2.5 31.5t-0.5 29.5v50h-102v75h102v55h90v-55h68v-75h-68v-600h-85v95h-8q-13 -50 -53 -77.5t-101 -27.5q-42 0 -76 15t-58 42.5t-37.5 67.5t-13.5 90zM299 68q56 0 89.5 37
t33.5 100v140q0 63 -33.5 100t-89.5 37q-61 0 -95 -36t-34 -101v-140q0 -63 34.5 -100t94.5 -37z" />
    <glyph glyph-name="uni0123" unicode="&#x123;" 
d="M73 350q0 48 13 87t37.5 66t59.5 42t78 15q60 0 102 -28.5t57 -81.5h7v100h85v-515q0 -97 -57 -151t-160 -54h-135v82h135q60 0 93.5 32t33.5 91v25l4 95h-6q-15 -53 -57 -81.5t-102 -28.5q-43 0 -77.5 15t-59 42t-38 66t-13.5 87v95zM165 255q0 -62 34.5 -97t94.5 -35
t94 35t34 97v95q0 62 -34 97t-94 35t-94.5 -35t-34.5 -97v-95zM215.023 677.994l79.9951 145.991h89.9941l-59.9961 -145.991h-109.993z" />
    <glyph glyph-name="Hbar" unicode="&#x126;" 
d="M555 600v-80h-45v-520h-90v334h-240v-334h-90v520h-45v80h45v120h90v-120h240v120h90v-120h45zM180 520v-104h240v104h-240z" />
    <glyph glyph-name="Jcircumflex" unicode="&#x134;" 
d="M135 175q9 -48 46 -76.5t89 -28.5q64 0 102 36.5t38 98.5v435h-280v80h370v-515q0 -49 -16 -89t-46 -68t-72.5 -43t-95.5 -15q-44 0 -82 13t-67.5 37.5t-49 58.5t-26.5 76h90zM305 955h70l130 -145h-78l-55 57q-9 10 -14.5 16t-9.5 10q-4 5 -6 8h-3q-2 -3 -6 -7
q-4 -5 -9.5 -11t-14.5 -15l-56 -58h-78z" />
    <glyph glyph-name="jcircumflex" unicode="&#x135;" 
d="M275 795h70l130 -145h-78l-55 57q-9 10 -14.5 16t-9.5 10q-4 5 -6 8h-3q-2 -3 -6 -7q-4 -5 -9.5 -11t-14.5 -15l-56 -58h-78zM85 -87h120q63 0 101.5 38t38.5 99v418h-230v82h320v-500q0 -48 -17 -88.5t-47.5 -70t-72.5 -45.5t-93 -16h-120v83z" />
    <glyph glyph-name="tcaron" unicode="&#x165;" 
d="M60 468v82h160v170h90v-170h215v-82h-215v-326q0 -28 17.5 -44t47.5 -16h140v-82h-140q-71 0 -113 39t-42 103v326h-160zM440 610l50 146h90l-70 -146h-70z" />
    <glyph glyph-name="ellipsis" unicode="&#x2026;" 
d="M440 115q0 25 13.5 40t36.5 15t36.5 -15t13.5 -40v-70q0 -25 -13.5 -40t-36.5 -15t-36.5 15t-13.5 40v70zM300 170q23 0 36.5 -15t13.5 -40v-70q0 -25 -13.5 -40t-36.5 -15t-36.5 15t-13.5 40v70q0 25 13.5 40t36.5 15zM60 45v70q0 25 13.5 40t36.5 15t36.5 -15t13.5 -40
v-70q0 -25 -13.5 -40t-36.5 -15t-36.5 15t-13.5 40z" />
    <glyph glyph-name="paragraph" unicode="&#xb6;" 
d="M65 550q0 38 13.5 69.5t38.5 54t60 34.5t78 12h250v-720h-80v649h-90v-649h-80v300q-43 0 -78 12t-60 34.5t-38.5 54t-13.5 69.5v80z" />
    <glyph glyph-name="uni00B5" unicode="&#xb5;" 
d="M180 550v-356q0 -60 28 -92.5t91 -32.5t92 32.5t29 92.5v356h90v-356q0 -97 -52.5 -150.5t-148.5 -53.5q-49 0 -79 12t-47 27q-19 16 -28 38h-4q1 0 3.5 -8t5 -20t5 -26t3.5 -26l11 -157h-89v720h90z" />
    <glyph glyph-name="OE" unicode="&#x152;" 
d="M195 -10q-72 0 -113.5 51t-41.5 139v360q0 88 41.5 139t113.5 51q36 0 57.5 -14t33.5 -31q13 -20 19 -45h5v80h265v-82h-177v-225h152v-82h-152v-249h177v-82h-265v80h-5q-6 -25 -19 -45q-12 -17 -33.5 -31t-57.5 -14zM130 180q0 -51 24 -80.5t66 -29.5t66 29.5t24 80.5
v360q0 51 -24 80.5t-66 29.5t-66 -29.5t-24 -80.5v-360z" />
    <glyph glyph-name="oe" unicode="&#x153;" 
d="M35 400q0 74 39 117t106 43q42 0 65.5 -12.5t34.5 -27.5q14 -18 18 -40h4q4 22 18 40q12 15 35 27.5t65 12.5q67 0 106 -43t39 -117v-150h-222v-100q0 -38 18 -60.5t49 -22.5q26 0 44 16t23 42h85q-10 -63 -48 -99t-94 -36q-42 0 -65 12.5t-35 27.5q-14 18 -18 40h-4
q-4 -22 -18 -40q-11 -15 -34.5 -27.5t-65.5 -12.5q-67 0 -106 43t-39 117v250zM190 483q-32 0 -51 -22.5t-19 -60.5v-250q0 -38 19 -60.5t51 -22.5q31 0 49 22.5t18 60.5v250q0 38 -18 60.5t-49 22.5zM480 323v77q0 38 -19 60.5t-51 22.5q-31 0 -49 -22.5t-18 -60.5v-77h137
z" />
    <glyph glyph-name="AE" unicode="&#xc6;" 
d="M30 0l145 720h395v-82h-182v-226h157v-82h-157v-248h182v-82h-270v203h-141l-40 -203h-89zM173 278h127v360h-56z" />
    <glyph glyph-name="ae" unicode="&#xe6;" 
d="M188 325h74v74q0 44 -16 64t-51 20q-57 0 -63 -58h-85q7 64 42 99.5t91 35.5q41 0 64.5 -12.5t36.5 -27.5q14 -18 20 -40h4q5 22 20 40q12 15 34.5 27.5t60.5 12.5q68 0 106.5 -42.5t38.5 -117.5v-145h-222v-105q0 -38 18.5 -60.5t48.5 -22.5q27 0 46 16t24 42h85
q-7 -61 -46.5 -98t-98.5 -37q-38 0 -61 12.5t-35 27.5q-14 18 -19 40h-4q-6 -22 -22 -40q-14 -15 -39 -27.5t-70 -12.5q-63 0 -99 37.5t-36 102.5v60q0 62 41.5 98.5t111.5 36.5zM125 190v-60q0 -29 17.5 -46t47.5 -17q32 0 52 22.5t20 60.5v105h-72q-31 0 -48 -17.5
t-17 -47.5zM343 400v-75h137v75q0 38 -18.5 60.5t-51.5 22.5q-32 0 -49.5 -22.5t-17.5 -60.5z" />
    <glyph glyph-name="germandbls" unicode="&#xdf;" 
d="M55 0v551q0 40 13.5 73t38.5 56.5t60 36.5t77 13h73q43 0 78.5 -13t60.5 -36.5t38.5 -56.5t13.5 -73v-81h-90q-89 0 -89 -70q0 -61 68 -74l34 -7q70 -14 107 -58t37 -110q0 -76 -44.5 -118.5t-125.5 -42.5q-76 0 -124 37t-56 103h95q5 -29 27.5 -44.5t57.5 -15.5
q80 0 80 79q0 71 -69 86l-33 7q-145 30 -145 157q0 72 47 111.5t133 39.5q0 45 -27.5 72.5t-73.5 27.5h-73q-45 0 -72 -27.5t-27 -72.5v-550h-90z" />
    <glyph glyph-name="eth" unicode="&#xf0;" 
d="M70 215q0 50 15 90.5t43 69.5t66.5 45t86.5 16q30 0 51 -8.5t35 -19.5q16 -12 26 -28h14q-8 9 -19 24q-10 12 -24 31t-32 45l-60 87l-155 -72v80l113 53l-70 102h109l42 -65l150 70v-80l-109 -51l73 -111q105 -160 105 -278q0 -50 -16.5 -91.5t-47 -71t-73 -46
t-94.5 -16.5t-94 16t-72 45.5t-46.5 71t-16.5 92.5zM160 215q0 -66 38 -105.5t101 -39.5q64 0 102.5 39.5t38.5 105.5t-38.5 105.5t-102.5 39.5q-63 0 -101 -39.5t-38 -105.5z" />
    <glyph glyph-name="logicalnot" unicode="&#xac;" 
d="M70 415h460v-210h-85v130h-375v80z" />
    <glyph glyph-name="trademark" unicode="&#x2122;" 
d="M310 730h80l34 -102q4 -10 6 -21.5t3 -22.5q2 -12 3 -24h6q1 12 3 24q2 11 4 22.5t5 21.5l33 102h78v-360h-55v251q0 9 1 20.5t3 22.5q1 13 3 26h-9q-2 -14 -5 -26q-2 -11 -4.5 -23t-4.5 -21l-30 -110h-52l-32 111q-2 9 -5 20.5t-5 22.5q-3 13 -5 26h-8l4 -26
q2 -11 3 -22.5t1 -20.5v-251h-55v360zM275 730v-50h-100v-310h-60v310h-100v50h260z" />
    <glyph glyph-name="florin" unicode="&#x192;" 
d="M105 -88q54 0 84.5 30t30.5 83v388h-160v82h160v86q0 66 40.5 102.5t113.5 36.5h161v-80h-161q-64 0 -64 -60v-85h225v-82h-225v-388q0 -44 -14.5 -80t-41.5 -61.5t-64.5 -39.5t-84.5 -14h-105v82h105z" />
    <glyph glyph-name="section" unicode="&#xa7;" 
d="M77 -10h95q9 -33 40 -53.5t73 -20.5h30q57 0 87 23.5t30 62.5q0 73 -101 93l-76 15q-38 8 -69 23.5t-53.5 37t-34.5 48t-12 56.5q0 29 10 54t27 44t40.5 31t51.5 15v7q-35 2 -62 17q-24 14 -43.5 43t-19.5 83q0 74 52.5 117.5t146.5 43.5h30q39 0 73 -10.5t60 -29.5
t43 -45.5t22 -59.5h-95q-8 29 -36 47t-67 18h-30q-51 0 -79.5 -22t-28.5 -60q0 -32 25.5 -56t71.5 -33l74 -15q38 -7 69 -23t53.5 -38t34.5 -48.5t12 -56.5q0 -29 -9.5 -54t-27 -44t-42 -29.5t-54.5 -10.5v-7q38 -4 68 -21q12 -7 24 -18t21.5 -26.5t15.5 -36t6 -46.5
q0 -78 -54.5 -123.5t-153.5 -45.5h-30q-41 0 -76.5 11t-63 31.5t-45 48.5t-23.5 63zM177 290q0 -38 21 -65.5t56 -34.5l76 -15q22 -4 40.5 3t31.5 23t20.5 38.5t7.5 49.5q0 35 -22 61t-57 34l-74 15q-22 5 -40.5 -2t-31.5 -22.5t-20.5 -37t-7.5 -47.5z" />
    <glyph glyph-name="currency" unicode="&#xa4;" 
d="M42 554l63 63l88 -88q47 28 106 28q62 0 110 -31l85 85l63 -63l-85 -85q14 -23 21.5 -50.5t7.5 -57.5q0 -62 -31 -110l87 -87l-63 -63l-87 87q-23 -14 -50.5 -21.5t-57.5 -7.5q-61 0 -107 29l-87 -87l-63 63l86 86q-32 47 -32 111q0 32 8.5 60.5t23.5 52.5zM299 226
q58 0 93 35.5t35 93.5t-35 93.5t-93 35.5t-93.5 -35.5t-35.5 -93.5t35.5 -93.5t93.5 -35.5z" />
    <glyph glyph-name="cent" unicode="&#xa2;" 
d="M275 558v132h65v-132q78 -8 127.5 -56.5t60.5 -126.5h-90q-6 40 -32 67t-66 35v-404q40 8 66 35t32 67h90q-11 -78 -61 -126.5t-127 -56.5v-132h-65v132q-88 9 -137.5 65.5t-49.5 147.5v140q0 91 49.5 147.5t137.5 65.5zM275 73v404q-46 -10 -71.5 -44t-25.5 -88v-140
q0 -54 25.5 -88.5t71.5 -43.5z" />
    <glyph glyph-name="sterling" unicode="&#xa3;" 
d="M75 100q31 20 55 42q20 19 37 42.5t17 49.5q0 27 -4 46h-105v80h76q-10 19 -21.5 36t-21.5 35.5t-16 39.5t-6 48q0 97 57 149t157 52t157 -50.5t59 -140.5h-95q0 51 -33.5 81t-88.5 30q-56 0 -89 -29.5t-33 -85.5q0 -31 7 -52.5t18 -39.5t23.5 -35t23.5 -38h186v-80h-162
q1 -8 1.5 -17.5t0.5 -19.5q0 -45 -17 -75.5t-38 -50.5q-24 -23 -55 -37h370v-80h-460v100z" />
    <glyph glyph-name="yen" unicode="&#xa5;" 
d="M125 720l148 -297q6 -12 10.5 -25t8 -24t5.5 -18.5t3 -10.5h4q1 3 3 10.5t5.5 18.5t8 24t10.5 25l143 297h96l-187 -375h157v-75h-195v-75h195v-75h-195v-120h-90v120h-195v75h195v75h-195v75h158l-188 375h95z" />
    <glyph glyph-name="ordfeminine" unicode="&#xaa;" 
d="M175 536q0 39 28 62t77 23h90v29q0 23 -17.5 36.5t-47.5 13.5q-26 0 -44 -11t-21 -29h-50q5 38 35 59t80 21q54 0 84.5 -24t30.5 -66v-195h-47v55h-3q-11 -28 -36 -44t-60 -16q-45 0 -72 23.5t-27 62.5zM287 488q39 0 61 17.5t22 49.5v26h-90q-26 0 -40.5 -12t-14.5 -33
q0 -23 16.5 -35.5t45.5 -12.5z" />
    <glyph glyph-name="ordmasculine" unicode="&#xba;" 
d="M185 630q0 48 31.5 76.5t83.5 28.5t83.5 -28.5t31.5 -76.5v-80q0 -48 -31.5 -76.5t-83.5 -28.5t-83.5 28.5t-31.5 76.5v80zM235 550q0 -29 18 -47t47 -18t47 18t18 47v80q0 29 -18 47t-47 18t-47 -18t-18 -47v-80z" />
    <glyph glyph-name="onesuperior" unicode="&#xb9;" 
d="M180 440v50h118v183q0 24 3 35.5t3 12.5h-6q-4 -4 -9 -10l-10.5 -10.5t-13.5 -12.5l-62 -54v70l70 61h85v-275h97v-50h-275z" />
    <glyph glyph-name="twosuperior" unicode="&#xb2;" 
d="M280 770q57 0 91 -30.5t34 -81.5q0 -31 -22 -61t-64 -53l-93 -52v-10q10 2 23 4q10 2 23.5 3t28.5 1h109v-50h-255v64l120 69q70 40 70 83q0 29 -18 46.5t-47 17.5t-47 -17.5t-18 -46.5h-60q2 52 36.5 83t88.5 31z" />
    <glyph glyph-name="threesuperior" unicode="&#xb3;" 
d="M284 435q-58 0 -93.5 28.5t-35.5 76.5h60q0 -25 19 -40t50 -15q30 0 48 15t18 40t-18 40t-47 15h-30v60l93 64v7q-9 -3 -20 -5q-10 -2 -22 -4t-26 -2h-100v50h215v-60l-57 -44q-7 -5 -15.5 -9.5t-16.5 -7.5q48 -5 76 -32.5t28 -71.5q0 -48 -34.5 -76.5t-91.5 -28.5z" />
    <glyph glyph-name="uni2070" unicode="&#x2070;" 
d="M300 770q63 0 96.5 -36t33.5 -99v-65q0 -63 -33.5 -99t-96.5 -36t-96.5 36t-33.5 99v65q0 63 33.5 99t96.5 36zM230 570q0 -37 17.5 -58.5t52.5 -21.5q38 0 54 23.5t16 56.5v65q0 37 -17.5 58.5t-52.5 21.5t-52.5 -21.5t-17.5 -58.5v-65z" />
    <glyph glyph-name="uni2074" unicode="&#x2074;" 
d="M301 765h69l-135 -189v-16h116v89h60v-209h-60v70h-176v80z" />
    <glyph glyph-name="uni2080" unicode="&#x2080;" 
d="M300 285q63 0 96.5 -36t33.5 -99v-65q0 -63 -33.5 -99t-96.5 -36t-96.5 36t-33.5 99v65q0 63 33.5 99t96.5 36zM230 85q0 -37 17.5 -58.5t52.5 -21.5q38 0 54 23.5t16 56.5v65q0 37 -17.5 58.5t-52.5 21.5t-52.5 -21.5t-17.5 -58.5v-65z" />
    <glyph glyph-name="uni2081" unicode="&#x2081;" 
d="M180 -46v50h118v183q0 24 3 35.5t3 12.5h-6q-4 -4 -9 -10l-10.5 -10.5t-13.5 -12.5l-62 -54v70l70 61h85v-275h97v-50h-275z" />
    <glyph glyph-name="uni2082" unicode="&#x2082;" 
d="M280 285q57 0 91 -30.5t34 -81.5q0 -31 -22 -61t-64 -53l-93 -52v-10q10 2 23 4q10 2 23.5 3t28.5 1h109v-50h-255v64l120 69q70 40 70 83q0 29 -18 46.5t-47 17.5t-47 -17.5t-18 -46.5h-60q2 52 36.5 83t88.5 31z" />
    <glyph glyph-name="uni2083" unicode="&#x2083;" 
d="M284 -50q-58 0 -93.5 28.5t-35.5 76.5h60q0 -25 19 -40t50 -15q30 0 48 15t18 40t-18 40t-47 15h-30v60l93 64v7q-9 -3 -20 -5q-10 -2 -22 -4t-26 -2h-100v50h215v-60l-57 -44q-7 -5 -15.5 -9.5t-16.5 -7.5q48 -5 76 -32.5t28 -71.5q0 -48 -34.5 -76.5t-91.5 -28.5z" />
    <glyph glyph-name="uni2084" unicode="&#x2084;" 
d="M301 280h69l-135 -189v-16h116v89h60v-209h-60v70h-176v80z" />
    <glyph glyph-name="fraction" unicode="&#x2044;" 
d="M447 710h61l-355 -710h-61z" />
    <glyph glyph-name="onequarter" unicode="&#xbc;" 
d="M30 395v50h118v183q0 24 3 35.5t3 12.5h-6q-4 -4 -9 -10l-10.5 -10.5t-13.5 -12.5l-62 -54v70l70 61h85v-275h97v-19l142 284h61l-355 -710h-61l198 395h-260zM305 70v80l126 175h69l-135 -189v-16h116v89h60v-209h-60v70h-176z" />
    <glyph glyph-name="onehalf" unicode="&#xbd;" 
d="M148 445v183q0 24 3 35.5t3 12.5h-6q-4 -4 -9 -10l-10.5 -10.5t-13.5 -12.5l-62 -54v70l70 61h85v-275h97v-19l142 284h61l-355 -710h-61l198 395h-260v50h118zM315 0v64l120 69q70 40 70 83q0 29 -18 46.5t-47 17.5t-47 -17.5t-18 -46.5h-60q2 52 36.5 83t88.5 31
q57 0 91 -30.5t34 -81.5q0 -31 -22 -61t-64 -53l-93 -52v-10q10 2 23 4q10 2 23.5 3t28.5 1h109v-50h-255z" />
    <glyph glyph-name="threequarters" unicode="&#xbe;" 
d="M92 0l355 710h61l-355 -710h-61zM5 495h60q0 -25 19 -40t50 -15q30 0 48 15t18 40t-18 40t-47 15h-30v60l93 64v7q-9 -3 -20 -5q-10 -2 -22 -4t-26 -2h-100v50h215v-60l-57 -44q-7 -5 -15.5 -9.5t-16.5 -7.5q48 -5 76 -32.5t28 -71.5q0 -48 -34.5 -76.5t-91.5 -28.5
q-58 0 -93.5 28.5t-35.5 76.5zM305 150l126 175h69l-135 -189v-16h116v89h60v-209h-60v70h-176v80z" />
    <glyph glyph-name="perthousand" unicode="&#x2030;" 
d="M208 195q0 53 29 81.5t78 28.5q29 0 45.5 -10t25.5 -22q11 -14 15 -32q4 18 15 32q10 12 27 22t45 10q49 0 78 -28.5t29 -81.5v-90q0 -53 -29 -81.5t-78 -28.5q-28 0 -45 10t-26 22q-11 14 -15 32q-4 -18 -15 -32q-10 -12 -26.5 -22t-45.5 -10q-49 0 -78 28.5t-29 81.5
v90zM31 555v45q0 56 28.5 90.5t91.5 34.5t91.5 -34.5t28.5 -90.5v-45q0 -56 -28.5 -90.5t-91.5 -34.5t-91.5 34.5t-28.5 90.5zM570 495v-55l-540 -160v55zM265 105q0 -30 14.5 -44.5t39.5 -14.5q26 0 40.5 15t14.5 44v90q0 29 -14.5 44t-40.5 15q-25 0 -39.5 -14.5
t-14.5 -44.5v-90zM429 105q0 -29 14.5 -44t40.5 -15q25 0 39.5 14.5t14.5 44.5v90q0 30 -14.5 44.5t-39.5 14.5q-26 0 -40.5 -15t-14.5 -44v-90zM91 555q0 -29 12.5 -49.5t47.5 -20.5q19 0 31 6t18.5 16t8.5 22.5t2 25.5v45q0 29 -12.5 49.5t-47.5 20.5t-47.5 -20.5
t-12.5 -49.5v-45z" />
    <glyph glyph-name="dagger" unicode="&#x2020;" 
d="M255 830h90v-940h-90v940zM100 410h400v-80h-400v80z" />
    <glyph glyph-name="daggerdbl" unicode="&#x2021;" 
d="M255 830h90v-940h-90v940zM80 290h440v-80h-440v80zM520 530v-80h-440v80h440z" />
    <glyph glyph-name="kgreenlandic" unicode="&#x138;" 
d="M183 550v-230h108l168 230h103l-196 -265l199 -285h-106l-167 240h-109v-240h-90v550h90z" />
    <glyph glyph-name="ibreve" unicode="&#x12d;" 
d="M90 82h205v386h-180v82h270v-468h160v-82h-455v82zM130 790h75q0 -34 26 -52t68 -18t69 18t27 52h75q0 -30 -13 -55t-36 -43t-54 -27.5t-67 -9.5t-67 9.5t-54 27.5t-36 43t-13 55z" />
    <glyph glyph-name="Ibreve" unicode="&#x12c;" 
d="M254 79v562h-159v79h410v-79h-159v-562h159v-79h-410v79h159zM140 940h75q0 -70 84 -70q42 0 64 18t22 52h75q0 -61 -44 -98t-116 -37t-116 37t-44 98z" />
    <glyph glyph-name="longs" unicode="&#x17f;" 
d="M165 561q0 36 12 65t34.5 50t53.5 32.5t69 11.5h176v-80h-176q-35 0 -57 -22t-22 -58v-560h-90v561z" />
    <glyph glyph-name="eng" unicode="&#x14b;" 
d="M88 0v550h85v-95h8q13 50 52.5 77.5t96.5 27.5q85 0 134 -51t49 -138v-346q0 -44 -14.5 -80t-41.5 -61.5t-64.5 -39.5t-84.5 -14h-63v82h63q54 0 84.5 30t30.5 83v331q0 59 -32.5 92.5t-89.5 33.5t-90 -32.5t-33 -89.5v-360h-90z" />
    <glyph glyph-name="Eng" unicode="&#x14a;" 
d="M85 0v720h114l191 -433q8 -18 15.5 -41.5t13.5 -44.5q7 -25 13 -51h8l-1.5 10.5t-3.5 28.5t-4 41.5t-2 49.5v440h86v-695q0 -44 -14.5 -80t-41.5 -61.5t-64.5 -39.5t-84.5 -14h-70v82h70q54 0 84.5 30t30.5 83l-212 459q-10 22 -18 46t-13 44q-6 24 -10 47h-8
q2 -16 4 -36q1 -17 2 -40.5t1 -52.5v-492h-86z" />
    <glyph glyph-name="bar_bar_bar.liga" 
d="M135 820h90v-940h-90v940zM-345 -120v940h90v-940h-90zM-825 820h90v-940h-90v940z" />
    <glyph glyph-name="slash_slash_slash.liga" 
d="M-650 830h95l-355 -940h-95zM-170 830h95l-355 -940h-95zM310 830h95l-355 -940h-95z" />
    <glyph glyph-name="ampersand_ampersand_ampersand.liga" 
d="M61 416l-7 10q-29 42 -41.5 74.5t-12.5 64.5q0 36 12.5 66.5t36 52.5t56.5 34t75 12q89 0 139 -46.5t50 -124.5h-90q0 41 -26.5 67t-72.5 26q-42 0 -66 -25.5t-24 -63.5q0 -44 35 -93l172 -237l71 127h94l-113 -199l117 -161h-99l-64 87q-36 -48 -80 -72.5t-93 -24.5
q-82 0 -128.5 43.5t-46.5 121.5v125q0 53 27.5 87.5t78.5 48.5zM-555 155v125q0 53 27.5 87.5t78.5 48.5l-7 10q-29 42 -41.5 74.5t-12.5 64.5q0 36 12.5 66.5t36 52.5t56.5 34t75 12q89 0 139 -46.5t50 -124.5h-90q0 41 -26.5 67t-72.5 26q-42 0 -66 -25.5t-24 -63.5
q0 -44 35 -93l341 -470h-99l-64 87q-36 -48 -80 -72.5t-93 -24.5q-82 0 -128.5 43.5t-46.5 121.5zM-1065 155v125q0 53 27.5 87.5t78.5 48.5l-7 10q-29 42 -41.5 74.5t-12.5 64.5q0 36 12.5 66.5t36 52.5t56.5 34t75 12q89 0 139 -46.5t50 -124.5h-90q0 41 -26.5 67
t-72.5 26q-42 0 -66 -25.5t-24 -63.5q0 -44 35 -93l341 -470h-99l-64 87q-36 -48 -80 -72.5t-93 -24.5q-82 0 -128.5 43.5t-46.5 121.5zM-465 280v-125q0 -41 23.5 -63t66.5 -22q34 0 65.5 22.5t53.5 61.5l-155 211q-54 -17 -54 -85zM45 155q0 -41 23.5 -63t66.5 -22
q34 0 65.5 22.5t53.5 61.5l-155 211q-54 -17 -54 -85v-125zM-975 155q0 -41 23.5 -63t66.5 -22q34 0 65.5 22.5t53.5 61.5l-155 211q-54 -17 -54 -85v-125z" />
    <glyph glyph-name="equal_equal_equal.liga" 
d="M520 180v-70h-1640v70h1640zM-1120 295v70h1640v-70h-1640zM-1120 550h1640v-70h-1640v70z" />
    <glyph glyph-name="plus_plus.liga" 
d="M-480 290v80h191v195h88v-195h402v195h88v-195h191v-80h-191v-195h-88v195h-402v-195h-88v195h-191z" />
    <glyph glyph-name="hyphen_hyphen.liga" 
d="M500 370v-80h-455v80h455zM-500 370h455v-80h-455v80z" />
    <glyph glyph-name="equal_greater.liga" 
d="M-520 490h830l-107 135h106l231 -295l-232 -295h-105l107 135h-830v80h894l19 24q24 30 39 43q8 7 14 11v3q-6 4 -14 12q-8 7 -18.5 18.5t-24.5 28.5l-16 20h-893v80z" />
    <glyph glyph-name="uni041D" unicode="&#x41d;" 
d="M90 0v720h90v-304h240v304h90v-720h-90v334h-240v-334h-90z" />
    <glyph glyph-name="uni041E" unicode="&#x41e;" 
d="M300 -10q-51 0 -91.5 15t-69 43t-44 68t-15.5 89v310q0 49 15.5 89t44 68t69 43t91.5 15t91.5 -15t69 -43t44 -68t15.5 -89v-310q0 -49 -15.5 -88.5t-44 -67.5t-69.5 -43.5t-91 -15.5zM170 205q0 -62 35 -98.5t95 -36.5t95 36.5t35 98.5v310q0 62 -35 98.5t-95 36.5
t-95 -36.5t-35 -98.5v-310z" />
    <glyph glyph-name="uni0410" unicode="&#x410;" 
d="M240 720h126l190 -720h-96l-50 203h-221l-51 -203h-94zM392 278l-70 285q-5 21 -9 38.5t-6 31.5q-2 15 -4 27h-4q-2 -12 -5 -27q-2 -14 -6 -31.5t-9 -38.5l-71 -285h184z" />
    <glyph glyph-name="uni0412" unicode="&#x412;" 
d="M301 720q102 0 160 -51t58 -139q0 -64 -36.5 -104.5t-96.5 -45.5v-6q69 -4 107.5 -49t38.5 -122q0 -47 -15 -84.5t-43.5 -64t-69.5 -40.5t-92 -14h-222v720h211zM179 330v-248h123q64 0 99.5 33t35.5 91t-36 91t-99 33h-123zM300 408q57 0 90.5 30.5t33.5 84.5t-33 84.5
t-90 30.5h-122v-230h121z" />
    <glyph glyph-name="uni0420" unicode="&#x420;" 
d="M333 720q49 0 89 -15t68.5 -43t44 -66.5t15.5 -85.5t-16 -85.5t-44.5 -66.5t-68.5 -43t-88 -15h-153v-300h-90v720h243zM180 380h153q56 0 90 35.5t34 94.5t-34 94.5t-90 35.5h-153v-260z" />
    <glyph glyph-name="uni0421" unicode="&#x421;" 
d="M306 -10q-51 0 -91.5 15t-69 43t-44 68t-15.5 89v310q0 49 15.5 89t44 68t69 43t91.5 15q94 0 151.5 -51.5t68.5 -143.5h-90q-6 54 -40.5 84.5t-89.5 30.5q-60 0 -95 -36t-35 -99v-310q0 -63 34.5 -99t95.5 -36q55 0 89.5 30.5t40.5 84.5h90q-11 -92 -68.5 -143.5
t-151.5 -51.5z" />
    <glyph glyph-name="uni0415" unicode="&#x415;" 
d="M95 0v720h425v-82h-335v-226h300v-82h-300v-248h335v-82h-425z" />
    <glyph glyph-name="uni041A" unicode="&#x41a;" 
d="M90 720h90v-306h115l164 306h106l-191 -342l201 -378h-107l-173 335h-115v-335h-90v720z" />
    <glyph glyph-name="uni041C" unicode="&#x41c;" 
d="M187 720l86 -244q5 -15 9.5 -32t8.5 -31q4 -17 7 -33h8q4 16 8 33q4 14 8.5 31t9.5 32l81 244h112v-720h-83v505q0 26 1.5 51t3.5 45q1 23 4 43h-10q-5 -19 -11 -41q-5 -20 -12.5 -44.5t-17.5 -53.5l-62 -185h-74l-62 185q-11 32 -19 58t-14 44q-6 22 -11 38h-7
q2 -21 4 -44q1 -20 2 -45t1 -51v-505h-83v720h112z" />
    <glyph glyph-name="uni0425" unicode="&#x425;" 
d="M250 367l-199 353h104l113 -209q14 -24 22 -44q6 -10 10 -20h3q4 9 10 20l22 44l115 209h99l-199 -347l210 -373h-103l-125 229l-22 44q-6 11 -10 21h-3q-4 -10 -9 -21q-5 -9 -10.5 -20.5t-11.5 -22.5l-126 -230h-100z" />
    <glyph glyph-name="uni0430" unicode="&#x430;" 
d="M63 160q0 39 13.5 70.5t39 53.5t61.5 34t81 12h164v45q0 51 -33.5 79.5t-96.5 28.5q-46 0 -78.5 -17t-43.5 -47h-90q14 65 71.5 103t142.5 38q102 0 160 -47.5t58 -132.5v-380h-82v105h-8q-13 -53 -61 -84t-117 -31q-83 0 -132 46t-49 124zM153 162q0 -46 29 -72t82 -26
q34 0 63 9t50 25.5t33 38.5t12 48v75h-162q-50 0 -78.5 -26t-28.5 -72z" />
    <glyph glyph-name="uni0435" unicode="&#x435;" 
d="M80 350q0 98 58.5 154t161.5 56t161.5 -56t58.5 -154v-101h-350v-44q0 -63 34.5 -99t95.5 -36q45 0 78 14t49 41h90q-17 -63 -75.5 -99t-141.5 -36q-103 0 -161.5 56t-58.5 154v150zM170 324h260v26q0 62 -34 96t-96 34t-96 -34t-34 -96v-26z" />
    <glyph glyph-name="uni043E" unicode="&#x43e;" 
d="M300 -10q-51 0 -91.5 15t-69 43t-44 68t-15.5 89v140q0 50 15.5 89.5t44 67.5t69 43t91.5 15q102 0 161 -57t59 -157v-141q0 -100 -58.5 -157.5t-161.5 -57.5zM170 205q0 -63 34.5 -99t95.5 -36q60 0 95 36t35 99v140q0 63 -35 99t-95 36t-95 -36t-35 -99v-140z" />
    <glyph glyph-name="uni0441" unicode="&#x441;" 
d="M306 -10q-51 0 -91.5 15t-69 43t-44 68t-15.5 89v140q0 49 15.5 89t44 68t69 43t91.5 15q91 0 149.5 -49.5t70.5 -135.5h-90q-7 48 -42.5 76.5t-87.5 28.5q-60 0 -95 -36t-35 -99v-140q0 -63 34.5 -99t95.5 -36q52 0 87.5 28.5t42.5 76.5h90q-13 -87 -71.5 -136
t-148.5 -49z" />
    <glyph glyph-name="uni0443" unicode="&#x443;" 
d="M50 550h100l126 -316q9 -23 14.5 -43t8.5 -35q4 -19 5 -34h7q1 15 5 33q3 16 8 36t13 43l116 316h97l-268 -720h-96l77 210z" />
    <glyph glyph-name="uni0445" unicode="&#x445;" 
d="M48 0l199 282l-187 268h108l115 -175q5 -7 8 -13.5t5 -11.5t3 -10h4q1 5 3 10t5 11.5t8 13.5l115 175h107l-187 -267l198 -283h-108l-123 186q-4 7 -7.5 13.5t-6.5 12.5q-3 7 -5 13h-4q-2 -7 -5 -13t-6 -13t-8 -13l-124 -186h-107z" />
    <glyph glyph-name="uni0440" unicode="&#x440;" 
d="M88 550h85v-95h8q13 50 53 77.5t101 27.5q42 0 76 -15t58 -42.5t37.5 -67.5t13.5 -90v-140q0 -50 -13.5 -90t-37.5 -67.5t-58 -42.5t-76 -15q-61 0 -101 27.5t-53 77.5h-8q1 -17 3 -34q1 -15 1.5 -31t0.5 -30v-170h-90v720zM178 345v-140q0 -63 33.5 -100t89.5 -37
q60 0 94.5 37t34.5 100v140q0 65 -34 101t-95 36q-56 0 -89.5 -37t-33.5 -100z" />
    <glyph glyph-name="uni041F" unicode="&#x41f;" 
d="M90 0v720h420v-720h-90v638h-240v-638h-90z" />
    <glyph glyph-name="uni0411" unicode="&#x411;" 
d="M90 720h415v-82h-325v-210h135q50 0 90.5 -15.5t69 -43.5t44.5 -67.5t16 -87.5t-16 -87.5t-44.5 -67.5t-69 -43.5t-90.5 -15.5h-225v720zM180 82h130q59 0 95.5 36.5t36.5 95.5q0 60 -36 96t-96 36h-130v-264z" />
    <glyph glyph-name="uni0418" unicode="&#x418;" 
d="M85 720h86v-490q0 -26 -1.5 -49.5t-3.5 -41.5t-3 -28.5l-1 -10.5h7q7 26 14 51q6 21 13.5 44.5t14.5 41.5l189 483h115v-720h-86v492q0 29 1 52.5t3 40.5q1 20 3 36h-7q-6 -23 -13 -46q-6 -20 -13.5 -44t-16.5 -47l-186 -484h-115v720z" />
    <glyph glyph-name="uni0422" unicode="&#x422;" 
d="M45 641v79h510v-79h-209v-641h-92v641h-209z" />
    <glyph glyph-name="uni0413" unicode="&#x413;" 
d="M535 720v-82h-340v-638h-90v720h430z" />
    <glyph glyph-name="uni0416" unicode="&#x416;" 
d="M5 0l132 376l-122 344h94l105 -313h46v313h80v-313h47l104 313h94l-120 -345l130 -375h-93l-113 341h-49v-341h-80v341h-49l-114 -341h-92z" />
    <glyph glyph-name="uni0426" unicode="&#x426;" 
d="M180 720v-640h230v640h90v-640h75v-220h-80v140h-405v720h90z" />
    <glyph glyph-name="uni0429" unicode="&#x429;" 
d="M53 0v720h82v-644h125v644h70v-644h125v644h82v-644h38v-216h-80v140h-442z" />
    <glyph glyph-name="uni0428" unicode="&#x428;" 
d="M146 720v-652h119v652h72v-652h118v652h83v-720h-474l-2 720h84z" />
    <glyph glyph-name="uni0417" unicode="&#x417;" 
d="M143 185q6 -54 45.5 -84.5t101.5 -30.5q68 0 107.5 34.5t39.5 92.5q0 59 -40 93.5t-107 34.5h-95v82h94q61 0 98 33.5t37 88.5q0 56 -36.5 88.5t-98.5 32.5q-61 0 -98 -34t-37 -91h-90q0 47 16 84.5t45.5 64.5t71 41.5t92.5 14.5q53 0 95.5 -13.5t72.5 -39t46 -61.5
t16 -81q0 -67 -36.5 -110t-96.5 -48v-6q67 -4 106.5 -50.5t39.5 -123.5q0 -47 -17 -85.5t-48.5 -65.5t-76 -41.5t-100.5 -14.5q-51 0 -93.5 13.5t-73.5 39t-49 61.5t-21 81h90z" />
    <glyph glyph-name="uni0419" unicode="&#x419;" 
d="M85 720h86v-490q0 -26 -1.5 -49.5t-3.5 -41.5t-3 -28.5l-1 -10.5h7q7 26 14 51q6 21 13.5 44.5t14.5 41.5l189 483h115v-720h-86v492q0 29 1 52.5t3 40.5q1 20 3 36h-7q-6 -23 -13 -46q-6 -20 -13.5 -44t-16.5 -47l-186 -484h-115v720zM140 940h75q0 -70 84 -70
q42 0 64 18t22 52h75q0 -61 -44 -98t-116 -37t-116 37t-44 98z" />
    <glyph glyph-name="uni0405" unicode="&#x405;" 
d="M70 185h95q0 -52 37.5 -83.5t99.5 -31.5q64 0 100 29.5t36 80.5q0 44 -26 77.5t-71 49.5l-85 30q-164 59 -164 203q0 88 57 139t156 51q48 0 87.5 -13.5t68 -38.5t44 -60.5t16.5 -78.5h-95q0 51 -33.5 81t-88.5 30q-56 0 -89 -27.5t-33 -74.5q0 -44 24 -73t78 -49l89 -32
q76 -27 116.5 -81.5t40.5 -129.5q0 -90 -61.5 -141.5t-168.5 -51.5q-51 0 -93 14t-72 39.5t-47 61.5t-18 80z" />
    <glyph glyph-name="uni0455" unicode="&#x455;" 
d="M77 135h95q6 -29 37 -47t76 -18h28q54 0 84 22.5t30 60.5q0 65 -92 79l-83 12q-81 12 -121 51t-40 109q0 74 52.5 115t146.5 41h28q40 0 74 -10t60 -28.5t42.5 -44t21.5 -56.5h-95q-6 26 -34 42.5t-69 16.5h-28q-51 0 -79.5 -20t-28.5 -60q0 -32 19.5 -48.5t63.5 -22.5
l83 -12q89 -13 129.5 -52t40.5 -111q0 -77 -53.5 -120.5t-151.5 -43.5h-28q-87 0 -143.5 39.5t-64.5 105.5z" />
    <glyph glyph-name="uni0456" unicode="&#x456;" 
d="M95 0v82h200v386h-175v82h265v-468h165v-82h-455zM315 765h20q29 0 47 -17t18 -44t-18 -43t-47 -16h-20q-29 0 -47 15.5t-18 43.5q0 27 18 44t47 17z" />
    <glyph glyph-name="uni042E" unicode="&#x42e;" 
d="M20 720h86v-305h106v125q0 43 13 78t37 60t58 38.5t76 13.5t76 -13.5t58 -38.5t37 -60t13 -78v-360q0 -43 -13 -78t-37 -60t-58 -38.5t-76 -13.5t-76 13.5t-58 38.5t-37 60t-13 78v155h-106v-335h-86v720zM396 652q-45 0 -71.5 -30.5t-26.5 -81.5v-360q0 -51 26.5 -81.5
t71.5 -30.5t71.5 30.5t26.5 81.5v360q0 51 -26.5 81.5t-71.5 30.5z" />
    <glyph glyph-name="uni042C" unicode="&#x42c;" 
d="M90 720h90v-290h150q49 0 89.5 -15.5t69.5 -43.5t45 -68t16 -88t-16 -87.5t-45 -68t-69.5 -44t-89.5 -15.5h-240v720zM325 82q60 0 96 36.5t36 96.5t-36 96.5t-96 36.5h-145v-266h145z" />
    <glyph glyph-name="uni042B" unicode="&#x42b;" 
d="M146 720v-292h47q95 0 145.5 -55t50.5 -145v-29q0 -45 -13 -81.5t-38 -62.5t-61.5 -40.5t-83.5 -14.5h-131v720h84zM454 0v720h84v-720h-84zM146 80h47q54 0 82 33t28 87v28q0 54 -28 87t-82 33h-47v-268z" />
    <glyph glyph-name="uni042A" unicode="&#x42a;" 
d="M10 720h200v-292h135q50 0 90.5 -15.5t69 -43.5t44.5 -67.5t16 -87.5t-16 -87.5t-44.5 -67.5t-69 -43.5t-90.5 -15.5h-225v638h-110v82zM210 346v-264h130q59 0 95.5 36.5t36.5 95.5q0 60 -36 96t-96 36h-130z" />
    <glyph glyph-name="uni042F" unicode="&#x42f;" 
d="M53 0l150 311q-65 20 -102.5 72.5t-37.5 126.5q0 47 15.5 85.5t44 66.5t68.5 43t89 15h230v-720h-90v300h-124l-141 -300h-102zM280 380h140v260h-140q-56 0 -90 -35.5t-34 -94.5t33.5 -94.5t90.5 -35.5z" />
    <glyph glyph-name="uni042D" unicode="&#x42d;" 
d="M74 535q11 92 68.5 143.5t151.5 51.5q103 0 161.5 -56t58.5 -154v-320q0 -98 -58.5 -154t-161.5 -56q-94 0 -151.5 51.5t-68.5 143.5h90q6 -54 40.5 -84.5t89.5 -30.5q61 0 95.5 36t34.5 99v120h-248v80h248v110q0 63 -35 99t-95 36q-55 0 -89.5 -30.5t-40.5 -84.5h-90z
" />
    <glyph glyph-name="uni041B" unicode="&#x41b;" 
d="M20 79h18q44 0 63.5 39.5t20.5 135.5l6 466h382v-720h-90v638h-203l-5 -384q-2 -135 -42 -197t-127 -62h-23v84z" />
    <glyph glyph-name="uni0414" unicode="&#x414;" 
d="M70 77q14 29 26 72q10 38 18.5 95t10.5 136l6 340h374v-643h70v-217h-80v140h-390v-140h-80v217h45zM164 77h251v563h-198l-4 -260q-1 -84 -9 -140.5t-17 -91.5q-10 -40 -23 -64v-7z" />
    <glyph glyph-name="uni0423" unicode="&#x423;" 
d="M40 720h100l137 -347q9 -22 14.5 -42t8.5 -36q3 -18 5 -34h7q1 15 4 34q3 15 8 35t13 43l125 347h98l-273 -720h-96l74 189z" />
    <glyph glyph-name="uni0424" unicode="&#x424;" 
d="M50 487q0 48 15 87.5t42 67t65.5 43t85.5 15.5v65h84v-65q47 0 85.5 -15.5t65.5 -43t42 -67t15 -87.5v-234q0 -47 -15 -85.5t-42.5 -65.5t-65.5 -42t-85 -15v-65h-84v65q-46 0 -84.5 15t-66 42t-42.5 65.5t-15 85.5v234zM466 487q0 62 -34 99.5t-90 37.5v-503q56 0 90 36
t34 96v234zM134 253q0 -60 34 -96t90 -36v503q-56 0 -90 -37.5t-34 -99.5v-234z" />
    <glyph glyph-name="uni0427" unicode="&#x427;" 
d="M165 720v-265q0 -55 35 -87.5t95 -32.5q35 0 59 5t39 10q17 7 27 15v355h90v-720h-90v225q0 11 0.5 22t0.5 20q0 10 1 19q-14 -9 -34 -15q-17 -6 -43.5 -11t-64.5 -5q-95 0 -150 54t-55 146v265h90z" />
    <glyph glyph-name="uni043D" unicode="&#x43d;" 
d="M90 0v550h90v-232h240v232h90v-550h-90v236h-240v-236h-90z" />
    <glyph glyph-name="uni0451" unicode="&#x451;" 
d="M80 350q0 98 58.5 154t161.5 56t161.5 -56t58.5 -154v-101h-350v-44q0 -63 34.5 -99t95.5 -36q45 0 78 14t49 41h90q-17 -63 -75.5 -99t-141.5 -36q-103 0 -161.5 56t-58.5 154v150zM170 324h260v26q0 62 -34 96t-96 34t-96 -34t-34 -96v-26zM400 787q27 0 43.5 -16.5
t16.5 -43.5t-16.5 -43.5t-43.5 -16.5t-43.5 16.5t-16.5 43.5t16.5 43.5t43.5 16.5zM140 727q0 27 16.5 43.5t43.5 16.5t43.5 -16.5t16.5 -43.5t-16.5 -43.5t-43.5 -16.5t-43.5 16.5t-16.5 43.5z" />
    <glyph glyph-name="uni0438" unicode="&#x438;" 
d="M90 550h86v-320q0 -26 -1 -51.5t-2.5 -45t-2.5 -31.5l-1 -12h7q8 20 16 41q8 17 16.5 37.5t17.5 38.5l169 343h115v-550h-86v322q0 59 3 98q1 22 2 41h-7q-7 -17 -15 -36q-7 -17 -16 -37.5t-20 -43.5l-166 -344h-115v550z" />
    <glyph glyph-name="uni044F" unicode="&#x44f;" 
d="M199 212q-63 15 -98.5 57.5t-35.5 107.5q0 81 53 127t147 46h245v-550h-90v205h-128l-131 -205h-106zM157 377q0 -43 28.5 -67.5t79.5 -24.5h155v185h-155q-51 0 -79.5 -24.5t-28.5 -68.5z" />
    <glyph glyph-name="uni043F" unicode="&#x43f;" 
d="M90 0v550h420v-550h-90v468h-240v-468h-90z" />
    <glyph glyph-name="uni043B" unicode="&#x43b;" 
d="M20 79h18q23 0 38.5 8.5t25.5 27.5t14.5 51t5.5 78l6 306h382v-550h-90v468h-203l-5 -228q-1 -66 -11.5 -112.5t-30.5 -76t-51.5 -43t-75.5 -13.5h-23v84z" />
    <glyph glyph-name="uni0434" unicode="&#x434;" 
d="M70 77q14 23 26 57q10 28 18.5 70.5t10.5 99.5l6 246h374v-473h70v-217h-80v140h-390v-140h-80v217h45zM167 77h248v393h-198l-4 -160q-2 -64 -9 -107t-15 -70q-10 -31 -22 -49v-7z" />
    <glyph glyph-name="uni0433" unicode="&#x433;" 
d="M535 550v-82h-340v-468h-90v550h430z" />
    <glyph glyph-name="uni043A" unicode="&#x43a;" 
d="M183 550v-230h108l168 230h103l-196 -265l199 -285h-106l-167 240h-109v-240h-90v550h90z" />
    <glyph glyph-name="uni043C" unicode="&#x43c;" 
d="M70 550h112l92 -219q5 -11 9.5 -25.5t7.5 -26.5q4 -15 8 -29h6q4 14 9 29q4 12 8 26.5t9 25.5l87 219h112v-550h-83v335q0 16 1.5 36t3.5 39q1 22 4 44h-6q-8 -23 -15 -45q-7 -19 -14.5 -39t-13.5 -35l-64 -160h-84l-64 160q-6 16 -13.5 36.5t-14.5 38.5q-8 22 -16 45h-5
l4 -44q1 -18 2 -38.5t1 -37.5v-335h-83v550z" />
    <glyph glyph-name="uni0444" unicode="&#x444;" 
d="M50 350q0 46 14.5 83t42 63t66.5 40t87 14v170h80v-170q48 0 87 -14t66.5 -40t42 -63t14.5 -83v-148q0 -46 -14.5 -83.5t-42 -64t-66.5 -40.5t-87 -14v-170h-80v170q-48 0 -87 14t-66.5 40.5t-42 64t-14.5 83.5v148zM340 70q61 0 95.5 35t34.5 97v148q0 61 -35 95.5
t-95 34.5v-410zM130 202q0 -62 34.5 -97t95.5 -35v410q-60 0 -95 -34.5t-35 -95.5v-148z" />
    <glyph glyph-name="uni0439" unicode="&#x439;" 
d="M90 550h86v-320q0 -26 -1 -51.5t-2.5 -45t-2.5 -31.5l-1 -12h7q8 20 16 41q8 17 16.5 37.5t17.5 38.5l169 343h115v-550h-86v322q0 59 3 98q1 22 2 41h-7q-7 -17 -15 -36q-7 -17 -16 -37.5t-20 -43.5l-166 -344h-115v550zM130 790h75q0 -34 26 -52t68 -18t69 18t27 52h75
q0 -30 -13 -55t-36 -43t-54 -27.5t-67 -9.5t-67 9.5t-54 27.5t-36 43t-13 55z" />
    <glyph glyph-name="uni0442" unicode="&#x442;" 
d="M45 471v79h510v-79h-209v-471h-92v471h-209z" />
    <glyph glyph-name="uni0436" unicode="&#x436;" 
d="M5 0l122 282l-114 268h91l93 -236h63v236h80v-236h63l93 236h91l-114 -265l122 -285h-95l-96 246h-64v-246h-80v246h-64l-96 -246h-95z" />
    <glyph glyph-name="uni0432" unicode="&#x432;" 
d="M90 0v550h247q86 0 133 -38.5t47 -107.5q0 -51 -30.5 -81t-86.5 -33v-6q63 -1 96.5 -33.5t33.5 -93.5q0 -75 -49.5 -116t-140.5 -41h-250zM179 240v-161h161q48 0 74 21t26 59q0 39 -26 60t-74 21h-161zM179 318h158q42 0 66 20t24 56t-23.5 56.5t-66.5 20.5h-158v-153z
" />
    <glyph glyph-name="uni0448" unicode="&#x448;" 
d="M142 550v-480h120v480h78v-480h120v480h78v-550h-474l-2 550h80z" />
    <glyph glyph-name="uni0449" unicode="&#x449;" 
d="M60 0v550h80v-476h119v476h80v-476h109v476h80v-476h37v-214h-80v140h-425z" />
    <glyph glyph-name="uni044C" unicode="&#x44c;" 
d="M90 550h90v-202h175q94 0 144.5 -45t50.5 -129q0 -83 -50.5 -128.5t-144.5 -45.5h-265v550zM350 82q52 0 79.5 23.5t27.5 68.5t-27.5 68.5t-79.5 23.5h-170v-184h170z" />
    <glyph glyph-name="uni044A" unicode="&#x44a;" 
d="M0 470v80h230v-202h139q93 0 144.5 -46t51.5 -128q0 -83 -51 -128.5t-145 -45.5h-229v470h-140zM230 266v-184h138q49 0 76.5 24t27.5 68t-27.5 68t-76.5 24h-138z" />
    <glyph glyph-name="uni044D" unicode="&#x44d;" 
d="M292 -10q-91 0 -148 45t-72 130h90q10 -45 44.5 -70t85.5 -25q61 0 95.5 36t34.5 99v35h-197v80h197v25q0 63 -35 99t-95 36q-51 0 -85.5 -25t-44.5 -70h-90q15 85 72 130t148 45q103 0 161.5 -56t58.5 -154v-150q0 -98 -58.5 -154t-161.5 -56z" />
    <glyph glyph-name="uni0446" unicode="&#x446;" 
d="M180 550v-470h230v470h90v-470h75v-220h-80v140h-405v550h90z" />
    <glyph glyph-name="uni044E" unicode="&#x44e;" 
d="M62 550h80v-235h88v75q0 79 41 124.5t113 45.5q73 0 114.5 -45.5t41.5 -124.5v-230q0 -79 -41.5 -124.5t-114.5 -45.5q-72 0 -113 45.5t-41 124.5v83h-88v-243h-80v550zM384 490q-35 0 -54.5 -26t-19.5 -74v-230q0 -48 19.5 -74t54.5 -26q36 0 56 26t20 74v230
q0 48 -20 74t-56 26z" />
    <glyph glyph-name="uni0447" unicode="&#x447;" 
d="M280 155q-95 0 -150 54t-55 146v195h90v-195q0 -55 35 -87.5t95 -32.5q35 0 59 5t39 10q17 7 27 15v285h90v-550h-90v125q0 11 0.5 22t0.5 20q0 10 1 19q-14 -9 -34 -15q-17 -6 -43.5 -11t-64.5 -5z" />
    <glyph glyph-name="uni044B" unicode="&#x44b;" 
d="M62 550h84v-202h48q94 0 144.5 -45.5t50.5 -128.5q0 -82 -51 -128t-144 -46h-132v550zM454 550h84v-550h-84v550zM146 72h48q51 0 81 27.5t30 74.5q0 46 -30 74t-81 28h-48v-204z" />
    <glyph glyph-name="uni0437" unicode="&#x437;" 
d="M269 -7q-88 0 -143 37t-66 100h95q7 -26 37 -41.5t77 -15.5h57q49 0 76.5 23t27.5 60q0 40 -26.5 63t-77.5 23h-137v78h134q46 0 70 22t24 58q0 37 -24 57t-69 20h-60q-41 0 -69.5 -18t-34.5 -44h-95q5 31 21.5 57t43 45t60.5 29.5t74 10.5h60q89 0 138.5 -40.5
t49.5 -111.5q0 -50 -32 -81t-90 -35v-4q71 -5 103 -38t32 -95q0 -74 -54 -116.5t-145 -42.5h-57z" />
    <glyph glyph-name="uni0431" unicode="&#x431;" 
d="M300 -10q-103 0 -161.5 57t-58.5 158v230q0 66 18.5 119t52.5 89.5t83.5 56.5t110.5 20h150v-90h-150q-81 0 -128 -52.5t-47 -142.5v-45h10q8 28 26 50q17 19 46 34.5t78 15.5q89 0 139.5 -55.5t50.5 -154.5v-75q0 -50 -15 -90t-43.5 -67.5t-69.5 -42.5t-92 -15zM170 205
q0 -63 35 -99t95 -36q61 0 95.5 36t34.5 99v75q0 63 -34.5 99t-95.5 36q-60 0 -95 -36t-35 -99v-75z" />
    <glyph glyph-name="notequal" unicode="&#x2260;" 
d="M381 410l-74 -160h213v-80h-251l-79 -170h-90l79 170h-99v80h137l74 160h-211v80h248l82 175h90l-82 -175h102v-80h-139z" />
    <glyph glyph-name="uni0401" unicode="&#x401;" 
d="M95 0v720h425v-82h-335v-226h300v-82h-300v-248h335v-82h-425zM400 947q27 0 43.5 -16.5t16.5 -43.5t-16.5 -43.5t-43.5 -16.5t-43.5 16.5t-16.5 43.5t16.5 43.5t43.5 16.5zM140 887q0 27 16.5 43.5t43.5 16.5t43.5 -16.5t16.5 -43.5t-16.5 -43.5t-43.5 -16.5t-43.5 16.5
t-16.5 43.5z" />
    <glyph glyph-name="uni0406" unicode="&#x406;" 
d="M254 79v562h-159v79h410v-79h-159v-562h159v-79h-410v79h159z" />
    <glyph glyph-name="uni0407" unicode="&#x407;" 
d="M254 79v562h-159v79h410v-79h-159v-562h159v-79h-410v79h159zM400 947q27 0 43.5 -16.5t16.5 -43.5t-16.5 -43.5t-43.5 -16.5t-43.5 16.5t-16.5 43.5t16.5 43.5t43.5 16.5zM140 887q0 27 16.5 43.5t43.5 16.5t43.5 -16.5t16.5 -43.5t-16.5 -43.5t-43.5 -16.5t-43.5 16.5
t-16.5 43.5z" />
    <glyph glyph-name="uni0408" unicode="&#x408;" 
d="M135 175q9 -48 46 -76.5t89 -28.5q64 0 102 36.5t38 98.5v435h-280v80h370v-515q0 -49 -16 -89t-46 -68t-72.5 -43t-95.5 -15q-44 0 -82 13t-67.5 37.5t-49 58.5t-26.5 76h90z" />
    <glyph glyph-name="uni0457" unicode="&#x457;" 
d="M400 787q27 0 43.5 -16.5t16.5 -43.5t-16.5 -43.5t-43.5 -16.5t-43.5 16.5t-16.5 43.5t16.5 43.5t43.5 16.5zM140 727q0 27 16.5 43.5t43.5 16.5t43.5 -16.5t16.5 -43.5t-16.5 -43.5t-43.5 -16.5t-43.5 16.5t-16.5 43.5zM90 82h205v386h-180v82h270v-468h160v-82h-455v82
z" />
    <glyph glyph-name="uni0458" unicode="&#x458;" 
d="M85 -87h120q63 0 101.5 38t38.5 99v418h-230v82h320v-500q0 -48 -17 -88.5t-47.5 -70t-72.5 -45.5t-93 -16h-120v83zM305 704q0 27 18 44t47 17h20q29 0 47 -17t18 -44t-18 -43t-47 -16h-20q-29 0 -47 15.5t-18 43.5z" />
    <glyph glyph-name="uni0490" unicode="&#x490;" 
d="M450 720v105h85v-187h-340v-638h-90v720h345z" />
    <glyph glyph-name="uni0491" unicode="&#x491;" 
d="M450 550v105h85v-187h-340v-468h-90v550h345z" />
    <glyph glyph-name="uni0403" unicode="&#x403;" 
d="M535 720v-82h-340v-638h-90v720h430zM280 800h-90l110 146h110z" />
    <glyph glyph-name="uni0453" unicode="&#x453;" 
d="M535 550v-82h-340v-468h-90v550h430zM280 650h-90l110 146h110z" />
    <glyph glyph-name="uni040C" unicode="&#x40c;" 
d="M90 720h90v-306h115l164 306h106l-191 -342l201 -378h-107l-173 335h-115v-335h-90v720zM280 800h-90l110 146h110z" />
    <glyph glyph-name="uni045C" unicode="&#x45c;" 
d="M183 550v-230h108l168 230h103l-196 -265l199 -285h-106l-167 240h-109v-240h-90v550h90zM280 650h-90l110 146h110z" />
    <glyph glyph-name="uni040E" unicode="&#x40e;" 
d="M40 720h100l137 -347q9 -22 14.5 -42t8.5 -36q3 -18 5 -34h7q1 15 4 34q3 15 8 35t13 43l125 347h98l-273 -720h-96l74 189zM140 940h75q0 -70 84 -70q42 0 64 18t22 52h75q0 -61 -44 -98t-116 -37t-116 37t-44 98z" />
    <glyph glyph-name="uni045E" unicode="&#x45e;" 
d="M50 550h100l126 -316q9 -23 14.5 -43t8.5 -35q4 -19 5 -34h7q1 15 5 33q3 16 8 36t13 43l116 316h97l-268 -720h-96l77 210zM130 790h75q0 -34 26 -52t68 -18t69 18t27 52h75q0 -30 -13 -55t-36 -43t-54 -27.5t-67 -9.5t-67 9.5t-54 27.5t-36 43t-13 55z" />
    <glyph glyph-name="uni040F" unicode="&#x40f;" 
d="M180 720v-638h240v638h90v-720h-165v-125h-90v125h-165v720h90z" />
    <glyph glyph-name="uni045F" unicode="&#x45f;" 
d="M180 550v-468h240v468h90v-550h-165v-125h-90v125h-165v550h90z" />
    <glyph glyph-name="uni040A" unicode="&#x40a;" 
d="M133 720v-290h147v290h80v-290h60q36 0 65.5 -11t50.5 -31.5t32.5 -49t11.5 -63.5v-120q0 -35 -11.5 -63.5t-32.5 -49t-50.5 -31.5t-65.5 -11h-140v355h-147v-355h-80v720h80zM360 75h60q36 0 58 22t22 58v120q0 36 -22 58t-58 22h-60v-280z" />
    <glyph glyph-name="uni045A" unicode="&#x45a;" 
d="M53 0v550h80v-200h147v200h80v-200h60q36 0 65.5 -11t50.5 -31.5t32.5 -49t11.5 -63.5v-40q0 -35 -11.5 -63.5t-32.5 -49t-50.5 -31.5t-65.5 -11h-140v275h-147v-275h-80zM360 75h60q36 0 58 22t22 58v40q0 36 -22 58t-58 22h-60v-200z" />
    <glyph glyph-name="uni0409" unicode="&#x409;" 
d="M-5 75h18q25 0 40 33.5t16 85.5l5 526h286v-290h60q36 0 65.5 -11t50.5 -31.5t32.5 -49t11.5 -63.5v-120q0 -35 -11.5 -63.5t-32.5 -49t-50.5 -31.5t-65.5 -11h-140v645h-127l-5 -451q-1 -91 -37 -145t-101 -54h-15v80zM360 75h60q36 0 58 22t22 58v120q0 36 -22 58
t-58 22h-60v-280z" />
    <glyph glyph-name="uni0459" unicode="&#x459;" 
d="M13 80q25 0 40 31t16 83l4 356h287v-200h60q36 0 65.5 -11t50.5 -31.5t32.5 -48.5t11.5 -63v-42q0 -34 -11.5 -62.5t-32.5 -49t-50.5 -31.5t-65.5 -11h-140v473h-127l-3 -279q-1 -91 -38 -145t-102 -54h-15v85h18zM360 276v-202h60q36 0 58 22t22 58v42q0 36 -22 58
t-58 22h-60z" />
    <glyph glyph-name="uni0454" unicode="&#x454;" 
d="M308.018 -10q90.9951 0 147.991 45t71.9951 130h-89.9941q-9.99902 -45 -44.4971 -70t-85.4951 -25q-60.9961 0 -95.4941 36t-34.498 99v35h196.988v80h-196.988v25q0 63 34.998 99t94.9941 36q50.9971 0 85.4951 -25t44.4971 -70h89.9941q-14.999 85 -71.9951 130
t-147.991 45q-102.993 0 -161.49 -56q-58.4961 -56 -58.4961 -154v-150q0 -98 58.4961 -154q58.4971 -56 161.49 -56z" />
    <glyph glyph-name="uni0404" unicode="&#x404;" 
d="M526.005 535q-11 92 -68.4961 143.5q-57.4971 51.5 -151.491 51.5q-102.993 0 -161.49 -56q-58.4961 -56 -58.4961 -154v-320q0 -98 58.4961 -154q58.4971 -56 161.49 -56q93.9941 0 151.491 51.5q57.4961 51.5 68.4961 143.5h-89.9951q-5.99902 -54 -40.4971 -84.5
t-89.4951 -30.5q-60.9961 0 -95.4941 36t-34.498 99v120h247.985v80h-247.985v110q0 63 34.998 99t94.9941 36q54.9971 0 89.4951 -30.5t40.4971 -84.5h89.9951z" />
    <glyph glyph-name="uni045B" unicode="&#x45b;" 
d="M20 625h68v105h90v-105h102v-75h-102v-50q0 -14 -0.5 -30.5t-1.5 -30.5q-2 -17 -3 -34h8q13 50 52.5 77.5t98.5 27.5q41 0 74.5 -14t57 -39.5t36.5 -61t13 -79.5v-316h-90v301q0 63 -32 98t-89 35t-90.5 -37.5t-33.5 -101.5v-295h-90v550h-68v75z" />
    <glyph glyph-name="uni0452" unicode="&#x452;" 
d="M20 625h68v105h90v-105h102v-75h-102v-50q0 -14 -0.5 -30.5t-1.5 -30.5q-2 -17 -3 -34h8q13 50 52.5 77.5t98.5 27.5q82 0 130 -51.5t51 -137.5v-296q0 -44 -14.5 -80t-41.5 -61.5t-64.5 -39.5t-84.5 -14h-70v82h70q54 0 84.5 30t30.5 83v276q0 63 -32 98t-89 35
t-90.5 -34.5t-33.5 -94.5v-305h-90v550h-68v75z" />
    <glyph glyph-name="uni040B" unicode="&#x40b;" 
d="M0 641v79h320v-79h-120v-244l16 19q32 38 70.5 58.5t78.5 20.5q38 0 69 -13t53.5 -36.5t35 -56.5t12.5 -73v-316h-90v296q0 123 -91 123q-60 0 -110 -57l-44 -51v-311h-90v641h-110z" />
    <glyph glyph-name="uni0402" unicode="&#x402;" 
d="M320 720v-79h-120v-244l16 19q32 38 70.5 58.5t78.5 20.5q38 0 69 -13t53.5 -36.5t35 -56.5t12.5 -73v-291q0 -44 -14.5 -80t-41.5 -61.5t-64.5 -39.5t-84.5 -14h-70v82h70q54 0 84.5 30t30.5 83v271q0 123 -91 123q-60 0 -110 -57l-44 -51v-311h-90v641h-110v79h320z
" />
    <glyph glyph-name="ij" unicode="&#x133;" 
d="M210 -165v82h85q54 0 84.5 30t30.5 83v520h90v-520q0 -44 -14.5 -80t-41.5 -61.5t-64.5 -39.5t-84.5 -14h-85zM105 0v550h90v-550h-90zM440 645q-29 0 -47 15.5t-18 43.5q0 27 18 44t47 17h20q29 0 47 -17t18 -44t-18 -43t-47 -16h-20zM75 704q0 27 18 44t47 17h20
q29 0 47 -17t18 -44t-18 -43t-47 -16h-20q-29 0 -47 15.5t-18 43.5z" />
    <glyph glyph-name="IJ" unicode="&#x132;" 
d="M320 80q60 0 92.5 31.5t32.5 89.5v439h-145v80h235v-519q0 -97 -56 -149t-159 -52h-60v80h60zM162 720v-720h-92v720h92z" />
    <glyph glyph-name="bar_greater.liga" 
d="M-325 750h90l595 -370v-100l-595 -365h-90v835zM-235 19l445 270q28 17 51 27q12 6 23 11v7q-11 4 -23 9q-11 5 -24 11.5t-27 14.5l-445 274v-624z" />
    <glyph glyph-name="less_bar.liga" 
d="M-360 280v100l595 370h90v-835h-90zM-284 326q11 -4 23 -9q11 -5 24 -11.5t27 -14.5l445 -269v624l-445 -275q-14 -8 -27 -15t-24 -12q-12 -6 -23 -11v-7z" />
    <glyph glyph-name="bar_bar_greater.liga" 
d="M-290 750l595 -370v-100l-595 -365h-90v835h90zM155 289q28 17 51 27q12 6 23 11v7q-11 4 -23 9q-11 5 -24 11.5t-27 14.5l-445 274v-624zM-810 750h90v-835h-90v835z" />
    <glyph glyph-name="less_bar_bar.liga" 
d="M-310 750h90v-835h-90l-595 365v100zM-829 326q11 -4 23 -9q11 -5 24 -11.5t27 -14.5l445 -269v624l-445 -275q-14 -8 -27 -15t-24 -12q-12 -6 -23 -11v-7zM210 750v-835h-90v835h90z" />
    <glyph glyph-name="bar_bar_bar_greater.liga" 
d="M-475 -85v835h90l595 -370v-100l-595 -365h-90zM60 289q28 17 51 27q12 6 23 11v7q-11 4 -23 9q-11 5 -24 11.5t-27 14.5l-445 274v-624zM-815 750v-835h-90v835h90zM-1335 750h90v-835h-90v835z" />
    <glyph glyph-name="less_bar_bar_bar.liga" 
d="M-1410 380l595 370h90v-835h-90l-595 365v100zM-1334 326q11 -4 23 -9q11 -5 24 -11.5t27 -14.5l445 -269v624l-445 -275q-14 -8 -27 -15t-24 -12q-12 -6 -23 -11v-7zM135 750v-835h-90v835h90zM-385 750h90v-835h-90v835z" />
    <glyph glyph-name="greater_greater.liga" 
d="M40 156l325 154q14 7 24 10t17 4q8 2 14 2v7q-6 -1 -14 1q-7 1 -17 4t-24 10l-325 158v89l445 -215v-100l-445 -215v91zM-485 65v91l325 154q14 7 24 10t17 4q8 2 14 2v7q-6 -1 -14 1q-7 1 -17 4t-24 10l-325 158v89l445 -215v-100z" />
    <glyph glyph-name="less_less.liga" 
d="M40 380l445 215v-91l-325 -154q-14 -6 -24 -9t-17 -5q-8 -2 -14 -2v-7q6 1 14 -1q7 -1 17 -4t24 -10l325 -158v-89l-445 215v100zM-485 380l445 215v-91l-325 -154q-14 -6 -24 -9t-17 -5q-8 -2 -14 -2v-7q6 1 14 -1q7 -1 17 -4t24 -10l325 -158v-89l-445 215v100z" />
    <glyph glyph-name="a.alt" 
d="M80 345q0 50 13.5 90t37.5 67.5t58 42.5t76 15q61 0 101 -27.5t53 -77.5h8v95h85v-550h-85v95h-8q-13 -50 -53 -77.5t-101 -27.5q-42 0 -76 15t-58 42.5t-37.5 67.5t-13.5 90v140zM299 68q56 0 89.5 37t33.5 100v140q0 63 -33.5 100t-89.5 37q-61 0 -95 -36t-34 -101
v-140q0 -63 34.5 -100t94.5 -37z" />
    <glyph glyph-name="SPC" 
 />
    <glyph glyph-name="colon_colon_equal.liga" 
d="M-955 126q0 36 23 58.5t59 22.5t59 -22.5t23 -58.5t-23 -58.5t-59 -22.5t-59 22.5t-23 58.5zM-955 534q0 36 23 58.5t59 22.5t59 -22.5t23 -58.5t-23 -58.5t-59 -22.5t-59 22.5t-23 58.5zM-503 126q0 36 23 58.5t59 22.5t59 -22.5t23 -58.5t-23 -58.5t-59 -22.5t-59 22.5
t-23 58.5zM-503 534q0 36 23 58.5t59 22.5t59 -22.5t23 -58.5t-23 -58.5t-59 -22.5t-59 22.5t-23 58.5zM-50 250h440v-80h-440v80zM390 490v-80h-440v80h440z" />
    <glyph glyph-name="bar_bracketright.liga" 
d="M-60 830h385v-940h-385v80h295v780h-295v80zM-325 830h90v-940h-90v940z" />
    <glyph glyph-name="bracketleft_bar.liga" 
d="M59.9961 830h-384.977v-940h384.977v80h-294.981v780h294.981v80zM324.98 830h-89.9951v-940h89.9951v940z" />
    <glyph glyph-name="braceleft_bar.liga" 
d="M59.9961 -111v80h-119.992q-94.9941 0 -94.9941 86v165q0 27 -7 51.5q-6.99902 24.5 -20.999 43q-13.999 18.5 -35.4971 29.5q-21.499 11 -51.4971 12v5q29.998 1 51.4971 12.5q21.498 11.5 35.9971 30.5t20.999 44t6.5 52v164q0 86 94.9941 86h119.992v80h-119.992
q-88.9951 0 -136.992 -43.5t-47.9971 -122.5v-164q0 -27 -3.49902 -46q-3.5 -19 -14 -31q-10.499 -12 -29.998 -17.5q-19.498 -5.5 -52.4961 -5.5h-89.9951v-80h89.9951q31.998 0 51.9961 -5.5q19.999 -5.5 30.498 -17.5q10.5 -12 14 -31q3.49902 -19 3.49902 -46v-165
q0 -79 47.9971 -122.5t136.992 -43.5h119.992zM324.98 -110v940h-89.9951v-940h89.9951z" />
    <glyph glyph-name="bar_braceright.liga" 
d="M-60 -111v80h120q95 0 95 86v165q0 27 7 51.5t21 43t35.5 29.5t51.5 12v5q-30 1 -51.5 12.5t-36 30.5t-21 44t-6.5 52v164q0 86 -95 86h-120v80h120q89 0 137 -43.5t48 -122.5v-164q0 -27 3.5 -46t14 -31t30 -17.5t52.5 -5.5h90v-80h-90q-32 0 -52 -5.5t-30.5 -17.5
t-14 -31t-3.5 -46v-165q0 -79 -48 -122.5t-137 -43.5h-120zM-325 -110v940h90v-940h-90z" />
    <glyph glyph-name="bracketleft_less.liga" 
d="M-365 -110v940h245v-80h-155v-780h155v-80h-245zM-15 395l430 215v-90l-310 -151q-12 -6 -22 -10t-17 -6q-9 -3 -16 -4v-7q7 -1 16 -3q7 -2 17 -6t22 -10l310 -154v-89l-430 215v100z" />
    <glyph glyph-name="greater_bracketright.liga" 
d="M-415 80v90l310 151q12 6 22 10t18 6q8 3 15 4v7q-7 1 -15 4q-17 3 -40 15l-310 154v89l430 -215v-100zM100 -110v80h155v780h-155v80h245v-940h-245z" />
    <glyph glyph-name="colon_question_greater.liga" 
d="M-575 720h125q53 0 95.5 -14.5t72.5 -42t46 -66.5t16 -87q0 -43 -13.5 -78.5t-38.5 -62t-60 -42t-77 -17.5v-105h-90v180h50q65 0 102 33t37 92t-37 92t-103 33h-125v85zM320 306q12 6 22 10t18 6q8 3 15 4v7q-7 1 -15 4q-17 3 -40 15l-310 154v89l430 -215v-100
l-430 -215v90zM-900 560q36 0 59 -22.5t23 -58.5t-23 -58.5t-59 -22.5t-59 22.5t-23 58.5t23 58.5t59 22.5zM-982 71q0 36 23 58.5t59 22.5t59 -22.5t23 -58.5t-23 -58.5t-59 -22.5t-59 22.5t-23 58.5zM-530 54q0 27 18 44t47 17h20q29 0 47 -17t18 -44t-18 -43t-47 -16h-20
q-29 0 -47 15.5t-18 43.5z" />
    <glyph glyph-name="colon_question.liga" 
d="M45 635v85h125q53 0 95.5 -14.5t72.5 -42t46 -66.5t16 -87q0 -43 -13.5 -78.5t-38.5 -62t-60 -42t-77 -17.5v-105h-90v180h50q65 0 102 33t37 92t-37 92t-103 33h-125zM-250 560q36 0 59 -22.5t23 -58.5t-23 -58.5t-59 -22.5t-59 22.5t-23 58.5t23 58.5t59 22.5zM-332 71
q0 36 23 58.5t59 22.5t59 -22.5t23 -58.5t-23 -58.5t-59 -22.5t-59 22.5t-23 58.5zM155 115h20q29 0 47 -17t18 -44t-18 -43t-47 -16h-20q-29 0 -47 15.5t-18 43.5q0 27 18 44t47 17z" />
    <glyph glyph-name="zero.alt" 
d="M300 -10q-51 0 -91.5 15t-69 43t-44 68t-15.5 89v310q0 49 15.5 89t44 68t69 43t91.5 15t91.5 -15t69 -43t44 -68t15.5 -89v-310q0 -49 -15.5 -88.5t-44 -67.5t-69.5 -43.5t-91 -15.5zM171 191q4 -56 38.5 -88.5t90.5 -32.5q60 0 95 36.5t35 98.5v241zM429 529
q-4 56 -38.5 88.5t-90.5 32.5q-60 0 -95 -36.5t-35 -98.5v-241z" />
    <glyph glyph-name="slash_equal.liga" 
d="M-495 -110l355 940h95l-128 -340h663v-80h-694l-60 -160h754v-80h-784l-106 -280h-95z" />
    <glyph glyph-name="bracketleft_bar_bar_bracketright.liga" 
d="M95 750v80h245v-940h-245v80h155v780h-155zM-1540 -110v940h245v-80h-155v-780h155v-80h-245zM-355 830h90v-940h-90v940zM-935 -110v940h90v-940h-90z" />
    <glyph glyph-name="uni03BC" unicode="&#x3bc;" 
d="M180 550v-356q0 -60 28 -92.5t91 -32.5t92 32.5t29 92.5v356h90v-356q0 -97 -52.5 -150.5t-148.5 -53.5q-49 0 -79 12t-47 27q-19 16 -28 38h-4q1 0 3.5 -8t5 -20t5 -26t3.5 -26l11 -157h-89v720h90z" />
    <glyph glyph-name="product" unicode="&#x220f;" 
d="M90 0v720h420v-720h-90v638h-240v-638h-90z" />
    <glyph glyph-name="integral" unicode="&#x222b;" 
d="M30 -88h110q54 0 84.5 30t30.5 83v501q0 44 14.5 80t41.5 61.5t65 39t84 13.5h110v-82h-110q-54 0 -84.5 -29.5t-30.5 -83.5v-500q0 -44 -14.5 -80t-41.5 -61.5t-64.5 -39.5t-84.5 -14h-110v82z" />
    <glyph glyph-name="uni2126" unicode="&#x2126;" 
d="M50 0v80h145v5q-32 6 -57 26q-22 17 -40 48.5t-18 85.5v270q0 49 15.5 89t44 68t69 43t91.5 15t91.5 -15t69 -43t44 -68t15.5 -89v-270q0 -54 -18 -85.5t-39 -48.5q-26 -19 -58 -25v-6h146v-80h-211v110q40 0 65 36.5t25 93.5v275q0 62 -35 98.5t-95 36.5t-95 -36.5
t-35 -98.5v-275q0 -57 25 -93.5t65 -36.5v-110h-210z" />
    <glyph glyph-name="uni2206" unicode="&#x2206;" 
d="M60 0v75l180 645h126l174 -645v-75h-480zM450 75l-128 488q-5 21 -9 38.5t-6 30.5q-2 15 -4 28h-4q-2 -12 -4 -27q-2 -14 -6 -31.5t-10 -38.5l-129 -488h300z" />
    <glyph glyph-name="summation" unicode="&#x2211;" 
d="M540 720v-80h-303l-72 3v-2l274 -314v-103l-280 -315v-2l72 3h309v-80h-485v82l318 362l-318 364v82h485z" />
    <glyph glyph-name="pi" unicode="&#x3c0;" 
d="M20 469v81h535v-78h-80v-308q0 -85 72 -85h28v-84h-23q-76 0 -121.5 47.5t-45.5 127.5v298h-195v-468h-90v469h-80z" />
    <glyph glyph-name="radical" unicode="&#x221a;" 
d="M30 550h175l99 -389q6 -23 8.5 -40.5t3.5 -30.5q1 -14 1 -25h9q0 11 1 26q2 12 5 29.5t9 40.5l160 569h84l-212 -730h-105l-127 470h-111v80z" />
    <glyph glyph-name="infinity" unicode="&#x221e;" 
d="M166 160q-60 0 -95.5 37t-35.5 98v75q0 61 37.5 98t99.5 37q51 0 86 -25.5t52 -73.5h3q7 28 23 50q14 18 37 33.5t61 15.5q60 0 95.5 -37t35.5 -98v-75q0 -61 -37.5 -98t-99.5 -37q-51 0 -86 25.5t-52 73.5h-3q-7 -28 -23 -49q-14 -19 -37 -34.5t-61 -15.5zM359 272
q22 -52 66 -52q32 0 51 20.5t19 54.5v75q0 34 -19 54.5t-51 20.5q-28 0 -46.5 -12t-29.5 -27t-15.5 -29.5t-5.5 -20.5zM175 445q-32 0 -51 -20.5t-19 -54.5v-75q0 -34 19 -54.5t51 -20.5q29 0 47 12t29 27t15.5 29.5t5.5 20.5l-31 84q-22 52 -66 52z" />
    <glyph glyph-name="partialdiff" unicode="&#x2202;" 
d="M80 281q0 114 49.5 166.5t140.5 52.5q46 0 74 -13.5t44 -30.5q18 -20 27 -45h15q-4 21 -17 46q-11 23 -32.5 53t-58.5 67l-142 143h107l130 -130q51 -51 77 -120.5t26 -154.5v-115q0 -98 -58.5 -154t-161.5 -56q-102 0 -161 56t-59 154v81zM170 200q0 -61 34.5 -95.5
t95.5 -34.5t95.5 34.5t34.5 95.5v81q0 66 -35 104.5t-95 38.5q-61 0 -95.5 -38.5t-34.5 -105.5v-80z" />
    <glyph glyph-name="approxequal" unicode="&#x2248;" 
d="M65 355v70q0 59 35.5 94.5t94.5 35.5q31 0 54 -9.5t40.5 -24t31 -31.5t26 -31.5t26 -24t30.5 -9.5q47 0 47 55v70h85v-70q0 -58 -35.5 -94t-94.5 -36q-31 0 -54 9.5t-40.5 24t-31 31.5t-26 31.5t-26 24t-30.5 9.5q-47 0 -47 -55v-70h-85zM65 110v70q0 59 35.5 94.5
t94.5 35.5q31 0 54 -9.5t40.5 -24t31 -31.5t26 -31.5t26 -24t30.5 -9.5q47 0 47 55v70h85v-70q0 -58 -35.5 -94t-94.5 -36q-31 0 -54 9.5t-40.5 24t-31 31.5t-26 31.5t-26 24t-30.5 9.5q-47 0 -47 -55v-70h-85z" />
    <glyph glyph-name="lozenge" unicode="&#x25ca;" 
d="M60 324v71l180 325h126l174 -325v-71l-174 -324h-126zM150 375v-31l99 -187q11 -20 20 -38t16 -31q8 -15 14 -28h4q6 13 14 28q7 14 15.5 31.5t19.5 37.5l98 187v31l-98 188q-11 20 -19.5 37.5t-15.5 30.5q-8 16 -14 29h-4q-7 -13 -14 -29q-7 -13 -16 -30.5t-20 -37.5z
" />
    <glyph glyph-name="uni2113" unicode="&#x2113;" 
d="M167 326v249q0 70 42.5 112.5t112.5 42.5t112.5 -42.5t42.5 -112.5v-54q0 -77 -45.5 -138.5t-123.5 -92.5l-51 -20v-110q0 -37 20 -57.5t55 -20.5q21 0 38.5 9.5t30.5 21.5q14 13 26 30l68 -42q-16 -28 -39 -50q-20 -20 -51 -35.5t-73 -15.5q-77 0 -121 42.5t-44 117.5
v75l-72 -28l-30 81zM280 369q52 20 80.5 59.5t27.5 91.5l-1 55q-1 33 -18.5 53t-46.5 20t-47 -20t-18 -53v-215z" />
    <glyph glyph-name="estimated" unicode="&#x212e;" 
d="M300 -10q-54 0 -98 19t-75.5 53t-49 82t-17.5 106v220q0 58 17.5 106t49 82t75.5 53t98 19t98.5 -18.5t76 -52.5t48.5 -82t17 -107v-111h-380v-259q12 -18 32 -32q17 -13 43.5 -23t64.5 -10q30 0 57.5 8t50.5 22.5t41 34.5t28 45h50q-12 -35 -34.5 -63.5t-52 -49
t-65.5 -31.5t-75 -11zM440 409v211q-12 18 -32 33q-17 12 -43.5 22t-64.5 10t-64.5 -10t-43.5 -22q-20 -15 -32 -33v-211h280z" />
    <glyph glyph-name="exclam_exclam.liga" 
d="M-187 720v-120l-21 -385h-64l-21 385v120h106zM-315 54q0 27 18 44t47 17h20q29 0 47 -17t18 -44t-18 -43t-47 -16h-20q-29 0 -47 15.5t-18 43.5zM293 720v-120l-21 -385h-64l-21 385v120h106zM165 54q0 27 18 44t47 17h20q29 0 47 -17t18 -44t-18 -43t-47 -16h-20
q-29 0 -47 15.5t-18 43.5z" />
    <glyph glyph-name="question_colon.liga" 
d="M-363 720h125q53 0 95.5 -14.5t72.5 -42t46 -66.5t16 -87q0 -43 -13.5 -78.5t-38.5 -62t-60 -42t-77 -17.5v-105h-90v180h50q65 0 102 33t37 92t-37 92t-103 33h-125v85zM-318 54q0 27 18 44t47 17h20q29 0 47 -17t18 -44t-18 -43t-47 -16h-20q-29 0 -47 15.5t-18 43.5z
M168 71q0 36 23 58.5t59 22.5t59 -22.5t23 -58.5t-23 -58.5t-59 -22.5t-59 22.5t-23 58.5zM168 479q0 36 23 58.5t59 22.5t59 -22.5t23 -58.5t-23 -58.5t-59 -22.5t-59 22.5t-23 58.5z" />
    <glyph glyph-name="question_period.liga" 
d="M-363 720h125q53 0 95.5 -14.5t72.5 -42t46 -66.5t16 -87q0 -43 -13.5 -78.5t-38.5 -62t-60 -42t-77 -17.5v-105h-90v180h50q65 0 102 33t37 92t-37 92t-103 33h-125v85zM-318 54q0 27 18 44t47 17h20q29 0 47 -17t18 -44t-18 -43t-47 -16h-20q-29 0 -47 15.5t-18 43.5z
M133 79q0 39 23.5 62.5t62.5 23.5t62.5 -23.5t23.5 -62.5q0 -40 -23.5 -64.5t-62.5 -24.5t-62.5 24.5t-23.5 64.5z" />
    <glyph glyph-name="colon_colon.liga" 
d="M-302 71q0 36 23 58.5t59 22.5t59 -22.5t23 -58.5t-23 -58.5t-59 -22.5t-59 22.5t-23 58.5zM-302 479q0 36 23 58.5t59 22.5t59 -22.5t23 -58.5t-23 -58.5t-59 -22.5t-59 22.5t-23 58.5zM138 71q0 36 23 58.5t59 22.5t59 -22.5t23 -58.5t-23 -58.5t-59 -22.5t-59 22.5
t-23 58.5zM138 479q0 36 23 58.5t59 22.5t59 -22.5t23 -58.5t-23 -58.5t-59 -22.5t-59 22.5t-23 58.5z" />
    <glyph glyph-name="plus_plus_plus.liga" 
d="M-1025 290v80h191v195h88v-195h402v195h88v-195h402v195h88v-195h191v-80h-191v-195h-88v195h-402v-195h-88v195h-402v-195h-88v195h-191z" />
    <glyph glyph-name="uni2047.liga" 
d="M-415 720h125q53 0 95.5 -14.5t72.5 -42t46 -66.5t16 -87q0 -43 -13.5 -78.5t-38.5 -62t-60 -42t-77 -17.5v-105h-90v180h50q65 0 102 33t37 92t-37 92t-103 33h-125v85zM-370 54q0 27 18 44t47 17h20q29 0 47 -17t18 -44t-18 -43t-47 -16h-20q-29 0 -47 15.5t-18 43.5z
M90 720h125q53 0 95.5 -14.5t72.5 -42t46 -66.5t16 -87q0 -43 -13.5 -78.5t-38.5 -62t-60 -42t-77 -17.5v-105h-90v180h50q65 0 102 33t37 92t-37 92t-103 33h-125v85zM135 54q0 27 18 44t47 17h20q29 0 47 -17t18 -44t-18 -43t-47 -16h-20q-29 0 -47 15.5t-18 43.5z" />
    <glyph glyph-name="numbersign_numbersign_numbersign.liga" 
d="M-1135 260h96l37 195h-99v65h111l37 200h70l-37 -200h160l37 200h70l-37 -200h270l37 200h70l-37 -200h160l37 200h70l-37 -200h270l37 200h70l-37 -200h160l37 200h70l-37 -200h85v-65h-97l-37 -195h99v-65h-111l-36 -195h-70l36 195h-160l-36 -195h-70l36 195h-270
l-36 -195h-70l36 195h-160l-36 -195h-70l36 195h-270l-36 -195h-70l36 195h-160l-36 -195h-70l36 195h-84v65zM101 260l37 195h-270l-37 -195h270zM-469 260l37 195h-270l-37 -195h270zM-239 260l37 195h-160l-37 -195h160zM331 260l37 195h-160l-37 -195h160zM-809 260
l37 195h-160l-37 -195h160z" />
    <glyph glyph-name="numbersign_numbersign.liga" 
d="M-535 260h96l37 195h-99v65h111l37 200h70l-37 -200h160l37 200h70l-37 -200h240l37 200h70l-37 -200h160l37 200h70l-37 -200h85v-65h-97l-37 -195h99v-65h-111l-36 -195h-70l36 195h-160l-36 -195h-70l36 195h-240l-36 -195h-70l36 195h-160l-36 -195h-70l36 195h-84
v65zM101 260l37 195h-240l-37 -195h240zM331 260l37 195h-160l-37 -195h160zM-209 260l37 195h-160l-37 -195h160z" />
    <glyph glyph-name="colon_colon_colon.liga" 
d="M-822 71q0 36 23 58.5t59 22.5t59 -22.5t23 -58.5t-23 -58.5t-59 -22.5t-59 22.5t-23 58.5zM-822 479q0 36 23 58.5t59 22.5t59 -22.5t23 -58.5t-23 -58.5t-59 -22.5t-59 22.5t-23 58.5zM-382 71q0 36 23 58.5t59 22.5t59 -22.5t23 -58.5t-23 -58.5t-59 -22.5t-59 22.5
t-23 58.5zM-382 479q0 36 23 58.5t59 22.5t59 -22.5t23 -58.5t-23 -58.5t-59 -22.5t-59 22.5t-23 58.5zM58 71q0 36 23 58.5t59 22.5t59 -22.5t23 -58.5t-23 -58.5t-59 -22.5t-59 22.5t-23 58.5zM58 479q0 36 23 58.5t59 22.5t59 -22.5t23 -58.5t-23 -58.5t-59 -22.5
t-59 22.5t-23 58.5z" />
    <glyph glyph-name="numbersign_numbersign_numbersign_numbersign.liga" 
d="M-1735 260h96l37 195h-99v65h111l37 200h70l-37 -200h160l37 200h70l-37 -200h280l37 200h70l-37 -200h160l37 200h70l-37 -200h280l37 200h70l-37 -200h160l37 200h70l-37 -200h280l37 200h70l-37 -200h160l37 200h70l-37 -200h85v-65h-97l-37 -195h99v-65h-111
l-36 -195h-70l36 195h-160l-36 -195h-70l36 195h-280l-36 -195h-70l36 195h-160l-36 -195h-70l36 195h-280l-36 -195h-70l36 195h-160l-36 -195h-70l36 195h-280l-36 -195h-70l36 195h-160l-36 -195h-70l36 195h-84v65zM101 260l37 195h-280l-37 -195h280zM-1059 260l37 195
h-280l-37 -195h280zM-479 260l37 195h-280l-37 -195h280zM-249 260l37 195h-160l-37 -195h160zM-829 260l37 195h-160l-37 -195h160zM-1409 260l37 195h-160l-37 -195h160zM331 260l37 195h-160l-37 -195h160z" />
    <glyph glyph-name="period_question.liga" 
d="M-386 79q0 39 23.5 62.5t62.5 23.5t62.5 -23.5t23.5 -62.5q0 -40 -23.5 -64.5t-62.5 -24.5t-62.5 24.5t-23.5 64.5zM35 720h125q53 0 95.5 -14.5t72.5 -42t46 -66.5t16 -87q0 -43 -13.5 -78.5t-38.5 -62t-60 -42t-77 -17.5v-105h-90v180h50q65 0 102 33t37 92t-37 92
t-103 33h-125v85zM80 54q0 27 18 44t47 17h20q29 0 47 -17t18 -44t-18 -43t-47 -16h-20q-29 0 -47 15.5t-18 43.5z" />
    <glyph glyph-name="question_equal.liga" 
d="M-425 720h125q53 0 95.5 -14.5t72.5 -42t46 -66.5t16 -87q0 -43 -13.5 -78.5t-38.5 -62t-60 -42t-77 -17.5v-105h-90v180h50q65 0 102 33t37 92t-37 92t-103 33h-125v85zM-92 285h542v-80h-590v36q39 19 48 44zM450 525v-80h-430v80h430zM-380 54q0 27 18 44t47 17h20
q29 0 47 -17t18 -44t-18 -43t-47 -16h-20q-29 0 -47 15.5t-18 43.5z" />
    <glyph glyph-name="equal_exclam_equal.liga" 
d="M-247 720v-120l-21 -385h-64l-21 385v120h106zM-575 250v-80h-545v80h545zM-25 410v80h545v-80h-545zM-575 490v-80h-545v80h545zM520 250v-80h-545v80h545zM-310 115h20q29 0 47 -17t18 -44t-18 -43t-47 -16h-20q-29 0 -47 15.5t-18 43.5q0 27 18 44t47 17z" />
    <glyph glyph-name="less_bar_greater.liga" 
d="M-1050 280v100l595 370v-107l-445 -277q-14 -8 -26 -15t-22 -12q-11 -5 -20 -10v-7q9 -3 20 -8q10 -4 22 -10t26 -14l445 -274v-103zM-145 750l595 -370v-100l-595 -366v107l445 272q27 17 49 25q11 5 21 9v7q-10 4 -21 9q-10 5 -22.5 11.5t-26.5 14.5l-445 278v103z
M-345 780h90v-890h-90v890z" />
    <glyph glyph-name="less_colon.liga" 
d="M-375 380l430 215v-90l-310 -151q-12 -6 -22 -10t-17 -6q-9 -3 -16 -4v-7q7 -1 16 -3q7 -2 17 -6t22 -10l310 -154v-89l-430 215v100zM218 126q0 36 23 58.5t59 22.5t59 -22.5t23 -58.5t-23 -58.5t-59 -22.5t-59 22.5t-23 58.5zM218 534q0 36 23 58.5t59 22.5t59 -22.5
t23 -58.5t-23 -58.5t-59 -22.5t-59 22.5t-23 58.5z" />
    <glyph glyph-name="colon_less.liga" 
d="M-382 126q0 36 23 58.5t59 22.5t59 -22.5t23 -58.5t-23 -58.5t-59 -22.5t-59 22.5t-23 58.5zM-382 534q0 36 23 58.5t59 22.5t59 -22.5t23 -58.5t-23 -58.5t-59 -22.5t-59 22.5t-23 58.5zM-55 380l430 215v-90l-310 -151q-12 -6 -22 -10t-17 -6q-9 -3 -16 -4v-7
q7 -1 16 -3q7 -2 17 -6t22 -10l310 -154v-89l-430 215v100z" />
    <glyph glyph-name="colon_greater.liga" 
d="M-15 65v90l310 151q12 6 22 10t18 6q8 3 15 4v7q-7 1 -15 4q-17 3 -40 15l-310 154v89l430 -215v-100zM-382 126q0 36 23 58.5t59 22.5t59 -22.5t23 -58.5t-23 -58.5t-59 -22.5t-59 22.5t-23 58.5zM-382 534q0 36 23 58.5t59 22.5t59 -22.5t23 -58.5t-23 -58.5t-59 -22.5
t-59 22.5t-23 58.5z" />
    <glyph glyph-name="greater_colon.liga" 
d="M-375 65v90l310 151q12 6 22 10t18 6q8 3 15 4v7q-7 1 -15 4q-17 3 -40 15l-310 154v89l430 -215v-100zM218 126q0 36 23 58.5t59 22.5t59 -22.5t23 -58.5t-23 -58.5t-59 -22.5t-59 22.5t-23 58.5zM218 534q0 36 23 58.5t59 22.5t59 -22.5t23 -58.5t-23 -58.5t-59 -22.5
t-59 22.5t-23 58.5z" />
    <glyph glyph-name="less_greater.liga" 
d="M0 595l440 -215v-100l-440 -215l-440 215v100zM-375 326q7 0 16 -1q8 -2 18.5 -4.5t22.5 -8.5l318 -155l318 147q12 6 22.5 10t18.5 7q9 4 16 6v7q-7 1 -15 3t-18 5.5t-22 9.5l-320 148l-318 -150q-26 -11 -41 -14q-9 -2 -16 -3v-7z" />
    <glyph glyph-name="asterisk_asterisk_asterisk.liga" 
d="M-1126 387l30 83l89 -32q16 -6 32.5 -14.5t33 -18t31 -19.5t26.5 -19l5 4q-8 28 -16.5 68.5t-8.5 75.5v95h88v-95q0 -35 -9 -75.5t-17 -68.5l5 -4q12 9 26.5 19t31 19.5t33 18t32.5 14.5l89 32l30 -83l-89 -32q-31 -11 -69 -17t-67 -8l-4 -8q23 -18 51.5 -45.5
t47.5 -54.5l55 -78l-72 -50l-55 78q-19 27 -35 64t-25 64h-7q-10 -27 -26 -63.5t-35 -64.5l-54 -78l-72 50l54 78q20 28 49 55.5t51 45.5l-3 7q-29 2 -67.5 8t-69.5 17zM-566 547l30 83l89 -32q16 -6 32.5 -14.5t33 -18t31 -19.5t26.5 -19l5 4q-8 28 -16.5 68.5t-8.5 75.5
v95h88v-95q0 -35 -9 -75.5t-17 -68.5l5 -4q12 9 26.5 19t31 19.5t33 18t32.5 14.5l89 32l30 -83l-89 -32q-31 -11 -69 -17t-67 -8l-4 -8q23 -18 51.5 -45.5t47.5 -54.5l55 -78l-72 -50l-55 78q-19 27 -35 64t-25 64h-7q-10 -27 -26 -63.5t-35 -64.5l-54 -78l-72 50l54 78
q20 28 49 55.5t51 45.5l-3 7q-29 2 -67.5 8t-69.5 17zM-6 387l30 83l89 -32q16 -6 32.5 -14.5t33 -18t31 -19.5t26.5 -19l5 4q-8 28 -16.5 68.5t-8.5 75.5v95h88v-95q0 -35 -9 -75.5t-17 -68.5l5 -4q12 9 26.5 19t31 19.5t33 18t32.5 14.5l89 32l30 -83l-89 -32
q-31 -11 -69 -17t-67 -8l-4 -8q23 -18 51.5 -45.5t47.5 -54.5l55 -78l-72 -50l-55 78q-19 27 -35 64t-25 64h-7q-10 -27 -26 -63.5t-35 -64.5l-54 -78l-72 50l54 78q20 28 49 55.5t51 45.5l-3 7q-29 2 -67.5 8t-69.5 17z" />
    <glyph glyph-name="semicolon_semicolon.liga" 
d="M-355 -160l80 311h130l-130 -311h-80zM-220 560q37 0 59.5 -23t22.5 -58q0 -37 -23 -59t-59 -22q-37 0 -59.5 22.5t-22.5 58.5q0 35 22.5 58t59.5 23zM85 -160l80 311h130l-130 -311h-80zM220 560q37 0 59.5 -23t22.5 -58q0 -37 -23 -59t-59 -22q-37 0 -59.5 22.5
t-22.5 58.5q0 35 22.5 58t59.5 23z" />
    <glyph glyph-name="lessequal" unicode="&#x2264;" 
d="M85 505l430 215v-90l-310 -151q-12 -6 -22 -10t-17 -6q-9 -3 -16 -4v-7q7 -1 16 -3q7 -2 17 -6t22 -10l310 -154v-89l-430 215v100zM85 0v80h430v-80h-430z" />
    <glyph glyph-name="greaterequal" unicode="&#x2265;" 
d="M85 720l430 -215v-100l-430 -215v90l310 151q12 6 22 10t18 6q8 3 15 4v7q-7 1 -15 4q-17 3 -40 15l-310 154v89zM85 80h430v-80h-430v80z" />
    <glyph glyph-name="slash_equal_equal.liga" 
d="M-1125 -110l355 940h95l-128 -340h1293v-80h-1324l-60 -160h1384v-80h-1414l-106 -280h-95z" />
    <glyph glyph-name="uni2215" unicode="&#x2215;" 
d="M447 710h61l-355 -710h-61z" />
    <glyph glyph-name="uni2219" unicode="&#x2219;" 
d="M214 329q0 39 23.5 62.5t62.5 23.5t62.5 -23.5t23.5 -62.5q0 -40 -23.5 -64.5t-62.5 -24.5t-62.5 24.5t-23.5 64.5z" />
    <glyph glyph-name="uni02C9" unicode="&#x2c9;" 
d="M170 930h260v-75h-260v75z" />
    <glyph glyph-name="period_equal.liga" 
d="M-425 335q0 26 9.5 49t26.5 40t40 26.5t49 9.5t49 -9.5t40 -26.5t26.5 -40t9.5 -49t-9.5 -49t-26.5 -40t-40 -26.5t-49 -9.5t-49 9.5t-40 26.5t-26.5 40t-9.5 49zM80 250h440v-80h-440v80zM520 490v-80h-440v80h440z" />
    <glyph glyph-name="period_hyphen.liga" 
d="M-425 330q0 26 9.5 49t26.5 40t40 26.5t49 9.5t49 -9.5t40 -26.5t26.5 -40t9.5 -49t-9.5 -49t-26.5 -40t-40 -26.5t-49 -9.5t-49 9.5t-40 26.5t-26.5 40t-9.5 49zM100 370h400v-80h-400v80z" />
    <glyph glyph-name="underscore_underscore.liga" 
d="M-540 -25h1080v-75h-1080v75z" />
    <glyph glyph-name="equal_slash_equal.liga" 
d="M-225 410l-103 -160h828v-80h-880l-110 -170h-90l110 170h-670v80h722l103 160h-825v80h877l113 175h90l-113 -175h673v-80h-725z" />
    <glyph glyph-name="less_hyphen_less.liga" 
d="M-909 625h106l-186 -236q-5 -5 -8.5 -9.5t-7.5 -9.5h1239l200 255h106l-186 -236q-14 -17 -24.5 -28.5t-17.5 -18.5q-9 -8 -15 -12v-3q6 -4 14 -11q15 -12 40 -43l189 -238h-105l-201 255h-1240q3 -4 6.5 -8t7.5 -9l189 -238h-105l-232 295z" />
    <glyph glyph-name="less_less_less.liga" 
d="M5 380l445 215v-91l-325 -154q-14 -6 -24 -9t-17 -5q-8 -2 -14 -2v-7q6 1 14 -1q7 -1 17 -4t24 -10l325 -158v-89l-445 215v100zM-520 380l445 215v-91l-325 -154q-14 -6 -24 -9t-17 -5q-8 -2 -14 -2v-7q6 1 14 -1q7 -1 17 -4t24 -10l325 -158v-89l-445 215v100z
M-600 595v-91l-325 -154q-14 -6 -24 -9t-17 -5q-8 -2 -14 -2v-7q6 1 14 -1q7 -1 17 -4t24 -10l325 -158v-89l-445 215v100z" />
    <glyph glyph-name="greater_greater_greater.liga" 
d="M325 310q14 7 24 10t17 4q8 2 14 2v7q-6 -1 -14 1q-7 1 -17 4t-24 10l-325 158v89l445 -215v-100l-445 -215v91zM-525 156l325 154q14 7 24 10t17 4q8 2 14 2v7q-6 -1 -14 1q-7 1 -17 4t-24 10l-325 158v89l445 -215v-100l-445 -215v91zM-1050 65v91l325 154q14 7 24 10
t17 4q8 2 14 2v7q-6 -1 -14 1q-7 1 -17 4t-24 10l-325 158v89l445 -215v-100z" />
    <glyph glyph-name="less_equal_less.liga" 
d="M-1140 330l231 295h106l-106 -135h1237l106 135h106l-186 -236q-14 -17 -24.5 -28.5t-17.5 -18.5q-9 -8 -15 -12v-3q6 -4 14 -11q15 -12 40 -43l189 -238h-105l-106 135h-1239l107 -135h-105zM-1046 327q6 -4 15 -11q7 -6 16.5 -16t22.5 -27l18 -23h1240l-63 80l63 80
h-1238l-17 -21q-14 -17 -24.5 -28.5t-18.5 -18.5q-8 -8 -14 -12v-3z" />
    <glyph glyph-name="less_less_equal.liga" 
d="M-619 625h106l-106 -135h1119v-80h-1182l-17 -21q-14 -17 -24.5 -28.5t-18.5 -18.5q-8 -8 -14 -12v-3q6 -4 15 -11q7 -6 16.5 -16t22.5 -27l18 -23h1184v-80h-1120l107 -135h-105l-232 295zM-1140 330l231 295h106l-186 -236q-14 -17 -24.5 -28.5t-17.5 -18.5
q-9 -8 -15 -12v-3q6 -4 14 -11q7 -6 17 -16.5t23 -26.5l189 -238h-105z" />
    <glyph glyph-name="less_equal_equal.liga" 
d="M-909 625h106l-106 -135h1409v-80h-1472l-17 -21q-14 -17 -24.5 -28.5t-18.5 -18.5q-8 -8 -14 -12v-3q6 -4 15 -11q7 -6 16.5 -16t22.5 -27l18 -23h1474v-80h-1410l107 -135h-105l-232 295z" />
    <glyph glyph-name="less_equal_equal_greater.liga" 
d="M-1509 625h106l-106 -135h1819l-107 135h106l231 -295l-232 -295h-105l107 135h-1820l107 -135h-105l-232 295zM-1646 327q6 -4 15 -11q7 -6 16.5 -16t22.5 -27l18 -23h1948l19 24q24 30 39 43q8 7 14 11v3q-6 4 -14 12q-8 7 -18.5 18.5t-24.5 28.5l-16 20h-1945l-17 -21
q-14 -17 -24.5 -28.5t-18.5 -18.5q-8 -8 -14 -12v-3z" />
    <glyph glyph-name="equal_equal_greater.liga" 
d="M-1100 170v80h1474l19 24q24 30 39 43q8 7 14 11v3q-6 4 -14 12q-8 7 -18.5 18.5t-24.5 28.5l-16 20h-1473v80h1410l-107 135h106l231 -295l-232 -295h-105l107 135h-1410z" />
    <glyph glyph-name="equal_greater_greater.liga" 
d="M-1100 250h1184l19 24q24 30 39 43q8 7 14 11v3q-6 4 -14 12q-8 7 -18.5 18.5t-24.5 28.5l-16 20h-1183v80h1120l-107 135h106l231 -295l-232 -295h-105l107 135h-1120v80zM203 625h106l231 -295l-232 -295h-105l190 239q24 30 39 43q8 7 14 11v3q-6 4 -14 12
q-8 7 -18.5 18.5t-24.5 28.5z" />
    <glyph glyph-name="greater_equal_greater.liga" 
d="M-950 274q24 30 39 43q8 7 14 11v3q-6 4 -14 12q-8 7 -18.5 18.5t-24.5 28.5l-186 235h106l106 -135h1238l-107 135h106l231 -295l-232 -295h-105l107 135h-1239l-106 -135h-105zM-866 250h1240l19 24q24 30 39 43q8 7 14 11v3q-6 4 -14 12q-8 7 -18.5 18.5t-24.5 28.5
l-16 20h-1239l63 -80z" />
    <glyph glyph-name="greater_greater_equal.liga" 
d="M-850 625h106l106 -135h1138v-80h-1076l63 -80l-63 -80h1076v-80h-1139l-106 -135h-105l190 239q24 30 39 43q8 7 14 11v3q-6 4 -14 12q-8 7 -18.5 18.5t-24.5 28.5zM-950 274q24 30 39 43q8 7 14 11v3q-6 4 -14 12q-8 7 -18.5 18.5t-24.5 28.5l-186 235h106l231 -295
l-232 -295h-105z" />
    <glyph glyph-name="greater_greater_hyphen.liga" 
d="M-744 625l200 -255h1044v-80h-1044l-201 -255h-105l190 239q24 30 39 43q8 7 14 11v3q-6 4 -14 12q-8 7 -18.5 18.5t-24.5 28.5l-186 235h106zM-1034 625l231 -295l-232 -295h-105l190 239q24 30 39 43q8 7 14 11v3q-6 4 -14 12q-8 7 -18.5 18.5t-24.5 28.5l-186 235h106
z" />
    <glyph glyph-name="greater_hyphen.liga" 
d="M-434 625l200 -255h734v-80h-734l-201 -255h-105l190 239q24 30 39 43q8 7 14 11v3q-6 4 -14 12q-8 7 -18.5 18.5t-24.5 28.5l-186 235h106z" />
    <glyph glyph-name="less_asciitilde_greater.liga" 
d="M-725 304q0 59 35.5 94.5t94.5 35.5q31 0 53 -9.5t38 -24t28 -31.5t24 -31.5t25 -24t30 -9.5t30 9.5t24.5 24t23.5 31.5t28 31.5t38 24t53 9.5t53 -9.5t38.5 -24t29 -31.5t24 -31.5t24 -24t29.5 -9.5q47 0 47 55v40h85v-40q0 -58 -35.5 -94t-94.5 -36q-47 0 -74 20.5
t-45.5 44.5t-35.5 44.5t-43 20.5q-18 0 -30.5 -9.5t-24 -24t-23.5 -31.5t-28 -31.5t-38 -24t-53 -9.5t-53 9.5t-38.5 24t-29 31.5t-24 31.5t-24 24t-29.5 9.5q-47 0 -47 -55v-40h-85v40zM395 306q12 6 22 10t18 6q8 3 15 4v7q-7 1 -15 4q-17 3 -40 15l-310 154v89l430 -215
v-100l-430 -215v90zM-685 595v-90l-310 -151q-12 -6 -22 -10t-18 -6q-8 -3 -15 -4v-7q7 -1 15 -3t18 -6t22 -10l310 -154v-89l-430 215v100z" />
    <glyph glyph-name="hyphen_less.liga" 
d="M234 370l200 255h106l-186 -236q-14 -17 -24.5 -28.5t-17.5 -18.5q-9 -8 -15 -12v-3q6 -4 14 -11q15 -12 40 -43l189 -238h-105l-201 255h-734v80h734z" />
    <glyph glyph-name="hyphen_less_less.liga" 
d="M-1050 290v80h994l200 255h106l-186 -236q-14 -17 -24.5 -28.5t-17.5 -18.5q-9 -8 -15 -12v-3q6 -4 14 -11q15 -12 40 -43l189 -238h-105l-201 255h-994zM434 625h106l-186 -236q-14 -17 -24.5 -28.5t-17.5 -18.5q-9 -8 -15 -12v-3q6 -4 14 -11q15 -12 40 -43l189 -238
h-105l-232 295z" />
    <glyph glyph-name="equal_less_less.liga" 
d="M-1100 250h1076l-63 80l63 80h-1076v80h1138l106 135h106l-186 -236q-14 -17 -24.5 -28.5t-17.5 -18.5q-9 -8 -15 -12v-3q6 -4 14 -11q15 -12 40 -43l189 -238h-105l-106 135h-1139v80zM434 625h106l-186 -236q-14 -17 -24.5 -28.5t-17.5 -18.5q-9 -8 -15 -12v-3
q6 -4 14 -11q15 -12 40 -43l189 -238h-105l-232 295z" />
    <glyph glyph-name="hyphen_hyphen_hyphen.liga" 
d="M30 370h470v-80h-470v80zM-535 370h470v-80h-470v80zM-1100 370h470v-80h-470v80z" />
    <glyph glyph-name="less_hyphen_bar.liga" 
d="M-909 625h106l-186 -236q-5 -5 -8.5 -9.5t-7.5 -9.5h1425v255h90v-590h-90v255h-1426q3 -4 6.5 -8t7.5 -9l189 -238h-105l-232 295z" />
    <glyph glyph-name="less_equal_bar.liga" 
d="M-909 625h106l-106 -135h1329v135h90v-590h-90v135h-1330l107 -135h-105l-232 295zM-1046 327q6 -4 15 -11q7 -6 16.5 -16t22.5 -27l18 -23h1394v160h-1392l-17 -21q-14 -17 -24.5 -28.5t-18.5 -18.5q-8 -8 -14 -12v-3z" />
    <glyph glyph-name="bar_equal_greater.liga" 
d="M-1110 625h90v-135h1330l-107 135h106l231 -295l-232 -295h-105l107 135h-1330v-135h-90v590zM374 250l19 24q24 30 39 43q8 7 14 11v3q-6 4 -14 12q-8 7 -18.5 18.5t-24.5 28.5l-16 20h-1393v-160h1394z" />
    <glyph glyph-name="bar_hyphen_greater.liga" 
d="M-1110 35v590h90v-255h1426q-4 5 -8 9.5t-9 10.5l-186 235h106l231 -295l-232 -295h-105l190 239q4 5 7 8.5t6 7.5h-1426v-255h-90z" />
    <glyph glyph-name="less_asciitilde_asciitilde.liga" 
d="M-909 625h106l-157 -199q29 -11 48 -31.5t34 -40.5t30.5 -35t37.5 -15q17 0 30 9.5t25 24t24.5 31.5t29 31.5t38.5 24t53 9.5t53 -9.5t38.5 -24t29 -31.5t24.5 -31.5t24.5 -24t30.5 -9.5q17 0 30 9.5t25 24t24.5 31.5t29 31.5t38.5 24t53 9.5t53.5 -9.5t40 -24
t30.5 -31.5t25.5 -31.5t25.5 -24t30 -9.5q18 0 31 9.5t25.5 24t25.5 31.5t30 31.5t39.5 24t53.5 9.5t53 -9.5t38.5 -24t29 -31.5t24 -31.5t24 -24t29.5 -9.5q47 0 47 55v40h85v-40q0 -58 -35.5 -94t-94.5 -36q-47 0 -74 20.5t-45.5 44.5t-35.5 44.5t-43 20.5
q-17 0 -30.5 -9.5t-26.5 -24t-26 -31.5t-30.5 -31.5t-40 -24t-53.5 -9.5t-53.5 9.5t-39.5 24t-30 31.5t-25.5 31.5t-26 24t-30.5 9.5q-18 0 -30.5 -9.5t-24.5 -24t-24.5 -31.5t-29 -31.5t-38.5 -24t-53 -9.5t-53 9.5t-38.5 24t-29 31.5t-24.5 31.5t-24.5 24t-30.5 9.5
t-30.5 -9.5t-24.5 -24t-24.5 -31.5t-29 -31.5t-38.5 -24t-53 -9.5t-53 9.5t-38.5 24t-29 31.5t-24.5 31.5t-25 24t-30 9.5h-4q-8 -8 -14 -13.5t-10 -9.5q-5 -4 -8 -6v-3q6 -4 14 -11q7 -6 17 -16.5t23 -26.5l189 -238h-105l-232 295z" />
    <glyph glyph-name="less_asciitilde.liga" 
d="M-540 330l231 295h106l-186 -236q-14 -17 -24.5 -28.5t-17.5 -18.5q-9 -8 -15 -12h36q17 0 30 7.5t25 19.5t24.5 25t29 25t38.5 19.5t53 7.5t53.5 -9.5t40 -24t30.5 -31.5t25.5 -31.5t25.5 -24t30 -9.5q18 0 31 9.5t25.5 24t25.5 31.5t30 31.5t39.5 24t53.5 9.5t53 -9.5
t38.5 -24t29 -31.5t24 -31.5t24 -24t29.5 -9.5q47 0 47 55v40h85v-40q0 -58 -35.5 -94t-94.5 -36q-47 0 -74 20.5t-45.5 44.5t-35.5 44.5t-43 20.5q-17 0 -30.5 -9.5t-26.5 -24t-26 -31.5t-30.5 -31.5t-40 -24t-53.5 -9.5t-53.5 9.5t-39.5 24t-30 31.5t-25.5 31.5t-26 24
t-30.5 9.5q-24 0 -41 -13t-35 -30t-40.5 -33t-56.5 -21l180 -227h-105z" />
    <glyph glyph-name="asciitilde_asciitilde.liga" 
d="M-425 304q0 59 35.5 94.5t94.5 35.5q31 0 53 -9.5t38 -24t28 -31.5t24 -31.5t24.5 -24t30.5 -9.5q17 0 30 9.5t24.5 24t23.5 31.5t28 31.5t38 24t53 9.5t53 -9.5t38.5 -24t29 -31.5t24 -31.5t24 -24t29.5 -9.5q47 0 47 55v40h85v-40q0 -58 -35.5 -94t-94.5 -36
q-47 0 -74 20.5t-45.5 44.5t-35.5 44.5t-43 20.5q-17 0 -30 -9.5t-24.5 -24t-23.5 -31.5t-28 -31.5t-38 -24t-53 -9.5t-53 9.5t-38.5 24t-29 31.5t-24 31.5t-24 24t-29.5 9.5q-47 0 -47 -55v-40h-85v40z" />
    <glyph glyph-name="asciitilde_asciitilde_greater.liga" 
d="M-1130 399h85v-40q0 -55 47 -55q17 0 29.5 9.5t24 24t24 31.5t29 31.5t38.5 24t53 9.5t53.5 -9.5t39.5 -24t30 -31.5t25.5 -31.5t26 -24t30.5 -9.5t30 9.5t25.5 24t25.5 31.5t30.5 31.5t40 24t53.5 9.5t53 -9.5t38.5 -24t29 -31.5t24.5 -31.5t25 -24t30 -9.5t30 9.5
t25 24t24.5 31.5t29 31.5t38.5 24t53 9.5t53 -9.5t38.5 -24t29 -31.5t24.5 -31.5t24.5 -24t30.5 -9.5q23 0 38.5 14.5t31.5 34t36 38t51 27.5l-164 207h106l231 -295l-232 -295h-105l190 239q24 30 39 43q8 7 14 11v3q-2 1 -5 4q-3 2 -7 5.5t-9 8.5h-15q-17 0 -30 -9
t-25 -22t-24.5 -29t-29 -29t-38.5 -22t-53 -9t-53 9.5t-38.5 24t-29 31.5t-24.5 31.5t-25 24t-30 9.5q-18 0 -30.5 -9.5t-24.5 -24t-24.5 -31.5t-29 -31.5t-38.5 -24t-53 -9.5t-53 9.5t-38.5 24t-29 31.5t-24.5 31.5t-25 24t-30 9.5q-18 0 -31 -9.5t-25.5 -24t-25.5 -31.5
t-30 -31.5t-39.5 -24t-53.5 -9.5t-54 9.5t-40 24t-30 31.5t-26 31.5t-26.5 24t-30.5 9.5q-26 0 -43 -20.5t-35.5 -44.5t-45.5 -44.5t-74 -20.5q-59 0 -94.5 36t-35.5 94v40z" />
    <glyph glyph-name="asciitilde_greater.liga" 
d="M-530 399h85v-40q0 -55 47 -55q17 0 29.5 9.5t24 24t24 31.5t29 31.5t38.5 24t53 9.5t53.5 -9.5t39.5 -24t30 -31.5t25.5 -31.5t26 -24t30.5 -9.5t30 9.5t25.5 24t25.5 31.5t30.5 31.5t40 24t53.5 9.5t53 -7.5t38.5 -19.5t29 -25t24.5 -25t25 -19.5t30 -7.5h36v1
q-6 4 -14 12q-8 7 -18.5 18.5t-24.5 28.5l-186 235h106l231 -295l-232 -295h-105l180 227q-34 5 -56.5 21t-40.5 33t-35 30t-41 13q-17 0 -30.5 -9.5t-26 -24t-25.5 -31.5t-30 -31.5t-39.5 -24t-53.5 -9.5t-54 9.5t-40 24t-30 31.5t-26 31.5t-26.5 24t-30.5 9.5
q-26 0 -43 -20.5t-35.5 -44.5t-45.5 -44.5t-74 -20.5q-59 0 -94.5 36t-35.5 94v40z" />
    <glyph glyph-name="less_dollar_greater.liga" 
d="M-1065 280v100l410 225v-90l-290 -161q-12 -7 -22 -11t-18 -6t-15 -3v-7q7 -1 16 -3q8 -2 18 -5.5t22 -9.5l416 -194q40 -19 92.5 -30.5t105.5 -14.5v264l-15 5q-88 29 -131 82.5t-43 125.5q0 78 49.5 126t139.5 56v121h60v-121q43 -4 89.5 -19.5t102.5 -44.5l543 -285
v-100l-410 -225v90l290 161q12 7 22 11t18 6t15 3v7q-7 1 -15 3t-18 6t-22 10l-452 239q-93 50 -163 57v-237l41 -15q169 -62 169 -213q0 -81 -56.5 -132t-153.5 -59v-132h-60v130q-66 2 -125.5 14.5t-105.5 34.5zM-270 312v-240q56 8 87.5 35.5t31.5 72.5q0 92 -110 129z
M-428 550q0 -41 23 -69t75 -48v215q-47 -8 -72.5 -33t-25.5 -65z" />
    <glyph glyph-name="less_dollar.liga" 
d="M-500 280v100l410 225v-90l-290 -161q-12 -7 -22 -11t-18 -6t-15 -3v-7q7 -1 16 -3q8 -2 18 -5.5t22 -9.5l416 -194q40 -19 92.5 -30.5t105.5 -14.5v264l-15 5q-88 29 -131 82.5t-43 125.5q0 77 50.5 125.5t138.5 56.5v121h60v-121q87 -8 138 -58.5t53 -131.5h-91
q0 42 -27.5 71.5t-72.5 37.5v-237l41 -15q169 -62 169 -213q0 -81 -56.5 -132t-153.5 -59v-132h-60v130q-66 2 -125.5 14.5t-105.5 34.5zM295 312v-240q56 8 87.5 35.5t31.5 72.5q0 92 -110 129zM235 648q-47 -8 -72.5 -33t-25.5 -65q0 -41 23 -69t75 -48v215z" />
    <glyph glyph-name="dollar_greater.liga" 
d="M-415 185q0 -47 32.5 -77t87.5 -36v262l-15 5q-88 29 -131 82.5t-43 125.5q0 78 49.5 126t139.5 56v121h60v-121q83 -7 192 -64l543 -285v-100l-410 -225v90l290 161q12 7 22 11t18 6t15 3v7q-7 1 -15 3t-18 6t-22 10l-452 239q-48 26 -88 39.5t-75 17.5v-237l41 -15
q169 -62 169 -213q0 -81 -56.5 -132.5t-153.5 -59.5v-131h-60v131q-49 3 -88.5 18.5t-67.5 41t-43.5 59.5t-15.5 75h95zM-235 312v-240q56 7 87.5 35t31.5 73q0 92 -110 129zM-393 550q0 -41 23 -69t75 -48v215q-47 -8 -72.5 -33t-25.5 -65z" />
    <glyph glyph-name="less_plus_greater.liga" 
d="M-585 290v80h241v245h88v-245h241v-80h-241v-245h-88v245h-241zM65 506v89l430 -215v-100l-430 -215v90l310 151q12 6 22 10t18 6q8 3 15 4v7q-7 1 -15 4q-17 3 -40 15zM-1095 380l430 215v-90l-310 -151q-12 -6 -22 -10t-18 -6q-8 -3 -15 -4v-7q7 -1 15 -3t18 -6t22 -10
l310 -154v-89l-430 215v100z" />
    <glyph glyph-name="less_plus.liga" 
d="M-25 290v80h241v245h88v-245h241v-80h-241v-245h-88v245h-241zM-115 595v-90l-310 -151q-12 -6 -22 -10t-18 -6q-8 -3 -15 -4v-7q7 -1 15 -3t18 -6t22 -10l310 -154v-89l-430 215v100z" />
    <glyph glyph-name="plus_greater.liga" 
d="M-575 290v80h241v245h88v-245h241v-80h-241v-245h-88v245h-241zM515 380v-100l-430 -215v90l310 151q12 6 22 10t18 6q8 3 15 4v7q-7 1 -15 4q-17 3 -40 15l-310 154v89z" />
    <glyph glyph-name="less_asterisk_greater.liga" 
d="M-596 397l30 83l119 -42q16 -6 32.5 -14.5t33 -18t31 -19.5t26.5 -19l5 4q-8 28 -16.5 68.5t-8.5 75.5v125h88v-125q0 -35 -9 -75.5t-17 -68.5l5 -3q23 17 57 38t66 32l119 42l30 -83l-119 -42q-31 -11 -69 -16.5t-67 -7.5l-4 -9q23 -19 51.5 -46t47.5 -54l75 -108
l-72 -50l-75 108q-19 27 -35 64t-25 64h-8q-9 -27 -25 -63.5t-35 -64.5l-74 -108l-72 50l74 108q19 28 48 55.5t52 45.5l-3 7q-29 2 -67.5 8t-69.5 17zM65 506v89l430 -215v-100l-430 -215v90l310 151q12 6 22 10t18 6q8 3 15 4v7q-7 1 -15 4q-17 3 -40 15zM-665 595v-90
l-310 -151q-12 -6 -22 -10t-18 -6q-8 -3 -15 -4v-7q7 -1 15 -3t18 -6t22 -10l310 -154v-89l-430 215v100z" />
    <glyph glyph-name="less_asterisk.liga" 
d="M-11 397l30 83l119 -42q16 -6 32.5 -14.5t33 -18t31 -19.5t26.5 -19l5 4q-8 28 -16.5 68.5t-8.5 75.5v125h88v-125q0 -35 -9 -75.5t-17 -68.5l5 -3q23 17 57 38t66 32l119 42l30 -83l-119 -42q-31 -11 -69 -16.5t-67 -7.5l-4 -9q23 -19 51.5 -46t47.5 -54l75 -108
l-72 -50l-75 108q-19 27 -35 64t-25 64h-8q-9 -27 -25 -63.5t-35 -64.5l-74 -108l-72 50l74 108q19 28 48 55.5t52 45.5l-3 7q-29 2 -67.5 8t-69.5 17zM-515 280v100l430 215v-90l-310 -151q-12 -6 -22 -10t-18 -6q-8 -3 -15 -4v-7q7 -1 15 -3t18 -6t22 -10l310 -154v-89z
" />
    <glyph glyph-name="asterisk_greater.liga" 
d="M-546 480l119 -42q16 -6 32.5 -14.5t33 -18t31 -19.5t26.5 -19l5 4q-8 28 -16.5 68.5t-8.5 75.5v125h88v-125q0 -35 -9 -75.5t-17 -68.5l5 -3q23 17 57 38t66 32l119 42l30 -83l-119 -42q-31 -11 -69 -16.5t-67 -7.5l-4 -9q23 -19 51.5 -46t47.5 -54l75 -108l-72 -50
l-75 108q-19 27 -35 64t-25 64h-8q-9 -27 -25 -63.5t-35 -64.5l-74 -108l-72 50l74 108q19 28 48 55.5t52 45.5l-3 7q-29 2 -67.5 8t-69.5 17l-119 42zM85 65v90l310 151q12 6 22 10t18 6q8 3 15 4v7q-7 1 -15 4q-17 3 -40 15l-310 154v89l430 -215v-100z" />
    <glyph glyph-name="less_slash.liga" 
d="M-475 380l430 215v-90l-310 -151q-12 -6 -22 -10t-18 -6q-8 -3 -15 -4v-7q7 -1 15 -3t18 -6t22 -10l470 -233l285 755h95l-355 -940h-95l41 110l-561 280v100z" />
    <glyph glyph-name="less_slash_greater.liga" 
d="M-1035 280v100l430 215v-90l-310 -151q-12 -6 -22 -10t-18 -6q-8 -3 -15 -4v-7q7 -1 15 -3t18 -6t22 -10l461 -229l284 751h95l-62 -164l572 -286v-100l-430 -215v90l310 151q12 6 22 10t18 6q8 3 15 4v7q-7 1 -15 4q-17 3 -40 15l-480 239l-265 -701h-95l43 114z" />
    <glyph glyph-name="slash_greater.liga" 
d="M-140 830h95l-60 -160l580 -290v-100l-430 -215v90l310 151q12 6 22 10t18 6q8 3 15 4v7q-7 1 -15 4q-17 3 -40 15l-489 243l-266 -705h-95z" />
    <glyph glyph-name="uniE000" unicode="&#xe000;" 
d="M212 -226q-99 23 -155.5 91t-56.5 170q0 63 20 105t65 67q-24 5 -32 37q-5 20 3 35t25 19q16 4 29 -6.5t18 -31.5t-5 -37q66 22 177 22t177 -22q-9 16 -5 38q4 20 17.5 30.5t30.5 6.5q16 -4 23.5 -18.5t3.5 -34.5q-8 -33 -33 -38q46 -25 66 -67t20 -104
q0 -103 -56.5 -171t-155.5 -91v-44h-38v38q-24 -3 -50 -3t-50 3v-38h-38v44zM160 205q-57 0 -91 -35.5t-34 -94.5q0 -36 15.5 -64t43.5 -47t68 -29t88 -10q23 0 39 1t27 3q13 2 21 4q-4 -10 -13 -22q-7 -11 -20 -23.5t-35 -26.5q67 0 121.5 13.5t93.5 40.5t60 67.5t21 92.5
q0 59 -34 94.5t-91 35.5q-52 0 -83.5 -28.5t-31.5 -75.5q0 -25 13 -48t33 -34l64 -34h-146q-20 0 -32 11t-12 28q0 18 11 29t29 11q0 27 -9.5 52.5t-26 45t-39.5 31.5t-50 12zM151 725q0 81 31.5 130.5t83.5 49.5t83.5 -49.5t31.5 -130.5v-180q0 -81 -31.5 -130.5
t-83.5 -49.5t-83.5 49.5t-31.5 130.5v180zM514 610q-3 -9 -6 -22q-2 -11 -4 -28t-2 -40q0 -45 15 -72.5t40 -27.5t40 27.5t15 72.5q0 50 -15 80t-40 30h-27v55h27q23 0 36.5 23.5t13.5 61.5q0 36 -13.5 58t-36.5 22t-36.5 -22t-13.5 -57q0 -32 5 -50q1 -9 4 -16h-60
q-3 7 -4 16q-5 18 -5 50q0 60 30 97t80 37t80 -35.5t30 -93.5q0 -40 -10 -62.5t-23 -33.5q-15 -13 -33 -16v-5q20 -6 36 -23q13 -14 24 -41t11 -75q0 -70 -31.5 -112.5t-83.5 -42.5t-83.5 42.5t-31.5 112.5q0 23 2 40t4 28q3 13 6 22h60zM266 850q-25 0 -40 -34t-15 -91
v-180q0 -57 15 -91t40 -34t40 34t15 91v180q0 57 -15 91t-40 34zM51 905v-536h-64v421l-66 -46l-1 65zM385 90q0 23 13.5 36.5t36.5 13.5t36.5 -13.5t13.5 -36.5t-13.5 -36.5t-36.5 -13.5t-36.5 13.5t-13.5 36.5zM165 40q-23 0 -36.5 13.5t-13.5 36.5q0 22 14 36t36 14
q23 0 36.5 -13.5t13.5 -36.5t-13.5 -36.5t-36.5 -13.5zM441 423v-55h-57v55h57zM148 423v-55h-57v55h57z" />
    <glyph glyph-name="less_hyphen_greater.liga" 
d="M-909 625h106l-186 -236q-5 -5 -8.5 -9.5t-7.5 -9.5h1411q-4 5 -8 9.5t-9 10.5l-186 235h106l231 -295l-232 -295h-105l190 239q4 5 7 8.5t6 7.5h-1412q3 -4 6.5 -8t7.5 -9l189 -238h-105l-232 295z" />
    <glyph glyph-name="period_period_less.liga" 
d="M-105 380l430 215v-90l-310 -151q-12 -6 -22 -10t-17 -6q-9 -3 -16 -4v-7q7 -1 16 -3q7 -2 17 -6t22 -10l310 -154v-89l-430 215v100zM-915 79q0 39 23.5 62.5t62.5 23.5t62.5 -23.5t23.5 -62.5q0 -40 -23.5 -64.5t-62.5 -24.5t-62.5 24.5t-23.5 64.5zM-477 79
q0 39 23.5 62.5t62.5 23.5t62.5 -23.5t23.5 -62.5q0 -40 -23.5 -64.5t-62.5 -24.5t-62.5 24.5t-23.5 64.5z" />
    <glyph glyph-name="asciitilde_equal.liga" 
d="M-370 385q0 36 13.5 65.5t37.5 50.5t58 32.5t75 11.5q54 0 104 -18t96.5 -39.5t90 -39.5t83.5 -18q44 0 70.5 23.5t26.5 61.5v25h85v-25q0 -36 -13.5 -65.5t-37.5 -50.5t-58 -32.5t-75 -11.5q-54 0 -104 18t-96.5 39.5t-90 39.5t-83.5 18q-44 0 -70.5 -23.5t-26.5 -61.5
v-25h-85v25zM370 250v-80h-740v80h740z" />
    <glyph glyph-name="asciitilde_hyphen.liga" 
d="M-495 295q0 66 42.5 105.5t112.5 39.5q35 0 60.5 -10.5t44.5 -27t34.5 -35t30.5 -35t31.5 -27t38.5 -10.5q32 0 51 20.5t19 54.5h530v-80h-465q-20 -33 -54.5 -51.5t-80.5 -18.5q-34 0 -59 10.5t-44 27t-34.5 35t-30.5 35t-32.5 27t-39.5 10.5q-32 0 -51 -19t-19 -51v-60
h-85v60z" />
    <glyph glyph-name="hyphen_asciitilde.liga" 
d="M-500 290v80h530q0 -34 19 -54.5t51 -20.5q22 0 38.5 10.5t31.5 27t30.5 35t34.5 35t44.5 27t60.5 10.5q70 0 112.5 -39.5t42.5 -105.5v-60h-85v60q0 32 -19 51t-51 19q-22 0 -39.5 -10.5t-32.5 -27t-30.5 -35t-34.5 -35t-44 -27t-59 -10.5q-46 0 -80.5 18.5t-54.5 51.5
h-465z" />
    <glyph glyph-name="asciitilde_at.liga" 
d="M-535 325q0 59 35.5 94.5t94.5 35.5q47 0 84.5 -20.5t68.5 -44.5t57.5 -44.5t52.5 -20.5q43 0 71 30t51 75t46.5 97.5t58 97.5t84.5 75t126 30q106 0 165.5 -57t59.5 -163v-435h-71l-1 98q-24 -108 -118 -108q-63 0 -96.5 45.5t-33.5 129.5v80q0 83 34 129t96 46
q87 0 114 -93q-1 13 -2.5 37t-1.5 51v20q0 70 -38.5 107.5t-106.5 37.5q-58 0 -96.5 -30t-67 -75t-52 -97.5t-52.5 -97.5t-68.5 -75t-98.5 -30q-47 0 -84.5 20.5t-68.5 44.5t-58 44.5t-52 20.5q-47 0 -47 -55v-70h-85v70zM280 320v-80q0 -54 18.5 -83t52.5 -29q89 0 89 122
v61q0 121 -89 121q-34 0 -52.5 -29t-18.5 -83z" />
    <glyph glyph-name="asciicircum_equal.liga" 
d="M-255 760h84l155 -270h431v-80h-485l-119 225q-14 26 -18 42q-3 9 -4 17h-4q-2 -8 -5 -17q-5 -16 -18 -42l-124 -225h-93zM-70 250h485v-80h-485v80z" />
    <glyph glyph-name="hyphen_bar.liga" 
d="M-420 290v80h675v380h90v-835h-90v375h-675z" />
    <glyph glyph-name="underscore_bar_underscore.liga" 
d="M-990 -100v75h645v775h90v-775h645v-75h-1380z" />
    <glyph glyph-name="bar_hyphen.liga" 
d="M-345 -85v835h90v-380h675v-80h-675v-375h-90z" />
    <glyph glyph-name="bar_bar_hyphen.liga" 
d="M-430 750h90v-380h710v-80h-710v-375h-90v835zM-860 -85v835h90v-835h-90z" />
    <glyph glyph-name="bar_equal.liga" 
d="M-345 -85v835h90v-260h675v-80h-675v-160h675v-80h-675v-255h-90z" />
    <glyph glyph-name="bar_bar_equal.liga" 
d="M-430 -85v835h90v-260h710v-80h-710v-160h710v-80h-710v-255h-90zM-860 -85v835h90v-835h-90z" />
    <glyph glyph-name="numbersign_braceleft.liga" 
d="M-468 265l36 190h-99v65h111l37 200h70l-37 -200h160l37 200h70l-37 -200h414l-9 144q-5 79 45.5 122.5t139.5 43.5h45v-80h-45q-48 0 -72.5 -21.5t-22.5 -64.5l10 -165q2 -27 -5 -51.5t-21.5 -43t-36.5 -29.5t-52 -12v-5q30 -1 52.5 -12.5t36.5 -30.5t21 -44t5 -52
l-10 -163q-2 -43 22.5 -64.5t72.5 -21.5h45v-80h-45q-89 0 -139.5 43.5t-45.5 122.5l9 144h-474l-37 -200h-70l37 200h-160l-37 -200h-70l37 200h-85v65h97zM293 265q-5 29 -27 41.5t-71 12.5h-50v80h50q49 0 71 13.5t27 42.5h-425l-36 -190h461zM-238 265l36 190h-160
l-36 -190h160z" />
    <glyph glyph-name="numbersign_bracketleft.liga" 
d="M-468 265l36 190h-99v65h111l37 200h70l-37 -200h160l37 200h70l-37 -200h330v310h245v-80h-155v-780h155v-80h-245v310h-390l-37 -200h-70l37 200h-160l-37 -200h-70l37 200h-85v65h97zM-168 265h378v190h-342zM-238 265l36 190h-160l-36 -190h160z" />
    <glyph glyph-name="bracketright_numbersign.liga" 
d="M-450 -110v80h155v780h-155v80h245v-310h385l37 200h70l-37 -200h160l37 200h70l-37 -200h85v-65h-97l-36 -190h98v-65h-110l-37 -200h-70l37 200h-160l-37 -200h-70l37 200h-325v-310h-245zM-205 455v-190h337l36 190h-373zM202 265h160l36 190h-160z" />
    <glyph glyph-name="numbersign_parenleft.liga" 
d="M-565 200v65h97l36 190h-99v65h111l37 200h70l-37 -200h160l37 200h70l-37 -200h309q9 61 33 113.5t62 94.5t89 72t112 45v-85q-48 -11 -87 -38t-66 -67t-42 -90.5t-15 -109.5v-190q0 -58 14.5 -108t42 -89t66.5 -66t87 -38v-89q-127 32 -203 116t-93 209h-369l-37 -200
h-70l37 200h-160l-37 -200h-70l37 200h-85zM-168 265h353v190h-317zM-238 265l36 190h-160l-36 -190h160z" />
    <glyph glyph-name="numbersign_question.liga" 
d="M-565 200v65h97l36 190h-99v65h111l37 200h70l-37 -200h160l37 200h70l-37 -200h160q2 94 63 147t167 53h20q53 0 95.5 -14.5t72.5 -42t46 -66.5t16 -87q0 -42 -14 -78.5t-38.5 -63.5t-59.5 -43.5t-77 -19.5v-100h-90v175h50q64 0 100.5 35t36.5 95t-37 95t-101 35h-20
q-65 0 -102.5 -33.5t-37.5 -91.5v-60h-262l-36 -190h98v-65h-110l-37 -200h-70l37 200h-160l-37 -200h-70l37 200h-85zM-398 265h160l36 190h-160zM210 54q0 27 18 44t47 17h20q29 0 47 -17t18 -44t-18 -43t-47 -16h-20q-29 0 -47 15.5t-18 43.5z" />
    <glyph glyph-name="numbersign_underscore.liga" 
d="M-468 265l36 190h-99v65h111l37 200h70l-37 -200h160l37 200h70l-37 -200h85v-65h-97l-36 -190h98v-65h-110l-42 -225h762v-75h-846l56 300h-160l-37 -200h-70l37 200h-85v65h97zM-398 265h160l36 190h-160z" />
    <glyph glyph-name="numbersign_underscore_parenleft.liga" 
d="M-1165 265h97l36 190h-99v65h111l37 200h70l-37 -200h160l37 200h70l-37 -200h85v-65h-97l-36 -190h98v-65h-110l-42 -225h1134q-66 51 -101.5 125.5t-35.5 174.5v170q0 73 21 136.5t60 114t94.5 86.5t124.5 53v-85q-48 -11 -87 -38t-66 -67t-42 -90.5t-15 -109.5v-170
q0 -57 14.5 -106.5t41 -88.5t64.5 -66t86 -39h4v-75h-1381l56 300h-160l-37 -200h-70l37 200h-85v65zM-998 265h160l36 190h-160z" />
    <glyph glyph-name="numbersign_colon.liga" 
d="M-565 200v65h97l36 190h-99v65h111l37 200h70l-37 -200h160l37 200h70l-37 -200h85v-65h-97l-36 -190h98v-65h-110l-37 -200h-70l37 200h-160l-37 -200h-70l37 200h-85zM-238 265l36 190h-160l-36 -190h160zM300 590q36 0 58 -22t22 -58q0 -37 -22 -58.5t-58 -21.5
t-58 21.5t-22 58.5q0 36 22 58t58 22zM220 211q0 36 22 57.5t58 21.5t58 -21.5t22 -57.5q0 -37 -22 -59t-58 -22t-58 22t-22 59z" />
    <glyph glyph-name="numbersign_exclam.liga" 
d="M-468 265l36 190h-99v65h111l37 200h70l-37 -200h160l37 200h70l-37 -200h85v-65h-97l-36 -190h98v-65h-110l-37 -200h-70l37 200h-160l-37 -200h-70l37 200h-85v65h97zM253 600l21 120h106l-21 -120l-89 -385h-64zM-238 265l36 190h-160l-36 -190h160zM135 54
q5 27 25.5 44t49.5 17h20q29 0 44 -17t10 -44t-25.5 -43t-49.5 -16h-20q-29 0 -44 15.5t-10 43.5z" />
    <glyph glyph-name="numbersign_equal.liga" 
d="M-468 265l36 190h-99v65h111l37 200h70l-37 -200h160l37 200h70l-37 -200h85v-65h-97l-36 -190h98v-65h-110l-37 -200h-70l37 200h-160l-37 -200h-70l37 200h-85v65h97zM-398 265h160l36 190h-160zM80 280h440v-80h-440v80zM520 520v-80h-440v80h440z" />
    <glyph glyph-name="uni2116" unicode="&#x2116;" 
d="M25 720h95l118 -443q5 -18 11.5 -49.5t11.5 -61.5q6 -36 13 -76h12l-2.5 21.5t-5.5 52.5t-5.5 65.5t-2.5 60.5v430h70v-720h-95l-115 444q-6 23 -12.5 55t-11.5 61q-7 35 -13 71h-12q4 -36 7 -72q3 -31 5 -65.5t2 -63.5v-430h-70v720zM385 405v220q0 48 27 76.5t68 28.5
t68 -28.5t27 -76.5v-220q0 -48 -27 -76.5t-68 -28.5t-68 28.5t-27 76.5zM445 395q0 -23 10.5 -31.5t24.5 -8.5t24.5 8.5t10.5 31.5v240q0 18 -10.5 29t-24.5 11t-24.5 -11t-10.5 -29v-240z" />
    <glyph glyph-name="ampersand_equal.liga" 
d="M-405 417l-11 15q-28 38 -41 71.5t-13 61.5q0 36 13 66.5t36.5 52.5t56.5 34t74 12q42 0 77 -12.5t60 -34t38.5 -52t13.5 -66.5h-90q0 37 -27 62t-72 25q-41 0 -65.5 -25t-24.5 -62q0 -20 8 -42t26 -47l178 -248l163 262h525v-80h-483l-155 -251l114 -159h-99l-63 87
q-77 -97 -174 -97q-82 0 -128.5 43.5t-46.5 121.5v125q0 54 28.5 89t81.5 48zM-425 155q0 -41 23.5 -63t66.5 -22q32 0 63.5 22.5t56.5 61.5l-153 212q-27 -8 -42 -29.5t-15 -56.5v-125zM45 250h475v-80h-475v80z" />
    <glyph glyph-name="uni20BD" unicode="&#x20bd;" 
d="M110 225v85h-80v80h80v330h223q49 0 89 -14.5t68.5 -41.5t44 -64.5t15.5 -84.5q0 -46 -15.5 -84t-44 -65t-68.5 -41.5t-89 -14.5h-133v-85h230v-80h-230v-145h-90v145h-80v80h80zM333 390q57 0 90.5 34t33.5 91t-33.5 91t-90.5 34h-133v-250h133z" />
    <glyph glyph-name="lambda" unicode="&#x3bb;" 
d="M256 515l-76 205h96l274 -720h-96l-122 321q-8 23 -13.5 43.5t-8.5 35.5q-4 18 -5 33h-7q-2 -15 -5 -33q-3 -16 -8.5 -36t-13.5 -43l-120 -321h-101z" />
    <glyph glyph-name="less_numbersign_hyphen_hyphen.liga" 
d="M-1088 265l36 190h-99v65h111l37 200h70l-37 -200h160l37 200h70l-37 -200h85v-65h-97l-36 -190h98v-65h-110l-37 -200h-70l37 200h-160l-37 -200h-70l37 200h-85v65h97zM-1509 625h106l-186 -236q-5 -5 -8.5 -9.5t-7.5 -9.5h365v-80h-366q3 -4 6.5 -8t7.5 -9l189 -238
h-105l-232 295zM-600 290v80h1100v-80h-1100zM-858 265l36 190h-160l-36 -190h160z" />
    <glyph glyph-name="uniE0A0" unicode="&#xe0a0;" 
d="M90 -270v381q0 45 22 89t59 71l145 108q25 18 39.5 40.5t14.5 41.5v170h-110l170 170l170 -170h-110v-180q0 -37 -20 -74.5t-52 -61.5l-155 -115q-26 -19 -39.5 -45t-13.5 -55v-370h-120zM90 970h120v-517l-120 -89v606z" />
    <glyph glyph-name="arrowleft" unicode="&#x2190;" 
d="M271 625h106l-162 -205q-7 -8 -14.5 -16.5t-14.5 -14.5l-16 -14v-9l24 2q11 1 23 1.5t23 0.5h330v-80h-330q-25 0 -46 3l-24 2v-9q7 -6 14 -13l14.5 -14.5t16.5 -19.5l162 -204h-105l-232 295z" />
    <glyph glyph-name="arrowup" unicode="&#x2191;" 
d="M10 378v105l291 247l289 -246v-105l-186 158q-15 13 -25 22.5t-17 16.5q-7 8 -12 14h-10q1 -12 3 -25q1 -11 1.5 -25.5t0.5 -29.5v-510h-90v510q0 15 0.5 29.5t2.5 25.5q1 13 2 25h-10q-5 -6 -12 -14q-7 -7 -17.5 -17t-25.5 -23z" />
    <glyph glyph-name="arrowright" unicode="&#x2192;" 
d="M40 290v80h330q11 0 23.5 -0.5t22.5 -1.5q12 -2 24 -3v9q-7 6 -14 13q-13 13 -31 34l-162 204h105l232 -295l-231 -295h-106l162 205q7 9 14.5 17t14.5 14l16 14v9l-24 -2q-10 -1 -22.5 -1.5t-23.5 -0.5h-330z" />
    <glyph glyph-name="arrowdown" unicode="&#x2193;" 
d="M10 236v105l186 -158q30 -25 42 -39q7 -8 12 -14h10q-1 12 -2 25q-3 23 -3 55v510h90v-510q0 -15 -0.5 -29.5t-1.5 -25.5q-2 -13 -3 -25h10q5 6 13 14q11 13 42 40l185 158v-105l-291 -247z" />
    <glyph glyph-name="arrowboth" unicode="&#x2194;" 
d="M151 625h106l-162 -205q-7 -8 -14.5 -16.5t-14.5 -14.5l-16 -14v-9l24 2q11 1 23 1.5t23 0.5h360q11 0 23.5 -0.5t22.5 -1.5q12 -2 24 -3v9q-7 6 -14 13q-13 13 -31 34l-162 204h105l232 -295l-231 -295h-106l162 205q7 9 14.5 17t14.5 14l16 14v9l-24 -2
q-10 -1 -22.5 -1.5t-23.5 -0.5h-360q-25 0 -46 3l-24 2v-9q7 -6 14 -13l14.5 -14.5t16.5 -19.5l162 -204h-105l-232 295z" />
    <glyph glyph-name="arrowupdn" unicode="&#x2195;" 
d="M10 181l186 -158q30 -26 42 -39q7 -8 12 -14h10q-1 12 -2 25q-3 23 -3 55v620q0 15 0.5 29.5t2.5 25.5q1 13 2 25h-10q-5 -6 -12 -14q-7 -7 -17.5 -17t-25.5 -23l-185 -158v105l290 247l290 -246v-105l-186 158q-15 13 -25 22.5t-17 16.5q-7 8 -12 14h-10q1 -12 3 -25
q1 -11 1.5 -25.5t0.5 -29.5v-620q0 -15 -0.5 -29.5t-1.5 -25.5q-2 -13 -3 -25h10q5 6 13 14q6 7 16.5 17t25.5 23l185 158v-105l-290 -247l-290 246v105z" />
    <glyph glyph-name="uni2196" unicode="&#x2196;" 
d="M45 620h415v-78h-195q-34 0 -57 3q-13 1 -23 2l-1 -7q8 -7 18 -14q15 -12 35 -32l353 -356l-61 -63l-355 358q-10 10 -18.5 20.5t-16.5 18.5q-8 10 -15 19l-7 -2q2 -12 4 -26q2 -11 3 -26.5t1 -32.5v-199h-80v415z" />
    <glyph glyph-name="uni2197" unicode="&#x2197;" 
d="M10 138l353 356q9 9 18.5 17.5t17.5 14.5q9 7 17 14l-1 7q-10 -1 -23 -2q-21 -3 -57 -3h-195v78h415v-415h-80v199q0 17 1 32.5t2 27.5q1 14 3 26l-7 2q-7 -9 -15 -19q-7 -8 -16 -18.5t-19 -20.5l-355 -358z" />
    <glyph glyph-name="uni2198" unicode="&#x2198;" 
d="M10 557l61 63l355 -358q10 -10 19 -20t16 -19q8 -10 15 -19l7 2q-2 12 -4 26q-2 11 -3 26.5t-1 32.5v199h80v-415h-415v78h195q17 0 31.5 -0.5t25.5 -1.5q13 -2 23 -3l1 7q-8 7 -17 14q-8 7 -17.5 15t-18.5 17z" />
    <glyph glyph-name="uni2199" unicode="&#x2199;" 
d="M45 490h80v-199q0 -17 -1 -32.5t-2 -27.5q-2 -15 -4 -27l7 -2q7 9 15 19q8 9 16.5 19t18.5 20l355 358l60 -61l-353 -356q-9 -9 -18 -17t-17 -15q-10 -7 -18 -14l1 -7q10 1 23 3q11 1 25.5 1.5t31.5 0.5h195v-78h-415v415z" />
    <glyph glyph-name="uni2010" unicode="&#x2010;" 
d="M100 370h400v-80h-400v80z" />
    <glyph glyph-name="minute" unicode="&#x2032;" 
d="M375 776l-130 -311h-80l80 311h130z" />
    <glyph glyph-name="second" unicode="&#x2033;" 
d="M310 465l80 311h130l-130 -311h-80zM115 776h130l-130 -311h-80z" />
    <glyph glyph-name="block" unicode="&#x2588;" 
d="M0 970h600v-1240h-600v1240z" />
    <glyph glyph-name="uniE0A1" unicode="&#xe0a1;" 
d="M258 315l129 -293q8 -19 15 -40.5t12 -39.5q6 -21 11 -42h10l-2 14.5t-5 35.5t-5.5 45.5t-2.5 44.5v275h75v-490h-92l-128 293q-8 19 -15.5 40.5t-13.5 39.5l-12 42h-10q4 -24 8 -49q3 -20 5.5 -44.5t2.5 -46.5v-275h-75v490h93zM185 895v-415h221v-75h-301v490h80z" />
    <glyph glyph-name="uniE0A2" unicode="&#xe0a2;" 
d="M50 414q0 25 17.5 42.5t42.5 17.5h10v231q0 38 14 69.5t38 54t57 34.5t71 12q39 0 72 -12.5t57 -35t37.5 -54t13.5 -68.5v-231h10q25 0 42.5 -17.5t17.5 -42.5v-434q0 -25 -17.5 -42.5t-42.5 -17.5h-380q-25 0 -42.5 17.5t-17.5 42.5v434zM200 705v-230h200v230
q0 45 -27.5 72.5t-72.5 27.5t-72.5 -27.5t-27.5 -72.5zM255 210v-160h90l-1 160q16 7 28 18q11 9 19.5 24.5t8.5 38.5q0 40 -27.5 64.5t-72.5 24.5t-72.5 -24.5t-27.5 -64.5q0 -23 8.5 -38.5t19.5 -24.5q12 -11 27 -18z" />
    <glyph glyph-name="uniE0B0" unicode="&#xe0b0;" 
d="M0 970l610 -620l-610 -620v1240z" />
    <glyph glyph-name="uniE0B1" unicode="&#xe0b1;" 
d="M0 970l610 -620l-610 -620h-118l610 618l-604 622h112z" />
    <glyph glyph-name="uniE0B2" unicode="&#xe0b2;" 
d="M600 970v-1240l-610 620z" />
    <glyph glyph-name="uniE0B3" unicode="&#xe0b3;" 
d="M600 -270l-610 620l610 620h115l-605 -616l603 -624h-113z" />
    <glyph glyph-name="uni04E8" unicode="&#x4e8;" 
d="M300 -10q-51 0 -91.5 15t-69 43t-44 68t-15.5 89v310q0 49 15.5 89t44 68t69 43t91.5 15t91.5 -15t69 -43t44 -68t15.5 -89v-310q0 -49 -15.5 -88.5t-44 -67.5t-69.5 -43.5t-91 -15.5zM170 205q0 -62 35 -98.5t95 -36.5t95 36.5t35 98.5v115h-260v-115zM300 650
q-60 0 -95 -36.5t-35 -98.5v-110h260v110q0 62 -35 98.5t-95 36.5z" />
    <glyph glyph-name="uni04E9" unicode="&#x4e9;" 
d="M300 -10q-51 0 -91.5 15t-69 43t-44 68t-15.5 89v140q0 50 15.5 89.5t44 67.5t69 43t91.5 15q102 0 161 -57t59 -157v-141q0 -50 -15 -90t-43.5 -67.5t-69.5 -42.5t-92 -15zM170 205q0 -63 34.5 -99t95.5 -36q60 0 95 36t35 99v35h-260v-35zM300 480q-60 0 -95 -36
t-35 -99v-30h260v30q0 63 -35 99t-95 36z" />
    <glyph glyph-name="uni04AE" unicode="&#x4ae;" 
d="M125 720l148 -317q7 -14 11.5 -28t8.5 -25q4 -13 7 -26h4q3 13 8 26q3 11 8 25t11 28l143 317h96l-225 -470v-250h-90v250l-225 470h95z" />
    <glyph glyph-name="uni04AF" unicode="&#x4af;" 
d="M125 550l148 -317q7 -14 11.5 -28t8.5 -25q4 -13 7 -26h4q3 13 8 26q3 11 8 25t11 28l143 317h96l-225 -470v-250h-90v250l-225 470h95z" />
    <glyph glyph-name="uni20AE" unicode="&#x20ae;" 
d="M555 720v-79h-211v-184l176 48v-75l-176 -48v-100l176 48v-75l-176 -48v-207h-88v183l-176 -48v75l176 48v100l-176 -48v75l176 48v208h-211v79h510z" />
    <glyph glyph-name="less_hyphen_hyphen.liga" 
d="M-909 625h106l-186 -236q-5 -5 -8.5 -9.5t-7.5 -9.5h1505v-75h-1511q8 -8 19 -22l189 -238h-105l-232 295z" />
    <glyph glyph-name="uni2500" unicode="&#x2500;" 
d="M-5 410h610v-100h-610v100z" />
    <glyph glyph-name="uni2501" unicode="&#x2501;" 
d="M-5 460h610v-200h-610v200z" />
    <glyph glyph-name="uni2502" unicode="&#x2502;" 
d="M250 970h100v-1240h-100v1240z" />
    <glyph glyph-name="uni2503" unicode="&#x2503;" 
d="M200 970h200v-1240h-200v1240z" />
    <glyph glyph-name="uni2504" unicode="&#x2504;" 
d="M437 410h126v-100h-126v100zM237 410h126v-100h-126v100zM37 410h126v-100h-126v100z" />
    <glyph glyph-name="uni2505" unicode="&#x2505;" 
d="M437 260v200h126v-200h-126zM237 260v200h126v-200h-126zM37 460h126v-200h-126v200z" />
    <glyph glyph-name="uni2506" unicode="&#x2506;" 
d="M250 928h100v-338h-100v338zM350 108v-337h-100v337h100zM250 183v334h100v-334h-100z" />
    <glyph glyph-name="uni2507" unicode="&#x2507;" 
d="M200 172v357h200v-357h-200zM400 97v-326h-200v326h200zM200 928h200v-326h-200v326z" />
    <glyph glyph-name="uni2508" unicode="&#x2508;" 
d="M25 410h100v-100h-100v100zM425 410v-100h-100v100h100zM175 310v100h100v-100h-100zM575 410v-100h-100v100h100z" />
    <glyph glyph-name="uni2509" unicode="&#x2509;" 
d="M25 460h100v-200h-100v200zM425 460v-200h-100v200h100zM175 260v200h100v-200h-100zM575 460v-200h-100v200h100z" />
    <glyph glyph-name="uni250A" unicode="&#x250a;" 
d="M250 925h100v-215h-100v215zM250 -205v215h100v-215h-100zM350 315v-215h-100v215h100zM250 405v215h100v-215h-100z" />
    <glyph glyph-name="uni250B" unicode="&#x250b;" 
d="M200 925h200v-215h-200v215zM200 -205v215h200v-215h-200zM400 315v-215h-200v215h200zM200 405v215h200v-215h-200z" />
    <glyph glyph-name="uni250C" unicode="&#x250c;" 
d="M350 310v-580h-100v680h355v-100h-255z" />
    <glyph glyph-name="uni250D" unicode="&#x250d;" 
d="M350 260v-530h-100v730h355v-200h-255z" />
    <glyph glyph-name="uni250E" unicode="&#x250e;" 
d="M400 310v-580h-200v680h405v-100h-205z" />
    <glyph glyph-name="uni250F" unicode="&#x250f;" 
d="M400 260v-530h-200v730h405v-200h-205z" />
    <glyph glyph-name="uni2510" unicode="&#x2510;" 
d="M250 310h-255v100h355v-680h-100v580z" />
    <glyph glyph-name="uni2511" unicode="&#x2511;" 
d="M250 260h-255v200h355v-730h-100v530z" />
    <glyph glyph-name="uni2512" unicode="&#x2512;" 
d="M200 310h-205v100h405v-680h-200v580z" />
    <glyph glyph-name="uni2513" unicode="&#x2513;" 
d="M200 260h-205v200h405v-730h-200v530z" />
    <glyph glyph-name="uni2514" unicode="&#x2514;" 
d="M250 310v660h100v-560h255v-100h-355z" />
    <glyph glyph-name="uni2515" unicode="&#x2515;" 
d="M250 260v710h100v-510h255v-200h-355z" />
    <glyph glyph-name="uni2516" unicode="&#x2516;" 
d="M200 310v660h200v-560h205v-100h-405z" />
    <glyph glyph-name="uni2517" unicode="&#x2517;" 
d="M200 260v710h200v-510h205v-200h-405z" />
    <glyph glyph-name="uni2518" unicode="&#x2518;" 
d="M-5 310v100h255v560h100v-660h-355z" />
    <glyph glyph-name="uni2519" unicode="&#x2519;" 
d="M350 260h-355v200h255v510h100v-710z" />
    <glyph glyph-name="uni251A" unicode="&#x251a;" 
d="M400 310h-405v100h205v560h200v-660z" />
    <glyph glyph-name="uni251B" unicode="&#x251b;" 
d="M400 260h-405v200h205v510h200v-710z" />
    <glyph glyph-name="uni251C" unicode="&#x251c;" 
d="M250 970h100v-560h255v-100h-255v-580h-100v1240z" />
    <glyph glyph-name="uni251D" unicode="&#x251d;" 
d="M250 -270v1240h100v-510h255v-200h-255v-530h-100z" />
    <glyph glyph-name="uni251E" unicode="&#x251e;" 
d="M200 970h200v-560h205v-100h-255v-580h-100v580h-50v660z" />
    <glyph glyph-name="uni251F" unicode="&#x251f;" 
d="M200 410h50v560h100v-560h255v-100h-205v-580h-200v680z" />
    <glyph glyph-name="uni2520" unicode="&#x2520;" 
d="M400 970v-560h205v-100h-205v-580h-200v1240h200z" />
    <glyph glyph-name="uni2521" unicode="&#x2521;" 
d="M200 970h200v-510h205v-200h-255v-530h-100v530h-50v710z" />
    <glyph glyph-name="uni2522" unicode="&#x2522;" 
d="M250 460v510h100v-510h255v-200h-205v-530h-200v730h50z" />
    <glyph glyph-name="uni2523" unicode="&#x2523;" 
d="M200 -270v1240h200v-510h205v-200h-205v-530h-200z" />
    <glyph glyph-name="uni2524" unicode="&#x2524;" 
d="M-5 410h255v560h100v-1240h-100v580h-255v100z" />
    <glyph glyph-name="uni2525" unicode="&#x2525;" 
d="M-5 260v200h255v510h100v-1240h-100v530h-255z" />
    <glyph glyph-name="uni2526" unicode="&#x2526;" 
d="M200 410v560h200v-660h-50v-580h-100v580h-255v100h205z" />
    <glyph glyph-name="uni2527" unicode="&#x2527;" 
d="M-5 410h255v560h100v-560h50v-680h-200v580h-205v100z" />
    <glyph glyph-name="uni2528" unicode="&#x2528;" 
d="M-5 310v100h205v560h200v-1240h-200v580h-205z" />
    <glyph glyph-name="uni2529" unicode="&#x2529;" 
d="M200 460v510h200v-710h-50v-530h-100v530h-255v200h205z" />
    <glyph glyph-name="uni252A" unicode="&#x252a;" 
d="M250 460v510h100v-510h50v-730h-200v530h-205v200h255z" />
    <glyph glyph-name="uni252B" unicode="&#x252b;" 
d="M-5 260v200h205v510h200v-1240h-200v530h-205z" />
    <glyph glyph-name="uni252C" unicode="&#x252c;" 
d="M-5 310v100h610v-100h-255v-580h-100v580h-255z" />
    <glyph glyph-name="uni252D" unicode="&#x252d;" 
d="M-5 260v200h355v-50h255v-100h-255v-580h-100v530h-255z" />
    <glyph glyph-name="uni252E" unicode="&#x252e;" 
d="M-5 410h255v50h355v-200h-255v-530h-100v580h-255v100z" />
    <glyph glyph-name="uni252F" unicode="&#x252f;" 
d="M605 460v-200h-255v-530h-100v530h-255v200h610z" />
    <glyph glyph-name="uni2530" unicode="&#x2530;" 
d="M-5 310v100h610v-100h-205v-580h-200v580h-205z" />
    <glyph glyph-name="uni2531" unicode="&#x2531;" 
d="M-5 260v200h405v-50h205v-100h-205v-580h-200v530h-205z" />
    <glyph glyph-name="uni2532" unicode="&#x2532;" 
d="M-5 410h205v50h405v-200h-205v-530h-200v580h-205v100z" />
    <glyph glyph-name="uni2533" unicode="&#x2533;" 
d="M605 460v-200h-205v-530h-200v530h-205v200h610z" />
    <glyph glyph-name="uni2534" unicode="&#x2534;" 
d="M250 410v560h100v-560h255v-100h-610v100h255z" />
    <glyph glyph-name="uni2535" unicode="&#x2535;" 
d="M-5 260v200h255v510h100v-560h255v-100h-255v-50h-355z" />
    <glyph glyph-name="uni2536" unicode="&#x2536;" 
d="M250 410v560h100v-510h255v-200h-355v50h-255v100h255z" />
    <glyph glyph-name="uni2537" unicode="&#x2537;" 
d="M250 460v510h100v-510h255v-200h-610v200h255z" />
    <glyph glyph-name="uni2538" unicode="&#x2538;" 
d="M-5 310v100h205v560h200v-560h205v-100h-610z" />
    <glyph glyph-name="uni2539" unicode="&#x2539;" 
d="M200 460v510h200v-560h205v-100h-205v-50h-405v200h205z" />
    <glyph glyph-name="uni253A" unicode="&#x253a;" 
d="M200 410v560h200v-510h205v-200h-405v50h-205v100h205z" />
    <glyph glyph-name="uni253B" unicode="&#x253b;" 
d="M-5 260v200h205v510h200v-510h205v-200h-610z" />
    <glyph glyph-name="uni253C" unicode="&#x253c;" 
d="M-5 310v100h255v560h100v-560h255v-100h-255v-580h-100v580h-255z" />
    <glyph glyph-name="uni253D" unicode="&#x253d;" 
d="M-5 260v200h255v510h100v-560h255v-100h-255v-580h-100v530h-255z" />
    <glyph glyph-name="uni253E" unicode="&#x253e;" 
d="M250 410v560h100v-510h255v-200h-255v-530h-100v580h-255v100h255z" />
    <glyph glyph-name="uni253F" unicode="&#x253f;" 
d="M-5 260v200h255v510h100v-510h255v-200h-255v-530h-100v530h-255z" />
    <glyph glyph-name="uni2540" unicode="&#x2540;" 
d="M-5 310v100h205v560h200v-560h205v-100h-255v-580h-100v580h-255z" />
    <glyph glyph-name="uni2541" unicode="&#x2541;" 
d="M-5 310v100h255v560h100v-560h255v-100h-205v-580h-200v580h-205z" />
    <glyph glyph-name="uni2542" unicode="&#x2542;" 
d="M200 410v560h200v-560h205v-100h-205v-580h-200v580h-205v100h205z" />
    </font>
</defs>
</svg>
