<?xml version="1.0" standalone="no"?>
<!DOCTYPE svg PUBLIC "-//W3C//DTD SVG 1.1//EN" "http://www.w3.org/Graphics/SVG/1.1/DTD/svg11.dtd" >
<svg xmlns="http://www.w3.org/2000/svg" xmlns:xlink="http://www.w3.org/1999/xlink" version="1.1">
<metadata>
Created by FontForge 20170924 at Thu Feb  6 10:09:05 2020
 By www-data
(c) 2000-2020 JetBrains s.r.o. Developed with drive and IntelliJ IDEA.
</metadata>
<defs>
<font id="JetBrainsMono-MediumItalic" horiz-adv-x="600" >
  <font-face 
    font-family="JetBrains Mono Medium"
    font-weight="500"
    font-style="italic"
    font-stretch="normal"
    units-per-em="1000"
    panose-1="2 11 6 9 2 1 2 5 0 4"
    ascent="800"
    descent="-200"
    x-height="550"
    cap-height="720"
    bbox="-1767 -270 740 970"
    underline-thickness="45"
    underline-position="-142"
    slope="-9"
    unicode-range="U+000A-E0B3"
  />
<missing-glyph 
d="M33 0l114 720h420l-114 -720h-420zM111 50h300l89 561zM489 670h-300l-89 -561z" />
    <glyph glyph-name=".notdef" 
d="M33 0l114 720h420l-114 -720h-420zM111 50h300l89 561zM489 670h-300l-89 -561z" />
    <glyph glyph-name=".null" horiz-adv-x="0" 
 />
    <glyph glyph-name=".null" horiz-adv-x="0" 
 />
    <glyph glyph-name="uni000D" unicode="&#xd;" 
 />
    <glyph glyph-name="space" unicode=" " 
 />
    <glyph glyph-name="H" unicode="H" 
d="M32 0l114 720h110l-47 -295h214l47 295h110l-114 -720h-110l51 324h-214l-51 -324h-110z" />
    <glyph glyph-name="n" unicode="n" 
d="M29 0l87 550h104l-15 -95h9q18 50 61 77.5t103 27.5q40 0 71 -14.5t50.5 -41t27 -63.5t0.5 -82l-57 -359h-109l55 347q8 57 -15 88t-74 31t-86 -29.5t-46 -81.5l-56 -355h-110z" />
    <glyph glyph-name="p" unicode="p" 
d="M3 -170l114 720h105l-15 -95h8q19 50 63 77.5t104 27.5q42 0 74 -15.5t52 -44t27.5 -68t-0.5 -87.5l-22 -138q-17 -102 -75.5 -159.5t-145.5 -57.5q-60 0 -95 27.5t-39 77.5h-8q0 -1 -1 -11t-2 -24t-3 -30t-4 -30l-27 -170h-110zM267 86q55 0 91.5 33t45.5 89l21 135
q9 57 -17 89.5t-81 32.5q-51 0 -87.5 -33t-45.5 -89l-22 -136q-9 -55 17 -88t78 -33z" />
    <glyph glyph-name="parenleft" unicode="(" 
d="M412 -125q-124 32 -188 113.5t-64 200.5q0 37 6 76l31 190q25 152 120.5 252t253.5 138l-18 -110q-100 -24 -163.5 -95t-82.5 -185l-31 -190q-2 -16 -3.5 -31.5t-1.5 -29.5q0 -85 41.5 -142.5t117.5 -76.5z" />
    <glyph glyph-name="o" unicode="o" 
d="M248 -10q-52 0 -92 15t-65.5 43.5t-35.5 68.5t-2 90l22 137q8 50 30 90t56.5 68t79.5 43t98 15t92.5 -15t65 -43t35.5 -68t2 -90l-21 -137q-17 -101 -87 -159t-178 -58zM162 207q-9 -56 18 -88t84 -32q56 0 93.5 31.5t46.5 88.5l21 137q8 56 -19 88t-83 32
q-55 0 -92.5 -32.5t-46.5 -87.5z" />
    <glyph glyph-name="i" unicode="i" 
d="M38 0l16 100h199l55 351h-173l16 99h279l-71 -450h162l-16 -100h-467zM308 700q5 29 26 47t52 18h24q31 0 47 -17.5t11 -46.5t-26.5 -46t-52.5 -17h-23q-31 0 -47 16.5t-11 45.5z" />
    <glyph glyph-name="l" unicode="l" 
d="M99 720h288l-87 -550q-5 -33 10 -51.5t47 -18.5h164l-16 -100h-169q-81 0 -120 45.5t-26 124.5l71 451h-178z" />
    <glyph glyph-name="O" unicode="O" 
d="M248 -10q-52 0 -92 15.5t-65.5 44t-35.5 69t-3 89.5l49 305q17 101 87 159t178 58q52 0 92 -15.5t65.5 -44t36 -68.5t2.5 -89l-49 -305q-8 -50 -30.5 -90.5t-57 -69t-79.5 -43.5t-98 -15zM162 208q-9 -56 18.5 -88.5t83.5 -32.5q55 0 93 32.5t47 88.5l48 305
q9 56 -18.5 88.5t-83.5 32.5q-55 0 -93 -32.5t-46 -88.5z" />
    <glyph glyph-name="h" unicode="h" 
d="M29 0l114 720h110l-27 -170q-2 -14 -6 -30.5t-7.5 -31t-5.5 -24l-2 -9.5h9q18 50 61 77.5t103 27.5q41 0 72 -14.5t50.5 -40.5t27 -62.5t0.5 -80.5l-58 -362h-109l55 347q8 56 -16 87.5t-75 31.5q-52 0 -87.5 -33t-44.5 -90l-54 -343h-110z" />
    <glyph glyph-name="k" unicode="k" 
d="M35 0l116 730h110l-64 -403h96l185 223h126l-225 -272l141 -278h-126l-115 232h-97l-37 -232h-110z" />
    <glyph glyph-name="g" unicode="g" 
d="M210 42q-43 0 -75 15t-52.5 42.5t-27.5 66.5t0 87l15 95q8 48 27 87.5t48 67t66.5 42.5t80.5 15q61 0 97.5 -29t40.5 -81h7l16 100h104l-81 -517q-7 -47 -29 -84.5t-55 -64t-76.5 -40.5t-95.5 -14h-142l15 94h142q54 0 88.5 29t42.5 80l3 19l20 100h-6q-20 -52 -66 -81
t-107 -29zM166 255q-9 -55 18 -86.5t81 -31.5t91 31.5t45 86.5l14 92q8 55 -18 86.5t-80 31.5t-90.5 -31.5t-45.5 -86.5z" />
    <glyph glyph-name="greater" unicode="&#x3e;" 
d="M58 174l319 136q14 6 26.5 10t22.5 6q11 3 21 4l1 8q-9 1 -20 4q-19 3 -43 15l-279 140l18 100l407 -210l-19 -114l-473 -210z" />
    <glyph glyph-name="braceright" unicode="}" 
d="M11 -99l16 100h48q42 0 67 19t29 58l15 161q5 55 44 91t98 38l1 5q-59 2 -85.5 39.5t-15.5 92.5l36 160q8 38 -11 57.5t-60 19.5h-49l16 100h58q75 0 118 -34t43 -96q0 -17 -5 -42l-35 -158q-4 -16 -4 -33q0 -29 18 -43t62 -14h115l-15 -100h-115q-54 0 -77 -22t-28 -68
l-15 -160q-4 -40 -21.5 -72t-45 -54t-64.5 -33.5t-80 -11.5h-58z" />
    <glyph glyph-name="A" unicode="A" 
d="M19 0l309 720h150l75 -720h-112l-16 191h-213l-78 -191h-115zM248 279h170l-22 268q-3 39 -3 68v29h-4q-4 -14 -9 -29q-5 -14 -10.5 -31t-13.5 -36z" />
    <glyph glyph-name="B" unicode="B" 
d="M145 720h221q105 0 157 -50t38 -138q-11 -66 -54.5 -106.5t-106.5 -45.5l-2 -7q70 -3 103 -47.5t21 -120.5q-15 -97 -84 -151t-177 -54h-230zM154 95h112q60 0 97 30t46 84t-19 84.5t-88 30.5h-112zM205 416h110q53 0 87.5 28t42.5 76q8 49 -18 77.5t-78 28.5h-111z" />
    <glyph glyph-name="C" unicode="C" 
d="M254 -10q-52 0 -92 15t-65.5 43t-35.5 68t-2 89l49 310q8 50 30 90t56.5 67.5t79 42.5t97.5 15q98 0 151 -55.5t45 -149.5h-108q4 51 -24 79.5t-79 28.5q-56 0 -93.5 -32.5t-46.5 -88.5l-48 -304q-9 -57 18 -89t83 -32q53 0 89.5 29t48.5 79h108q-22 -96 -91.5 -150.5
t-169.5 -54.5z" />
    <glyph glyph-name="D" unicode="D" 
d="M31 0l114 720h212q53 0 94 -16t67 -45.5t36.5 -70.5t2.5 -92l-43 -271q-8 -51 -31.5 -92.5t-59 -71t-81.5 -45.5t-99 -16h-212zM155 100h103q58 0 98.5 34t49.5 91l43 271q8 56 -21.5 90t-86.5 34h-103z" />
    <glyph glyph-name="E" unicode="E" 
d="M155 720h434l-15 -96h-325l-33 -205h290l-15 -98h-290l-36 -224h325l-15 -97h-434z" />
    <glyph glyph-name="F" unicode="F" 
d="M152 721h442l-16 -100h-335l-33 -206h310l-16 -100h-308l-49 -315h-109z" />
    <glyph glyph-name="G" unicode="G" 
d="M52 208l49 304q8 50 30.5 89.5t56.5 68t79 43.5t98 15q97 0 150 -49t54 -140h-111q-1 42 -29.5 66.5t-78.5 24.5q-56 0 -93.5 -31.5t-46.5 -86.5l-48 -304q-9 -57 18.5 -89t83.5 -32t93.5 32t46.5 89l12 76h-135l15 96h245l-27 -172q-8 -50 -30.5 -90.5t-57 -69
t-80 -43.5t-98.5 -15q-52 0 -92 15.5t-65.5 44t-35.5 69t-3 89.5z" />
    <glyph glyph-name="I" unicode="I" 
d="M39 0l15 96h156l84 528h-156l15 96h422l-15 -96h-156l-84 -528h156l-15 -96h-422z" />
    <glyph glyph-name="J" unicode="J" 
d="M218 -10q-48 0 -86 14t-64.5 39.5t-40 62t-11.5 81.5h110q-1 -45 28.5 -73t79.5 -28q58 0 97.5 33.5t48.5 89.5l65 412h-267l16 99h377l-81 -511q-8 -51 -30.5 -91.5t-58 -69t-82 -43.5t-101.5 -15z" />
    <glyph glyph-name="K" unicode="K" 
d="M146 720h110l-48 -298h103l197 298h124l-232 -351l127 -369h-120l-107 324h-107l-51 -324h-110z" />
    <glyph glyph-name="L" unicode="L" 
d="M296 720l-98 -619h325l-16 -101h-435l114 720h110z" />
    <glyph glyph-name="M" unicode="M" 
d="M14 0l114 720h129l42 -235q3 -15 4 -32.5t2 -32.5q1 -18 1 -35h8q6 17 12 35q6 15 12.5 32.5t13.5 32.5l111 235h138l-114 -720h-99l76 484q5 27 11 54t12 50q6 26 13 50h-11q-9 -23 -20 -47q-8 -21 -19.5 -46.5t-22.5 -49.5l-83 -177h-85l-29 177q-5 27 -8 52.5t-5 45.5
q-3 24 -5 45h-9q-1 -24 -3 -50q-2 -23 -4 -50t-7 -54l-77 -484h-98z" />
    <glyph glyph-name="N" unicode="N" 
d="M140 720h137l104 -480q4 -17 6 -39t4 -42q2 -24 3 -49h10l0.5 13t1.5 34t3 47t6 52l73 464h100l-114 -720h-136l-102 481q-4 20 -6.5 43t-4.5 42q-2 23 -3 45h-10q0 -21 -1 -44q-2 -20 -4 -46t-7 -55l-74 -466h-100z" />
    <glyph glyph-name="P" unicode="P" 
d="M145 720h246q52 0 92 -15.5t66 -43.5t36 -68t2 -88q-8 -49 -30.5 -89t-56.5 -68t-79 -43t-98 -15h-136l-46 -290h-110zM202 385h136q53 0 91 33t46 87t-18.5 87t-80.5 33h-136z" />
    <glyph glyph-name="Q" unicode="Q" 
d="M248 -10q-52 0 -92 15.5t-65.5 44t-35.5 69t-3 89.5l49 305q17 101 87 159t178 58q52 0 92 -15.5t65.5 -44t36 -68.5t2.5 -89l-49 -305q-11 -68 -47 -117t-92 -75l91 -181h-115l-77 156q-6 -1 -12 -1h-13zM162 208q-9 -56 18.5 -88.5t83.5 -32.5q55 0 93 32.5t47 88.5
l48 305q9 56 -18.5 88.5t-83.5 32.5q-55 0 -93 -32.5t-46 -88.5z" />
    <glyph glyph-name="R" unicode="R" 
d="M146 720h233q52 0 92 -15.5t65.5 -43t36 -67t2.5 -87.5q-12 -75 -56.5 -127t-112.5 -73l99 -307h-119l-89 293h-109l-47 -293h-109zM202 385h124q54 0 91.5 33t45.5 87t-18.5 87t-80.5 33h-124z" />
    <glyph glyph-name="S" unicode="S" 
d="M42 188h113q-6 -45 24.5 -73t86.5 -28q60 0 97.5 26t44.5 72q6 41 -14.5 72t-63.5 46l-72 25q-81 26 -118.5 80t-26.5 126q14 93 81.5 144.5t174.5 51.5q49 0 87.5 -14t64 -39.5t36.5 -61t6 -79.5h-113q6 44 -21.5 71t-76.5 27q-53 0 -86.5 -25t-40.5 -69q-6 -38 13 -66
t63 -42l76 -25q81 -26 117.5 -82t23.5 -134q-7 -47 -29 -84t-57 -63t-81.5 -40t-102.5 -14q-52 0 -92.5 14.5t-67.5 40.5t-39.5 62.5t-6.5 80.5z" />
    <glyph glyph-name="T" unicode="T" 
d="M106 720h516l-15 -99h-203l-98 -621h-112l99 621h-203z" />
    <glyph glyph-name="U" unicode="U" 
d="M248 -10q-51 0 -90 15t-63.5 42.5t-34 67.5t-1.5 90l82 515h110l-82 -515q-9 -56 16 -87t79 -31t88.5 30.5t43.5 87.5l82 515h109l-81 -515q-16 -103 -83.5 -159t-174.5 -56z" />
    <glyph glyph-name="V" unicode="V" 
d="M98 720h111l45 -547q2 -19 2.5 -36t0.5 -31v-29h4q4 13 9 29q4 14 10 31t14 36l222 547h115l-308 -720h-151z" />
    <glyph glyph-name="W" unicode="W" 
d="M84 720h98l-37 -510q-2 -20 -5 -44.5t-6 -45.5q-3 -25 -7 -50h13l10 50q5 21 10.5 45.5t11.5 44.5l144 510h97l-20 -510q-1 -20 -2.5 -44t-3.5 -46q-2 -25 -5 -50h13l10 50q5 21 10 45.5t10 44.5l123 510h95l-186 -720h-137l23 511q2 26 4.5 50.5t5.5 44.5q3 24 7 45h-16
q-3 -21 -7 -45q-3 -20 -8 -44.5t-13 -50.5l-139 -511h-136z" />
    <glyph glyph-name="X" unicode="X" 
d="M247 369l-138 351h122l71 -191q5 -13 9 -24.5t6 -20.5q3 -10 5 -19h3q5 9 11 19q10 19 28 44l135 192h120l-248 -348l146 -372h-121l-80 212q-5 14 -8.5 25.5t-6.5 20.5q-3 10 -5 19h-4q-5 -9 -11 -19q-5 -9 -12 -20.5t-16 -24.5l-148 -213h-122z" />
    <glyph glyph-name="Y" unicode="Y" 
d="M200 720l87 -296q5 -16 7.5 -31t3.5 -27q2 -13 2 -25h5q3 12 9 25q5 12 11.5 27t15.5 31l179 296h119l-294 -470l-40 -250h-110l40 250l-146 470h111z" />
    <glyph glyph-name="Z" unicode="Z" 
d="M571 720l-16 -101l-384 -524l71 4h242l-16 -99h-436l16 100l383 523v2l-73 -4h-220l16 99h417z" />
    <glyph glyph-name="period" unicode="." 
d="M218 84q7 42 36 67.5t71 25.5t63 -25.5t14 -67.5t-36.5 -68t-71.5 -26t-63 26t-13 68z" />
    <glyph glyph-name="a" unicode="a" 
d="M50 207l22 138q8 49 27 88.5t47.5 67.5t64.5 43.5t78 15.5q59 0 89.5 -27.5t33.5 -77.5h9l16 95h103l-67 -422q-3 -19 6.5 -30t27.5 -11h37l-14 -91h-71q-48 0 -73.5 27.5t-20.5 71.5h-9q-19 -49 -59 -77t-98 -28q-72 0 -112.5 44.5t-40.5 122.5q0 12 1 24t3 26zM251 86
q47 0 79.5 28.5t44.5 79.5l25 167q3 49 -20 76.5t-69 27.5q-53 0 -87.5 -32.5t-43.5 -89.5l-21 -135q-9 -57 14.5 -89.5t77.5 -32.5z" />
    <glyph glyph-name="b" unicode="b" 
d="M30 0l114 720h110l-26 -163q-2 -14 -5.5 -32t-7.5 -34l-8 -36h8q19 50 63 77.5t104 27.5q42 0 74 -15.5t52 -44t27.5 -68t-0.5 -87.5l-22 -138q-17 -103 -76 -160t-145 -57q-60 0 -95 27.5t-39 77.5h-8l-15 -95h-105zM172 207q-9 -55 17 -88t78 -33q56 0 92 32.5t45 89.5
l21 135q9 57 -17.5 89.5t-80.5 32.5q-51 0 -87.5 -33t-45.5 -89z" />
    <glyph glyph-name="c" unicode="c" 
d="M256 -10q-51 0 -91 15.5t-65.5 43.5t-35.5 67.5t-3 88.5l22 140q16 101 86 158t177 57q45 0 82 -14t64 -39t41.5 -60t14.5 -77h-110q0 42 -29.5 68t-77.5 26q-57 0 -94 -31.5t-45 -87.5l-23 -140q-8 -55 19 -86.5t83 -31.5q51 0 87 24.5t50 68.5h110q-27 -91 -96 -140.5
t-166 -49.5z" />
    <glyph glyph-name="e" unicode="e" 
d="M248 -10q-52 0 -92 15t-65.5 43t-35.5 67t-2 88l23 144q8 49 30 88.5t56.5 67t79 42.5t97.5 15q52 0 91.5 -15t65 -43t36 -67.5t2.5 -87.5l-16 -101h-351l-6 -39q-9 -60 18 -93.5t84 -33.5q42 0 75 14t51 39h107q-14 -32 -38.5 -58.5t-56.5 -45t-71 -29t-82 -10.5z
M423 325l4 22q11 58 -17 90.5t-86 32.5q-57 0 -93 -32.5t-47 -90.5l-4 -22h243z" />
    <glyph glyph-name="f" unicode="f" 
d="M-14 -170l16 100h52q47 0 75.5 23.5t35.5 68.5l59 370h-155l15 100h156l12 78q11 69 62 109.5t128 40.5h161l-16 -98h-159q-27 0 -44 -13.5t-22 -39.5l-13 -77h218l-16 -100h-217l-59 -370q-14 -92 -76 -142t-162 -50h-51z" />
    <glyph glyph-name="j" unicode="j" 
d="M6 -170l17 102h136q54 0 91.5 32t45.5 84l64 401h-226l17 101h334l-79 -502q-7 -48 -30 -88.5t-57 -69t-78 -44.5t-94 -16h-141zM424 638q-31 0 -47 16.5t-11 45.5t26.5 47t52.5 18h23q31 0 47 -17.5t11 -46.5t-26 -46t-53 -17h-23z" />
    <glyph glyph-name="m" unicode="m" 
d="M5 0l87 550h91l-13 -81h8q10 43 37 67t68 24q38 0 56 -23t21 -68h7q10 43 38 67t68 24q51 0 75.5 -37.5t13.5 -103.5l-66 -419h-100l65 414q5 32 -5.5 49t-35.5 17q-53 0 -64 -70l-65 -410h-81l65 414q5 32 -6.5 49t-36.5 17q-52 0 -63 -70l-65 -410h-99z" />
    <glyph glyph-name="r" unicode="r" 
d="M52 0l87 550h103l-15 -95h8q19 50 64 77.5t106 27.5q88 0 128 -55.5t26 -150.5l-6 -39h-112l5 28q11 58 -16 91t-81 33q-52 0 -87.5 -32.5t-45.5 -87.5l-55 -347h-109z" />
    <glyph glyph-name="s" unicode="s" 
d="M42 138h108q2 -27 27.5 -43t66.5 -16h35q50 0 80 20t36 55q11 62 -75 74l-79 11q-169 21 -146 161q12 76 71.5 118t156.5 42h36q85 0 133 -38t47 -105h-109q-2 25 -24.5 39.5t-60.5 14.5h-36q-46 0 -74.5 -17.5t-33.5 -52.5q-9 -58 68 -68l80 -11q177 -24 154 -165
q-13 -81 -74.5 -124t-163.5 -43h-35q-89 0 -139.5 39.5t-48.5 108.5z" />
    <glyph glyph-name="t" unicode="t" 
d="M89 550h155l27 170h110l-27 -170h211l-15 -99h-212l-46 -293q-5 -27 9 -42.5t43 -15.5h140l-16 -100h-145q-77 0 -114.5 43t-26.5 115l46 293h-155z" />
    <glyph glyph-name="v" unicode="v" 
d="M78 550h107l68 -370q4 -20 5 -38.5t2 -32.5v-29h8q2 13 6 29q3 14 9 32.5t17 38.5l179 370h116l-279 -550h-128z" />
    <glyph glyph-name="w" unicode="w" 
d="M61 550h88l-11 -357q0 -17 -1.5 -40t-3.5 -44q-2 -25 -5 -50h12q6 25 13 50q5 21 12 44t12 40l114 357h89v-357q0 -18 -0.5 -41t-1.5 -44q-2 -24 -3 -49h12q6 25 12 49q5 21 11 44.5t11 40.5l102 357h91l-164 -550h-134l2 370q0 16 2 36t4 37q2 20 5 41h-12
q-3 -21 -7 -41q-3 -17 -7.5 -37t-9.5 -36l-114 -370h-130z" />
    <glyph glyph-name="x" unicode="x" 
d="M-10 0l242 285l-143 265h119l79 -156q4 -7 6 -13.5t4 -11.5q2 -6 3 -11h6q3 5 7 11q6 10 19 25l126 156h128l-227 -268l152 -282h-119l-87 169q-7 15 -12 27l-4 12h-6q-3 -6 -7 -13q-4 -5 -8.5 -11.5t-9.5 -13.5l-140 -170h-128z" />
    <glyph glyph-name="y" unicode="y" 
d="M69 241l49 309h108l-46 -290q-9 -56 15.5 -88t75.5 -32t86 31.5t44 85.5l47 293h108l-87 -535q-14 -87 -74 -136t-154 -49h-158l15 95h152q46 0 75 23.5t36 66.5l7 43l20 92h-8q-19 -50 -61 -76.5t-101 -26.5q-82 0 -122.5 52.5t-26.5 141.5z" />
    <glyph glyph-name="z" unicode="z" 
d="M25 0l18 114l363 339l1 6q-11 -1 -24 -2q-22 -3 -57 -3h-221l15 96h431l-18 -115l-366 -339l-1 -6q12 2 26 3q11 2 26 2.5t30 0.5h242l-15 -96h-450z" />
    <glyph glyph-name="comma" unicode="," 
d="M410 151l-179 -311h-97l129 311h147z" />
    <glyph glyph-name="zero" unicode="0" 
d="M52 208l49 304q16 103 85.5 160.5t179.5 57.5q52 0 92 -16t65.5 -44.5t36 -68.5t2.5 -89l-48 -304q-16 -103 -86.5 -160.5t-179.5 -57.5q-52 0 -92 16t-65.5 44.5t-35.5 68.5t-3 89zM264 87q57 0 95 32.5t46 88.5l49 304q8 55 -20 88.5t-84 33.5t-94 -32.5t-47 -89.5
l-48 -304q-8 -54 20 -87.5t83 -33.5zM246 278l24 154q4 24 19.5 38.5t37.5 14.5t33 -14.5t7 -38.5l-25 -154q-4 -24 -19 -38.5t-37 -14.5t-33 14.5t-7 38.5z" />
    <glyph glyph-name="one" unicode="1" 
d="M33 0l16 97h193l73 462q4 26 9 46.5t5 21.5h-3q-7 -6 -14 -11t-15 -11t-17 -11l-156 -94l17 108l178 112h131l-98 -623h158l-15 -97h-462z" />
    <glyph glyph-name="two" unicode="2" 
d="M32 118l241 176q42 30 72 58t51 55t33 55t16 58q8 51 -19.5 82t-78.5 31q-58 0 -97 -29.5t-47 -80.5h-112q9 48 32 86t58.5 65t82 41.5t100.5 14.5q49 0 88 -15.5t64.5 -43t36 -65t3.5 -82.5q-6 -41 -21.5 -77.5t-42 -72.5t-65 -72.5t-92.5 -76.5l-125 -94
q-9 -6 -19.5 -11.5t-18.5 -9.5q-10 -5 -20 -9l-1 -4q15 1 31 2q13 0 29 0.5t31 0.5h256l-16 -100h-469z" />
    <glyph glyph-name="three" unicode="3" 
d="M244 -10q-49 0 -88 13.5t-66 39t-40 61.5t-10 81h110q-1 -45 29 -72.5t80 -27.5q59 0 99 35t50 93t-21 93.5t-91 35.5h-85l17 109l155 131q12 11 24 19t22 14q11 7 22 12l1 3q-10 -1 -22 -2q-19 -3 -48 -3h-246l15 95h415l-18 -111l-186 -146q-8 -6 -15.5 -11t-12.5 -9
t-10 -7q52 -1 92 -17.5t65 -46t35 -69.5t2 -90q-8 -51 -31.5 -92t-59.5 -70.5t-82.5 -45t-100.5 -15.5z" />
    <glyph glyph-name="four" unicode="4" 
d="M174 279l-5 -34h221l27 170h109l-66 -415h-109l23 148h-326l26 164l347 408h124z" />
    <glyph glyph-name="five" unicode="5" 
d="M155 158q5 -33 33 -53t76 -20q57 0 96 32.5t47 87.5l7 45q8 55 -20 87.5t-85 32.5q-74 0 -113 -47h-110l68 397h416l-15 -98h-311l-41 -236h5q12 21 33 38q18 14 47 25.5t72 11.5q93 0 137 -57t29 -154l-7 -45q-7 -49 -30.5 -89t-58.5 -68t-81.5 -43t-100.5 -15
q-96 0 -151 45.5t-55 122.5h113z" />
    <glyph glyph-name="six" unicode="6" 
d="M45 219q11 66 49.5 134t103.5 151l168 216h128l-194 -240q-29 -35 -46 -56t-26 -32q-11 -13 -16 -17h12q13 18 33 32q17 12 41.5 22t59.5 10q44 0 78.5 -16t57 -44.5t31 -69t0.5 -90.5q-8 -51 -32.5 -93t-61 -72.5t-83 -47t-99.5 -16.5q-54 0 -95.5 16.5t-68.5 46.5
t-37.5 72.5t-2.5 93.5zM264 85q58 0 100 36.5t51 96.5q9 61 -21 97.5t-88 36.5q-28 0 -53.5 -9.5t-45.5 -27.5t-33.5 -42.5t-18.5 -54.5q-10 -60 20 -96.5t89 -36.5z" />
    <glyph glyph-name="seven" unicode="7" 
d="M132 720h465l-18 -118l-350 -602h-123l326 554q19 31 32 46q7 9 13 16l1 5q-15 -1 -30 -1q-12 0 -25.5 -0.5t-23.5 -0.5h-178l-17 -107h-105z" />
    <glyph glyph-name="eight" unicode="8" 
d="M248 -10q-55 0 -96.5 15t-68.5 42.5t-37.5 66t-3.5 84.5q6 35 21.5 64.5t38.5 52.5t53 38t65 21v5q-30 4 -52.5 18t-36.5 35.5t-19.5 48.5t-0.5 58q7 43 28.5 78.5t55 60.5t77 38.5t94.5 13.5t90.5 -13.5t65 -38.5t36 -60.5t2.5 -78.5q-5 -31 -19 -58t-35 -48.5
t-48 -35.5t-58 -18l-1 -5q67 -11 100.5 -58t22.5 -116q-7 -47 -30 -85.5t-59 -66.5t-83 -43t-102 -15zM155 208q-9 -56 20.5 -92t87.5 -36q29 0 54 9.5t44.5 26.5t32.5 40.5t17 51.5q10 57 -20 92t-88 35t-98.5 -35t-49.5 -92zM218 534q-8 -51 18.5 -85t79.5 -34
q26 0 48.5 9t40.5 25t30 38t16 47q8 49 -18.5 79.5t-80.5 30.5t-90 -30.5t-44 -79.5z" />
    <glyph glyph-name="nine" unicode="9" 
d="M90 501q8 51 32 93t60.5 72.5t83 47t99.5 16.5q54 0 96 -16.5t69 -46.5t37.5 -72.5t2.5 -93.5q-11 -66 -49.5 -134t-104.5 -151l-168 -216h-128l194 240q29 35 46 56t27 32q11 13 15 17h-12q-13 -18 -32 -32q-17 -12 -42 -22t-60 -10q-44 0 -78.5 16t-56.5 44.5
t-30.5 69.5t-0.5 90zM308 368q29 0 54.5 9.5t45.5 27.5t34 42.5t18 54.5q9 60 -21 96.5t-89 36.5q-28 0 -53.5 -9.5t-46 -27t-33.5 -42t-18 -54.5q-9 -61 21 -97.5t88 -36.5z" />
    <glyph glyph-name="hyphen" unicode="-" 
d="M108 380h400l-15 -96h-400z" />
    <glyph glyph-name="plus" unicode="+" 
d="M61 283l15 94h181l31 193h103l-30 -193h181l-14 -94h-182l-31 -193h-103l31 193h-182z" />
    <glyph glyph-name="asterisk" unicode="*" 
d="M42 380l50 96l72 -27q16 -6 33 -16t32.5 -21t30 -22.5t24.5 -20.5l5 3q-2 14 -4.5 33.5t-4 40.5t-1 42t3.5 40l13 82h102l-13 -82q-3 -19 -9.5 -40t-14.5 -42t-16.5 -40t-15.5 -34l3 -3q14 9 31 20.5t36.5 23t39 21.5t37.5 16l80 28l19 -101l-79 -27q-18 -6 -38 -10
t-40.5 -6.5t-40 -4t-34.5 -1.5l-3 -6q11 -9 23.5 -21t25.5 -26.5t24.5 -29.5t19.5 -30l37 -67l-90 -57l-37 67q-8 15 -14.5 33.5t-12 38t-9 38t-6.5 32.5h-7q-6 -14 -15 -32.5t-20 -38t-23 -38.5t-25 -34l-58 -68l-76 59l57 67q13 15 29.5 30t34 29.5t35 27t30.5 21.5l-2 5
q-15 1 -34 2.5t-39 4.5t-39 7.5t-35 10.5z" />
    <glyph glyph-name="slash" unicode="/" 
d="M489 830h116l-498 -940h-117z" />
    <glyph glyph-name="backslash" unicode="\" 
d="M453 -110h-111l-202 940h110z" />
    <glyph glyph-name="colon" unicode=":" 
d="M240 472q7 39 34.5 63.5t67.5 24.5t60.5 -24.5t13.5 -63.5q-7 -38 -35 -61.5t-67 -23.5q-40 0 -60 23.5t-14 61.5zM175 76q6 38 34 62.5t68 24.5q39 0 59 -24.5t14 -62.5q-6 -39 -34.5 -62.5t-67.5 -23.5t-59.5 24t-13.5 62z" />
    <glyph glyph-name="semicolon" unicode=";" 
d="M107 -160l130 311h146l-179 -311h-97zM265 471q6 40 34.5 64.5t69.5 24.5t61 -24.5t14 -64.5t-34.5 -64t-68.5 -24q-41 0 -61.5 24.5t-14.5 63.5z" />
    <glyph glyph-name="less" unicode="&#x3c;" 
d="M72 273l18 114l474 210l-18 -112l-320 -135q-14 -6 -26.5 -9.5t-22.5 -5.5q-11 -2 -21 -3l-1 -8q9 -2 20 -4q9 -2 20.5 -6t22.5 -10l277 -137l-16 -104z" />
    <glyph glyph-name="equal" unicode="=" 
d="M71 258h440l-16 -99h-440zM109 502h440l-15 -100h-440z" />
    <glyph glyph-name="exclam" unicode="!" 
d="M279 560l26 160h119l-26 -160l-75 -335h-75zM178 57q5 29 26.5 47t52.5 18h23q31 0 47 -17.5t11 -46.5t-26.5 -46t-52.5 -17h-23q-31 0 -47 16.5t-11 45.5z" />
    <glyph glyph-name="question" unicode="?" 
d="M176 617l16 103h135q54 0 94.5 -15.5t67 -44t37 -68.5t2.5 -90q-14 -88 -73 -139.5t-152 -54.5l-15 -96h-102l29 191h67q57 0 94 28t45 79t-20.5 79t-86.5 28h-138zM141 58q5 29 27 46.5t53 17.5h24q31 0 46 -17.5t10 -46.5t-27 -46t-53 -17h-23q-31 0 -46.5 17t-10.5 46
z" />
    <glyph glyph-name="quotesingle" unicode="'" 
d="M317 730h114l-24 -153l-35 -147h-90l11 147z" />
    <glyph glyph-name="quotedbl" unicode="&#x22;" 
d="M171 430l11 147l24 153h114l-24 -153l-36 -147h-89zM383 430l12 147l24 153h114l-25 -153l-35 -147h-90z" />
    <glyph glyph-name="numbersign" unicode="#" 
d="M15 267h97l63 186h-96l12 77h110l65 190h84l-65 -190h145l65 190h84l-65 -190h83l-12 -77h-97l-63 -186h95l-12 -77h-109l-65 -190h-84l65 190h-145l-65 -190h-84l65 190h-83zM341 267l63 186h-145l-63 -186h145z" />
    <glyph glyph-name="percent" unicode="%" 
d="M62 528l10 64q10 62 51 97.5t105 35.5t94 -35.5t20 -97.5l-10 -64q-10 -62 -51 -97.5t-105 -35.5t-94 35.5t-20 97.5zM261 128l10 64q10 62 51 97.5t105 35.5t94 -35.5t20 -97.5l-10 -64q-10 -62 -51 -97.5t-105 -35.5t-94 35.5t-20 97.5zM9 151l12 76l575 341l-12 -77z
M186 459q33 0 50.5 20t22.5 49l10 64q5 32 -8 50.5t-43 18.5t-49 -18.5t-24 -50.5l-10 -64q-5 -32 8 -50.5t43 -18.5zM385 59q32 0 50 20t23 49l10 64q5 32 -8 50.5t-43 18.5t-49 -18.5t-24 -50.5l-10 -64q-5 -32 8 -50.5t43 -18.5z" />
    <glyph glyph-name="braceleft" unicode="{" 
d="M71 310l16 100h115q54 0 77 21.5t28 68.5l15 159q8 81 65.5 126t144.5 45h58l-16 -100h-48q-42 0 -66.5 -19t-28.5 -58l-16 -160q-5 -56 -43.5 -91.5t-98.5 -37.5l-1 -5q30 -1 51.5 -11.5t34.5 -28.5t17 -41.5t-2 -51.5l-35 -159q-8 -38 11 -58t60 -20h48l-16 -99h-58
q-75 0 -118 34t-43 96q0 17 5 42l35 158q2 9 3 17.5t1 15.5q0 29 -18.5 43t-61.5 14h-115z" />
    <glyph glyph-name="bar" unicode="|" 
d="M326 830h110l-149 -940h-110z" />
    <glyph glyph-name="bracketleft" unicode="[" 
d="M275 830h265l-18 -100h-155l-113 -740h155l-18 -100h-265z" />
    <glyph glyph-name="underscore" unicode="_" 
d="M13 -26h487l-16 -97h-486z" />
    <glyph glyph-name="parenright" unicode=")" 
d="M62 -13q100 24 163.5 95.5t81.5 182.5l31 190q3 17 4 32.5t1 31.5q0 85 -40.5 143t-117.5 77l18 106q121 -32 186 -115.5t65 -201.5q0 -35 -6 -73l-31 -190q-25 -155 -118.5 -253t-254.5 -137z" />
    <glyph glyph-name="d" unicode="d" 
d="M52 207l22 138q8 50 27.5 89.5t48.5 67.5t66 43t79 15q61 0 96 -27.5t38 -77.5h9q1 17 3 34q2 15 3.5 31.5t3.5 29.5l27 170h109l-114 -720h-104l15 95h-9q-19 -50 -63 -77.5t-104 -27.5q-73 0 -115 44.5t-42 122.5q0 12 1 24.5t3 25.5zM260 86q52 0 88 33t45 88l22 136
q9 56 -17 89t-78 33q-55 0 -91 -32.5t-45 -89.5l-22 -135q-9 -56 17 -89t81 -33z" />
    <glyph glyph-name="q" unicode="q" 
d="M205 -10q-42 0 -74 15t-52.5 42.5t-27.5 66t0 86.5l24 152q8 47 27.5 85.5t48.5 65.5t66 42t79 15q60 0 95 -27.5t38 -77.5h9l15 95h104l-114 -720h-109l27 170q2 14 5 30t6.5 30l6 24t2.5 11h-9q-19 -50 -63 -77.5t-104 -27.5zM162 208q-9 -56 17 -89t81 -33q52 0 88 33
t45 88l22 136q9 56 -17 89t-78 33q-55 0 -91 -32.5t-45 -89.5z" />
    <glyph glyph-name="u" unicode="u" 
d="M65 201l55 349h110l-57 -349q-19 -115 90 -115t127 115l56 349h108l-55 -349q-16 -101 -81 -156t-170 -55q-102 0 -150.5 56t-32.5 155z" />
    <glyph glyph-name="emdash" unicode="&#x2014;" 
d="M21 380h574l-16 -97h-573z" />
    <glyph glyph-name="asciicircum" unicode="^" 
d="M313 720h104l111 -390h-97l-62 247q-3 13 -5 25t-4 22q-2 12 -3 22h-8q-1 -10 -4 -22q-2 -10 -6.5 -22t-12.5 -25l-144 -247h-107z" />
    <glyph glyph-name="divide" unicode="&#xf7;" 
d="M93 284l15 96h400l-15 -96h-400zM186 142q5 29 26 47t52 18h24q31 0 47 -17.5t11 -46.5t-26 -46t-53 -17h-23q-31 0 -47 16.5t-11 45.5zM247 520q5 28 26 45.5t52 17.5h23q31 0 47 -17.5t11 -46.5t-26 -45.5t-52 -16.5h-23q-31 0 -47 17t-11 46z" />
    <glyph glyph-name="multiply" unicode="&#xd7;" 
d="M528 462l-158 -137l113 -134l-74 -65l-113 135l-156 -135l-61 73l155 134l-113 135l74 64l114 -134l158 137z" />
    <glyph glyph-name="plusminus" unicode="&#xb1;" 
d="M75 316l15 93h182l30 193h104l-31 -193h182l-15 -93h-182l-30 -194h-104l31 194h-182zM33 0l14 84h463l-13 -84h-464z" />
    <glyph glyph-name="minus" unicode="&#x2212;" 
d="M108 380h400l-15 -96h-400z" />
    <glyph glyph-name="at" unicode="@" 
d="M9 125l52 315q11 68 39 121.5t70 91t96.5 57.5t118.5 20q105 0 162 -44.5t57 -129.5q0 -11 -1 -22.5t-3 -23.5l-71 -435h-84l15 98q-20 -53 -54.5 -80.5t-81.5 -27.5q-106 0 -106 119q0 13 1.5 27t3.5 29l13 80q14 86 54.5 130.5t104.5 44.5q87 0 99 -94q1 12 3 36.5
t7 52.5l3 20q11 69 -24.5 104t-110.5 35q-88 0 -144.5 -54.5t-73.5 -154.5l-52 -315q-2 -12 -3 -23.5t-1 -22.5q0 -74 43 -116t121 -42h70l-14 -86h-70q-117 0 -180.5 60.5t-63.5 167.5q0 15 1 30t4 32zM365 135q81 0 99 112l11 67q18 111 -63 111q-32 0 -53.5 -27
t-29.5 -78l-13 -80q-8 -51 4.5 -78t44.5 -27z" />
    <glyph glyph-name="ampersand" unicode="&#x26;" 
d="M25 168l17 105q8 57 41 94.5t85 52.5q-22 41 -28.5 72.5t-1.5 64.5q6 38 24 68.5t46 52t64 33.5t79 12q91 0 135.5 -46.5t31.5 -127.5h-105q6 38 -14.5 60t-61.5 22q-38 0 -64 -22t-32 -57q-4 -22 2 -43.5t22 -49.5l118 -212l78 113h113l-142 -201l89 -159h-114l-41 71
q-75 -81 -184 -81q-88 0 -129.5 47t-27.5 131zM203 83q32 0 61.5 19.5t54.5 52.5l-114 200q-23 -9 -37.5 -30t-19.5 -52l-16 -105q-6 -41 12.5 -63t58.5 -22z" />
    <glyph glyph-name="bracketright" unicode="]" 
d="M337 -110h-265l18 100h155l113 740h-155l18 100h265z" />
    <glyph glyph-name="dollar" unicode="$" 
d="M42 188h109q-6 -40 16.5 -67.5t65.5 -35.5l39 242l-17 6q-81 29 -117.5 78.5t-24.5 124.5q14 85 71.5 135t151.5 58l19 121h61l-19 -121q42 -4 75 -20t55 -41t31.5 -58.5t4.5 -73.5h-109q5 38 -14.5 64.5t-57.5 35.5l-35 -222l34 -12q80 -26 115 -79.5t22 -131.5
q-14 -88 -75.5 -140t-161.5 -60l-21 -131h-62l21 131q-45 4 -80.5 20t-58.5 42t-33 60.5t-5 74.5zM330 308l-35 -224q50 5 80.5 31t37.5 71q7 43 -12.5 74t-64.5 46zM289 434l32 203q-42 -7 -69 -32t-33 -64q-12 -75 70 -107z" />
    <glyph glyph-name="uni000A" unicode="&#xa;" 
 />
    <glyph glyph-name="endash" unicode="&#x2013;" 
d="M73 380h470l-15 -96h-470z" />
    <glyph glyph-name="periodcentered" unicode="&#xb7;" 
d="M218 351q7 42 36 67.5t71 25.5t63 -25.5t14 -67.5t-36.5 -68t-71.5 -26t-63 26t-13 68z" />
    <glyph glyph-name="hyphen_hyphen_greater.liga" 
d="M-1098 380h1484q-2 4 -5 8.5t-6 9.5l-140 227h120l179 -295l-273 -295h-130l214 229q4 5 8 8.5t8 7.5h-1475z" />
    <glyph glyph-name="slash_slash.liga" 
d="M429 830h116l-498 -940h-117zM-51 830h116l-498 -940h-117z" />
    <glyph glyph-name="slash_asterisk.liga" 
d="M-111 830h116l-498 -940h-117zM-8 510l50 96l72 -27q16 -6 33 -16t32.5 -21t30 -22.5t24.5 -20.5l5 3q-2 14 -4.5 33.5t-4 40.5t-1 42t3.5 40l13 82h102l-13 -82q-3 -19 -9.5 -40t-14.5 -42t-16.5 -40t-15.5 -34l3 -3q14 9 31 20.5t36.5 23t39 21.5t37.5 16l80 28
l19 -101l-79 -27q-18 -6 -38 -10t-40.5 -6.5t-40 -4t-34.5 -1.5l-3 -6q11 -9 23.5 -21t25.5 -26.5t24.5 -29.5t19.5 -30l37 -67l-90 -57l-37 67q-8 15 -14.5 33.5t-12 38t-9 38t-6.5 32.5h-7q-6 -14 -15 -32.5t-20 -38t-23 -38.5t-25 -34l-58 -68l-76 59l57 67
q13 15 29.5 30t34 29.5t35 27t30.5 21.5l-2 5q-15 1 -34 2.5t-39 4.5t-39 7.5t-35 10.5z" />
    <glyph glyph-name="asterisk_slash.liga" 
d="M-508 300l50 96l72 -27q16 -6 33 -16t32.5 -21t30 -22.5t24.5 -20.5l5 3q-2 14 -4.5 33.5t-4 40.5t-1 42t3.5 40l13 82h102l-13 -82q-3 -19 -9.5 -40t-14.5 -42t-16.5 -40t-15.5 -34l3 -3q14 9 31 20.5t36.5 23t39 21.5t37.5 16l80 28l19 -101l-79 -27q-18 -6 -38 -10
t-40.5 -6.5t-40 -4t-34.5 -1.5l-3 -6q11 -9 23.5 -21t25.5 -26.5t24.5 -29.5t19.5 -30l37 -67l-90 -57l-37 67q-8 15 -14.5 33.5t-12 38t-9 38t-6.5 32.5h-7q-6 -14 -15 -32.5t-20 -38t-23 -38.5t-25 -34l-58 -68l-76 59l57 67q13 15 29.5 30t34 29.5t35 27t30.5 21.5l-2 5
q-15 1 -34 2.5t-39 4.5t-39 7.5t-35 10.5zM489 830h116l-498 -940h-117z" />
    <glyph glyph-name="less_exclam_hyphen_hyphen.liga" 
d="M-866 380h1375l-16 -100h-1375zM-1469 625h130l-212 -228q-5 -5 -8.5 -9t-8.5 -8h352l-16 -100h-362q2 -4 4.5 -7.5t5.5 -8.5l143 -229h-120l-181 295zM-1076 560l25 160h120l-26 -160l-75 -335h-75zM-1178 58q5 29 27 46.5t52 17.5h24q31 0 47 -17.5t11 -46.5t-26.5 -46
t-53.5 -17h-23q-31 0 -47 17t-11 46z" />
    <glyph glyph-name="colon_equal.liga" 
d="M-56 502h557l-16 -100h-557zM-95 258h557l-16 -99h-557zM-458 186q7 40 34.5 64t67.5 24q41 0 61.5 -24t13.5 -64t-34.5 -64t-67.5 -24t-60.5 24t-14.5 64zM-412 478q7 40 35 64t68 24t60.5 -24t13.5 -64t-34.5 -64t-67.5 -24t-60.5 24t-14.5 64z" />
    <glyph glyph-name="hyphen_greater_greater.liga" 
d="M-1114 280l16 100h1167q-2 4 -5 8.5t-6 9.5l-140 227h120l180 -295l-273 -295h-131l214 229q4 5 8 8.5t8 7.5h-1158zM131 35l214 229q16 17 29.5 29t23.5 20q12 10 22 16l1 3q-5 6 -12 15q-5 8 -14 20.5t-20 30.5l-140 227h120l179 -295l-273 -295h-130z" />
    <glyph glyph-name="less_less_hyphen.liga" 
d="M-826 330l273 295h131l-212 -228q-5 -5 -8.5 -9t-8.5 -8h1161l-15 -96h-1175l6 -10t7 -10l142 -229h-119zM-869 625h130l-212 -228q-16 -17 -30 -29.5t-25 -20.5q-13 -10 -24 -17v-3q6 -6 13 -15q12 -15 33 -48l143 -229h-120l-181 295zM-736 284h56q-8 11 -14 19.5
t-11 13.5q-5 6 -9 10l1 3q8 5 18 12q8 7 19.5 16t24.5 22h-69z" />
    <glyph glyph-name="hyphen_greater.liga" 
d="M-498 380h884q-2 4 -5 8.5t-6 9.5l-140 227h120l179 -295l-273 -295h-130l214 229q4 5 8 8.5t8 7.5h-875z" />
    <glyph glyph-name="less_hyphen.liga" 
d="M-361 35l-181 295l273 295h130l-212 -228q-5 -5 -8.5 -9t-8.5 -8h870l-16 -100h-880q2 -4 4.5 -7.5t5.5 -8.5l143 -229h-120zM-448 280h54q-8 13 -14.5 21.5t-11.5 14.5q-6 7 -10 11v3q8 5 18 12q8 7 19.5 16t24.5 22h-65z" />
    <glyph glyph-name="less_equal_greater.liga" 
d="M-1142 330l273 295h130l-116 -125h1167l-77 125h120l179 -295l-273 -295h-130l117 125h-1167l78 -125h-120zM-980 258h-22l-15 -98h98l-61 98h1319l6 6q17 17 30.5 29t23.5 20q12 9 21 16l1 3q-6 5 -14 14q-6 8 -14 20.5t-18 31.5l-2 4h-1319l91 98h-108l-16 -98h33
l-5 -5q-17 -17 -31 -29.5t-25 -20.5q-13 -10 -23 -17v-3q5 -6 12 -15q6 -8 14.5 -19.5t19.5 -28.5z" />
    <glyph glyph-name="equal_equal.liga" 
d="M-506 402l15 100h1040l-15 -100h-1040zM-529 258h1040l-16 -100h-1040z" />
    <glyph glyph-name="exclam_equal.liga" 
d="M-81 158l-127 -158h-115l127 158h-349l16 100h413l116 144h-506l15 100h571l131 163h114l-131 -163h355l-15 -100h-420l-115 -144h512l-16 -100h-576z" />
    <glyph glyph-name="less_equal.liga" 
d="M-297 367l18 116l645 217l-17 -109l-493 -152q-26 -7 -48 -9q-11 -1 -21 -1l-1 -8h20q10 -1 21.5 -2.5t23.5 -6.5l444 -158l-16 -104zM-333 142l16 101l576 -218l-16 -101z" />
    <glyph glyph-name="greater_equal.liga" 
d="M-304 261l493 156q14 5 25.5 6t21.5 1q11 0 20 -1l2 8q-10 0 -20 2t-21.5 4t-23.5 6l-444 153l17 104l575 -217l-18 -116l-644 -217zM-341 27l645 217l-17 -103l-644 -217z" />
    <glyph glyph-name="equal_colon_equal.liga" 
d="M-22 402l16 100h553l-16 -100h-553zM-1109 402l16 100h553l-16 -100h-553zM-1148 159l16 99h554l-16 -99h-554zM-61 159l16 99h553l-15 -99h-554zM-412 186q7 40 34.5 64t67.5 24q41 0 61.5 -24t13.5 -64t-34.5 -64t-67.5 -24t-60.5 24t-14.5 64zM-366 478q7 40 35 64
t68 24t60 -24t14 -64t-34 -64t-68 -24t-60.5 24t-14.5 64z" />
    <glyph glyph-name="exclam_equal_equal.liga" 
d="M-432 105l-105 -130h-97l105 130h-624l12 80h676l86 106h-745l13 80h796l84 104h-864l13 80h915l109 135h96l-109 -135h629l-13 -80h-680l-84 -104h748l-13 -80h-799l-85 -106h867l-12 -80h-919z" />
    <glyph glyph-name="dotlessi" unicode="&#x131;" 
d="M54 100h199l55 351h-173l16 99h279l-71 -450h162l-16 -100h-467z" />
    <glyph glyph-name="ampersand_ampersand.liga" 
d="M-12 168l17 105q9 57 42 94.5t85 52.5q-22 41 -29 72.5t-2 65.5q6 37 24 67.5t46 52t64.5 33.5t79.5 12q90 0 134.5 -46.5t31.5 -127.5h-105q6 38 -14 60t-62 22q-38 0 -64 -22t-32 -57q-4 -22 2 -43.5t22 -49.5l118 -212l78 113h113l-141 -202l88 -158h-114l-40 71
q-77 -81 -184 -81q-88 0 -130 47t-28 131zM-531 168l16 105q8 57 41.5 94.5t85.5 52.5q-22 41 -29 72.5t-2 65.5q6 37 24 67.5t46 52t64.5 33.5t79.5 12q90 0 134.5 -46.5t31.5 -127.5h-105q6 38 -14 60t-62 22q-38 0 -64 -22t-32 -57q-4 -22 2 -43.5t22 -49.5l256 -459
h-114l-40 71q-77 -81 -184 -81q-88 0 -129 47t-28 131zM167 83q32 0 61 19t54 53l-113 200q-46 -18 -57 -82l-17 -105q-7 -41 12.5 -63t59.5 -22zM-353 83q31 0 60 18.5t55 53.5l-113 200q-46 -18 -57 -82l-17 -105q-7 -41 12.5 -63t59.5 -22z" />
    <glyph glyph-name="bar_bar.liga" 
d="M266 830h110l-149 -940h-110zM-214 830h110l-149 -940h-110z" />
    <glyph glyph-name="period_period_period.liga" 
d="M-885 84q7 42 36 67.5t71 25.5t63 -25.5t14 -67.5t-36.5 -68t-71.5 -26t-63 26t-13 68zM-382 84q7 42 36 67.5t71 25.5t63 -25.5t14 -67.5t-36.5 -68t-71.5 -26t-63 26t-13 68zM121 84q7 42 36 67.5t71 25.5t63 -25.5t14 -67.5t-36.5 -68t-71.5 -26t-63 26t-13 68z" />
    <glyph glyph-name="period_period.liga" 
d="M-295 84q7 42 36 67.5t71 25.5t63 -25.5t14 -67.5t-36.5 -68t-71.5 -26t-63 26t-13 68zM138 84q7 42 36 67.5t71 25.5t63 -25.5t14 -67.5t-36.5 -68t-71.5 -26t-63 26t-13 68z" />
    <glyph glyph-name="Euro" unicode="&#x20ac;" 
d="M10 242l11 71h65l15 94h-65l12 71h64l6 37q8 50 30.5 90t56.5 67.5t78.5 42.5t97.5 15q98 0 151 -55.5t45 -149.5h-108q4 51 -24 79.5t-79 28.5q-56 0 -94 -32.5t-46 -88.5l-5 -34h155l-12 -71h-155l-14 -94h155l-12 -71h-155l-5 -34q-8 -57 18.5 -89t82.5 -32
q53 0 89.5 29t48.5 79h108q-22 -96 -91.5 -150.5t-169.5 -54.5q-52 0 -92 15t-65.5 43t-35.5 68t-2 89l6 37h-65z" />
    <glyph glyph-name="bullet" unicode="&#x2022;" 
d="M176 355q5 28 18.5 51.5t33.5 41t45.5 27t53.5 9.5q56 0 86.5 -36.5t22.5 -92.5q-4 -27 -17.5 -50.5t-33.5 -41t-45.5 -27t-53.5 -9.5q-57 0 -87.5 36.5t-22.5 91.5z" />
    <glyph glyph-name="brokenbar" unicode="&#xa6;" 
d="M327 830h109l-60 -380h-110zM238 270h110l-60 -380h-110z" />
    <glyph glyph-name="guillemotright" unicode="&#xbb;" 
d="M180 244q17 17 32 27q7 5 13 8v2q-3 3 -7 8q-9 9 -20 27l-133 204h120l151 -240l-225 -240h-127zM422 244q9 10 17 16t13 11q7 5 12 8v2q-3 3 -7 8q-9 9 -20 27l-133 204h119l151 -240l-221 -240h-126z" />
    <glyph glyph-name="guillemotleft" unicode="&#xab;" 
d="M483 520h123l-196 -205q-17 -18 -31 -27q-7 -5 -13 -8v-2q4 -3 8 -8t9 -11t11 -16l133 -203h-119l-152 240zM17 280l224 240h122l-194 -205q-9 -10 -17 -16.5t-13 -10.5q-6 -5 -11 -8l-1 -2q4 -3 8 -8t9 -11t11 -16l133 -203h-119z" />
    <glyph glyph-name="guilsinglleft" unicode="&#x2039;" 
d="M372 520h124l-193 -204q-9 -10 -18 -16.5t-16 -10.5q-8 -5 -15 -8v-2l8 -8q3 -5 8 -11t11 -16l133 -204h-117l-152 240z" />
    <glyph glyph-name="guilsinglright" unicode="&#x203a;" 
d="M294 244q9 10 17 16t15 11q8 5 15 8v2q-3 3 -7 8q-3 4 -8 10.5t-11 16.5l-133 204h117l151 -240l-225 -240h-124z" />
    <glyph glyph-name="quoteleft" unicode="&#x2018;" 
d="M235 464l181 311h97l-131 -311h-147z" />
    <glyph glyph-name="quoteright" unicode="&#x2019;" 
d="M444 776l-181 -311h-97l131 311h147z" />
    <glyph glyph-name="quotedblleft" unicode="&#x201c;" 
d="M534 775h96l-131 -311h-146zM78 464l181 311h96l-131 -311h-146z" />
    <glyph glyph-name="quotedblright" unicode="&#x201d;" 
d="M322 465l131 311h146l-181 -311h-96zM178 776h146l-181 -311h-96z" />
    <glyph glyph-name="quotesinglbase" unicode="&#x201a;" 
d="M410 151l-179 -311h-97l129 311h147z" />
    <glyph glyph-name="quotedblbase" unicode="&#x201e;" 
d="M247 -160l131 311h146l-181 -311h-96zM103 151h146l-181 -311h-96z" />
    <glyph glyph-name="tilde" unicode="&#x2dc;" 
d="M170 652l4 25q9 56 44 87t87 31q33 0 53.5 -12t36 -26.5t30 -26.5t35.5 -12q18 0 31 12t18 34l3 26h72l-4 -25q-9 -56 -43.5 -87t-86.5 -31q-33 0 -53.5 12t-36 26t-30 26t-35.5 12q-18 0 -31.5 -12t-17.5 -35l-4 -24h-72z" />
    <glyph glyph-name="macron" unicode="&#xaf;" 
d="M235 775h273l-15 -93h-273z" />
    <glyph glyph-name="asciitilde" unicode="~" 
d="M46 255l11 70q10 60 50 95t102 35q45 0 71.5 -18.5t44.5 -41t34.5 -41.5t42.5 -19q43 0 51 49l11 66h93l-11 -70q-10 -60 -50.5 -95t-100.5 -35q-30 0 -52 9t-37.5 22t-27.5 29t-23.5 29t-24 22t-29.5 9q-43 0 -51 -49l-11 -66h-93z" />
    <glyph glyph-name="breve" unicode="&#x2d8;" 
d="M213 790h87q-5 -32 14.5 -50t58.5 -18t65 18t32 50h89q-5 -32 -21.5 -58.5t-42 -45t-59.5 -28.5t-73 -10q-38 0 -68.5 10.5t-50 29t-28 45t-3.5 57.5z" />
    <glyph glyph-name="dotaccent" unicode="&#x2d9;" 
d="M266 740q5 29 26.5 47t52.5 18h23q31 0 47 -17.5t11 -46.5t-26 -46t-52 -17h-23q-31 0 -47.5 16.5t-11.5 45.5z" />
    <glyph glyph-name="ring" unicode="&#x2da;" 
d="M276 708q7 46 45 74t94 28t85 -28t22 -74t-45 -73.5t-94 -27.5t-85.5 27.5t-21.5 73.5zM390 659q28 0 47 13.5t22 35.5q4 25 -10 38t-43 13q-26 0 -44.5 -14t-22.5 -37q-4 -22 10.5 -35.5t40.5 -13.5z" />
    <glyph glyph-name="grave" unicode="`" 
d="M239 796h124l83 -146h-103z" />
    <glyph glyph-name="acute" unicode="&#xb4;" 
d="M451.502 796h-123.992l-98.4912 -146h102.993z" />
    <glyph glyph-name="hungarumlaut" unicode="&#x2dd;" 
d="M416.165 796h-123.992l-129.243 -146h102.993zM626.165 796h-123.992l-129.243 -146h102.993z" />
    <glyph glyph-name="agrave" unicode="&#xe0;" 
d="M50 207l22 138q8 49 27 88.5t47.5 67.5t64.5 43.5t78 15.5q59 0 89.5 -27.5t33.5 -77.5h9l16 95h103l-67 -422q-3 -19 6.5 -30t27.5 -11h37l-14 -91h-71q-48 0 -73.5 27.5t-20.5 71.5h-9q-19 -49 -59 -77t-98 -28q-72 0 -112.5 44.5t-40.5 122.5q0 12 1 24t3 26zM251 86
q47 0 79.5 28.5t44.5 79.5l25 167q3 49 -20 76.5t-69 27.5q-53 0 -87.5 -32.5t-43.5 -89.5l-21 -135q-9 -57 14.5 -89.5t77.5 -32.5zM239 796h124l83 -146h-103z" />
    <glyph glyph-name="ntilde" unicode="&#xf1;" 
d="M29 0l87 550h104l-15 -95h9q18 50 61 77.5t103 27.5q40 0 71 -14.5t50.5 -41t27 -63.5t0.5 -82l-57 -359h-109l55 347q8 57 -15 88t-74 31t-86 -29.5t-46 -81.5l-56 -355h-110zM170 652l4 25q9 56 44 87t87 31q33 0 53.5 -12t36 -26.5t30 -26.5t35.5 -12q18 0 31 12
t18 34l3 26h72l-4 -25q-9 -56 -43.5 -87t-86.5 -31q-33 0 -53.5 12t-36 26t-30 26t-35.5 12q-18 0 -31.5 -12t-17.5 -35l-4 -24h-72z" />
    <glyph glyph-name="Uhungarumlaut" unicode="&#x170;" 
d="M248 -10q-51 0 -90 15t-63.5 42.5t-34 67.5t-1.5 90l82 515h110l-82 -515q-9 -56 16 -87t79 -31t88.5 30.5t43.5 87.5l82 515h109l-81 -515q-16 -103 -83.5 -159t-174.5 -56zM416.165 956h-123.992l-129.243 -146h102.993zM626.165 956h-123.992l-129.243 -146h102.993z
" />
    <glyph glyph-name="uhungarumlaut" unicode="&#x171;" 
d="M65 201l55 349h110l-57 -349q-19 -115 90 -115t127 115l56 349h108l-55 -349q-16 -101 -81 -156t-170 -55q-102 0 -150.5 56t-32.5 155zM416.165 796h-123.992l-129.243 -146h102.993zM626.165 796h-123.992l-129.243 -146h102.993z" />
    <glyph glyph-name="dieresis" unicode="&#xa8;" 
d="M422 726q5 28 26 44.5t50 16.5t44 -16.5t10 -44.5q-5 -29 -25.5 -46t-49.5 -17t-44.5 17t-10.5 46zM219 726q5 28 25.5 44.5t49.5 16.5t44.5 -16.5t10.5 -44.5q-5 -29 -25.5 -46t-49.5 -17t-44.5 17t-10.5 46z" />
    <glyph glyph-name="adieresis" unicode="&#xe4;" 
d="M50 207l22 138q8 49 27 88.5t47.5 67.5t64.5 43.5t78 15.5q59 0 89.5 -27.5t33.5 -77.5h9l16 95h103l-67 -422q-3 -19 6.5 -30t27.5 -11h37l-14 -91h-71q-48 0 -73.5 27.5t-20.5 71.5h-9q-19 -49 -59 -77t-98 -28q-72 0 -112.5 44.5t-40.5 122.5q0 12 1 24t3 26zM251 86
q47 0 79.5 28.5t44.5 79.5l25 167q3 49 -20 76.5t-69 27.5q-53 0 -87.5 -32.5t-43.5 -89.5l-21 -135q-9 -57 14.5 -89.5t77.5 -32.5zM422 726q5 28 26 44.5t50 16.5t44 -16.5t10 -44.5q-5 -29 -25.5 -46t-49.5 -17t-44.5 17t-10.5 46zM219 726q5 28 25.5 44.5t49.5 16.5
t44.5 -16.5t10.5 -44.5q-5 -29 -25.5 -46t-49.5 -17t-44.5 17t-10.5 46z" />
    <glyph glyph-name="circumflex" unicode="&#x2c6;" 
d="M337 795h103l95 -145h-85l-43 57q-7 10 -11.5 16.5t-7.5 10.5t-4 7h-3q-2 -3 -7 -7q-4 -5 -10 -11t-17 -15l-63 -58h-92z" />
    <glyph glyph-name="caron" unicode="&#x2c7;" 
d="M220 795h86l44 -58q8 -9 12 -15.5t7 -10.5t4 -7h2q2 3 7 8l10.5 10.5t17.5 15.5l62 57h91l-144 -145h-103z" />
    <glyph glyph-name="ccaron" unicode="&#x10d;" 
d="M256 -10q-51 0 -91 15.5t-65.5 43.5t-35.5 67.5t-3 88.5l22 140q16 101 86 158t177 57q45 0 82 -14t64 -39t41.5 -60t14.5 -77h-110q0 42 -29.5 68t-77.5 26q-57 0 -94 -31.5t-45 -87.5l-23 -140q-8 -55 19 -86.5t83 -31.5q51 0 87 24.5t50 68.5h110q-27 -91 -96 -140.5
t-166 -49.5zM220 795h86l44 -58q8 -9 12 -15.5t7 -10.5t4 -7h2q2 3 7 8l10.5 10.5t17.5 15.5l62 57h91l-144 -145h-103z" />
    <glyph glyph-name="cedilla" unicode="&#xb8;" 
d="M174 -134q8 -1 19 -2q9 -1 23 -1.5t31 -0.5q21 0 35.5 7.5t16.5 20.5q4 20 -23 31t-78 11l55 94h64l-36 -61q35 -3 62 -14q11 -4 21.5 -10.5t18.5 -15t11.5 -20t1.5 -25.5q-5 -34 -43.5 -55.5t-95.5 -21.5q-26 0 -43.5 0.5t-28.5 1.5q-13 2 -20 3z" />
    <glyph glyph-name="ogonek" unicode="&#x2db;" 
d="M164 -110q5 29 27.5 58t72.5 62h87l-16 -11q-36 -25 -53 -47t-20 -42q-3 -21 9 -33t36 -12h63l-11 -68h-84q-57 0 -87.5 25.5t-23.5 67.5z" />
    <glyph glyph-name="Uogonek" unicode="&#x172;" 
d="M248 -10q-51 0 -90 15t-63.5 42.5t-34 67.5t-1.5 90l82 515h110l-82 -515q-9 -56 16 -87t79 -31t88.5 30.5t43.5 87.5l82 515h109l-81 -515q-16 -103 -83.5 -159t-174.5 -56zM199 -110q5 29 27.5 58t72.5 62h87l-16 -11q-36 -25 -53 -47t-20 -42q-3 -21 9 -33t36 -12h63
l-11 -68h-84q-57 0 -87.5 25.5t-23.5 67.5z" />
    <glyph glyph-name="uogonek" unicode="&#x173;" 
d="M65 201l55 349h110l-57 -349q-19 -115 90 -115t127 115l56 349h108l-55 -349q-16 -101 -81 -156t-170 -55q-102 0 -150.5 56t-32.5 155zM171 -110q5 29 27.5 58t72.5 62h87l-16 -11q-36 -25 -53 -47t-20 -42q-3 -21 9 -33t36 -12h63l-11 -68h-84q-57 0 -87.5 25.5
t-23.5 67.5z" />
    <glyph glyph-name="ccedilla" unicode="&#xe7;" 
d="M256 -10q-51 0 -91 15.5t-65.5 43.5t-35.5 67.5t-3 88.5l22 140q16 101 86 158t177 57q45 0 82 -14t64 -39t41.5 -60t14.5 -77h-110q0 42 -29.5 68t-77.5 26q-57 0 -94 -31.5t-45 -87.5l-23 -140q-8 -55 19 -86.5t83 -31.5q51 0 87 24.5t50 68.5h110q-27 -91 -96 -140.5
t-166 -49.5zM174 -134q8 -1 19 -2q9 -1 23 -1.5t31 -0.5q21 0 35.5 7.5t16.5 20.5q4 20 -23 31t-78 11l55 94h64l-36 -61q35 -3 62 -14q11 -4 21.5 -10.5t18.5 -15t11.5 -20t1.5 -25.5q-5 -34 -43.5 -55.5t-95.5 -21.5q-26 0 -43.5 0.5t-28.5 1.5q-13 2 -20 3z" />
    <glyph glyph-name="Agrave" unicode="&#xc0;" 
d="M19 0l309 720h150l75 -720h-112l-16 191h-213l-78 -191h-115zM248 279h170l-22 268q-3 39 -3 68v29h-4q-4 -14 -9 -29q-5 -14 -10.5 -31t-13.5 -36zM239 956h124l83 -146h-103z" />
    <glyph glyph-name="Aacute" unicode="&#xc1;" 
d="M19 0l309 720h150l75 -720h-112l-16 191h-213l-78 -191h-115zM248 279h170l-22 268q-3 39 -3 68v29h-4q-4 -14 -9 -29q-5 -14 -10.5 -31t-13.5 -36zM451.502 956h-123.992l-98.4912 -146h102.993z" />
    <glyph glyph-name="Acircumflex" unicode="&#xc2;" 
d="M19 0l309 720h150l75 -720h-112l-16 191h-213l-78 -191h-115zM248 279h170l-22 268q-3 39 -3 68v29h-4q-4 -14 -9 -29q-5 -14 -10.5 -31t-13.5 -36zM387 955h103l95 -145h-85l-43 57q-7 10 -11.5 16.5t-7.5 10.5t-4 7h-3q-2 -3 -7 -7q-4 -5 -10 -11t-17 -15l-63 -58h-92z
" />
    <glyph glyph-name="Atilde" unicode="&#xc3;" 
d="M19 0l309 720h150l75 -720h-112l-16 191h-213l-78 -191h-115zM248 279h170l-22 268q-3 39 -3 68v29h-4q-4 -14 -9 -29q-5 -14 -10.5 -31t-13.5 -36zM220 812l4 25q9 56 44 87t87 31q33 0 53.5 -12t36 -26.5t30 -26.5t35.5 -12q18 0 31 12t18 34l3 26h72l-4 -25
q-9 -56 -43.5 -87t-86.5 -31q-33 0 -53.5 12t-36 26t-30 26t-35.5 12q-18 0 -31.5 -12t-17.5 -35l-4 -24h-72z" />
    <glyph glyph-name="Adieresis" unicode="&#xc4;" 
d="M19 0l309 720h150l75 -720h-112l-16 191h-213l-78 -191h-115zM248 279h170l-22 268q-3 39 -3 68v29h-4q-4 -14 -9 -29q-5 -14 -10.5 -31t-13.5 -36zM462 886q5 28 26 44.5t50 16.5t44 -16.5t10 -44.5q-5 -29 -25.5 -46t-49.5 -17t-44.5 17t-10.5 46zM259 886
q5 28 25.5 44.5t49.5 16.5t44.5 -16.5t10.5 -44.5q-5 -29 -25.5 -46t-49.5 -17t-44.5 17t-10.5 46z" />
    <glyph glyph-name="Aring" unicode="&#xc5;" 
d="M19 0l309 720h150l75 -720h-112l-16 191h-213l-78 -191h-115zM248 279h170l-22 268q-3 39 -3 68v29h-4q-4 -14 -9 -29q-5 -14 -10.5 -31t-13.5 -36zM295 868q7 46 45 74t94 28t85 -28t22 -74t-45 -73.5t-94 -27.5t-85.5 27.5t-21.5 73.5zM409 819q28 0 47 13.5t22 35.5
q4 25 -10 38t-43 13q-26 0 -44.5 -14t-22.5 -37q-4 -22 10.5 -35.5t40.5 -13.5z" />
    <glyph glyph-name="Ccedilla" unicode="&#xc7;" 
d="M254 -10q-52 0 -92 15t-65.5 43t-35.5 68t-2 89l49 310q8 50 30 90t56.5 67.5t79 42.5t97.5 15q98 0 151 -55.5t45 -149.5h-108q4 51 -24 79.5t-79 28.5q-56 0 -93.5 -32.5t-46.5 -88.5l-48 -304q-9 -57 18 -89t83 -32q53 0 89.5 29t48.5 79h108q-22 -96 -91.5 -150.5
t-169.5 -54.5zM174 -134q8 -1 19 -2q9 -1 23 -1.5t31 -0.5q21 0 35.5 7.5t16.5 20.5q4 20 -23 31t-78 11l55 94h64l-36 -61q35 -3 62 -14q11 -4 21.5 -10.5t18.5 -15t11.5 -20t1.5 -25.5q-5 -34 -43.5 -55.5t-95.5 -21.5q-26 0 -43.5 0.5t-28.5 1.5q-13 2 -20 3z" />
    <glyph glyph-name="Egrave" unicode="&#xc8;" 
d="M155 720h434l-15 -96h-325l-33 -205h290l-15 -98h-290l-36 -224h325l-15 -97h-434zM239 956h124l83 -146h-103z" />
    <glyph glyph-name="Eacute" unicode="&#xc9;" 
d="M155 720h434l-15 -96h-325l-33 -205h290l-15 -98h-290l-36 -224h325l-15 -97h-434zM451.502 956h-123.992l-98.4912 -146h102.993z" />
    <glyph glyph-name="Ecircumflex" unicode="&#xca;" 
d="M155 720h434l-15 -96h-325l-33 -205h290l-15 -98h-290l-36 -224h325l-15 -97h-434zM337 955h103l95 -145h-85l-43 57q-7 10 -11.5 16.5t-7.5 10.5t-4 7h-3q-2 -3 -7 -7q-4 -5 -10 -11t-17 -15l-63 -58h-92z" />
    <glyph glyph-name="Edieresis" unicode="&#xcb;" 
d="M155 720h434l-15 -96h-325l-33 -205h290l-15 -98h-290l-36 -224h325l-15 -97h-434zM422 886q5 28 26 44.5t50 16.5t44 -16.5t10 -44.5q-5 -29 -25.5 -46t-49.5 -17t-44.5 17t-10.5 46zM219 886q5 28 25.5 44.5t49.5 16.5t44.5 -16.5t10.5 -44.5q-5 -29 -25.5 -46
t-49.5 -17t-44.5 17t-10.5 46z" />
    <glyph glyph-name="Igrave" unicode="&#xcc;" 
d="M39 0l15 96h156l84 528h-156l15 96h422l-15 -96h-156l-84 -528h156l-15 -96h-422zM239 956h124l83 -146h-103z" />
    <glyph glyph-name="Iacute" unicode="&#xcd;" 
d="M39 0l15 96h156l84 528h-156l15 96h422l-15 -96h-156l-84 -528h156l-15 -96h-422zM451.502 956h-123.992l-98.4912 -146h102.993z" />
    <glyph glyph-name="Icircumflex" unicode="&#xce;" 
d="M39 0l15 96h156l84 528h-156l15 96h422l-15 -96h-156l-84 -528h156l-15 -96h-422zM341 955h103l95 -145h-85l-43 57q-7 10 -11.5 16.5t-7.5 10.5t-4 7h-3q-2 -3 -7 -7q-4 -5 -10 -11t-17 -15l-63 -58h-92z" />
    <glyph glyph-name="Idieresis" unicode="&#xcf;" 
d="M39 0l15 96h156l84 528h-156l15 96h422l-15 -96h-156l-84 -528h156l-15 -96h-422zM423 886q5 28 26 44.5t50 16.5t44 -16.5t10 -44.5q-5 -29 -25.5 -46t-49.5 -17t-44.5 17t-10.5 46zM220 886q5 28 25.5 44.5t49.5 16.5t44.5 -16.5t10.5 -44.5q-5 -29 -25.5 -46
t-49.5 -17t-44.5 17t-10.5 46z" />
    <glyph glyph-name="Ograve" unicode="&#xd2;" 
d="M248 -10q-52 0 -92 15.5t-65.5 44t-35.5 69t-3 89.5l49 305q17 101 87 159t178 58q52 0 92 -15.5t65.5 -44t36 -68.5t2.5 -89l-49 -305q-8 -50 -30.5 -90.5t-57 -69t-79.5 -43.5t-98 -15zM162 208q-9 -56 18.5 -88.5t83.5 -32.5q55 0 93 32.5t47 88.5l48 305
q9 56 -18.5 88.5t-83.5 32.5q-55 0 -93 -32.5t-46 -88.5zM239 956h124l83 -146h-103z" />
    <glyph glyph-name="Oacute" unicode="&#xd3;" 
d="M248 -10q-52 0 -92 15.5t-65.5 44t-35.5 69t-3 89.5l49 305q17 101 87 159t178 58q52 0 92 -15.5t65.5 -44t36 -68.5t2.5 -89l-49 -305q-8 -50 -30.5 -90.5t-57 -69t-79.5 -43.5t-98 -15zM162 208q-9 -56 18.5 -88.5t83.5 -32.5q55 0 93 32.5t47 88.5l48 305
q9 56 -18.5 88.5t-83.5 32.5q-55 0 -93 -32.5t-46 -88.5zM451.502 956h-123.992l-98.4912 -146h102.993z" />
    <glyph glyph-name="Ocircumflex" unicode="&#xd4;" 
d="M248 -10q-52 0 -92 15.5t-65.5 44t-35.5 69t-3 89.5l49 305q17 101 87 159t178 58q52 0 92 -15.5t65.5 -44t36 -68.5t2.5 -89l-49 -305q-8 -50 -30.5 -90.5t-57 -69t-79.5 -43.5t-98 -15zM162 208q-9 -56 18.5 -88.5t83.5 -32.5q55 0 93 32.5t47 88.5l48 305
q9 56 -18.5 88.5t-83.5 32.5q-55 0 -93 -32.5t-46 -88.5zM337 955h103l95 -145h-85l-43 57q-7 10 -11.5 16.5t-7.5 10.5t-4 7h-3q-2 -3 -7 -7q-4 -5 -10 -11t-17 -15l-63 -58h-92z" />
    <glyph glyph-name="Otilde" unicode="&#xd5;" 
d="M248 -10q-52 0 -92 15.5t-65.5 44t-35.5 69t-3 89.5l49 305q17 101 87 159t178 58q52 0 92 -15.5t65.5 -44t36 -68.5t2.5 -89l-49 -305q-8 -50 -30.5 -90.5t-57 -69t-79.5 -43.5t-98 -15zM162 208q-9 -56 18.5 -88.5t83.5 -32.5q55 0 93 32.5t47 88.5l48 305
q9 56 -18.5 88.5t-83.5 32.5q-55 0 -93 -32.5t-46 -88.5zM170 812l4 25q9 56 44 87t87 31q33 0 53.5 -12t36 -26.5t30 -26.5t35.5 -12q18 0 31 12t18 34l3 26h72l-4 -25q-9 -56 -43.5 -87t-86.5 -31q-33 0 -53.5 12t-36 26t-30 26t-35.5 12q-18 0 -31.5 -12t-17.5 -35
l-4 -24h-72z" />
    <glyph glyph-name="Odieresis" unicode="&#xd6;" 
d="M248 -10q-52 0 -92 15.5t-65.5 44t-35.5 69t-3 89.5l49 305q17 101 87 159t178 58q52 0 92 -15.5t65.5 -44t36 -68.5t2.5 -89l-49 -305q-8 -50 -30.5 -90.5t-57 -69t-79.5 -43.5t-98 -15zM162 208q-9 -56 18.5 -88.5t83.5 -32.5q55 0 93 32.5t47 88.5l48 305
q9 56 -18.5 88.5t-83.5 32.5q-55 0 -93 -32.5t-46 -88.5zM422 886q5 28 26 44.5t50 16.5t44 -16.5t10 -44.5q-5 -29 -25.5 -46t-49.5 -17t-44.5 17t-10.5 46zM219 886q5 28 25.5 44.5t49.5 16.5t44.5 -16.5t10.5 -44.5q-5 -29 -25.5 -46t-49.5 -17t-44.5 17t-10.5 46z" />
    <glyph glyph-name="Scaron" unicode="&#x160;" 
d="M42 188h113q-6 -45 24.5 -73t86.5 -28q60 0 97.5 26t44.5 72q6 41 -14.5 72t-63.5 46l-72 25q-81 26 -118.5 80t-26.5 126q14 93 81.5 144.5t174.5 51.5q49 0 87.5 -14t64 -39.5t36.5 -61t6 -79.5h-113q6 44 -21.5 71t-76.5 27q-53 0 -86.5 -25t-40.5 -69q-6 -38 13 -66
t63 -42l76 -25q81 -26 117.5 -82t23.5 -134q-7 -47 -29 -84t-57 -63t-81.5 -40t-102.5 -14q-52 0 -92.5 14.5t-67.5 40.5t-39.5 62.5t-6.5 80.5zM220 955h86l44 -58q8 -9 12 -15.5t7 -10.5t4 -7h2q2 3 7 8l10.5 10.5t17.5 15.5l62 57h91l-144 -145h-103z" />
    <glyph glyph-name="Ugrave" unicode="&#xd9;" 
d="M248 -10q-51 0 -90 15t-63.5 42.5t-34 67.5t-1.5 90l82 515h110l-82 -515q-9 -56 16 -87t79 -31t88.5 30.5t43.5 87.5l82 515h109l-81 -515q-16 -103 -83.5 -159t-174.5 -56zM239 956h124l83 -146h-103z" />
    <glyph glyph-name="Uacute" unicode="&#xda;" 
d="M248 -10q-51 0 -90 15t-63.5 42.5t-34 67.5t-1.5 90l82 515h110l-82 -515q-9 -56 16 -87t79 -31t88.5 30.5t43.5 87.5l82 515h109l-81 -515q-16 -103 -83.5 -159t-174.5 -56zM451.502 956h-123.992l-98.4912 -146h102.993z" />
    <glyph glyph-name="Ucircumflex" unicode="&#xdb;" 
d="M248 -10q-51 0 -90 15t-63.5 42.5t-34 67.5t-1.5 90l82 515h110l-82 -515q-9 -56 16 -87t79 -31t88.5 30.5t43.5 87.5l82 515h109l-81 -515q-16 -103 -83.5 -159t-174.5 -56zM337 955h103l95 -145h-85l-43 57q-7 10 -11.5 16.5t-7.5 10.5t-4 7h-3q-2 -3 -7 -7
q-4 -5 -10 -11t-17 -15l-63 -58h-92z" />
    <glyph glyph-name="Udieresis" unicode="&#xdc;" 
d="M248 -10q-51 0 -90 15t-63.5 42.5t-34 67.5t-1.5 90l82 515h110l-82 -515q-9 -56 16 -87t79 -31t88.5 30.5t43.5 87.5l82 515h109l-81 -515q-16 -103 -83.5 -159t-174.5 -56zM422 886q5 28 26 44.5t50 16.5t44 -16.5t10 -44.5q-5 -29 -25.5 -46t-49.5 -17t-44.5 17
t-10.5 46zM219 886q5 28 25.5 44.5t49.5 16.5t44.5 -16.5t10.5 -44.5q-5 -29 -25.5 -46t-49.5 -17t-44.5 17t-10.5 46z" />
    <glyph glyph-name="Ydieresis" unicode="&#x178;" 
d="M200 720l87 -296q5 -16 7.5 -31t3.5 -27q2 -13 2 -25h5q3 12 9 25q5 12 11.5 27t15.5 31l179 296h119l-294 -470l-40 -250h-110l40 250l-146 470h111zM422 886q5 28 26 44.5t50 16.5t44 -16.5t10 -44.5q-5 -29 -25.5 -46t-49.5 -17t-44.5 17t-10.5 46zM219 886
q5 28 25.5 44.5t49.5 16.5t44.5 -16.5t10.5 -44.5q-5 -29 -25.5 -46t-49.5 -17t-44.5 17t-10.5 46z" />
    <glyph glyph-name="Yacute" unicode="&#xdd;" 
d="M200 720l87 -296q5 -16 7.5 -31t3.5 -27q2 -13 2 -25h5q3 12 9 25q5 12 11.5 27t15.5 31l179 296h119l-294 -470l-40 -250h-110l40 250l-146 470h111zM451.502 956h-123.992l-98.4912 -146h102.993z" />
    <glyph glyph-name="Zcaron" unicode="&#x17d;" 
d="M571 720l-16 -101l-384 -524l71 4h242l-16 -99h-436l16 100l383 523v2l-73 -4h-220l16 99h417zM223 955h86l44 -58q8 -9 12 -15.5t7 -10.5t4 -7h2q2 3 7 8l10.5 10.5t17.5 15.5l62 57h91l-144 -145h-103z" />
    <glyph glyph-name="aacute" unicode="&#xe1;" 
d="M50 207l22 138q8 49 27 88.5t47.5 67.5t64.5 43.5t78 15.5q59 0 89.5 -27.5t33.5 -77.5h9l16 95h103l-67 -422q-3 -19 6.5 -30t27.5 -11h37l-14 -91h-71q-48 0 -73.5 27.5t-20.5 71.5h-9q-19 -49 -59 -77t-98 -28q-72 0 -112.5 44.5t-40.5 122.5q0 12 1 24t3 26zM251 86
q47 0 79.5 28.5t44.5 79.5l25 167q3 49 -20 76.5t-69 27.5q-53 0 -87.5 -32.5t-43.5 -89.5l-21 -135q-9 -57 14.5 -89.5t77.5 -32.5zM451.502 796h-123.992l-98.4912 -146h102.993z" />
    <glyph glyph-name="acircumflex" unicode="&#xe2;" 
d="M50 207l22 138q8 49 27 88.5t47.5 67.5t64.5 43.5t78 15.5q59 0 89.5 -27.5t33.5 -77.5h9l16 95h103l-67 -422q-3 -19 6.5 -30t27.5 -11h37l-14 -91h-71q-48 0 -73.5 27.5t-20.5 71.5h-9q-19 -49 -59 -77t-98 -28q-72 0 -112.5 44.5t-40.5 122.5q0 12 1 24t3 26zM251 86
q47 0 79.5 28.5t44.5 79.5l25 167q3 49 -20 76.5t-69 27.5q-53 0 -87.5 -32.5t-43.5 -89.5l-21 -135q-9 -57 14.5 -89.5t77.5 -32.5zM337 795h103l95 -145h-85l-43 57q-7 10 -11.5 16.5t-7.5 10.5t-4 7h-3q-2 -3 -7 -7q-4 -5 -10 -11t-17 -15l-63 -58h-92z" />
    <glyph glyph-name="atilde" unicode="&#xe3;" 
d="M50 207l22 138q8 49 27 88.5t47.5 67.5t64.5 43.5t78 15.5q59 0 89.5 -27.5t33.5 -77.5h9l16 95h103l-67 -422q-3 -19 6.5 -30t27.5 -11h37l-14 -91h-71q-48 0 -73.5 27.5t-20.5 71.5h-9q-19 -49 -59 -77t-98 -28q-72 0 -112.5 44.5t-40.5 122.5q0 12 1 24t3 26zM251 86
q47 0 79.5 28.5t44.5 79.5l25 167q3 49 -20 76.5t-69 27.5q-53 0 -87.5 -32.5t-43.5 -89.5l-21 -135q-9 -57 14.5 -89.5t77.5 -32.5zM170 652l4 25q9 56 44 87t87 31q33 0 53.5 -12t36 -26.5t30 -26.5t35.5 -12q18 0 31 12t18 34l3 26h72l-4 -25q-9 -56 -43.5 -87t-86.5 -31
q-33 0 -53.5 12t-36 26t-30 26t-35.5 12q-18 0 -31.5 -12t-17.5 -35l-4 -24h-72z" />
    <glyph glyph-name="aring" unicode="&#xe5;" 
d="M50 207l22 138q8 49 27 88.5t47.5 67.5t64.5 43.5t78 15.5q59 0 89.5 -27.5t33.5 -77.5h9l16 95h103l-67 -422q-3 -19 6.5 -30t27.5 -11h37l-14 -91h-71q-48 0 -73.5 27.5t-20.5 71.5h-9q-19 -49 -59 -77t-98 -28q-72 0 -112.5 44.5t-40.5 122.5q0 12 1 24t3 26zM251 86
q47 0 79.5 28.5t44.5 79.5l25 167q3 49 -20 76.5t-69 27.5q-53 0 -87.5 -32.5t-43.5 -89.5l-21 -135q-9 -57 14.5 -89.5t77.5 -32.5zM266 708q7 46 45 74t94 28t85 -28t22 -74t-45 -73.5t-94 -27.5t-85.5 27.5t-21.5 73.5zM380 659q28 0 47 13.5t22 35.5q4 25 -10 38t-43 13
q-26 0 -44.5 -14t-22.5 -37q-4 -22 10.5 -35.5t40.5 -13.5z" />
    <glyph glyph-name="egrave" unicode="&#xe8;" 
d="M248 -10q-52 0 -92 15t-65.5 43t-35.5 67t-2 88l23 144q8 49 30 88.5t56.5 67t79 42.5t97.5 15q52 0 91.5 -15t65 -43t36 -67.5t2.5 -87.5l-16 -101h-351l-6 -39q-9 -60 18 -93.5t84 -33.5q42 0 75 14t51 39h107q-14 -32 -38.5 -58.5t-56.5 -45t-71 -29t-82 -10.5z
M423 325l4 22q11 58 -17 90.5t-86 32.5q-57 0 -93 -32.5t-47 -90.5l-4 -22h243zM239 796h124l83 -146h-103z" />
    <glyph glyph-name="eacute" unicode="&#xe9;" 
d="M248 -10q-52 0 -92 15t-65.5 43t-35.5 67t-2 88l23 144q8 49 30 88.5t56.5 67t79 42.5t97.5 15q52 0 91.5 -15t65 -43t36 -67.5t2.5 -87.5l-16 -101h-351l-6 -39q-9 -60 18 -93.5t84 -33.5q42 0 75 14t51 39h107q-14 -32 -38.5 -58.5t-56.5 -45t-71 -29t-82 -10.5z
M423 325l4 22q11 58 -17 90.5t-86 32.5q-57 0 -93 -32.5t-47 -90.5l-4 -22h243zM451.502 796h-123.992l-98.4912 -146h102.993z" />
    <glyph glyph-name="ecircumflex" unicode="&#xea;" 
d="M248 -10q-52 0 -92 15t-65.5 43t-35.5 67t-2 88l23 144q8 49 30 88.5t56.5 67t79 42.5t97.5 15q52 0 91.5 -15t65 -43t36 -67.5t2.5 -87.5l-16 -101h-351l-6 -39q-9 -60 18 -93.5t84 -33.5q42 0 75 14t51 39h107q-14 -32 -38.5 -58.5t-56.5 -45t-71 -29t-82 -10.5z
M423 325l4 22q11 58 -17 90.5t-86 32.5q-57 0 -93 -32.5t-47 -90.5l-4 -22h243zM337 795h103l95 -145h-85l-43 57q-7 10 -11.5 16.5t-7.5 10.5t-4 7h-3q-2 -3 -7 -7q-4 -5 -10 -11t-17 -15l-63 -58h-92z" />
    <glyph glyph-name="edieresis" unicode="&#xeb;" 
d="M248 -10q-52 0 -92 15t-65.5 43t-35.5 67t-2 88l23 144q8 49 30 88.5t56.5 67t79 42.5t97.5 15q52 0 91.5 -15t65 -43t36 -67.5t2.5 -87.5l-16 -101h-351l-6 -39q-9 -60 18 -93.5t84 -33.5q42 0 75 14t51 39h107q-14 -32 -38.5 -58.5t-56.5 -45t-71 -29t-82 -10.5z
M423 325l4 22q11 58 -17 90.5t-86 32.5q-57 0 -93 -32.5t-47 -90.5l-4 -22h243zM422 726q5 28 26 44.5t50 16.5t44 -16.5t10 -44.5q-5 -29 -25.5 -46t-49.5 -17t-44.5 17t-10.5 46zM219 726q5 28 25.5 44.5t49.5 16.5t44.5 -16.5t10.5 -44.5q-5 -29 -25.5 -46t-49.5 -17
t-44.5 17t-10.5 46z" />
    <glyph glyph-name="igrave" unicode="&#xec;" 
d="M54 100h199l55 351h-173l16 99h279l-71 -450h162l-16 -100h-467zM239 796h124l83 -146h-103z" />
    <glyph glyph-name="iacute" unicode="&#xed;" 
d="M54 100h199l55 351h-173l16 99h279l-71 -450h162l-16 -100h-467zM451.502 796h-123.992l-98.4912 -146h102.993z" />
    <glyph glyph-name="icircumflex" unicode="&#xee;" 
d="M54 100h199l55 351h-173l16 99h279l-71 -450h162l-16 -100h-467zM337 795h103l95 -145h-85l-43 57q-7 10 -11.5 16.5t-7.5 10.5t-4 7h-3q-2 -3 -7 -7q-4 -5 -10 -11t-17 -15l-63 -58h-92z" />
    <glyph glyph-name="idieresis" unicode="&#xef;" 
d="M54 100h199l55 351h-173l16 99h279l-71 -450h162l-16 -100h-467zM422 726q5 28 26 44.5t50 16.5t44 -16.5t10 -44.5q-5 -29 -25.5 -46t-49.5 -17t-44.5 17t-10.5 46zM219 726q5 28 25.5 44.5t49.5 16.5t44.5 -16.5t10.5 -44.5q-5 -29 -25.5 -46t-49.5 -17t-44.5 17
t-10.5 46z" />
    <glyph glyph-name="ograve" unicode="&#xf2;" 
d="M248 -10q-52 0 -92 15t-65.5 43.5t-35.5 68.5t-2 90l22 137q8 50 30 90t56.5 68t79.5 43t98 15t92.5 -15t65 -43t35.5 -68t2 -90l-21 -137q-17 -101 -87 -159t-178 -58zM162 207q-9 -56 18 -88t84 -32q56 0 93.5 31.5t46.5 88.5l21 137q8 56 -19 88t-83 32
q-55 0 -92.5 -32.5t-46.5 -87.5zM239 796h124l83 -146h-103z" />
    <glyph glyph-name="oacute" unicode="&#xf3;" 
d="M248 -10q-52 0 -92 15t-65.5 43.5t-35.5 68.5t-2 90l22 137q8 50 30 90t56.5 68t79.5 43t98 15t92.5 -15t65 -43t35.5 -68t2 -90l-21 -137q-17 -101 -87 -159t-178 -58zM162 207q-9 -56 18 -88t84 -32q56 0 93.5 31.5t46.5 88.5l21 137q8 56 -19 88t-83 32
q-55 0 -92.5 -32.5t-46.5 -87.5zM451.502 796h-123.992l-98.4912 -146h102.993z" />
    <glyph glyph-name="ocircumflex" unicode="&#xf4;" 
d="M248 -10q-52 0 -92 15t-65.5 43.5t-35.5 68.5t-2 90l22 137q8 50 30 90t56.5 68t79.5 43t98 15t92.5 -15t65 -43t35.5 -68t2 -90l-21 -137q-17 -101 -87 -159t-178 -58zM162 207q-9 -56 18 -88t84 -32q56 0 93.5 31.5t46.5 88.5l21 137q8 56 -19 88t-83 32
q-55 0 -92.5 -32.5t-46.5 -87.5zM337 795h103l95 -145h-85l-43 57q-7 10 -11.5 16.5t-7.5 10.5t-4 7h-3q-2 -3 -7 -7q-4 -5 -10 -11t-17 -15l-63 -58h-92z" />
    <glyph glyph-name="otilde" unicode="&#xf5;" 
d="M248 -10q-52 0 -92 15t-65.5 43.5t-35.5 68.5t-2 90l22 137q8 50 30 90t56.5 68t79.5 43t98 15t92.5 -15t65 -43t35.5 -68t2 -90l-21 -137q-17 -101 -87 -159t-178 -58zM162 207q-9 -56 18 -88t84 -32q56 0 93.5 31.5t46.5 88.5l21 137q8 56 -19 88t-83 32
q-55 0 -92.5 -32.5t-46.5 -87.5zM170 652l4 25q9 56 44 87t87 31q33 0 53.5 -12t36 -26.5t30 -26.5t35.5 -12q18 0 31 12t18 34l3 26h72l-4 -25q-9 -56 -43.5 -87t-86.5 -31q-33 0 -53.5 12t-36 26t-30 26t-35.5 12q-18 0 -31.5 -12t-17.5 -35l-4 -24h-72z" />
    <glyph glyph-name="odieresis" unicode="&#xf6;" 
d="M248 -10q-52 0 -92 15t-65.5 43.5t-35.5 68.5t-2 90l22 137q8 50 30 90t56.5 68t79.5 43t98 15t92.5 -15t65 -43t35.5 -68t2 -90l-21 -137q-17 -101 -87 -159t-178 -58zM162 207q-9 -56 18 -88t84 -32q56 0 93.5 31.5t46.5 88.5l21 137q8 56 -19 88t-83 32
q-55 0 -92.5 -32.5t-46.5 -87.5zM422 726q5 28 26 44.5t50 16.5t44 -16.5t10 -44.5q-5 -29 -25.5 -46t-49.5 -17t-44.5 17t-10.5 46zM219 726q5 28 25.5 44.5t49.5 16.5t44.5 -16.5t10.5 -44.5q-5 -29 -25.5 -46t-49.5 -17t-44.5 17t-10.5 46z" />
    <glyph glyph-name="scaron" unicode="&#x161;" 
d="M42 138h108q2 -27 27.5 -43t66.5 -16h35q50 0 80 20t36 55q11 62 -75 74l-79 11q-169 21 -146 161q12 76 71.5 118t156.5 42h36q85 0 133 -38t47 -105h-109q-2 25 -24.5 39.5t-60.5 14.5h-36q-46 0 -74.5 -17.5t-33.5 -52.5q-9 -58 68 -68l80 -11q177 -24 154 -165
q-13 -81 -74.5 -124t-163.5 -43h-35q-89 0 -139.5 39.5t-48.5 108.5zM220 795h86l44 -58q8 -9 12 -15.5t7 -10.5t4 -7h2q2 3 7 8l10.5 10.5t17.5 15.5l62 57h91l-144 -145h-103z" />
    <glyph glyph-name="ugrave" unicode="&#xf9;" 
d="M65 201l55 349h110l-57 -349q-19 -115 90 -115t127 115l56 349h108l-55 -349q-16 -101 -81 -156t-170 -55q-102 0 -150.5 56t-32.5 155zM239 796h124l83 -146h-103z" />
    <glyph glyph-name="uacute" unicode="&#xfa;" 
d="M65 201l55 349h110l-57 -349q-19 -115 90 -115t127 115l56 349h108l-55 -349q-16 -101 -81 -156t-170 -55q-102 0 -150.5 56t-32.5 155zM451.502 796h-123.992l-98.4912 -146h102.993z" />
    <glyph glyph-name="ucircumflex" unicode="&#xfb;" 
d="M65 201l55 349h110l-57 -349q-19 -115 90 -115t127 115l56 349h108l-55 -349q-16 -101 -81 -156t-170 -55q-102 0 -150.5 56t-32.5 155zM337 795h103l95 -145h-85l-43 57q-7 10 -11.5 16.5t-7.5 10.5t-4 7h-3q-2 -3 -7 -7q-4 -5 -10 -11t-17 -15l-63 -58h-92z" />
    <glyph glyph-name="udieresis" unicode="&#xfc;" 
d="M65 201l55 349h110l-57 -349q-19 -115 90 -115t127 115l56 349h108l-55 -349q-16 -101 -81 -156t-170 -55q-102 0 -150.5 56t-32.5 155zM422 726q5 28 26 44.5t50 16.5t44 -16.5t10 -44.5q-5 -29 -25.5 -46t-49.5 -17t-44.5 17t-10.5 46zM219 726q5 28 25.5 44.5
t49.5 16.5t44.5 -16.5t10.5 -44.5q-5 -29 -25.5 -46t-49.5 -17t-44.5 17t-10.5 46z" />
    <glyph glyph-name="yacute" unicode="&#xfd;" 
d="M69 241l49 309h108l-46 -290q-9 -56 15.5 -88t75.5 -32t86 31.5t44 85.5l47 293h108l-87 -535q-14 -87 -74 -136t-154 -49h-158l15 95h152q46 0 75 23.5t36 66.5l7 43l20 92h-8q-19 -50 -61 -76.5t-101 -26.5q-82 0 -122.5 52.5t-26.5 141.5zM451.502 796h-123.992
l-98.4912 -146h102.993z" />
    <glyph glyph-name="ydieresis" unicode="&#xff;" 
d="M69 241l49 309h108l-46 -290q-9 -56 15.5 -88t75.5 -32t86 31.5t44 85.5l47 293h108l-87 -535q-14 -87 -74 -136t-154 -49h-158l15 95h152q46 0 75 23.5t36 66.5l7 43l20 92h-8q-19 -50 -61 -76.5t-101 -26.5q-82 0 -122.5 52.5t-26.5 141.5zM422 726q5 28 26 44.5
t50 16.5t44 -16.5t10 -44.5q-5 -29 -25.5 -46t-49.5 -17t-44.5 17t-10.5 46zM219 726q5 28 25.5 44.5t49.5 16.5t44.5 -16.5t10.5 -44.5q-5 -29 -25.5 -46t-49.5 -17t-44.5 17t-10.5 46z" />
    <glyph glyph-name="zcaron" unicode="&#x17e;" 
d="M25 0l18 114l363 339l1 6q-11 -1 -24 -2q-22 -3 -57 -3h-221l15 96h431l-18 -115l-366 -339l-1 -6q12 2 26 3q11 2 26 2.5t30 0.5h242l-15 -96h-450zM223 795h86l44 -58q8 -9 12 -15.5t7 -10.5t4 -7h2q2 3 7 8l10.5 10.5t17.5 15.5l62 57h91l-144 -145h-103z" />
    <glyph glyph-name="Ntilde" unicode="&#xd1;" 
d="M140 720h137l104 -480q4 -17 6 -39t4 -42q2 -24 3 -49h10l0.5 13t1.5 34t3 47t6 52l73 464h100l-114 -720h-136l-102 481q-4 20 -6.5 43t-4.5 42q-2 23 -3 45h-10q0 -21 -1 -44q-2 -20 -4 -46t-7 -55l-74 -466h-100zM173 812l4 25q9 56 44 87t87 31q33 0 53.5 -12
t36 -26.5t30 -26.5t35.5 -12q18 0 31 12t18 34l3 26h72l-4 -25q-9 -56 -43.5 -87t-86.5 -31q-33 0 -53.5 12t-36 26t-30 26t-35.5 12q-18 0 -31.5 -12t-17.5 -35l-4 -24h-72z" />
    <glyph glyph-name="Dcroat" unicode="&#x110;" 
d="M39 405h55l50 315h213q54 0 95 -16t67.5 -45.5t37 -71t2.5 -91.5l-43 -271q-8 -51 -31.5 -92.5t-59.5 -71t-82 -45.5t-100 -16h-213l49 310h-55zM189 310l-33 -210h103q57 0 97.5 34t49.5 91l42 271q10 56 -20 90t-87 34h-103l-34 -215h105l-15 -95h-105z" />
    <glyph glyph-name="Eth" unicode="&#xd0;" 
d="M39 405h55l50 315h213q54 0 95 -16t67.5 -45.5t37 -71t2.5 -91.5l-43 -271q-8 -51 -31.5 -92.5t-59.5 -71t-82 -45.5t-100 -16h-213l49 310h-55zM189 310l-33 -210h103q57 0 97.5 34t49.5 91l42 271q10 56 -20 90t-87 34h-103l-34 -215h105l-15 -95h-105z" />
    <glyph glyph-name="thorn" unicode="&#xfe;" 
d="M140 720h110l-26 -163q-2 -14 -5.5 -32t-7.5 -34l-8 -36h9q19 50 63 77.5t104 27.5q42 0 74 -15.5t52 -44t27.5 -68t-0.5 -87.5l-22 -138q-17 -103 -76.5 -160t-145.5 -57q-60 0 -95 27.5t-38 77.5h-8l-40 -262h-107zM169 207q-9 -55 17 -88t78 -33q55 0 91.5 32.5
t44.5 89.5l22 135q9 57 -17.5 89.5t-80.5 32.5q-52 0 -88.5 -33t-44.5 -89z" />
    <glyph glyph-name="Oslash" unicode="&#xd8;" 
d="M-27 -40l92 129q-23 51 -13 119l49 305q17 101 87 159t178 58q81 0 133 -38l41 58h100l-89 -124q21 -49 11 -113l-49 -305q-8 -50 -30.5 -90.5t-57 -69t-79.5 -43.5t-98 -15q-79 0 -128 35l-47 -65h-100zM433 601q-28 33 -83 33t-93 -32.5t-46 -88.5l-46 -285zM185 116
q27 -29 79 -29q55 0 93 32.5t47 88.5l43 273z" />
    <glyph glyph-name="oslash" unicode="&#xf8;" 
d="M-23 -30l93 108q-29 52 -17 129l22 137q8 50 30 90t56.5 68t79.5 43t98 15q71 0 121 -28l50 58h101l-96 -112q31 -54 19 -134l-21 -137q-17 -101 -87 -159t-178 -58q-76 0 -126 32l-44 -52h-101zM195 106q27 -19 69 -19q56 0 93.5 31.5t46.5 88.5l21 137q2 8 2 16v16z
M388 448q-27 16 -65 16q-55 0 -92.5 -32.5t-46.5 -87.5l-22 -137q-1 -6 -1.5 -12.5t-0.5 -11.5z" />
    <glyph glyph-name="lslash" unicode="&#x142;" 
d="M102 330l124 70l37 231h-178l16 99h288l-42 -262l164 92l-16 -100l-163 -92l-32 -198q-5 -33 10 -51.5t47 -18.5h164l-16 -100h-169q-81 0 -120 45.5t-26 124.5l21 130l-126 -70z" />
    <glyph glyph-name="Lslash" unicode="&#x141;" 
d="M241 355l-40 -254h325l-16 -101h-435l45 287l-101 -57l16 100l101 57l53 333h110l-42 -265l187 105l-15 -100z" />
    <glyph glyph-name="Amacron" unicode="&#x100;" 
d="M19 0l309 720h150l75 -720h-112l-16 191h-213l-78 -191h-115zM248 279h170l-22 268q-3 39 -3 68v29h-4q-4 -14 -9 -29q-5 -14 -10.5 -31t-13.5 -36zM302 935h273l-15 -93h-273z" />
    <glyph glyph-name="amacron" unicode="&#x101;" 
d="M50 207l22 138q8 49 27 88.5t47.5 67.5t64.5 43.5t78 15.5q59 0 89.5 -27.5t33.5 -77.5h9l16 95h103l-67 -422q-3 -19 6.5 -30t27.5 -11h37l-14 -91h-71q-48 0 -73.5 27.5t-20.5 71.5h-9q-19 -49 -59 -77t-98 -28q-72 0 -112.5 44.5t-40.5 122.5q0 12 1 24t3 26zM251 86
q47 0 79.5 28.5t44.5 79.5l25 167q3 49 -20 76.5t-69 27.5q-53 0 -87.5 -32.5t-43.5 -89.5l-21 -135q-9 -57 14.5 -89.5t77.5 -32.5zM258 775h273l-15 -93h-273z" />
    <glyph glyph-name="Abreve" unicode="&#x102;" 
d="M19 0l309 720h150l75 -720h-112l-16 191h-213l-78 -191h-115zM248 279h170l-22 268q-3 39 -3 68v29h-4q-4 -14 -9 -29q-5 -14 -10.5 -31t-13.5 -36zM273 950h87q-5 -32 14.5 -50t58.5 -18t65 18t32 50h89q-5 -32 -21.5 -58.5t-42 -45t-59.5 -28.5t-73 -10
q-38 0 -68.5 10.5t-50 29t-28 45t-3.5 57.5z" />
    <glyph glyph-name="abreve" unicode="&#x103;" 
d="M50 207l22 138q8 49 27 88.5t47.5 67.5t64.5 43.5t78 15.5q59 0 89.5 -27.5t33.5 -77.5h9l16 95h103l-67 -422q-3 -19 6.5 -30t27.5 -11h37l-14 -91h-71q-48 0 -73.5 27.5t-20.5 71.5h-9q-19 -49 -59 -77t-98 -28q-72 0 -112.5 44.5t-40.5 122.5q0 12 1 24t3 26zM251 86
q47 0 79.5 28.5t44.5 79.5l25 167q3 49 -20 76.5t-69 27.5q-53 0 -87.5 -32.5t-43.5 -89.5l-21 -135q-9 -57 14.5 -89.5t77.5 -32.5zM213 790h87q-5 -32 14.5 -50t58.5 -18t65 18t32 50h89q-5 -32 -21.5 -58.5t-42 -45t-59.5 -28.5t-73 -10q-38 0 -68.5 10.5t-50 29t-28 45
t-3.5 57.5z" />
    <glyph glyph-name="Aogonek" unicode="&#x104;" 
d="M19 0l309 720h150l75 -720h-112l-16 191h-213l-78 -191h-115zM248 279h170l-22 268q-3 39 -3 68v29h-4q-4 -14 -9 -29q-5 -14 -10.5 -31t-13.5 -36zM354 -110q5 29 27.5 58t72.5 62h87l-16 -11q-36 -25 -53 -47t-20 -42q-3 -21 9 -33t36 -12h63l-11 -68h-84
q-57 0 -87.5 25.5t-23.5 67.5z" />
    <glyph glyph-name="aogonek" unicode="&#x105;" 
d="M50 207l22 138q8 49 27 88.5t47.5 67.5t64.5 43.5t78 15.5q59 0 89.5 -27.5t33.5 -77.5h9l16 95h103l-67 -422q-3 -19 6.5 -30t27.5 -11h37l-14 -91h-71q-48 0 -73.5 27.5t-20.5 71.5h-9q-19 -49 -59 -77t-98 -28q-72 0 -112.5 44.5t-40.5 122.5q0 12 1 24t3 26zM251 86
q47 0 79.5 28.5t44.5 79.5l25 167q3 49 -20 76.5t-69 27.5q-53 0 -87.5 -32.5t-43.5 -89.5l-21 -135q-9 -57 14.5 -89.5t77.5 -32.5zM312 -110q5 29 27.5 58t72.5 62h87l-16 -11q-36 -25 -53 -47t-20 -42q-3 -21 9 -33t36 -12h63l-11 -68h-84q-57 0 -87.5 25.5t-23.5 67.5z
" />
    <glyph glyph-name="Cacute" unicode="&#x106;" 
d="M254 -10q-52 0 -92 15t-65.5 43t-35.5 68t-2 89l49 310q8 50 30 90t56.5 67.5t79 42.5t97.5 15q98 0 151 -55.5t45 -149.5h-108q4 51 -24 79.5t-79 28.5q-56 0 -93.5 -32.5t-46.5 -88.5l-48 -304q-9 -57 18 -89t83 -32q53 0 89.5 29t48.5 79h108q-22 -96 -91.5 -150.5
t-169.5 -54.5zM451.502 956h-123.992l-98.4912 -146h102.993z" />
    <glyph glyph-name="cacute" unicode="&#x107;" 
d="M256 -10q-51 0 -91 15.5t-65.5 43.5t-35.5 67.5t-3 88.5l22 140q16 101 86 158t177 57q45 0 82 -14t64 -39t41.5 -60t14.5 -77h-110q0 42 -29.5 68t-77.5 26q-57 0 -94 -31.5t-45 -87.5l-23 -140q-8 -55 19 -86.5t83 -31.5q51 0 87 24.5t50 68.5h110q-27 -91 -96 -140.5
t-166 -49.5zM451.502 796h-123.992l-98.4912 -146h102.993z" />
    <glyph glyph-name="Ccircumflex" unicode="&#x108;" 
d="M254 -10q-52 0 -92 15t-65.5 43t-35.5 68t-2 89l49 310q8 50 30 90t56.5 67.5t79 42.5t97.5 15q98 0 151 -55.5t45 -149.5h-108q4 51 -24 79.5t-79 28.5q-56 0 -93.5 -32.5t-46.5 -88.5l-48 -304q-9 -57 18 -89t83 -32q53 0 89.5 29t48.5 79h108q-22 -96 -91.5 -150.5
t-169.5 -54.5zM337 955h103l95 -145h-85l-43 57q-7 10 -11.5 16.5t-7.5 10.5t-4 7h-3q-2 -3 -7 -7q-4 -5 -10 -11t-17 -15l-63 -58h-92z" />
    <glyph glyph-name="ccircumflex" unicode="&#x109;" 
d="M256 -10q-51 0 -91 15.5t-65.5 43.5t-35.5 67.5t-3 88.5l22 140q16 101 86 158t177 57q45 0 82 -14t64 -39t41.5 -60t14.5 -77h-110q0 42 -29.5 68t-77.5 26q-57 0 -94 -31.5t-45 -87.5l-23 -140q-8 -55 19 -86.5t83 -31.5q51 0 87 24.5t50 68.5h110q-27 -91 -96 -140.5
t-166 -49.5zM337 795h103l95 -145h-85l-43 57q-7 10 -11.5 16.5t-7.5 10.5t-4 7h-3q-2 -3 -7 -7q-4 -5 -10 -11t-17 -15l-63 -58h-92z" />
    <glyph glyph-name="Cdotaccent" unicode="&#x10a;" 
d="M254 -10q-52 0 -92 15t-65.5 43t-35.5 68t-2 89l49 310q8 50 30 90t56.5 67.5t79 42.5t97.5 15q98 0 151 -55.5t45 -149.5h-108q4 51 -24 79.5t-79 28.5q-56 0 -93.5 -32.5t-46.5 -88.5l-48 -304q-9 -57 18 -89t83 -32q53 0 89.5 29t48.5 79h108q-22 -96 -91.5 -150.5
t-169.5 -54.5zM301 900q5 29 26.5 47t52.5 18h23q31 0 47 -17.5t11 -46.5t-26 -46t-52 -17h-23q-31 0 -47.5 16.5t-11.5 45.5z" />
    <glyph glyph-name="cdotaccent" unicode="&#x10b;" 
d="M256 -10q-51 0 -91 15.5t-65.5 43.5t-35.5 67.5t-3 88.5l22 140q16 101 86 158t177 57q45 0 82 -14t64 -39t41.5 -60t14.5 -77h-110q0 42 -29.5 68t-77.5 26q-57 0 -94 -31.5t-45 -87.5l-23 -140q-8 -55 19 -86.5t83 -31.5q51 0 87 24.5t50 68.5h110q-27 -91 -96 -140.5
t-166 -49.5zM296 740q5 29 26.5 47t52.5 18h23q31 0 47 -17.5t11 -46.5t-26 -46t-52 -17h-23q-31 0 -47.5 16.5t-11.5 45.5z" />
    <glyph glyph-name="Ccaron" unicode="&#x10c;" 
d="M254 -10q-52 0 -92 15t-65.5 43t-35.5 68t-2 89l49 310q8 50 30 90t56.5 67.5t79 42.5t97.5 15q98 0 151 -55.5t45 -149.5h-108q4 51 -24 79.5t-79 28.5q-56 0 -93.5 -32.5t-46.5 -88.5l-48 -304q-9 -57 18 -89t83 -32q53 0 89.5 29t48.5 79h108q-22 -96 -91.5 -150.5
t-169.5 -54.5zM220 955h86l44 -58q8 -9 12 -15.5t7 -10.5t4 -7h2q2 3 7 8l10.5 10.5t17.5 15.5l62 57h91l-144 -145h-103z" />
    <glyph glyph-name="Dcaron" unicode="&#x10e;" 
d="M31 0l114 720h212q53 0 94 -16t67 -45.5t36.5 -70.5t2.5 -92l-43 -271q-8 -51 -31.5 -92.5t-59 -71t-81.5 -45.5t-99 -16h-212zM155 100h103q58 0 98.5 34t49.5 91l43 271q8 56 -21.5 90t-86.5 34h-103zM220 955h86l44 -58q8 -9 12 -15.5t7 -10.5t4 -7h2q2 3 7 8
l10.5 10.5t17.5 15.5l62 57h91l-144 -145h-103z" />
    <glyph glyph-name="dcaron" unicode="&#x10f;" 
d="M36 207l21 138q8 50 27.5 89.5t48.5 67.5t66.5 43t79.5 15q60 0 95 -27.5t38 -77.5h9q1 17 3 34q2 15 3.5 31.5t3.5 29.5l27 170h110l-114 -720h-105l15 95h-9q-19 -50 -62.5 -77.5t-103.5 -27.5q-74 0 -115.5 44t-41.5 122q0 12 1 24.5t3 26.5zM244 86q52 0 88.5 33
t44.5 88l21 136q8 56 -17.5 89t-76.5 33q-55 0 -91.5 -32.5t-45.5 -89.5l-21 -135q-9 -56 17 -89t81 -33zM650 756h90l-92 -146h-70z" />
    <glyph glyph-name="Emacron" unicode="&#x112;" 
d="M155 720h434l-15 -96h-325l-33 -205h290l-15 -98h-290l-36 -224h325l-15 -97h-434zM255 935h273l-15 -93h-273z" />
    <glyph glyph-name="emacron" unicode="&#x113;" 
d="M248 -10q-52 0 -92 15t-65.5 43t-35.5 67t-2 88l23 144q8 49 30 88.5t56.5 67t79 42.5t97.5 15q52 0 91.5 -15t65 -43t36 -67.5t2.5 -87.5l-16 -101h-351l-6 -39q-9 -60 18 -93.5t84 -33.5q42 0 75 14t51 39h107q-14 -32 -38.5 -58.5t-56.5 -45t-71 -29t-82 -10.5z
M423 325l4 22q11 58 -17 90.5t-86 32.5q-57 0 -93 -32.5t-47 -90.5l-4 -22h243zM235 775h273l-15 -93h-273z" />
    <glyph glyph-name="Ebreve" unicode="&#x114;" 
d="M155 720h434l-15 -96h-325l-33 -205h290l-15 -98h-290l-36 -224h325l-15 -97h-434zM213 950h87q-5 -32 14.5 -50t58.5 -18t65 18t32 50h89q-5 -32 -21.5 -58.5t-42 -45t-59.5 -28.5t-73 -10q-38 0 -68.5 10.5t-50 29t-28 45t-3.5 57.5z" />
    <glyph glyph-name="ebreve" unicode="&#x115;" 
d="M248 -10q-52 0 -92 15t-65.5 43t-35.5 67t-2 88l23 144q8 49 30 88.5t56.5 67t79 42.5t97.5 15q52 0 91.5 -15t65 -43t36 -67.5t2.5 -87.5l-16 -101h-351l-6 -39q-9 -60 18 -93.5t84 -33.5q42 0 75 14t51 39h107q-14 -32 -38.5 -58.5t-56.5 -45t-71 -29t-82 -10.5z
M423 325l4 22q11 58 -17 90.5t-86 32.5q-57 0 -93 -32.5t-47 -90.5l-4 -22h243zM213 790h87q-5 -32 14.5 -50t58.5 -18t65 18t32 50h89q-5 -32 -21.5 -58.5t-42 -45t-59.5 -28.5t-73 -10q-38 0 -68.5 10.5t-50 29t-28 45t-3.5 57.5z" />
    <glyph glyph-name="Edotaccent" unicode="&#x116;" 
d="M155 720h434l-15 -96h-325l-33 -205h290l-15 -98h-290l-36 -224h325l-15 -97h-434zM310 900q5 29 26.5 47t52.5 18h23q31 0 47 -17.5t11 -46.5t-26 -46t-52 -17h-23q-31 0 -47.5 16.5t-11.5 45.5z" />
    <glyph glyph-name="edotaccent" unicode="&#x117;" 
d="M248 -10q-52 0 -92 15t-65.5 43t-35.5 67t-2 88l23 144q8 49 30 88.5t56.5 67t79 42.5t97.5 15q52 0 91.5 -15t65 -43t36 -67.5t2.5 -87.5l-16 -101h-351l-6 -39q-9 -60 18 -93.5t84 -33.5q42 0 75 14t51 39h107q-14 -32 -38.5 -58.5t-56.5 -45t-71 -29t-82 -10.5z
M423 325l4 22q11 58 -17 90.5t-86 32.5q-57 0 -93 -32.5t-47 -90.5l-4 -22h243zM290 740q5 29 26.5 47t52.5 18h23q31 0 47 -17.5t11 -46.5t-26 -46t-52 -17h-23q-31 0 -47.5 16.5t-11.5 45.5z" />
    <glyph glyph-name="Eogonek" unicode="&#x118;" 
d="M155 720h434l-15 -96h-325l-33 -205h290l-15 -98h-290l-36 -224h325l-15 -97h-434zM256 -110q5 29 27.5 58t72.5 62h87l-16 -11q-36 -25 -53 -47t-20 -42q-3 -21 9 -33t36 -12h63l-11 -68h-84q-57 0 -87.5 25.5t-23.5 67.5z" />
    <glyph glyph-name="eogonek" unicode="&#x119;" 
d="M248 -10q-52 0 -92 15t-65.5 43t-35.5 67t-2 88l23 144q8 49 30 88.5t56.5 67t79 42.5t97.5 15q52 0 91.5 -15t65 -43t36 -67.5t2.5 -87.5l-16 -101h-351l-6 -39q-9 -60 18 -93.5t84 -33.5q42 0 75 14t51 39h107q-11 -26 -29.5 -48.5t-41.5 -39.5l-59 -47
q-30 -24 -44.5 -43.5t-17.5 -39.5q-4 -23 9 -36.5t39 -13.5h76l-10 -68h-99q-59 0 -89 26.5t-24 64.5q8 51 74 104q-8 -1 -16 -1.5t-16 -0.5zM423 325l4 22q11 58 -17 90.5t-86 32.5q-57 0 -93 -32.5t-47 -90.5l-4 -22h243z" />
    <glyph glyph-name="Ecaron" unicode="&#x11a;" 
d="M155 720h434l-15 -96h-325l-33 -205h290l-15 -98h-290l-36 -224h325l-15 -97h-434zM220 955h86l44 -58q8 -9 12 -15.5t7 -10.5t4 -7h2q2 3 7 8l10.5 10.5t17.5 15.5l62 57h91l-144 -145h-103z" />
    <glyph glyph-name="ecaron" unicode="&#x11b;" 
d="M248 -10q-52 0 -92 15t-65.5 43t-35.5 67t-2 88l23 144q8 49 30 88.5t56.5 67t79 42.5t97.5 15q52 0 91.5 -15t65 -43t36 -67.5t2.5 -87.5l-16 -101h-351l-6 -39q-9 -60 18 -93.5t84 -33.5q42 0 75 14t51 39h107q-14 -32 -38.5 -58.5t-56.5 -45t-71 -29t-82 -10.5z
M423 325l4 22q11 58 -17 90.5t-86 32.5q-57 0 -93 -32.5t-47 -90.5l-4 -22h243zM220 795h86l44 -58q8 -9 12 -15.5t7 -10.5t4 -7h2q2 3 7 8l10.5 10.5t17.5 15.5l62 57h91l-144 -145h-103z" />
    <glyph glyph-name="Gcircumflex" unicode="&#x11c;" 
d="M52 208l49 304q8 50 30.5 89.5t56.5 68t79 43.5t98 15q97 0 150 -49t54 -140h-111q-1 42 -29.5 66.5t-78.5 24.5q-56 0 -93.5 -31.5t-46.5 -86.5l-48 -304q-9 -57 18.5 -89t83.5 -32t93.5 32t46.5 89l12 76h-135l15 96h245l-27 -172q-8 -50 -30.5 -90.5t-57 -69
t-80 -43.5t-98.5 -15q-52 0 -92 15.5t-65.5 44t-35.5 69t-3 89.5zM337 955h103l95 -145h-85l-43 57q-7 10 -11.5 16.5t-7.5 10.5t-4 7h-3q-2 -3 -7 -7q-4 -5 -10 -11t-17 -15l-63 -58h-92z" />
    <glyph glyph-name="gcircumflex" unicode="&#x11d;" 
d="M210 42q-43 0 -75 15t-52.5 42.5t-27.5 66.5t0 87l15 95q8 48 27 87.5t48 67t66.5 42.5t80.5 15q61 0 97.5 -29t40.5 -81h7l16 100h104l-81 -517q-7 -47 -29 -84.5t-55 -64t-76.5 -40.5t-95.5 -14h-142l15 94h142q54 0 88.5 29t42.5 80l3 19l20 100h-6q-20 -52 -66 -81
t-107 -29zM166 255q-9 -55 18 -86.5t81 -31.5t91 31.5t45 86.5l14 92q8 55 -18 86.5t-80 31.5t-90.5 -31.5t-45.5 -86.5zM337 795h103l95 -145h-85l-43 57q-7 10 -11.5 16.5t-7.5 10.5t-4 7h-3q-2 -3 -7 -7q-4 -5 -10 -11t-17 -15l-63 -58h-92z" />
    <glyph glyph-name="Gbreve" unicode="&#x11e;" 
d="M52 208l49 304q8 50 30.5 89.5t56.5 68t79 43.5t98 15q97 0 150 -49t54 -140h-111q-1 42 -29.5 66.5t-78.5 24.5q-56 0 -93.5 -31.5t-46.5 -86.5l-48 -304q-9 -57 18.5 -89t83.5 -32t93.5 32t46.5 89l12 76h-135l15 96h245l-27 -172q-8 -50 -30.5 -90.5t-57 -69
t-80 -43.5t-98.5 -15q-52 0 -92 15.5t-65.5 44t-35.5 69t-3 89.5zM213 950h87q-5 -32 14.5 -50t58.5 -18t65 18t32 50h89q-5 -32 -21.5 -58.5t-42 -45t-59.5 -28.5t-73 -10q-38 0 -68.5 10.5t-50 29t-28 45t-3.5 57.5z" />
    <glyph glyph-name="gbreve" unicode="&#x11f;" 
d="M210 42q-43 0 -75 15t-52.5 42.5t-27.5 66.5t0 87l15 95q8 48 27 87.5t48 67t66.5 42.5t80.5 15q61 0 97.5 -29t40.5 -81h7l16 100h104l-81 -517q-7 -47 -29 -84.5t-55 -64t-76.5 -40.5t-95.5 -14h-142l15 94h142q54 0 88.5 29t42.5 80l3 19l20 100h-6q-20 -52 -66 -81
t-107 -29zM166 255q-9 -55 18 -86.5t81 -31.5t91 31.5t45 86.5l14 92q8 55 -18 86.5t-80 31.5t-90.5 -31.5t-45.5 -86.5zM213 790h87q-5 -32 14.5 -50t58.5 -18t65 18t32 50h89q-5 -32 -21.5 -58.5t-42 -45t-59.5 -28.5t-73 -10q-38 0 -68.5 10.5t-50 29t-28 45t-3.5 57.5z
" />
    <glyph glyph-name="Gdotaccent" unicode="&#x120;" 
d="M52 208l49 304q8 50 30.5 89.5t56.5 68t79 43.5t98 15q97 0 150 -49t54 -140h-111q-1 42 -29.5 66.5t-78.5 24.5q-56 0 -93.5 -31.5t-46.5 -86.5l-48 -304q-9 -57 18.5 -89t83.5 -32t93.5 32t46.5 89l12 76h-135l15 96h245l-27 -172q-8 -50 -30.5 -90.5t-57 -69
t-80 -43.5t-98.5 -15q-52 0 -92 15.5t-65.5 44t-35.5 69t-3 89.5zM317 900q5 29 26.5 47t52.5 18h23q31 0 47 -17.5t11 -46.5t-26 -46t-52 -17h-23q-31 0 -47.5 16.5t-11.5 45.5z" />
    <glyph glyph-name="gdotaccent" unicode="&#x121;" 
d="M210 42q-43 0 -75 15t-52.5 42.5t-27.5 66.5t0 87l15 95q8 48 27 87.5t48 67t66.5 42.5t80.5 15q61 0 97.5 -29t40.5 -81h7l16 100h104l-81 -517q-7 -47 -29 -84.5t-55 -64t-76.5 -40.5t-95.5 -14h-142l15 94h142q54 0 88.5 29t42.5 80l3 19l20 100h-6q-20 -52 -66 -81
t-107 -29zM166 255q-9 -55 18 -86.5t81 -31.5t91 31.5t45 86.5l14 92q8 55 -18 86.5t-80 31.5t-90.5 -31.5t-45.5 -86.5zM286 740q5 29 26.5 47t52.5 18h23q31 0 47 -17.5t11 -46.5t-26 -46t-52 -17h-23q-31 0 -47.5 16.5t-11.5 45.5z" />
    <glyph glyph-name="Hcircumflex" unicode="&#x124;" 
d="M32 0l114 720h110l-47 -295h214l47 295h110l-114 -720h-110l51 324h-214l-51 -324h-110zM337 955h103l95 -145h-85l-43 57q-7 10 -11.5 16.5t-7.5 10.5t-4 7h-3q-2 -3 -7 -7q-4 -5 -10 -11t-17 -15l-63 -58h-92z" />
    <glyph glyph-name="hcircumflex" unicode="&#x125;" 
d="M29 0l114 720h110l-27 -170q-2 -14 -6 -30.5t-7.5 -31t-5.5 -24l-2 -9.5h9q18 50 61 77.5t103 27.5q41 0 72 -14.5t50.5 -40.5t27 -62.5t0.5 -80.5l-58 -362h-109l55 347q8 56 -16 87.5t-75 31.5q-52 0 -87.5 -33t-44.5 -90l-54 -343h-110zM240 955h103l95 -145h-85
l-43 57q-7 10 -11.5 16.5t-7.5 10.5t-4 7h-3q-2 -3 -7 -7q-4 -5 -10 -11t-17 -15l-63 -58h-92z" />
    <glyph glyph-name="Itilde" unicode="&#x128;" 
d="M39 0l15 96h156l84 528h-156l15 96h422l-15 -96h-156l-84 -528h156l-15 -96h-422zM170 812l4 25q9 56 44 87t87 31q33 0 53.5 -12t36 -26.5t30 -26.5t35.5 -12q18 0 31 12t18 34l3 26h72l-4 -25q-9 -56 -43.5 -87t-86.5 -31q-33 0 -53.5 12t-36 26t-30 26t-35.5 12
q-18 0 -31.5 -12t-17.5 -35l-4 -24h-72z" />
    <glyph glyph-name="itilde" unicode="&#x129;" 
d="M54 100h199l55 351h-173l16 99h279l-71 -450h162l-16 -100h-467zM170 652l4 25q9 56 44 87t87 31q33 0 53.5 -12t36 -26.5t30 -26.5t35.5 -12q18 0 31 12t18 34l3 26h72l-4 -25q-9 -56 -43.5 -87t-86.5 -31q-33 0 -53.5 12t-36 26t-30 26t-35.5 12q-18 0 -31.5 -12
t-17.5 -35l-4 -24h-72z" />
    <glyph glyph-name="Imacron" unicode="&#x12a;" 
d="M39 0l15 96h156l84 528h-156l15 96h422l-15 -96h-156l-84 -528h156l-15 -96h-422zM255 935h273l-15 -93h-273z" />
    <glyph glyph-name="imacron" unicode="&#x12b;" 
d="M54 100h199l55 351h-173l16 99h279l-71 -450h162l-16 -100h-467zM235 775h273l-15 -93h-273z" />
    <glyph glyph-name="Iogonek" unicode="&#x12e;" 
d="M39 0l15 96h156l84 528h-156l15 96h422l-15 -96h-156l-84 -528h156l-15 -96h-422zM126 -110q5 29 27.5 58t72.5 62h87l-16 -11q-36 -25 -53 -47t-20 -42q-3 -21 9 -33t36 -12h63l-11 -68h-84q-57 0 -87.5 25.5t-23.5 67.5z" />
    <glyph glyph-name="iogonek" unicode="&#x12f;" 
d="M348 0l-3 -2q-32 -21 -45.5 -42t-17.5 -41q-3 -23 10 -36.5t39 -13.5h76l-11 -68h-99q-58 0 -88 26.5t-24 64.5q7 50 75 104l10 8h-232l16 100h199l55 351h-173l16 99h279l-71 -450h162l-16 -100h-157zM308 700q5 29 26 47t52 18h24q31 0 47 -17.5t11 -46.5t-26.5 -46
t-52.5 -17h-23q-31 0 -47 16.5t-11 45.5z" />
    <glyph glyph-name="Idotaccent" unicode="&#x130;" 
d="M39 0l15 96h156l84 528h-156l15 96h422l-15 -96h-156l-84 -528h156l-15 -96h-422zM317 900q5 29 26.5 47t52.5 18h23q31 0 47 -17.5t11 -46.5t-26 -46t-52 -17h-23q-31 0 -47.5 16.5t-11.5 45.5z" />
    <glyph glyph-name="Nacute" unicode="&#x143;" 
d="M140 720h137l104 -480q4 -17 6 -39t4 -42q2 -24 3 -49h10l0.5 13t1.5 34t3 47t6 52l73 464h100l-114 -720h-136l-102 481q-4 20 -6.5 43t-4.5 42q-2 23 -3 45h-10q0 -21 -1 -44q-2 -20 -4 -46t-7 -55l-74 -466h-100zM451.502 956h-123.992l-98.4912 -146h102.993z" />
    <glyph glyph-name="nacute" unicode="&#x144;" 
d="M29 0l87 550h104l-15 -95h9q18 50 61 77.5t103 27.5q40 0 71 -14.5t50.5 -41t27 -63.5t0.5 -82l-57 -359h-109l55 347q8 57 -15 88t-74 31t-86 -29.5t-46 -81.5l-56 -355h-110zM451.502 796h-123.992l-98.4912 -146h102.993z" />
    <glyph glyph-name="Ncaron" unicode="&#x147;" 
d="M140 720h137l104 -480q4 -17 6 -39t4 -42q2 -24 3 -49h10l0.5 13t1.5 34t3 47t6 52l73 464h100l-114 -720h-136l-102 481q-4 20 -6.5 43t-4.5 42q-2 23 -3 45h-10q0 -21 -1 -44q-2 -20 -4 -46t-7 -55l-74 -466h-100zM220 955h86l44 -58q8 -9 12 -15.5t7 -10.5t4 -7h2
q2 3 7 8l10.5 10.5t17.5 15.5l62 57h91l-144 -145h-103z" />
    <glyph glyph-name="ncaron" unicode="&#x148;" 
d="M29 0l87 550h104l-15 -95h9q18 50 61 77.5t103 27.5q40 0 71 -14.5t50.5 -41t27 -63.5t0.5 -82l-57 -359h-109l55 347q8 57 -15 88t-74 31t-86 -29.5t-46 -81.5l-56 -355h-110zM220 795h86l44 -58q8 -9 12 -15.5t7 -10.5t4 -7h2q2 3 7 8l10.5 10.5t17.5 15.5l62 57h91
l-144 -145h-103z" />
    <glyph glyph-name="Omacron" unicode="&#x14c;" 
d="M248 -10q-52 0 -92 15.5t-65.5 44t-35.5 69t-3 89.5l49 305q17 101 87 159t178 58q52 0 92 -15.5t65.5 -44t36 -68.5t2.5 -89l-49 -305q-8 -50 -30.5 -90.5t-57 -69t-79.5 -43.5t-98 -15zM162 208q-9 -56 18.5 -88.5t83.5 -32.5q55 0 93 32.5t47 88.5l48 305
q9 56 -18.5 88.5t-83.5 32.5q-55 0 -93 -32.5t-46 -88.5zM235 935h273l-15 -93h-273z" />
    <glyph glyph-name="omacron" unicode="&#x14d;" 
d="M248 -10q-52 0 -92 15t-65.5 43.5t-35.5 68.5t-2 90l22 137q8 50 30 90t56.5 68t79.5 43t98 15t92.5 -15t65 -43t35.5 -68t2 -90l-21 -137q-17 -101 -87 -159t-178 -58zM162 207q-9 -56 18 -88t84 -32q56 0 93.5 31.5t46.5 88.5l21 137q8 56 -19 88t-83 32
q-55 0 -92.5 -32.5t-46.5 -87.5zM234 775h273l-15 -93h-273z" />
    <glyph glyph-name="Obreve" unicode="&#x14e;" 
d="M248 -10q-52 0 -92 15.5t-65.5 44t-35.5 69t-3 89.5l49 305q17 101 87 159t178 58q52 0 92 -15.5t65.5 -44t36 -68.5t2.5 -89l-49 -305q-8 -50 -30.5 -90.5t-57 -69t-79.5 -43.5t-98 -15zM162 208q-9 -56 18.5 -88.5t83.5 -32.5q55 0 93 32.5t47 88.5l48 305
q9 56 -18.5 88.5t-83.5 32.5q-55 0 -93 -32.5t-46 -88.5zM218 950h87q-5 -32 14.5 -50t58.5 -18t65 18t32 50h89q-5 -32 -21.5 -58.5t-42 -45t-59.5 -28.5t-73 -10q-38 0 -68.5 10.5t-50 29t-28 45t-3.5 57.5z" />
    <glyph glyph-name="obreve" unicode="&#x14f;" 
d="M248 -10q-52 0 -92 15t-65.5 43.5t-35.5 68.5t-2 90l22 137q8 50 30 90t56.5 68t79.5 43t98 15t92.5 -15t65 -43t35.5 -68t2 -90l-21 -137q-17 -101 -87 -159t-178 -58zM162 207q-9 -56 18 -88t84 -32q56 0 93.5 31.5t46.5 88.5l21 137q8 56 -19 88t-83 32
q-55 0 -92.5 -32.5t-46.5 -87.5zM218 790h87q-5 -32 14.5 -50t58.5 -18t65 18t32 50h89q-5 -32 -21.5 -58.5t-42 -45t-59.5 -28.5t-73 -10q-38 0 -68.5 10.5t-50 29t-28 45t-3.5 57.5z" />
    <glyph glyph-name="Ohungarumlaut" unicode="&#x150;" 
d="M248 -10q-52 0 -92 15.5t-65.5 44t-35.5 69t-3 89.5l49 305q17 101 87 159t178 58q52 0 92 -15.5t65.5 -44t36 -68.5t2.5 -89l-49 -305q-8 -50 -30.5 -90.5t-57 -69t-79.5 -43.5t-98 -15zM162 208q-9 -56 18.5 -88.5t83.5 -32.5q55 0 93 32.5t47 88.5l48 305
q9 56 -18.5 88.5t-83.5 32.5q-55 0 -93 -32.5t-46 -88.5zM416.165 956h-123.992l-129.243 -146h102.993zM626.165 956h-123.992l-129.243 -146h102.993z" />
    <glyph glyph-name="ohungarumlaut" unicode="&#x151;" 
d="M248 -10q-52 0 -92 15t-65.5 43.5t-35.5 68.5t-2 90l22 137q8 50 30 90t56.5 68t79.5 43t98 15t92.5 -15t65 -43t35.5 -68t2 -90l-21 -137q-17 -101 -87 -159t-178 -58zM162 207q-9 -56 18 -88t84 -32q56 0 93.5 31.5t46.5 88.5l21 137q8 56 -19 88t-83 32
q-55 0 -92.5 -32.5t-46.5 -87.5zM416.165 796h-123.992l-129.243 -146h102.993zM626.165 796h-123.992l-129.243 -146h102.993z" />
    <glyph glyph-name="Racute" unicode="&#x154;" 
d="M146 720h233q52 0 92 -15.5t65.5 -43t36 -67t2.5 -87.5q-12 -75 -56.5 -127t-112.5 -73l99 -307h-119l-89 293h-109l-47 -293h-109zM202 385h124q54 0 91.5 33t45.5 87t-18.5 87t-80.5 33h-124zM451.502 956h-123.992l-98.4912 -146h102.993z" />
    <glyph glyph-name="racute" unicode="&#x155;" 
d="M52 0l87 550h103l-15 -95h8q19 50 64 77.5t106 27.5q88 0 128 -55.5t26 -150.5l-6 -39h-112l5 28q11 58 -16 91t-81 33q-52 0 -87.5 -32.5t-45.5 -87.5l-55 -347h-109zM451.502 796h-123.992l-98.4912 -146h102.993z" />
    <glyph glyph-name="Rcaron" unicode="&#x158;" 
d="M146 720h233q52 0 92 -15.5t65.5 -43t36 -67t2.5 -87.5q-12 -75 -56.5 -127t-112.5 -73l99 -307h-119l-89 293h-109l-47 -293h-109zM202 385h124q54 0 91.5 33t45.5 87t-18.5 87t-80.5 33h-124zM220 955h86l44 -58q8 -9 12 -15.5t7 -10.5t4 -7h2q2 3 7 8l10.5 10.5
t17.5 15.5l62 57h91l-144 -145h-103z" />
    <glyph glyph-name="rcaron" unicode="&#x159;" 
d="M52 0l87 550h103l-15 -95h8q19 50 64 77.5t106 27.5q88 0 128 -55.5t26 -150.5l-6 -39h-112l5 28q11 58 -16 91t-81 33q-52 0 -87.5 -32.5t-45.5 -87.5l-55 -347h-109zM220 795h86l44 -58q8 -9 12 -15.5t7 -10.5t4 -7h2q2 3 7 8l10.5 10.5t17.5 15.5l62 57h91l-144 -145
h-103z" />
    <glyph glyph-name="Sacute" unicode="&#x15a;" 
d="M42 188h113q-6 -45 24.5 -73t86.5 -28q60 0 97.5 26t44.5 72q6 41 -14.5 72t-63.5 46l-72 25q-81 26 -118.5 80t-26.5 126q14 93 81.5 144.5t174.5 51.5q49 0 87.5 -14t64 -39.5t36.5 -61t6 -79.5h-113q6 44 -21.5 71t-76.5 27q-53 0 -86.5 -25t-40.5 -69q-6 -38 13 -66
t63 -42l76 -25q81 -26 117.5 -82t23.5 -134q-7 -47 -29 -84t-57 -63t-81.5 -40t-102.5 -14q-52 0 -92.5 14.5t-67.5 40.5t-39.5 62.5t-6.5 80.5zM451.502 956h-123.992l-98.4912 -146h102.993z" />
    <glyph glyph-name="sacute" unicode="&#x15b;" 
d="M42 138h108q2 -27 27.5 -43t66.5 -16h35q50 0 80 20t36 55q11 62 -75 74l-79 11q-169 21 -146 161q12 76 71.5 118t156.5 42h36q85 0 133 -38t47 -105h-109q-2 25 -24.5 39.5t-60.5 14.5h-36q-46 0 -74.5 -17.5t-33.5 -52.5q-9 -58 68 -68l80 -11q177 -24 154 -165
q-13 -81 -74.5 -124t-163.5 -43h-35q-89 0 -139.5 39.5t-48.5 108.5zM451.502 796h-123.992l-98.4912 -146h102.993z" />
    <glyph glyph-name="Scircumflex" unicode="&#x15c;" 
d="M42 188h113q-6 -45 24.5 -73t86.5 -28q60 0 97.5 26t44.5 72q6 41 -14.5 72t-63.5 46l-72 25q-81 26 -118.5 80t-26.5 126q14 93 81.5 144.5t174.5 51.5q49 0 87.5 -14t64 -39.5t36.5 -61t6 -79.5h-113q6 44 -21.5 71t-76.5 27q-53 0 -86.5 -25t-40.5 -69q-6 -38 13 -66
t63 -42l76 -25q81 -26 117.5 -82t23.5 -134q-7 -47 -29 -84t-57 -63t-81.5 -40t-102.5 -14q-52 0 -92.5 14.5t-67.5 40.5t-39.5 62.5t-6.5 80.5zM337 955h103l95 -145h-85l-43 57q-7 10 -11.5 16.5t-7.5 10.5t-4 7h-3q-2 -3 -7 -7q-4 -5 -10 -11t-17 -15l-63 -58h-92z" />
    <glyph glyph-name="scircumflex" unicode="&#x15d;" 
d="M42 138h108q2 -27 27.5 -43t66.5 -16h35q50 0 80 20t36 55q11 62 -75 74l-79 11q-169 21 -146 161q12 76 71.5 118t156.5 42h36q85 0 133 -38t47 -105h-109q-2 25 -24.5 39.5t-60.5 14.5h-36q-46 0 -74.5 -17.5t-33.5 -52.5q-9 -58 68 -68l80 -11q177 -24 154 -165
q-13 -81 -74.5 -124t-163.5 -43h-35q-89 0 -139.5 39.5t-48.5 108.5zM337 795h103l95 -145h-85l-43 57q-7 10 -11.5 16.5t-7.5 10.5t-4 7h-3q-2 -3 -7 -7q-4 -5 -10 -11t-17 -15l-63 -58h-92z" />
    <glyph glyph-name="Scedilla" unicode="&#x15e;" 
d="M42 188h113q-6 -45 24.5 -73t86.5 -28q60 0 97.5 26t44.5 72q6 41 -14.5 72t-63.5 46l-72 25q-81 26 -118.5 80t-26.5 126q14 93 81.5 144.5t174.5 51.5q49 0 87.5 -14t64 -39.5t36.5 -61t6 -79.5h-113q6 44 -21.5 71t-76.5 27q-53 0 -86.5 -25t-40.5 -69q-6 -38 13 -66
t63 -42l76 -25q81 -26 117.5 -82t23.5 -134q-7 -47 -29 -84t-57 -63t-81.5 -40t-102.5 -14q-52 0 -92.5 14.5t-67.5 40.5t-39.5 62.5t-6.5 80.5zM174 -134q8 -1 19 -2q9 -1 23 -1.5t31 -0.5q21 0 35.5 7.5t16.5 20.5q4 20 -23 31t-78 11l55 94h64l-36 -61q35 -3 62 -14
q11 -4 21.5 -10.5t18.5 -15t11.5 -20t1.5 -25.5q-5 -34 -43.5 -55.5t-95.5 -21.5q-26 0 -43.5 0.5t-28.5 1.5q-13 2 -20 3z" />
    <glyph glyph-name="scedilla" unicode="&#x15f;" 
d="M42 138h108q2 -27 27.5 -43t66.5 -16h35q50 0 80 20t36 55q11 62 -75 74l-79 11q-169 21 -146 161q12 76 71.5 118t156.5 42h36q85 0 133 -38t47 -105h-109q-2 25 -24.5 39.5t-60.5 14.5h-36q-46 0 -74.5 -17.5t-33.5 -52.5q-9 -58 68 -68l80 -11q177 -24 154 -165
q-13 -81 -74.5 -124t-163.5 -43h-35q-89 0 -139.5 39.5t-48.5 108.5zM174 -134q8 -1 19 -2q9 -1 23 -1.5t31 -0.5q21 0 35.5 7.5t16.5 20.5q4 20 -23 31t-78 11l55 94h64l-36 -61q35 -3 62 -14q11 -4 21.5 -10.5t18.5 -15t11.5 -20t1.5 -25.5q-5 -34 -43.5 -55.5
t-95.5 -21.5q-26 0 -43.5 0.5t-28.5 1.5q-13 2 -20 3z" />
    <glyph glyph-name="Tcaron" unicode="&#x164;" 
d="M106 720h516l-15 -99h-203l-98 -621h-112l99 621h-203zM220 955h86l44 -58q8 -9 12 -15.5t7 -10.5t4 -7h2q2 3 7 8l10.5 10.5t17.5 15.5l62 57h91l-144 -145h-103z" />
    <glyph glyph-name="Utilde" unicode="&#x168;" 
d="M248 -10q-51 0 -90 15t-63.5 42.5t-34 67.5t-1.5 90l82 515h110l-82 -515q-9 -56 16 -87t79 -31t88.5 30.5t43.5 87.5l82 515h109l-81 -515q-16 -103 -83.5 -159t-174.5 -56zM170 812l4 25q9 56 44 87t87 31q33 0 53.5 -12t36 -26.5t30 -26.5t35.5 -12q18 0 31 12t18 34
l3 26h72l-4 -25q-9 -56 -43.5 -87t-86.5 -31q-33 0 -53.5 12t-36 26t-30 26t-35.5 12q-18 0 -31.5 -12t-17.5 -35l-4 -24h-72z" />
    <glyph glyph-name="utilde" unicode="&#x169;" 
d="M65 201l55 349h110l-57 -349q-19 -115 90 -115t127 115l56 349h108l-55 -349q-16 -101 -81 -156t-170 -55q-102 0 -150.5 56t-32.5 155zM170 652l4 25q9 56 44 87t87 31q33 0 53.5 -12t36 -26.5t30 -26.5t35.5 -12q18 0 31 12t18 34l3 26h72l-4 -25q-9 -56 -43.5 -87
t-86.5 -31q-33 0 -53.5 12t-36 26t-30 26t-35.5 12q-18 0 -31.5 -12t-17.5 -35l-4 -24h-72z" />
    <glyph glyph-name="Umacron" unicode="&#x16a;" 
d="M248 -10q-51 0 -90 15t-63.5 42.5t-34 67.5t-1.5 90l82 515h110l-82 -515q-9 -56 16 -87t79 -31t88.5 30.5t43.5 87.5l82 515h109l-81 -515q-16 -103 -83.5 -159t-174.5 -56zM234 935h273l-15 -93h-273z" />
    <glyph glyph-name="umacron" unicode="&#x16b;" 
d="M65 201l55 349h110l-57 -349q-19 -115 90 -115t127 115l56 349h108l-55 -349q-16 -101 -81 -156t-170 -55q-102 0 -150.5 56t-32.5 155zM234 775h273l-15 -93h-273z" />
    <glyph glyph-name="Ubreve" unicode="&#x16c;" 
d="M248 -10q-51 0 -90 15t-63.5 42.5t-34 67.5t-1.5 90l82 515h110l-82 -515q-9 -56 16 -87t79 -31t88.5 30.5t43.5 87.5l82 515h109l-81 -515q-16 -103 -83.5 -159t-174.5 -56zM217 950h87q-5 -32 14.5 -50t58.5 -18t65 18t32 50h89q-5 -32 -21.5 -58.5t-42 -45
t-59.5 -28.5t-73 -10q-38 0 -68.5 10.5t-50 29t-28 45t-3.5 57.5z" />
    <glyph glyph-name="ubreve" unicode="&#x16d;" 
d="M65 201l55 349h110l-57 -349q-19 -115 90 -115t127 115l56 349h108l-55 -349q-16 -101 -81 -156t-170 -55q-102 0 -150.5 56t-32.5 155zM218 790h87q-5 -32 14.5 -50t58.5 -18t65 18t32 50h89q-5 -32 -21.5 -58.5t-42 -45t-59.5 -28.5t-73 -10q-38 0 -68.5 10.5t-50 29
t-28 45t-3.5 57.5z" />
    <glyph glyph-name="Uring" unicode="&#x16e;" 
d="M248 -10q-51 0 -90 15t-63.5 42.5t-34 67.5t-1.5 90l82 515h110l-82 -515q-9 -56 16 -87t79 -31t88.5 30.5t43.5 87.5l82 515h109l-81 -515q-16 -103 -83.5 -159t-174.5 -56zM276 868q7 46 45 74t94 28t85 -28t22 -74t-45 -73.5t-94 -27.5t-85.5 27.5t-21.5 73.5z
M390 819q28 0 47 13.5t22 35.5q4 25 -10 38t-43 13q-26 0 -44.5 -14t-22.5 -37q-4 -22 10.5 -35.5t40.5 -13.5z" />
    <glyph glyph-name="uring" unicode="&#x16f;" 
d="M65 201l55 349h110l-57 -349q-19 -115 90 -115t127 115l56 349h108l-55 -349q-16 -101 -81 -156t-170 -55q-102 0 -150.5 56t-32.5 155zM236 708q7 46 45 74t94 28t85 -28t22 -74t-45 -73.5t-94 -27.5t-85.5 27.5t-21.5 73.5zM350 659q28 0 47 13.5t22 35.5q4 25 -10 38
t-43 13q-26 0 -44.5 -14t-22.5 -37q-4 -22 10.5 -35.5t40.5 -13.5z" />
    <glyph glyph-name="Wcircumflex" unicode="&#x174;" 
d="M84 720h98l-37 -510q-2 -20 -5 -44.5t-6 -45.5q-3 -25 -7 -50h13l10 50q5 21 10.5 45.5t11.5 44.5l144 510h97l-20 -510q-1 -20 -2.5 -44t-3.5 -46q-2 -25 -5 -50h13l10 50q5 21 10 45.5t10 44.5l123 510h95l-186 -720h-137l23 511q2 26 4.5 50.5t5.5 44.5q3 24 7 45h-16
q-3 -21 -7 -45q-3 -20 -8 -44.5t-13 -50.5l-139 -511h-136zM340 955h103l95 -145h-85l-43 57q-7 10 -11.5 16.5t-7.5 10.5t-4 7h-3q-2 -3 -7 -7q-4 -5 -10 -11t-17 -15l-63 -58h-92z" />
    <glyph glyph-name="wcircumflex" unicode="&#x175;" 
d="M61 550h88l-11 -357q0 -17 -1.5 -40t-3.5 -44q-2 -25 -5 -50h12q6 25 13 50q5 21 12 44t12 40l114 357h89v-357q0 -18 -0.5 -41t-1.5 -44q-2 -24 -3 -49h12q6 25 12 49q5 21 11 44.5t11 40.5l102 357h91l-164 -550h-134l2 370q0 16 2 36t4 37q2 20 5 41h-12
q-3 -21 -7 -41q-3 -17 -7.5 -37t-9.5 -36l-114 -370h-130zM340 795h103l95 -145h-85l-43 57q-7 10 -11.5 16.5t-7.5 10.5t-4 7h-3q-2 -3 -7 -7q-4 -5 -10 -11t-17 -15l-63 -58h-92z" />
    <glyph glyph-name="Ycircumflex" unicode="&#x176;" 
d="M200 720l87 -296q5 -16 7.5 -31t3.5 -27q2 -13 2 -25h5q3 12 9 25q5 12 11.5 27t15.5 31l179 296h119l-294 -470l-40 -250h-110l40 250l-146 470h111zM344 955h103l95 -145h-85l-43 57q-7 10 -11.5 16.5t-7.5 10.5t-4 7h-3q-2 -3 -7 -7q-4 -5 -10 -11t-17 -15l-63 -58
h-92z" />
    <glyph glyph-name="ycircumflex" unicode="&#x177;" 
d="M69 241l49 309h108l-46 -290q-9 -56 15.5 -88t75.5 -32t86 31.5t44 85.5l47 293h108l-87 -535q-14 -87 -74 -136t-154 -49h-158l15 95h152q46 0 75 23.5t36 66.5l7 43l20 92h-8q-19 -50 -61 -76.5t-101 -26.5q-82 0 -122.5 52.5t-26.5 141.5zM340 795h103l95 -145h-85
l-43 57q-7 10 -11.5 16.5t-7.5 10.5t-4 7h-3q-2 -3 -7 -7q-4 -5 -10 -11t-17 -15l-63 -58h-92z" />
    <glyph glyph-name="Zacute" unicode="&#x179;" 
d="M571 720l-16 -101l-384 -524l71 4h242l-16 -99h-436l16 100l383 523v2l-73 -4h-220l16 99h417zM468.502 956h-123.992l-98.4912 -146h102.993z" />
    <glyph glyph-name="zacute" unicode="&#x17a;" 
d="M25 0l18 114l363 339l1 6q-11 -1 -24 -2q-22 -3 -57 -3h-221l15 96h431l-18 -115l-366 -339l-1 -6q12 2 26 3q11 2 26 2.5t30 0.5h242l-15 -96h-450zM468.502 796h-123.992l-98.4912 -146h102.993z" />
    <glyph glyph-name="Zdotaccent" unicode="&#x17b;" 
d="M571 720l-16 -101l-384 -524l71 4h242l-16 -99h-436l16 100l383 523v2l-73 -4h-220l16 99h417zM309 900q5 29 26.5 47t52.5 18h23q31 0 47 -17.5t11 -46.5t-26 -46t-52 -17h-23q-31 0 -47.5 16.5t-11.5 45.5z" />
    <glyph glyph-name="zdotaccent" unicode="&#x17c;" 
d="M25 0l18 114l363 339l1 6q-11 -1 -24 -2q-22 -3 -57 -3h-221l15 96h431l-18 -115l-366 -339l-1 -6q12 2 26 3q11 2 26 2.5t30 0.5h242l-15 -96h-450zM280 740q5 29 26.5 47t52.5 18h23q31 0 47 -17.5t11 -46.5t-26 -46t-52 -17h-23q-31 0 -47.5 16.5t-11.5 45.5z" />
    <glyph glyph-name="Wgrave" unicode="&#x1e80;" 
d="M84 720h98l-37 -510q-2 -20 -5 -44.5t-6 -45.5q-3 -25 -7 -50h13l10 50q5 21 10.5 45.5t11.5 44.5l144 510h97l-20 -510q-1 -20 -2.5 -44t-3.5 -46q-2 -25 -5 -50h13l10 50q5 21 10 45.5t10 44.5l123 510h95l-186 -720h-137l23 511q2 26 4.5 50.5t5.5 44.5q3 24 7 45h-16
q-3 -21 -7 -45q-3 -20 -8 -44.5t-13 -50.5l-139 -511h-136zM239 956h124l83 -146h-103z" />
    <glyph glyph-name="wgrave" unicode="&#x1e81;" 
d="M61 550h88l-11 -357q0 -17 -1.5 -40t-3.5 -44q-2 -25 -5 -50h12q6 25 13 50q5 21 12 44t12 40l114 357h89v-357q0 -18 -0.5 -41t-1.5 -44q-2 -24 -3 -49h12q6 25 12 49q5 21 11 44.5t11 40.5l102 357h91l-164 -550h-134l2 370q0 16 2 36t4 37q2 20 5 41h-12
q-3 -21 -7 -41q-3 -17 -7.5 -37t-9.5 -36l-114 -370h-130zM239 796h124l83 -146h-103z" />
    <glyph glyph-name="Wacute" unicode="&#x1e82;" 
d="M84 720h98l-37 -510q-2 -20 -5 -44.5t-6 -45.5q-3 -25 -7 -50h13l10 50q5 21 10.5 45.5t11.5 44.5l144 510h97l-20 -510q-1 -20 -2.5 -44t-3.5 -46q-2 -25 -5 -50h13l10 50q5 21 10 45.5t10 44.5l123 510h95l-186 -720h-137l23 511q2 26 4.5 50.5t5.5 44.5q3 24 7 45h-16
q-3 -21 -7 -45q-3 -20 -8 -44.5t-13 -50.5l-139 -511h-136zM451.502 953h-123.992l-98.4912 -146h102.993z" />
    <glyph glyph-name="wacute" unicode="&#x1e83;" 
d="M61 550h88l-11 -357q0 -17 -1.5 -40t-3.5 -44q-2 -25 -5 -50h12q6 25 13 50q5 21 12 44t12 40l114 357h89v-357q0 -18 -0.5 -41t-1.5 -44q-2 -24 -3 -49h12q6 25 12 49q5 21 11 44.5t11 40.5l102 357h91l-164 -550h-134l2 370q0 16 2 36t4 37q2 20 5 41h-12
q-3 -21 -7 -41q-3 -17 -7.5 -37t-9.5 -36l-114 -370h-130zM451.502 793h-123.992l-98.4912 -146h102.993z" />
    <glyph glyph-name="Wdieresis" unicode="&#x1e84;" 
d="M84 720h98l-37 -510q-2 -20 -5 -44.5t-6 -45.5q-3 -25 -7 -50h13l10 50q5 21 10.5 45.5t11.5 44.5l144 510h97l-20 -510q-1 -20 -2.5 -44t-3.5 -46q-2 -25 -5 -50h13l10 50q5 21 10 45.5t10 44.5l123 510h95l-186 -720h-137l23 511q2 26 4.5 50.5t5.5 44.5q3 24 7 45h-16
q-3 -21 -7 -45q-3 -20 -8 -44.5t-13 -50.5l-139 -511h-136zM422 886q5 28 26 44.5t50 16.5t44 -16.5t10 -44.5q-5 -29 -25.5 -46t-49.5 -17t-44.5 17t-10.5 46zM219 886q5 28 25.5 44.5t49.5 16.5t44.5 -16.5t10.5 -44.5q-5 -29 -25.5 -46t-49.5 -17t-44.5 17t-10.5 46z" />
    <glyph glyph-name="wdieresis" unicode="&#x1e85;" 
d="M61 550h88l-11 -357q0 -17 -1.5 -40t-3.5 -44q-2 -25 -5 -50h12q6 25 13 50q5 21 12 44t12 40l114 357h89v-357q0 -18 -0.5 -41t-1.5 -44q-2 -24 -3 -49h12q6 25 12 49q5 21 11 44.5t11 40.5l102 357h91l-164 -550h-134l2 370q0 16 2 36t4 37q2 20 5 41h-12
q-3 -21 -7 -41q-3 -17 -7.5 -37t-9.5 -36l-114 -370h-130zM422 726q5 28 26 44.5t50 16.5t44 -16.5t10 -44.5q-5 -29 -25.5 -46t-49.5 -17t-44.5 17t-10.5 46zM219 726q5 28 25.5 44.5t49.5 16.5t44.5 -16.5t10.5 -44.5q-5 -29 -25.5 -46t-49.5 -17t-44.5 17t-10.5 46z" />
    <glyph glyph-name="grave.case" 
d="M266 956h123l84 -146h-103z" />
    <glyph glyph-name="dieresis.case" 
d="M448 886q5 28 26 44.5t50 16.5t44 -16.5t10 -44.5q-5 -29 -25.5 -46t-49.5 -17t-44.5 17t-10.5 46zM245 886q5 28 25.5 44.5t49.5 16.5t44.5 -16.5t10.5 -44.5q-5 -29 -25.5 -46t-49.5 -17t-44.5 17t-10.5 46z" />
    <glyph glyph-name="macron.case" 
d="M262 935h273l-15 -93h-273z" />
    <glyph glyph-name="acute.case" 
d="M466 946l-134 -146h-103l114 146h123z" />
    <glyph glyph-name="circumflex.case" 
d="M337 955h103l95 -145h-85l-43 57q-7 10 -11.5 16.5t-7.5 10.5t-4 7h-3q-2 -3 -7 -7q-4 -5 -10 -11t-17 -15l-63 -58h-92z" />
    <glyph glyph-name="caron.case" 
d="M220 955h86l44 -58q8 -9 12 -15.5t7 -10.5t4 -7h2q2 3 7 8l10.5 10.5t17.5 15.5l62 57h91l-144 -145h-103z" />
    <glyph glyph-name="breve.case" 
d="M249 940h88q-11 -65 66 -65q38 0 62 16.5t29 48.5h88q-5 -31 -21.5 -56.5t-41.5 -43.5t-57 -28t-70 -10q-75 0 -114.5 37.5t-28.5 100.5z" />
    <glyph glyph-name="dotaccent.case" 
d="M266 900q5 29 26.5 47t52.5 18h23q31 0 47 -17.5t11 -46.5t-26 -46t-52 -17h-23q-31 0 -47.5 16.5t-11.5 45.5z" />
    <glyph glyph-name="ring.case" 
d="M276 868q7 46 45 74t94 28t85 -28t22 -74t-45 -73.5t-94 -27.5t-85.5 27.5t-21.5 73.5zM390 819q28 0 47 13.5t22 35.5q4 25 -10 38t-43 13q-26 0 -44.5 -14t-22.5 -37q-4 -22 10.5 -35.5t40.5 -13.5z" />
    <glyph glyph-name="tilde.case" 
d="M170 812l4 25q9 56 44 87t87 31q33 0 53.5 -12t36 -26.5t30 -26.5t35.5 -12q18 0 31 12t18 34l3 26h72l-4 -25q-9 -56 -43.5 -87t-86.5 -31q-33 0 -53.5 12t-36 26t-30 26t-35.5 12q-18 0 -31.5 -12t-17.5 -35l-4 -24h-72z" />
    <glyph glyph-name="hungarumlaut.case" 
d="M502 956h124l-150 -146h-103zM163 810l130 146h123l-150 -146h-103z" />
    <glyph glyph-name="caron.salt" 
d="M220 795h86l44 -58q8 -9 12 -15.5t7 -10.5t4 -7h2q2 3 7 8l10.5 10.5t17.5 15.5l62 57h91l-144 -145h-103z" />
    <glyph glyph-name="uni0326" 
d="M358 -94l-118 -146h-102l92 146h128z" />
    <glyph glyph-name="uni0326.salt" 
d="M358 -94l-118 -146h-102l92 146h128z" />
    <glyph glyph-name="Ldot" unicode="&#x13f;" 
d="M296 720l-98 -619h325l-16 -101h-435l114 720h110zM325 351q7 42 36 67.5t71 25.5t63 -25.5t14 -67.5t-36.5 -68t-71.5 -26t-63 26t-13 68z" />
    <glyph glyph-name="ldot" unicode="&#x140;" 
d="M381 351q7 42 36 67.5t71 25.5t63 -25.5t14 -67.5t-36.5 -68t-71.5 -26t-63 26t-13 68zM69 720h288l-87 -550q-5 -33 10 -51.5t47 -18.5h164l-16 -100h-169q-81 0 -120 45.5t-26 124.5l71 451h-178z" />
    <glyph glyph-name="degree" unicode="&#xb0;" 
d="M182 595q10 66 57.5 105.5t115.5 39.5t103 -39.5t24 -105.5t-58 -105.5t-115 -39.5t-103 39.5t-24 105.5zM317 506q39 0 66.5 24.5t33.5 64.5q6 41 -13.5 65.5t-58.5 24.5q-38 0 -64.5 -24.5t-33.5 -65.5q-7 -40 12.5 -64.5t57.5 -24.5z" />
    <glyph glyph-name="uni021B" unicode="&#x21b;" 
d="M89 550h155l27 170h110l-27 -170h211l-15 -99h-212l-46 -293q-5 -27 9 -42.5t43 -15.5h140l-16 -100h-145q-77 0 -114.5 43t-26.5 115l46 293h-155zM358 -94l-118 -146h-102l92 146h128z" />
    <glyph glyph-name="uni013B" unicode="&#x13b;" 
d="M296 720l-98 -619h325l-16 -101h-435l114 720h110zM358 -94l-118 -146h-102l92 146h128z" />
    <glyph glyph-name="uni0219" unicode="&#x219;" 
d="M42 138h108q2 -27 27.5 -43t66.5 -16h35q50 0 80 20t36 55q11 62 -75 74l-79 11q-169 21 -146 161q12 76 71.5 118t156.5 42h36q85 0 133 -38t47 -105h-109q-2 25 -24.5 39.5t-60.5 14.5h-36q-46 0 -74.5 -17.5t-33.5 -52.5q-9 -58 68 -68l80 -11q177 -24 154 -165
q-13 -81 -74.5 -124t-163.5 -43h-35q-89 0 -139.5 39.5t-48.5 108.5zM351 -94l-118 -146h-102l92 146h128z" />
    <glyph glyph-name="uni0146" unicode="&#x146;" 
d="M29 0l87 550h104l-15 -95h9q18 50 61 77.5t103 27.5q40 0 71 -14.5t50.5 -41t27 -63.5t0.5 -82l-57 -359h-109l55 347q8 57 -15 88t-74 31t-86 -29.5t-46 -81.5l-56 -355h-110zM351 -94l-118 -146h-102l92 146h128z" />
    <glyph glyph-name="uni021A" unicode="&#x21a;" 
d="M106 720h516l-15 -99h-203l-98 -621h-112l99 621h-203zM358 -94l-118 -146h-102l92 146h128z" />
    <glyph glyph-name="uni0145" unicode="&#x145;" 
d="M140 720h137l104 -480q4 -17 6 -39t4 -42q2 -24 3 -49h10l0.5 13t1.5 34t3 47t6 52l73 464h100l-114 -720h-136l-102 481q-4 20 -6.5 43t-4.5 42q-2 23 -3 45h-10q0 -21 -1 -44q-2 -20 -4 -46t-7 -55l-74 -466h-100zM358 -94l-118 -146h-102l92 146h128z" />
    <glyph glyph-name="uni0136" unicode="&#x136;" 
d="M146 720h110l-48 -298h103l197 298h124l-232 -351l127 -369h-120l-107 324h-107l-51 -324h-110zM358 -94l-118 -146h-102l92 146h128z" />
    <glyph glyph-name="uni0137" unicode="&#x137;" 
d="M35 0l116 730h110l-64 -403h96l185 223h126l-225 -272l141 -278h-126l-115 232h-97l-37 -232h-110zM358 -94l-118 -146h-102l92 146h128z" />
    <glyph glyph-name="uni0122" unicode="&#x122;" 
d="M52 208l49 304q8 50 30.5 89.5t56.5 68t79 43.5t98 15q97 0 150 -49t54 -140h-111q-1 42 -29.5 66.5t-78.5 24.5q-56 0 -93.5 -31.5t-46.5 -86.5l-48 -304q-9 -57 18.5 -89t83.5 -32t93.5 32t46.5 89l12 76h-135l15 96h245l-27 -172q-8 -50 -30.5 -90.5t-57 -69
t-80 -43.5t-98.5 -15q-52 0 -92 15.5t-65.5 44t-35.5 69t-3 89.5zM358 -94l-118 -146h-102l92 146h128z" />
    <glyph glyph-name="lacute" unicode="&#x13a;" 
d="M99 720h288l-87 -550q-5 -33 10 -51.5t47 -18.5h164l-16 -100h-169q-81 0 -120 45.5t-26 124.5l71 451h-178zM451.502 956h-123.992l-98.4912 -146h102.993z" />
    <glyph glyph-name="uni013C" unicode="&#x13c;" 
d="M99 720h288l-87 -550q-5 -33 10 -51.5t47 -18.5h164l-16 -100h-169q-81 0 -120 45.5t-26 124.5l71 451h-178zM358 -94l-118 -146h-102l92 146h128z" />
    <glyph glyph-name="uni0157" unicode="&#x157;" 
d="M52 0l87 550h103l-15 -95h8q19 50 64 77.5t106 27.5q88 0 128 -55.5t26 -150.5l-6 -39h-112l5 28q11 58 -16 91t-81 33q-52 0 -87.5 -32.5t-45.5 -87.5l-55 -347h-109zM358 -94l-118 -146h-102l92 146h128z" />
    <glyph glyph-name="uni0156" unicode="&#x156;" 
d="M146 720h233q52 0 92 -15.5t65.5 -43t36 -67t2.5 -87.5q-12 -75 -56.5 -127t-112.5 -73l99 -307h-119l-89 293h-109l-47 -293h-109zM202 385h124q54 0 91.5 33t45.5 87t-18.5 87t-80.5 33h-124zM358 -94l-118 -146h-102l92 146h128z" />
    <glyph glyph-name="Lcaron" unicode="&#x13d;" 
d="M296 720l-98 -619h325l-16 -101h-435l114 720h110zM597.502 766h-123.992l-98.4912 -146h102.993z" />
    <glyph glyph-name="lcaron" unicode="&#x13e;" 
d="M99 720h288l-87 -550q-5 -33 10 -51.5t47 -18.5h164l-16 -100h-169q-81 0 -120 45.5t-26 124.5l71 451h-178zM667.502 766h-123.992l-98.4912 -146h102.993z" />
    <glyph glyph-name="Tbar" unicode="&#x166;" 
d="M106 720h516l-15 -99h-203l-98 -621h-112l99 621h-203zM179 402h273l-15 -93h-273z" />
    <glyph glyph-name="tbar" unicode="&#x167;" 
d="M89 550h155l27 170h110l-27 -170h211l-15 -99h-212l-46 -293q-5 -27 9 -42.5t43 -15.5h140l-16 -100h-145q-77 0 -114.5 43t-26.5 115l46 293h-155zM128 337h273l-15 -93h-273z" />
    <glyph glyph-name="hbar" unicode="&#x127;" 
d="M29 0l95 598h-64l12 79h64l7 43h110l-7 -43h103l-13 -79h-102l-8 -48q-2 -14 -6 -30.5t-7.5 -31t-5.5 -24l-2 -9.5h9q18 50 61 77.5t103 27.5q41 0 72 -14.5t50.5 -40.5t27 -62.5t0.5 -80.5l-58 -362h-109l55 347q8 56 -16 87.5t-75 31.5q-52 0 -87.5 -33t-44.5 -90
l-54 -343h-110z" />
    <glyph glyph-name="Lacute" unicode="&#x139;" 
d="M296 720l-98 -619h325l-16 -101h-435l114 720h110zM386 946l-134 -146h-103l114 146h123z" />
    <glyph glyph-name="copyright" unicode="&#xa9;" 
d="M261 110q-57 0 -101.5 17.5t-73 49t-40 75.5t-2.5 98l24 150q9 54 34 98.5t63.5 76t88.5 48.5t107 17t101.5 -17t73 -48.5t40 -76t2.5 -98.5l-24 -150q-9 -54 -34 -98t-63.5 -75.5t-88.5 -49t-107 -17.5zM99 350q-7 -43 2 -78t31.5 -60t57 -38.5t79.5 -13.5t84 13.5
t69 38.5t50 60t27 78l24 150q7 43 -2 78t-31.5 60t-57 38.5t-79.5 13.5t-84 -13.5t-69 -38.5t-50 -60t-27 -78zM288 245q-58 0 -88 32t-22 86l20 124q8 54 48.5 86t98.5 32q49 0 78 -26.5t33 -75.5h-72q-2 19 -15.5 29.5t-33.5 10.5q-26 0 -43.5 -15t-22.5 -41l-19 -124
q-5 -26 8.5 -41t39.5 -15q20 0 36.5 11.5t25.5 28.5h71q-20 -49 -57.5 -75.5t-85.5 -26.5z" />
    <glyph glyph-name="registered" unicode="&#xae;" 
d="M256 110q-57 0 -101.5 17.5t-73 49t-40 75.5t-2.5 98l24 150q9 54 34 98.5t63.5 76t88.5 48.5t107 17t101.5 -17t73 -48.5t40 -76t2.5 -98.5l-24 -150q-9 -54 -34 -98t-63.5 -75.5t-88.5 -49t-107 -17.5zM94 350q-7 -43 2 -78t31.5 -60t57 -38.5t79.5 -13.5t84 13.5
t69 38.5t50 60t27 78l24 150q7 43 -2 78t-31.5 60t-57 38.5t-79.5 13.5t-84 -13.5t-69 -38.5t-50 -60t-27 -78zM167 250l55 350h118q55 0 83 -29t20 -78q-5 -32 -24.5 -56t-48.5 -37l41 -150h-71l-35 138h-50l-21 -138h-67zM315 443q25 0 41 14t20 38t-8 38t-37 14h-50
l-17 -104h51z" />
    <glyph glyph-name="exclamdown" unicode="&#xa1;" 
d="M194 -170l25 160l75 335h75l-31 -335l-25 -160h-119zM279 492q5 29 26.5 46t53.5 17h23q31 0 47 -16.5t11 -45.5t-26.5 -47t-52.5 -18h-24q-31 0 -47 17.5t-11 46.5z" />
    <glyph glyph-name="questiondown" unicode="&#xbf;" 
d="M72 52q14 88 73 139t152 54l15 97h102l-30 -192h-66q-57 0 -94 -28t-45 -79q-8 -50 20.5 -78.5t85.5 -28.5h139l-17 -103h-135q-53 0 -94 15.5t-67 44.5t-36.5 69.5t-2.5 89.5zM299 496q5 29 27 45.5t53 16.5h23q31 0 46.5 -16.5t10.5 -45.5t-27.5 -46.5t-53.5 -17.5h-23
q-31 0 -46 17.5t-10 46.5z" />
    <glyph glyph-name="napostrophe" unicode="&#x149;" 
d="M29 0l87 550h104l-15 -95h9q18 50 61 77.5t103 27.5q40 0 71 -14.5t50.5 -41t27 -63.5t0.5 -82l-57 -359h-109l55 347q8 57 -15 88t-74 31t-86 -29.5t-46 -81.5l-56 -355h-110zM233 733l-118 -146h-102l92 146h128z" />
    <glyph glyph-name="uni0218" unicode="&#x218;" 
d="M42 188h113q-6 -45 24.5 -73t86.5 -28q60 0 97.5 26t44.5 72q6 41 -14.5 72t-63.5 46l-72 25q-81 26 -118.5 80t-26.5 126q14 93 81.5 144.5t174.5 51.5q49 0 87.5 -14t64 -39.5t36.5 -61t6 -79.5h-113q6 44 -21.5 71t-76.5 27q-53 0 -86.5 -25t-40.5 -69q-6 -38 13 -66
t63 -42l76 -25q81 -26 117.5 -82t23.5 -134q-7 -47 -29 -84t-57 -63t-81.5 -40t-102.5 -14q-52 0 -92.5 14.5t-67.5 40.5t-39.5 62.5t-6.5 80.5zM358 -94l-118 -146h-102l92 146h128z" />
    <glyph glyph-name="Thorn" unicode="&#xde;" 
d="M147 720h110l-22 -140h142q51 0 89.5 -14.5t63.5 -41t34.5 -64.5t1.5 -85q-7 -47 -28.5 -85t-54.5 -64.5t-76.5 -41t-94.5 -14.5h-142l-27 -170h-110zM319 265q56 0 91.5 29t43.5 81t-18.5 81t-81.5 29h-134l-35 -220h134z" />
    <glyph glyph-name="uni0237" unicode="&#x237;" 
d="M26 -68h133q54 0 91.5 32t45.5 84l64 401h-226l17 101h334l-79 -502q-7 -48 -30 -88.5t-57 -69t-78 -44.5t-94 -16h-137z" />
    <glyph glyph-name="uni0162" unicode="&#x162;" 
d="M106 720h516l-15 -99h-203l-98 -621h-112l99 621h-203zM157 -134q8 -1 19 -2q9 -1 23 -1.5t31 -0.5q21 0 35.5 7.5t16.5 20.5q4 20 -23 31t-78 11l55 94h64l-36 -61q35 -3 62 -14q11 -4 21.5 -10.5t18.5 -15t11.5 -20t1.5 -25.5q-5 -34 -43.5 -55.5t-95.5 -21.5
q-26 0 -43.5 0.5t-28.5 1.5q-13 2 -20 3z" />
    <glyph glyph-name="uni0163" unicode="&#x163;" 
d="M89 550h155l27 170h110l-27 -170h211l-15 -99h-212l-46 -293q-5 -27 9 -42.5t43 -15.5h140l-16 -100h-145q-77 0 -114.5 43t-26.5 115l46 293h-155zM227 -134q8 -1 19 -2q9 -1 23 -1.5t31 -0.5q21 0 35.5 7.5t16.5 20.5q4 20 -23 31t-78 11l55 94h64l-36 -61
q35 -3 62 -14q11 -4 21.5 -10.5t18.5 -15t11.5 -20t1.5 -25.5q-5 -34 -43.5 -55.5t-95.5 -21.5q-26 0 -43.5 0.5t-28.5 1.5q-13 2 -20 3z" />
    <glyph glyph-name="dcroat" unicode="&#x111;" 
d="M52 207l22 138q8 50 27.5 89.5t48.5 67.5t66 43t79 15q61 0 96 -27.5t38 -77.5h9q1 17 3 34q2 15 3.5 31.5t3.5 29.5l7 45h-99l12 80h100l7 45h109l-7 -45h64l-12 -80h-65l-94 -595h-104l15 95h-9q-19 -50 -63 -77.5t-104 -27.5q-73 0 -115 44.5t-42 122.5q0 12 1 24.5
t3 25.5zM260 86q52 0 88 33t45 88l22 136q9 56 -17 89t-78 33q-55 0 -91 -32.5t-45 -89.5l-22 -135q-9 -56 17 -89t81 -33z" />
    <glyph glyph-name="uni0123" unicode="&#x123;" 
d="M210 42q-43 0 -75 15t-52.5 42.5t-27.5 66.5t0 87l15 95q8 48 27 87.5t48 67t66.5 42.5t80.5 15q61 0 97.5 -29t40.5 -81h7l16 100h104l-81 -517q-7 -47 -29 -84.5t-55 -64t-76.5 -40.5t-95.5 -14h-142l15 94h142q54 0 88.5 29t42.5 80l3 19l20 100h-6q-20 -52 -66 -81
t-107 -29zM166 255q-9 -55 18 -86.5t81 -31.5t91 31.5t45 86.5l14 92q8 55 -18 86.5t-80 31.5t-90.5 -31.5t-45.5 -86.5zM242.021 677.994l117.993 145.991h101.994l-91.9951 -145.991h-127.992z" />
    <glyph glyph-name="Hbar" unicode="&#x126;" 
d="M146 720h110l-18 -113h214l18 113h110l-18 -113h45l-14 -87h-45l-82 -520h-110l51 324h-214l-51 -324h-110l82 520h-44l14 87h44zM224 520l-15 -95h214l15 95h-214z" />
    <glyph glyph-name="Jcircumflex" unicode="&#x134;" 
d="M218 -10q-48 0 -86 14t-64.5 39.5t-40 62t-11.5 81.5h110q-1 -45 28.5 -73t79.5 -28q58 0 97.5 33.5t48.5 89.5l65 412h-267l16 99h377l-81 -511q-8 -51 -30.5 -91.5t-58 -69t-82 -43.5t-101.5 -15zM374 955h103l95 -145h-85l-43 57q-7 10 -11.5 16.5t-7.5 10.5t-4 7h-3
q-2 -3 -7 -7q-4 -5 -10 -11t-17 -15l-63 -58h-92z" />
    <glyph glyph-name="jcircumflex" unicode="&#x135;" 
d="M350 795h103l95 -145h-85l-43 57q-7 10 -11.5 16.5t-7.5 10.5t-4 7h-3q-2 -3 -7 -7q-4 -5 -10 -11t-17 -15l-63 -58h-92zM26 -68h133q54 0 91.5 32t45.5 84l64 401h-226l17 101h334l-79 -502q-7 -48 -30 -88.5t-57 -69t-78 -44.5t-94 -16h-137z" />
    <glyph glyph-name="tcaron" unicode="&#x165;" 
d="M73 451l16 99h155l27 170h110l-27 -170h211l-15 -99h-212l-46 -293q-5 -27 9 -42.5t43 -15.5h140l-16 -100h-145q-77 0 -114.5 43t-26.5 115l46 293h-155zM442 610l48 146h93l-68 -146h-73z" />
    <glyph glyph-name="ellipsis" unicode="&#x2026;" 
d="M425 48l11 67q5 26 22 42t42 16t38 -16t8 -42l-11 -67q-5 -26 -22 -42t-42 -16t-38 16t-8 42zM235 48l11 67q5 26 22 42t42 16t38 -16t8 -42l-11 -67q-5 -26 -22 -42t-42 -16t-38 16t-8 42zM45 48l11 67q5 26 22 42t42 16t38 -16t8 -42l-11 -67q-5 -26 -22 -42t-42 -16
t-38 16t-8 42z" />
    <glyph glyph-name="paragraph" unicode="&#xb6;" 
d="M248 300q-43 0 -76 12t-54.5 34.5t-30 54t-2.5 69.5l12 80q6 38 24.5 69.5t47 54t65.5 34.5t80 12h263l-114 -720h-90l102 639h-84l-101 -639h-90z" />
    <glyph glyph-name="uni00B5" unicode="&#xb5;" 
d="M5 -167l114 717h110l-56 -349q-8 -56 13 -85.5t77 -29.5q109 0 127 115l56 349h109l-55 -349q-16 -100 -78.5 -155.5t-162.5 -55.5q-48 0 -75.5 13t-41.5 28q-17 18 -22 41h-6q1 0 2.5 -8.5t2.5 -21.5t2 -28t0 -27l-10 -154h-106z" />
    <glyph glyph-name="OE" unicode="&#x152;" 
d="M136 -8q-61 0 -93.5 37.5t-32.5 105.5q0 11 1 23.5t3 26.5l56 352q14 91 62.5 142t119.5 51q37 0 56.5 -14t27.5 -31q11 -20 12 -45h5l13 80h273l-15 -96h-172l-32 -205h146l-15 -97h-147l-35 -225h171l-15 -97h-273l13 82h-5q-9 -25 -26 -45q-14 -17 -38 -31t-60 -14z
M121 185q-8 -46 9 -72t54 -26q38 0 62.5 26t32.5 72l56 352q8 46 -9 72t-55 26q-37 0 -62 -26t-32 -72z" />
    <glyph glyph-name="oe" unicode="&#x153;" 
d="M128 -10q-68 0 -99.5 41t-20.5 116l41 256q12 75 57 116t113 41q41 0 62 -12.5t31 -27.5q11 -18 11 -40h6q8 22 24 40q14 15 39.5 27.5t66.5 12.5q68 0 99.5 -41.5t20.5 -115.5l-24 -153h-218l-16 -103q-5 -33 8.5 -53t40.5 -20q23 0 41 14t26 37h95q-20 -63 -64 -99
t-100 -36q-41 0 -62 12.5t-30 27.5q-11 18 -12 40h-6q-8 -22 -24 -40q-14 -15 -39 -27.5t-67 -12.5zM103 147q-5 -34 8.5 -53.5t42.5 -19.5q28 0 47.5 19.5t24.5 53.5l40 256q5 34 -7.5 53.5t-40.5 19.5q-29 0 -49 -19.5t-25 -53.5zM349 325h123l12 78q5 33 -8 53t-42 20
t-48 -20t-24 -53z" />
    <glyph glyph-name="AE" unicode="&#xc6;" 
d="M-30 0l255 710h411l-15 -96h-175l-32 -200h150l-15 -97h-150l-35 -220h175l-16 -97h-278l30 191h-133l-66 -191h-106zM171 275h118l54 339h-54z" />
    <glyph glyph-name="ae" unicode="&#xe6;" 
d="M8 133l8 57q11 63 59 100t120 37h64l12 76q12 73 -48 73q-54 0 -68 -60h-95q19 69 60.5 106.5t99.5 37.5q41 0 62 -12.5t31 -27.5q11 -18 12 -40h5q11 22 29 40q16 15 41 27.5t60 12.5q67 0 99 -42.5t21 -114.5l-23 -150h-218l-17 -106q-5 -33 8.5 -53t40.5 -20
q23 0 41 14t26 37h95q-20 -63 -63 -99t-100 -36q-41 0 -62.5 12.5t-30.5 27.5q-11 18 -12 40h-5q-9 -22 -27 -40q-15 -15 -42 -27.5t-71 -12.5q-62 0 -92.5 39t-19.5 104zM156 74q29 0 49 19.5t25 53.5l17 106h-62q-29 0 -47 -17t-23 -46l-9 -57q-5 -28 8.5 -43.5
t41.5 -15.5zM473 327l12 76q5 33 -8 53t-42 20t-48 -20t-24 -53l-12 -76h122z" />
    <glyph glyph-name="germandbls" unicode="&#xdf;" 
d="M-145 -77h52q48 0 77.5 25.5t37.5 73.5l84 529q6 40 26 73t50 56.5t68.5 36.5t82.5 13h66q46 0 81.5 -13t59 -36.5t32.5 -56.5t3 -73l-14 -88h-98q-80 0 -91 -64q-9 -55 49 -67l32 -8q69 -15 99 -59t19 -112q-12 -76 -65.5 -119.5t-132.5 -43.5q-75 0 -117 38.5
t-40 104.5h102q1 -26 19 -41t50 -15q35 0 57 19t27 54q11 68 -50 82l-31 7q-140 32 -119 158q11 71 65 112t136 41q6 41 -17.5 65.5t-69.5 24.5h-66q-43 0 -72.5 -24.5t-36.5 -65.5l-84 -528q-14 -92 -75.5 -142t-158.5 -50h-52z" />
    <glyph glyph-name="eth" unicode="&#xf0;" 
d="M248 -7q-54 0 -95.5 16.5t-68 46.5t-37 72t-2.5 94q8 50 29.5 90.5t53.5 69.5t73 45t88 16q32 0 53 -10t34 -22q15 -15 24 -33h12q-5 8 -13 22q-7 12 -18 32.5t-28 50.5l-45 81l-166 -67l14 89l115 46l-55 98h128l30 -57l165 66l-14 -88l-115 -46l52 -97
q44 -81 59 -150.5t5 -131.5q-8 -52 -32 -95t-60.5 -74t-84 -47.5t-101.5 -16.5zM155 222q-10 -61 20 -97.5t88 -36.5q60 0 101.5 36.5t50.5 97.5q9 60 -20.5 96.5t-88.5 36.5t-100 -36.5t-51 -96.5z" />
    <glyph glyph-name="logicalnot" unicode="&#xac;" 
d="M88 427h460l-37 -232h-103l21 135h-357z" />
    <glyph glyph-name="trademark" unicode="&#x2122;" 
d="M358 730h80l17 -102q2 -10 2.5 -21.5t0.5 -22.5q0 -12 -1 -24h6l6 24q3 11 7 22.5t9 21.5l50 102h78l-58 -360h-55l40 251q2 9 5 20.5t6 22.5q3 13 7 26h-9q-4 -14 -9 -26q-4 -11 -8 -23t-8 -21l-47 -110h-52l-15 111q-1 9 -1.5 20.5t-1.5 22.5q-1 13 -1 26h-8v-26
q0 -11 -0.5 -22.5t-2.5 -20.5l-40 -251h-55zM56 680l8 50h260l-8 -50h-100l-50 -310h-60l50 310h-100z" />
    <glyph glyph-name="florin" unicode="&#x192;" 
d="M-14 -170l16 100h52q47 0 75.5 23.5t35.5 68.5l59 370h-155l15 100h156l12 78q11 69 62 109.5t128 40.5h161l-16 -98h-159q-27 0 -44 -13.5t-22 -39.5l-13 -77h218l-16 -100h-217l-59 -370q-14 -92 -76 -142t-162 -50h-51z" />
    <glyph glyph-name="section" unicode="&#xa7;" 
d="M15 -9h113q4 -29 30 -47t65 -18h30q54 0 86 22t37 58q9 65 -81 83l-79 17q-77 17 -116.5 60.5t-30.5 103.5q9 58 51.5 96.5t103.5 43.5l1 7q-36 5 -62 22q-22 15 -37.5 44.5t-7.5 81.5q12 76 74 120.5t161 44.5h30q87 0 137 -39.5t49 -107.5h-113q-2 25 -25.5 40.5
t-61.5 15.5h-30q-48 0 -77.5 -20t-34.5 -54q-5 -29 14 -50t61 -30l80 -17q78 -17 117.5 -62.5t30.5 -105.5q-9 -58 -52 -96t-106 -40l-1 -7q38 -5 65 -23q24 -16 40.5 -45.5t8.5 -82.5q-13 -79 -77.5 -124.5t-168.5 -45.5h-30q-45 0 -81 11t-61.5 31t-38.5 48.5t-13 64.5z
M237 196l67 -14q21 -4 40 2t34.5 20t26 35t14.5 46q5 35 -12 60t-50 33l-65 14q-21 5 -39.5 -1t-33 -20t-25 -34.5t-14.5 -45.5q-5 -37 10 -62.5t47 -32.5z" />
    <glyph glyph-name="currency" unicode="&#xa4;" 
d="M109 244q-25 49 -15 111q5 32 18 60.5t32 52.5l-72 86l73 63l74 -88q51 28 110 28q62 0 105 -31l99 85l53 -63l-99 -85q10 -23 13.5 -50.5t-1.5 -57.5q-9 -62 -48 -110l73 -87l-73 -63l-73 87q-26 -14 -54.5 -21.5t-58.5 -7.5q-61 0 -102 29l-101 -87l-53 63zM277 226
q58 0 98.5 35.5t49.5 93.5t-20 93.5t-87 35.5t-99.5 -35.5t-50.5 -93.5t21 -93.5t88 -35.5z" />
    <glyph glyph-name="cent" unicode="&#xa2;" 
d="M59 205l22 140q15 94 75.5 149.5t156.5 64.5l21 131h65l-21 -132q77 -10 123 -60t46 -128h-108q1 35 -20 59.5t-56 32.5l-59 -375q38 8 66 32t39 61h108q-26 -82 -85 -131t-143 -57l-21 -132h-65l21 132q-45 4 -78.5 21.5t-55 45.5t-30 65t-1.5 81zM239 87l59 376
q-45 -8 -73 -38.5t-36 -79.5l-23 -140q-7 -48 12.5 -78.5t60.5 -39.5z" />
    <glyph glyph-name="sterling" unicode="&#xa3;" 
d="M25 0l19 120q33 16 60 35q23 17 43.5 38.5t24.5 47.5q3 20 3 36h-109l14 93h73q-9 18 -18.5 35t-16.5 35.5t-10 39.5t1 47q7 45 28 80.5t54 60.5t77 38.5t96 13.5q102 0 153.5 -51.5t40.5 -142.5h-113q6 45 -20.5 71.5t-77.5 26.5q-53 0 -86.5 -26.5t-41.5 -73.5
q-4 -27 0 -46.5t12 -37t18.5 -34t18.5 -36.5h176l-15 -93h-148q-1 -12 -3 -27q-5 -45 -28.5 -74t-49.5 -46q-31 -20 -69 -30h370l-16 -100h-460z" />
    <glyph glyph-name="yen" unicode="&#xa5;" 
d="M323 113l-18 -113h-110l18 113h-185l13 85h185l11 69h-185l14 85h143l-120 368h114l91 -280q5 -14 7.5 -28.5t3.5 -26.5q1 -13 1 -25h4q4 12 10 25q5 12 12 26.5t15 28.5l175 280h117l-237 -368h144l-14 -85h-185l-11 -69h185l-13 -85h-185z" />
    <glyph glyph-name="ordfeminine" unicode="&#xaa;" 
d="M202 537q6 39 39 62t83 23h84l4 28q3 20 -11 31.5t-41 11.5q-23 0 -41 -9.5t-23 -25.5h-60q12 38 47 60t85 22q54 0 82 -24t22 -66l-31 -195h-57l9 55h-3q-16 -28 -43 -44t-60 -16q-45 0 -68 23.5t-17 63.5zM311 494q35 0 58 16t28 45l4 24h-84q-23 0 -37.5 -11
t-17.5 -31t10 -31.5t39 -11.5z" />
    <glyph glyph-name="ordmasculine" unicode="&#xba;" 
d="M311 445q-54 0 -83 30.5t-21 79.5l11 70q8 50 46 80t93 30t83.5 -30t20.5 -80l-11 -70q-8 -50 -46 -80t-93 -30zM267 555q-5 -27 9.5 -43.5t42.5 -16.5t47 16.5t24 43.5l11 70q5 27 -9.5 43.5t-42.5 16.5t-47 -16.5t-24 -43.5z" />
    <glyph glyph-name="onesuperior" unicode="&#xb9;" 
d="M192 498h116l27 166q4 24 8.5 36t4.5 13h-5q-5 -5 -12 -11q-12 -10 -29 -23l-70 -52l13 79l81 59h95l-43 -267h107l-10 -58h-293z" />
    <glyph glyph-name="twosuperior" unicode="&#xb2;" 
d="M163 440l12 73l139 73q32 18 49.5 34.5t20.5 36.5q4 26 -9.5 41t-39.5 15t-45 -15.5t-23 -41.5h-70q10 51 50 82.5t97 31.5q58 0 88 -30t22 -79q-5 -32 -30.5 -64t-74.5 -55l-90 -43l-1 -9q10 2 22 4q10 2 22.5 3t25.5 1h106l-10 -58h-261z" />
    <glyph glyph-name="threesuperior" unicode="&#xb3;" 
d="M294 435q-29 0 -52.5 7.5t-38.5 21.5t-22 33.5t-3 42.5h70q-4 -22 11.5 -35t43.5 -13q27 0 45 13.5t22 36.5t-10 36.5t-40 13.5h-30l9 62l100 59l1 7q-10 -3 -22 -5q-10 -2 -23.5 -3.5t-29.5 -1.5h-95l9 55h221l-10 -64l-61 -42q-7 -5 -16 -8.5t-17 -6.5q45 -5 68 -32.5
t16 -69.5q-8 -50 -47 -78.5t-99 -28.5z" />
    <glyph glyph-name="uni2070" unicode="&#x2070;" 
d="M198 570l10 65q10 63 51 99t104 36t92 -36t19 -99l-10 -65q-10 -63 -51 -99t-104 -36t-92 36t-19 99zM319 497q35 0 54.5 21t24.5 52l10 65q5 34 -9 53.5t-46 19.5t-52.5 -19.5t-26.5 -53.5l-10 -65q-5 -34 9 -53.5t46 -19.5z" />
    <glyph glyph-name="uni2074" unicode="&#x2074;" 
d="M274 579l-2 -16h103l12 76h69l-31 -199h-70l11 67h-173l14 89l153 169h79z" />
    <glyph glyph-name="uni2080" unicode="&#x2080;" 
d="M198 85l10 65q10 63 51 99t104 36t92 -36t19 -99l-10 -65q-10 -63 -51 -99t-104 -36t-92 36t-19 99zM319 12q35 0 54.5 21t24.5 52l10 65q5 34 -9 53.5t-46 19.5t-52.5 -19.5t-26.5 -53.5l-10 -65q-5 -34 9 -53.5t46 -19.5z" />
    <glyph glyph-name="uni2081" unicode="&#x2081;" 
d="M192 12h116l27 166q4 24 8.5 36t4.5 13h-5q-5 -5 -12 -11q-12 -10 -29 -23l-70 -52l13 79l81 59h95l-43 -267h107l-10 -58h-293z" />
    <glyph glyph-name="uni2082" unicode="&#x2082;" 
d="M163 -45l12 73l139 73q32 18 49.5 34.5t20.5 36.5q4 26 -9.5 41t-39.5 15t-45 -15.5t-23 -41.5h-70q10 51 50 82.5t97 31.5q58 0 88 -30t22 -79q-5 -32 -30.5 -64t-74.5 -55l-90 -43l-1 -9q10 2 22 4q10 2 22.5 3t25.5 1h106l-10 -58h-261z" />
    <glyph glyph-name="uni2083" unicode="&#x2083;" 
d="M294 -50q-29 0 -52.5 7.5t-38.5 21.5t-22 33.5t-3 42.5h70q-4 -22 11.5 -35t43.5 -13q27 0 45 13.5t22 36.5t-10 36.5t-40 13.5h-30l9 62l100 59l1 7q-10 -3 -22 -5q-10 -2 -23.5 -3.5t-29.5 -1.5h-95l9 55h221l-10 -64l-61 -42q-7 -5 -16 -8.5t-17 -6.5q45 -5 68 -32.5
t16 -69.5q-8 -50 -47 -78.5t-99 -28.5z" />
    <glyph glyph-name="uni2084" unicode="&#x2084;" 
d="M274 94l-2 -16h103l12 76h69l-31 -199h-70l11 67h-173l14 89l153 169h79z" />
    <glyph glyph-name="fraction" unicode="&#x2044;" 
d="M506 720h72l-471 -720h-73z" />
    <glyph glyph-name="onequarter" unicode="&#xbc;" 
d="M290 394h-251l10 58h116l27 166q4 24 8.5 36t4.5 13h-5q-5 -5 -12 -11q-12 -10 -29 -23l-70 -52l13 79l81 59h95l-43 -267h95l184 268h81l-495 -720h-81zM319 67l14 89l153 169h79l-165 -186l-2 -16h103l12 76h70l-32 -199h-70l11 67h-173z" />
    <glyph glyph-name="onehalf" unicode="&#xbd;" 
d="M44 453h117l26 165q4 24 9 36.5t5 13.5h-6q-5 -5 -12 -11q-5 -5 -12.5 -11t-16.5 -13l-70 -51l13 79l81 59h95l-42 -267h103l175 267h73l-471 -720h-73l258 395h-261zM335 73l139 73q32 18 49.5 34.5t20.5 36.5q4 26 -9.5 41t-39.5 15t-45 -15.5t-23 -41.5h-70
q10 51 50 82.5t97 31.5q58 0 88 -30t22 -79q-5 -32 -30.5 -64t-74.5 -55l-90 -43l-1 -9q10 2 22 4q10 2 22.5 3t25.5 1h106l-10 -58h-261z" />
    <glyph glyph-name="threequarters" unicode="&#xbe;" 
d="M506 720h72l-471 -720h-73zM144 390q-29 0 -52.5 7.5t-38.5 21.5t-22 33.5t-3 42.5h70q-4 -22 11.5 -35t43.5 -13q27 0 45 13.5t22 36.5t-10 36.5t-40 13.5h-30l9 62l100 59l1 7q-10 -3 -22 -5q-10 -2 -23.5 -3.5t-29.5 -1.5h-95l9 55h221l-10 -64l-61 -42
q-7 -5 -16 -8.5t-17 -6.5q45 -5 68 -32.5t16 -69.5q-8 -50 -47 -78.5t-99 -28.5zM404 139l-2 -16h103l12 76h69l-31 -199h-70l11 67h-173l14 89l153 169h79z" />
    <glyph glyph-name="perthousand" unicode="&#x2030;" 
d="M179 105l14 85q9 53 44 81.5t84 28.5q29 0 44 -10t23 -22q8 -14 10 -32q8 18 21 32q12 12 31 22t47 10q49 0 75.5 -28.5t17.5 -81.5l-14 -85q-9 -53 -43.5 -81.5t-83.5 -28.5q-28 0 -43.5 10t-23.5 22q-9 14 -11 32q-8 -18 -21 -32q-12 -12 -30.5 -22t-47.5 -10
q-49 0 -75.5 28.5t-17.5 81.5zM31 552l9 51q8 55 44 88.5t98 33.5t87 -33.5t17 -88.5l-8 -51q-8 -55 -44.5 -88.5t-98.5 -33.5t-87 33.5t-17 88.5zM563 497v-65l-554 -159v65zM453 51q23 0 38 14t20 40l14 85q5 26 -7 40t-35 14q-24 0 -39.5 -14t-20.5 -40l-14 -85
q-5 -26 7.5 -40t36.5 -14zM287 51q50 0 59 54l14 85q5 26 -7 40t-36 14q-23 0 -39 -14t-20 -40l-13 -85q-4 -26 7.5 -40t34.5 -14zM145 490q32 0 46.5 19t18.5 43l8 51q5 27 -5.5 44.5t-39.5 17.5q-30 0 -45 -17.5t-20 -44.5l-8 -51q-5 -26 5 -44t40 -18z" />
    <glyph glyph-name="dagger" unicode="&#x2020;" 
d="M326 830h110l-149 -940h-110zM115 421h400l-15 -96h-400z" />
    <glyph glyph-name="daggerdbl" unicode="&#x2021;" 
d="M336 199l-49 -309h-110l49 309h-160l16 99h160l22 144h-159l15 100h160l46 288h110l-46 -288h170l-15 -100h-171l-22 -144h170l-16 -99h-170z" />
    <glyph glyph-name="kgreenlandic" unicode="&#x138;" 
d="M35 0l88 550h109l-35 -223h96l185 223h126l-225 -272l141 -278h-126l-115 232h-97l-37 -232h-110z" />
    <glyph glyph-name="ibreve" unicode="&#x12d;" 
d="M54 100h199l55 351h-173l16 99h279l-71 -450h162l-16 -100h-467zM218 790h87q-5 -32 14.5 -50t58.5 -18t65 18t32 50h89q-5 -32 -21.5 -58.5t-42 -45t-59.5 -28.5t-73 -10q-38 0 -68.5 10.5t-50 29t-28 45t-3.5 57.5z" />
    <glyph glyph-name="Ibreve" unicode="&#x12c;" 
d="M39 0l15 96h156l84 528h-156l15 96h422l-15 -96h-156l-84 -528h156l-15 -96h-422zM243 940h88q-11 -65 66 -65q38 0 62 16.5t29 48.5h88q-5 -31 -21.5 -56.5t-41.5 -43.5t-57 -28t-70 -10q-75 0 -114.5 37.5t-28.5 100.5z" />
    <glyph glyph-name="longs" unicode="&#x17f;" 
d="M-14 -170l16 100h52q46 0 75 25t37 72l78 497q15 95 76.5 145.5t161.5 50.5h92l-16 -100h-92q-46 0 -75 -25t-37 -71l-78 -497q-15 -94 -77 -145.5t-162 -51.5h-51z" />
    <glyph glyph-name="eng" unicode="&#x14b;" 
d="M116 550h104l-16 -98h10q19 51 61.5 79.5t100.5 28.5q85 0 125.5 -53t26.5 -143l-52 -331q-7 -45 -28.5 -81.5t-54 -62.5t-75 -40t-90.5 -14h-64l17 103h66q49 0 80.5 26.5t39.5 74.5l49 312q8 53 -16.5 83.5t-75.5 30.5q-52 0 -86.5 -30t-42.5 -82l-56 -353h-110z" />
    <glyph glyph-name="Eng" unicode="&#x14a;" 
d="M25 0l113 710h148l110 -415q5 -15 7 -33.5t3 -35.5q2 -20 2 -39h8l0.5 13t1.5 34t3 47.5t6 52.5l60 376h100l-107 -677q-7 -45 -28.5 -81.5t-54 -62.5t-74.5 -40t-91 -14h-70l17 103h73q48 0 79.5 26.5t39.5 74.5l-136 471q-5 18 -7.5 37t-3.5 35q-1 18 0 35h-7
q-2 -21 -4 -44q-2 -20 -5 -46t-8 -55l-74 -472h-101z" />
    <glyph glyph-name="bar_bar_bar.liga" 
d="M60 -120l149 940h109l-148 -940h-110zM-277 820h109l-148 -940h-110zM-907 -120l149 940h109l-148 -940h-110z" />
    <glyph glyph-name="slash_slash_slash.liga" 
d="M-591 830h116l-498 -940h-117zM-111 830h116l-498 -940h-117zM369 830h116l-498 -940h-117z" />
    <glyph glyph-name="ampersand_ampersand_ampersand.liga" 
d="M-811 155l-114 200q-23 -10 -37.5 -30.5t-19.5 -51.5l-16 -105q-6 -41 12.5 -63t58.5 -22q31 0 61 18.5t55 53.5zM-291 155l-114 200q-23 -10 -37.5 -30.5t-19.5 -51.5l-16 -105q-6 -41 12.5 -63t58.5 -22q31 0 60.5 18.5t55.5 53.5zM229 155l-114 200
q-23 -10 -37.5 -30.5t-19.5 -51.5l-16 -105q-6 -41 12.5 -63t58.5 -22q32 0 61.5 19t54.5 53zM-992 557q6 38 24 68.5t45.5 52t64 33.5t79.5 12q91 0 135.5 -46.5t31.5 -127.5h-105q6 38 -14 60t-62 22q-38 0 -64.5 -22t-31.5 -57q-3 -22 2.5 -43.5t20.5 -49.5l257 -459
h-114l-40 71q-77 -81 -185 -81q-88 0 -129.5 47t-27.5 131l17 105q9 57 41.5 94.5t84.5 52.5q-22 41 -28.5 72.5t-1.5 64.5zM-472 557q6 38 24 68.5t45.5 52t64 33.5t79.5 12q91 0 135.5 -46.5t31.5 -127.5h-105q6 38 -14 60t-62 22q-38 0 -64.5 -22t-32.5 -57
q-4 -22 2.5 -43.5t21.5 -49.5l257 -459h-114l-41 71q-75 -81 -184 -81q-88 0 -129.5 47t-27.5 131l17 105q9 57 41.5 94.5t84.5 52.5q-22 41 -28.5 72.5t-1.5 64.5zM48 557q6 38 24 68.5t46 52t64 33.5t79 12q91 0 135.5 -46.5t31.5 -127.5h-105q6 38 -14 60t-62 22
q-38 0 -64.5 -22t-32.5 -57q-4 -22 2.5 -43.5t21.5 -49.5l119 -212l78 113h113l-142 -202l89 -158h-114l-41 71q-77 -81 -184 -81q-88 0 -129.5 47t-27.5 131l17 105q9 57 41.5 94.5t84.5 52.5q-22 41 -28.5 72.5t-1.5 64.5z" />
    <glyph glyph-name="equal_equal_equal.liga" 
d="M-1141 185h1640l-12 -80h-1640zM-1082 555h1640l-13 -80h-1640zM-1111 371h1640l-13 -80h-1640z" />
    <glyph glyph-name="plus_plus.liga" 
d="M-491 283l15 93h183l31 193h103l-31 -193h394l31 193h103l-31 -193h184l-15 -93h-183l-31 -194h-103l30 194h-393l-31 -194h-103l31 194h-184z" />
    <glyph glyph-name="hyphen_hyphen.liga" 
d="M-506 280l16 100h458l-15 -100h-459zM36 280l16 100h458l-16 -100h-458z" />
    <glyph glyph-name="equal_greater.liga" 
d="M-535 258h874l6 6q17 17 30.5 29t23.5 20q12 9 21 16l1 3q-6 5 -14 14q-6 8 -14 20.5t-18 31.5l-2 4h-885l16 100h807l-76 123h120l179 -295l-273 -295h-130l116 124h-798z" />
    <glyph glyph-name="uni041D" unicode="&#x41d;" 
d="M32 0l114 720h110l-47 -295h214l47 295h110l-114 -720h-110l51 324h-214l-51 -324h-110z" />
    <glyph glyph-name="uni041E" unicode="&#x41e;" 
d="M248 -10q-52 0 -92 15.5t-65.5 44t-35.5 69t-3 89.5l49 305q17 101 87 159t178 58q52 0 92 -15.5t65.5 -44t36 -68.5t2.5 -89l-49 -305q-8 -50 -30.5 -90.5t-57 -69t-79.5 -43.5t-98 -15zM162 208q-9 -56 18.5 -88.5t83.5 -32.5q55 0 93 32.5t47 88.5l48 305
q9 56 -18.5 88.5t-83.5 32.5q-55 0 -93 -32.5t-46 -88.5z" />
    <glyph glyph-name="uni0410" unicode="&#x410;" 
d="M19 0l309 720h150l75 -720h-112l-16 191h-213l-78 -191h-115zM248 279h170l-22 268q-3 39 -3 68v29h-4q-4 -14 -9 -29q-5 -14 -10.5 -31t-13.5 -36z" />
    <glyph glyph-name="uni0412" unicode="&#x412;" 
d="M145 720h221q105 0 157 -50t38 -138q-11 -66 -54.5 -106.5t-106.5 -45.5l-2 -7q70 -3 103 -47.5t21 -120.5q-15 -97 -84 -151t-177 -54h-230zM154 95h112q60 0 97 30t46 84t-19 84.5t-88 30.5h-112zM205 416h110q53 0 87.5 28t42.5 76q8 49 -18 77.5t-78 28.5h-111z" />
    <glyph glyph-name="uni0420" unicode="&#x420;" 
d="M145 720h246q52 0 92 -15.5t66 -43.5t36 -68t2 -88q-8 -49 -30.5 -89t-56.5 -68t-79 -43t-98 -15h-136l-46 -290h-110zM202 385h136q53 0 91 33t46 87t-18.5 87t-80.5 33h-136z" />
    <glyph glyph-name="uni0421" unicode="&#x421;" 
d="M254 -10q-52 0 -92 15t-65.5 43t-35.5 68t-2 89l49 310q8 50 30 90t56.5 67.5t79 42.5t97.5 15q98 0 151 -55.5t45 -149.5h-108q4 51 -24 79.5t-79 28.5q-56 0 -93.5 -32.5t-46.5 -88.5l-48 -304q-9 -57 18 -89t83 -32q53 0 89.5 29t48.5 79h108q-22 -96 -91.5 -150.5
t-169.5 -54.5z" />
    <glyph glyph-name="uni0415" unicode="&#x415;" 
d="M155 720h434l-15 -96h-325l-33 -205h290l-15 -98h-290l-36 -224h325l-15 -97h-434z" />
    <glyph glyph-name="uni041A" unicode="&#x41a;" 
d="M146 720h110l-48 -298h103l197 298h124l-232 -351l127 -369h-120l-107 324h-107l-51 -324h-110z" />
    <glyph glyph-name="uni041C" unicode="&#x41c;" 
d="M14 0l114 720h129l42 -235q3 -15 4 -32.5t2 -32.5q1 -18 1 -35h8q6 17 12 35q6 15 12.5 32.5t13.5 32.5l111 235h138l-114 -720h-99l76 484q5 27 11 54t12 50q6 26 13 50h-11q-9 -23 -20 -47q-8 -21 -19.5 -46.5t-22.5 -49.5l-83 -177h-85l-29 177q-5 27 -8 52.5t-5 45.5
q-3 24 -5 45h-9q-1 -24 -3 -50q-2 -23 -4 -50t-7 -54l-77 -484h-98z" />
    <glyph glyph-name="uni0425" unicode="&#x425;" 
d="M247 369l-138 351h122l71 -191q5 -13 9 -24.5t6 -20.5q3 -10 5 -19h3q5 9 11 19q10 19 28 44l135 192h120l-248 -348l146 -372h-121l-80 212q-5 14 -8.5 25.5t-6.5 20.5q-3 10 -5 19h-4q-5 -9 -11 -19q-5 -9 -12 -20.5t-16 -24.5l-148 -213h-122z" />
    <glyph glyph-name="uni0430" unicode="&#x430;" 
d="M51 207l22 138q8 49 27 88.5t47.5 67.5t64.5 43.5t78 15.5q59 0 89.5 -27.5t33.5 -77.5h9l16 95h103l-67 -422q-3 -19 6.5 -30t27.5 -11h37l-14 -91h-71q-48 0 -73.5 27.5t-20.5 71.5h-9q-19 -49 -59 -77t-98 -28q-72 0 -112.5 44.5t-40.5 122.5q0 12 1 24t3 26zM252 86
q47 0 79.5 28.5t44.5 79.5l25 167q3 49 -20 76.5t-69 27.5q-53 0 -87.5 -32.5t-43.5 -89.5l-21 -135q-9 -57 14.5 -89.5t77.5 -32.5z" />
    <glyph glyph-name="uni0435" unicode="&#x435;" 
d="M248 -10q-52 0 -92 15t-65.5 43t-35.5 67t-2 88l23 144q8 49 30 88.5t56.5 67t79 42.5t97.5 15q52 0 91.5 -15t65 -43t36 -67.5t2.5 -87.5l-16 -101h-351l-6 -39q-9 -60 18 -93.5t84 -33.5q42 0 75 14t51 39h107q-14 -32 -38.5 -58.5t-56.5 -45t-71 -29t-82 -10.5z
M423 325l4 22q11 58 -17 90.5t-86 32.5q-57 0 -93 -32.5t-47 -90.5l-4 -22h243z" />
    <glyph glyph-name="uni043E" unicode="&#x43e;" 
d="M248 -10q-52 0 -92 15t-65.5 43.5t-35.5 68.5t-2 90l22 137q8 50 30 90t56.5 68t79.5 43t98 15t92.5 -15t65 -43t35.5 -68t2 -90l-21 -137q-17 -101 -87 -159t-178 -58zM162 207q-9 -56 18 -88t84 -32q56 0 93.5 31.5t46.5 88.5l21 137q8 56 -19 88t-83 32
q-55 0 -92.5 -32.5t-46.5 -87.5z" />
    <glyph glyph-name="uni0441" unicode="&#x441;" 
d="M255 -10q-51 0 -91 15.5t-65.5 43.5t-35.5 67.5t-3 88.5l22 140q16 101 86 158t177 57q45 0 82 -14t64 -39t41.5 -60t14.5 -77h-110q0 42 -29.5 68t-77.5 26q-57 0 -94 -31.5t-45 -87.5l-23 -140q-8 -55 19 -86.5t83 -31.5q51 0 87 24.5t50 68.5h110q-27 -91 -96 -140.5
t-166 -49.5z" />
    <glyph glyph-name="uni0443" unicode="&#x443;" 
d="M74 241l49 309h108l-46 -290q-9 -56 15.5 -88t75.5 -32t86 31.5t44 85.5l47 293h108l-87 -535q-14 -87 -74 -136t-154 -49h-158l15 95h152q46 0 75 23.5t36 66.5l7 43l20 92h-8q-19 -50 -61 -76.5t-101 -26.5q-82 0 -122.5 52.5t-26.5 141.5z" />
    <glyph glyph-name="uni0445" unicode="&#x445;" 
d="M-10 0l242 285l-143 265h119l79 -156q4 -7 6 -13.5t4 -11.5q2 -6 3 -11h6q3 5 7 11q6 10 19 25l126 156h128l-227 -268l152 -282h-119l-87 169q-7 15 -12 27l-4 12h-6q-3 -6 -7 -13q-4 -5 -8.5 -11.5t-9.5 -13.5l-140 -170h-128z" />
    <glyph glyph-name="uni0440" unicode="&#x440;" 
d="M3 -170l114 720h105l-15 -95h8q19 50 63 77.5t104 27.5q42 0 74 -15.5t52 -44t27.5 -68t-0.5 -87.5l-22 -138q-17 -102 -75.5 -159.5t-145.5 -57.5q-60 0 -95 27.5t-39 77.5h-8q0 -1 -1 -11t-2 -24t-3 -30t-4 -30l-27 -170h-110zM267 86q55 0 91.5 33t45.5 89l21 135
q9 57 -17 89.5t-81 32.5q-51 0 -87.5 -33t-45.5 -89l-22 -136q-9 -55 17 -88t78 -33z" />
    <glyph glyph-name="uni041F" unicode="&#x41f;" 
d="M146 720h436l-114 -720h-109l98 619h-217l-98 -619h-110z" />
    <glyph glyph-name="uni0411" unicode="&#x411;" horiz-adv-x="605" 
d="M151 720h431l-16 -101h-325l-29 -185h131q50 0 88.5 -16t63.5 -45t35.5 -69t2.5 -87q-8 -49 -30 -89t-56 -68.5t-77.5 -44t-94.5 -15.5h-238zM274 96q60 0 98.5 32.5t47.5 87.5q9 56 -20.5 88.5t-87.5 32.5h-115l-39 -241h116z" />
    <glyph glyph-name="uni0418" unicode="&#x418;" 
d="M25 0l114 720h101l-76 -480q-4 -26 -10 -51.5t-11 -45t-8.5 -31.5l-3.5 -12h7q9 24 19 47q8 20 17.5 41.5t18.5 38.5l258 493h138l-114 -720h-101l77 482q5 29 10 53.5t10 44.5q6 22 11 41h-7q-8 -21 -18 -43q-8 -19 -18.5 -41.5t-21.5 -43.5l-254 -493h-138z" />
    <glyph glyph-name="uni0422" unicode="&#x422;" 
d="M106 720h516l-15 -99h-203l-98 -621h-112l99 621h-203z" />
    <glyph glyph-name="uni0413" unicode="&#x413;" 
d="M601 720l-16 -101h-325l-98 -619h-110l114 720h435z" />
    <glyph glyph-name="uni0416" unicode="&#x416;" 
d="M135 379l-59 341h95l49 -317h48l50 317h91l-50 -317h47l147 317h98l-166 -349l62 -371h-96l-50 341h-52l-52 -341h-92l53 341h-48l-157 -341h-100z" />
    <glyph glyph-name="uni0426" unicode="&#x426;" 
d="M146 720h110l-99 -620h201l98 620h110l-98 -620h75l-38 -238h-100l22 138h-395z" />
    <glyph glyph-name="uni0429" unicode="&#x429;" 
d="M111 720h97l-101 -635h97l101 635h96l-100 -635h98l101 635h96l-100 -635h44l-35 -223h-87l22 138h-443z" />
    <glyph glyph-name="uni0428" unicode="&#x428;" 
d="M113 720h100l-101 -633h102l100 633h100l-100 -633h101l100 633h100l-114 -720h-502z" />
    <glyph glyph-name="uni0417" unicode="&#x417;" 
d="M242 -10q-53 0 -94.5 14t-69.5 39.5t-40.5 62.5t-8.5 82h109q-2 -48 30 -74.5t89 -26.5q62 0 103.5 31t49.5 83q8 54 -23 85t-93 31h-99l16 99h98q57 0 95.5 29.5t46.5 79.5t-21.5 79.5t-86.5 29.5q-54 0 -93 -29.5t-49 -79.5h-110q9 48 32 86t58 64.5t80 40.5t97 14
q109 0 164 -52.5t41 -142.5q-11 -67 -54 -109.5t-106 -47.5l-2 -7q68 -5 101 -50t21 -120q-16 -100 -90 -155.5t-191 -55.5z" />
    <glyph glyph-name="uni0419" unicode="&#x419;" 
d="M25 0l114 720h101l-76 -480q-4 -26 -10 -51.5t-11 -45t-8.5 -31.5l-3.5 -12h7q9 24 19 47q8 20 17.5 41.5t18.5 38.5l258 493h138l-114 -720h-101l77 482q5 29 10 53.5t10 44.5q6 22 11 41h-7q-8 -21 -18 -43q-8 -19 -18.5 -41.5t-21.5 -43.5l-254 -493h-138zM232 940h88
q-11 -65 66 -65q38 0 62 16.5t29 48.5h88q-5 -31 -21.5 -56.5t-41.5 -43.5t-57 -28t-70 -10q-75 0 -114.5 37.5t-28.5 100.5z" />
    <glyph glyph-name="uni0405" unicode="&#x405;" 
d="M42 188h113q-6 -45 24.5 -73t86.5 -28q60 0 97.5 26t44.5 72q6 41 -14.5 72t-63.5 46l-72 25q-81 26 -118.5 80t-26.5 126q14 93 81.5 144.5t174.5 51.5q49 0 87.5 -14t64 -39.5t36.5 -61t6 -79.5h-113q6 44 -21.5 71t-76.5 27q-53 0 -86.5 -25t-40.5 -69q-6 -38 13 -66
t63 -42l76 -25q81 -26 117.5 -82t23.5 -134q-7 -47 -29 -84t-57 -63t-81.5 -40t-102.5 -14q-52 0 -92.5 14.5t-67.5 40.5t-39.5 62.5t-6.5 80.5z" />
    <glyph glyph-name="uni0455" unicode="&#x455;" 
d="M42 138h108q2 -27 27.5 -43t66.5 -16h35q50 0 80 20t36 55q11 62 -75 74l-79 11q-169 21 -146 161q12 76 71.5 118t156.5 42h36q85 0 133 -38t47 -105h-109q-2 25 -24.5 39.5t-60.5 14.5h-36q-46 0 -74.5 -17.5t-33.5 -52.5q-9 -58 68 -68l80 -11q177 -24 154 -165
q-13 -81 -74.5 -124t-163.5 -43h-35q-89 0 -139.5 39.5t-48.5 108.5z" />
    <glyph glyph-name="uni0456" unicode="&#x456;" 
d="M38 0l16 100h199l55 351h-173l16 99h279l-71 -450h162l-16 -100h-467zM308 700q5 29 26 47t52 18h24q31 0 47 -17.5t11 -46.5t-26.5 -46t-52.5 -17h-23q-31 0 -47 16.5t-11 45.5z" />
    <glyph glyph-name="uni042E" unicode="&#x42e;" 
d="M-30 0l114 720h103l-47 -299h90l19 123q6 42 25 76t47 58.5t64 38t77 13.5t72.5 -13.5t52 -38t28.5 -58.5t1 -76l-58 -367q-7 -42 -25.5 -76.5t-46.5 -59t-64 -38t-77 -13.5t-73 13.5t-52 38t-28 59t-1 76.5l24 151h-90l-52 -328h-103zM294 173q-7 -45 11.5 -69t53.5 -24
q36 0 62 24t33 69l59 374q7 45 -11 69t-54 24t-62 -24t-33 -69z" />
    <glyph glyph-name="uni042C" unicode="&#x42c;" 
d="M33 0l114 720h110l-45 -286h135q52 0 92 -15.5t65.5 -44t36 -68.5t2.5 -89q-8 -50 -30.5 -90.5t-57 -68.5t-79.5 -43t-98 -15h-245zM159 98h128q57 0 95.5 31.5t47.5 85.5q9 55 -20 88t-85 33h-129z" />
    <glyph glyph-name="uni042B" unicode="&#x42b;" 
d="M-10 0l114 720h102l-46 -286h62q46 0 81 -14t57.5 -40t31 -62.5t2.5 -80.5l-6 -41q-6 -44 -26.5 -80t-51.5 -62t-71 -40t-86 -14h-163zM522 720h102l-114 -720h-102zM106 92h60q48 0 80 28.5t40 76.5l7 39q8 49 -15.5 77.5t-71.5 28.5h-60z" />
    <glyph glyph-name="uni042A" unicode="&#x42a;" 
d="M71 720h215l-46 -286h118q51 0 91 -16t66 -44.5t36.5 -68.5t2.5 -88q-8 -49 -30.5 -89.5t-57 -68.5t-79 -43.5t-97.5 -15.5h-228l99 626h-105zM187 98h112q57 0 96 32t47 87q8 54 -20.5 86.5t-84.5 32.5h-112z" />
    <glyph glyph-name="uni042F" unicode="&#x42f;" 
d="M-5 0l194 309q-59 23 -87 74.5t-16 123.5q8 49 30 88.5t56 67t79 42.5t98 15h233l-114 -720h-109l46 293h-107l-179 -293h-124zM296 385h124l38 240h-124q-53 0 -91 -33t-46 -88q-8 -54 18.5 -86.5t80.5 -32.5z" />
    <glyph glyph-name="uni042D" unicode="&#x42d;" 
d="M243 -10q-98 0 -151 54.5t-47 148.5h110q-4 -49 23.5 -77t79.5 -28q57 0 94 31.5t46 87.5l17 109h-232l15 97h233l16 101q9 55 -18.5 86.5t-84.5 31.5q-52 0 -88.5 -28t-47.5 -77h-110q12 47 36 84.5t58 64t76.5 40.5t91.5 14q53 0 93.5 -15t66 -42.5t35.5 -67t2 -88.5
l-50 -314q-8 -48 -30.5 -87.5t-56.5 -67.5t-79 -43t-98 -15z" />
    <glyph glyph-name="uni041B" unicode="&#x41b;" 
d="M-32 -5l15 101h23q38 0 62 35.5t38 114.5l81 474h397l-114 -720h-110l98 619h-179l-64 -373q-44 -251 -219 -251h-28z" />
    <glyph glyph-name="uni0414" unicode="&#x414;" 
d="M-12 96h40q19 27 37 69q16 36 33.5 91.5t31.5 133.5l58 330h386l-99 -624h67l-37 -236h-100l22 140h-354l-22 -140h-100zM368 96l83 526h-174l-41 -232q-14 -81 -30.5 -135t-30.5 -88q-16 -40 -32 -63l-2 -8h227z" />
    <glyph glyph-name="uni0423" unicode="&#x423;" 
d="M97 720h118l76 -327q5 -20 6.5 -39.5t2.5 -35.5q0 -18 -1 -35h8q3 16 8 35q5 16 11.5 35.5t16.5 39.5l169 327h119l-384 -720h-116l104 188z" />
    <glyph glyph-name="uni0424" unicode="&#x424;" 
d="M209 45q-46 0 -82 15.5t-59.5 43t-32 66.5t-1.5 87l36 228q8 48 29 88t53 68t73 43.5t88 15.5l11 67h95l-10 -67q47 0 83 -15.5t58.5 -43.5t31.5 -68t1 -88l-36 -228q-7 -48 -28.5 -87t-53.5 -66.5t-72.5 -43t-87.5 -15.5l-10 -67h-96zM319 134q51 0 87.5 33.5t44.5 89.5
l37 228q9 57 -16.5 91.5t-76.5 34.5zM130 257q-9 -56 16.5 -89.5t76.5 -33.5l76 477q-51 0 -87.5 -34.5t-45.5 -91.5z" />
    <glyph glyph-name="uni0427" unicode="&#x427;" 
d="M264 255q-97 0 -145 54.5t-33 147.5l42 263h109l-41 -260q-8 -49 20.5 -78t84.5 -29q32 0 54 3.5t36 8.5q17 5 27 12l55 343h109l-114 -720h-109l34 217q6 33 9 48q1 9 3 16q-15 -7 -36 -13q-18 -5 -44 -9t-61 -4z" />
    <glyph glyph-name="uni043D" unicode="&#x43d;" 
d="M32 0l87 550h110l-36 -223h217l36 223h109l-87 -550h-109l35 226h-217l-35 -226h-110z" />
    <glyph glyph-name="uni0451" unicode="&#x451;" 
d="M248 -10q-52 0 -92 15t-65.5 43t-35.5 67t-2 88l23 144q8 49 30 88.5t56.5 67t79 42.5t97.5 15q52 0 91.5 -15t65 -43t36 -67.5t2.5 -87.5l-16 -101h-351l-6 -39q-9 -60 18 -93.5t84 -33.5q42 0 75 14t51 39h107q-14 -32 -38.5 -58.5t-56.5 -45t-71 -29t-82 -10.5z
M423 325l4 22q11 58 -17 90.5t-86 32.5q-57 0 -93 -32.5t-47 -90.5l-4 -22h243zM415 726q5 28 26 44.5t50 16.5t44 -16.5t10 -44.5q-5 -29 -25.5 -46t-49.5 -17t-44.5 17t-10.5 46zM212 726q5 28 25.5 44.5t49.5 16.5t44.5 -16.5t10.5 -44.5q-5 -29 -25.5 -46t-49.5 -17
t-44.5 17t-10.5 46z" />
    <glyph glyph-name="uni0438" unicode="&#x438;" 
d="M58 184l58 366h108l-55 -347q-9 -57 14.5 -88t75.5 -31t87.5 31t43.5 85l56 350h108l-87 -550h-103l15 95h-8q-19 -50 -62 -77.5t-102 -27.5q-40 0 -71.5 14t-51 39.5t-26.5 61t0 79.5z" />
    <glyph glyph-name="uni044F" unicode="&#x44f;" 
d="M167 204q-60 17 -86.5 59.5t-15.5 106.5q14 85 76.5 132.5t161.5 47.5h252l-87 -550h-109l30 194h-112l-153 -194h-127zM176 369q-7 -41 16.5 -63.5t71.5 -22.5h139l28 172h-140q-48 0 -78.5 -22.5t-36.5 -63.5z" />
    <glyph glyph-name="uni043F" unicode="&#x43f;" 
d="M119 550h436l-87 -550h-109l71 449h-217l-71 -449h-110z" />
    <glyph glyph-name="uni043B" unicode="&#x43b;" 
d="M-32 -5l15 101h23q39 0 62 31.5t36 105.5l56 317h397l-87 -550h-110l71 449h-179l-40 -222q-21 -119 -74 -175.5t-142 -56.5h-28z" />
    <glyph glyph-name="uni0434" unicode="&#x434;" 
d="M52 207l12 73q17 100 75.5 156t148.5 56q49 0 76 -15.5t40 -34.5q16 -22 19 -50h10l8 48q14 81 -23.5 126.5t-115.5 45.5h-155l17 108h155q114 0 175 -57.5t61 -160.5q0 -15 -1.5 -30t-3.5 -32l-37 -233q-16 -102 -86.5 -159.5t-178.5 -57.5q-52 0 -92.5 15t-66 43.5
t-35.5 68.5t-2 90zM264 87q56 0 94 31.5t46 88.5l11 73q8 57 -18.5 88.5t-83.5 31.5q-56 0 -93.5 -31.5t-45.5 -88.5l-12 -73q-9 -57 18 -88.5t84 -31.5z" />
    <glyph glyph-name="uni0433" unicode="&#x433;" 
d="M230 -10q-103 0 -151.5 43.5t-35.5 123.5q22 142 209 166l84 11q79 10 88 66q5 35 -17 53t-68 18h-36q-37 0 -64 -14.5t-37 -39.5h-113q20 66 81 104.5t147 38.5h36q98 0 145 -42t35 -118q-22 -139 -200 -163l-82 -10q-45 -5 -69.5 -24t-29.5 -49q-5 -35 19 -55t74 -20
h35q40 0 70 16t41 43h113q-20 -68 -84 -108t-154 -40h-36z" />
    <glyph glyph-name="uni043A" unicode="&#x43a;" 
d="M35 0l88 550h109l-35 -223h96l185 223h126l-225 -272l141 -278h-126l-115 232h-97l-37 -232h-110z" />
    <glyph glyph-name="uni043C" unicode="&#x43c;" 
d="M10 0l87 550h132l52 -214q3 -11 4.5 -23.5t2.5 -23.5q1 -14 1 -27h7q5 13 11 27q5 11 11 23.5t11 23.5l114 214h134l-87 -550h-99l50 314q3 20 8 41t10 39q5 21 11 42h-9q-9 -21 -19 -41q-8 -17 -17.5 -36.5t-17.5 -34.5l-81 -152h-95l-35 152q-3 16 -6.5 35.5t-5.5 36.5
q-3 20 -6 41h-8q-1 -20 -2 -42q-2 -18 -4 -39.5t-5 -41.5l-50 -314h-99z" />
    <glyph glyph-name="uni0444" unicode="&#x444;" 
d="M209 15q-98 0 -146 54t-32 150l22 134q16 95 80 148.5t161 53.5h1l4 24q12 71 58.5 107.5t121.5 36.5h92l-13 -83h-92q-29 0 -49 -16.5t-25 -45.5l-4 -23q98 0 145.5 -53.5t32.5 -148.5l-21 -134q-7 -48 -28 -85.5t-52 -64t-72 -40.5t-89 -14l-6 -36q-12 -71 -57.5 -109
t-111.5 -38h-97l12 79h92q26 0 44.5 17t23.5 50l6 37h-1zM126 219q-9 -56 16.5 -87t79.5 -31l59 369q-54 0 -90 -31t-44 -86zM317 101q54 0 89.5 31t43.5 87l22 134q8 55 -18 86t-79 31z" />
    <glyph glyph-name="uni0439" unicode="&#x439;" 
d="M58 184l58 366h108l-55 -347q-9 -57 14.5 -88t75.5 -31t87.5 31t43.5 85l56 350h108l-87 -550h-103l15 95h-8q-19 -50 -62 -77.5t-102 -27.5q-40 0 -71.5 14t-51 39.5t-26.5 61t0 79.5zM195 790h87q-5 -32 14.5 -50t58.5 -18t65 18t32 50h89q-5 -32 -21.5 -58.5t-42 -45
t-59.5 -28.5t-73 -10q-38 0 -68.5 10.5t-50 29t-28 45t-3.5 57.5z" />
    <glyph glyph-name="uni0442" unicode="&#x442;" 
d="M79 550h516l-15 -99h-203l-71 -451h-112l72 451h-203z" />
    <glyph glyph-name="uni0436" unicode="&#x436;" 
d="M-46 0l161 283l-65 267h94l55 -240h54l38 240h92l-38 -240h48l132 240h100l-150 -266l71 -284h-98l-57 250h-55l-40 -250h-92l39 250h-49l-136 -250h-104z" />
    <glyph glyph-name="uni0432" unicode="&#x432;" 
d="M222 0q-43 0 -76 13t-54 36t-29.5 55.5t-2.5 72.5l59 373h252q91 0 134 -39t32 -108q-8 -51 -44.5 -80t-95.5 -32l-1 -7q66 -2 95.5 -34t20.5 -93q-12 -74 -71.5 -114.5t-153.5 -42.5h-65zM165 174q-6 -39 14 -62.5t59 -23.5h59q45 0 72.5 19t32.5 54t-15.5 55t-65.5 20
h-146zM189 322h141q40 0 65.5 18.5t30.5 51.5q5 32 -14 51t-60 19h-141z" />
    <glyph glyph-name="uni0448" unicode="&#x448;" 
d="M29 160l62 390h93l-61 -390q-6 -37 12 -58.5t55 -21.5h26l74 470h94l-74 -470h105l75 470h94l-87 -550h-320q-80 0 -120 43t-28 117z" />
    <glyph glyph-name="uni0449" unicode="&#x449;" 
d="M29 160l62 390h90l-62 -390q-5 -37 13 -58.5t54 -21.5h25l75 470h90l-74 -470h98l75 470h90l-74 -470h46l-34 -218h-87l22 138h-265q-78 0 -116.5 43.5t-27.5 116.5z" />
    <glyph glyph-name="uni044C" unicode="&#x44c;" 
d="M64 183l59 367h107l-30 -190h162q97 0 141 -47t30 -133q-14 -85 -72.5 -132.5t-155.5 -47.5h-67q-96 0 -142 49t-32 134zM258 96h56q48 0 75.5 22t34.5 62t-14.5 62t-69.5 22h-155l-13 -81q-7 -42 15.5 -64.5t70.5 -22.5z" />
    <glyph glyph-name="uni044A" unicode="&#x44a;" 
d="M22 451l16 99h232l-30 -190h134q97 0 143 -47.5t32 -132.5t-74.5 -132.5t-156.5 -47.5h-40q-97 0 -143.5 48.5t-32.5 134.5l44 268h-124zM294 97h38q44 0 72 22.5t34 60.5t-15 60.5t-64 22.5h-134l-13 -80q-7 -42 14.5 -64t67.5 -22z" />
    <glyph glyph-name="uni044D" unicode="&#x44d;" 
d="M241 -10q-94 0 -147.5 48t-55.5 134h110q2 -39 31.5 -62t76.5 -23q57 0 94 30.5t45 87.5l5 28h-189l14 92h190l3 20q8 56 -19 87.5t-83 31.5q-48 0 -84.5 -23t-50.5 -63h-110q29 87 97.5 134.5t162.5 47.5q53 0 93 -15t65.5 -42.5t36 -67t2.5 -87.5l-23 -147
q-16 -100 -86 -155.5t-178 -55.5z" />
    <glyph glyph-name="uni0446" unicode="&#x446;" 
d="M60 180l59 370h109l-59 -370q-5 -37 13 -58.5t55 -21.5h121l71 450h109l-71 -450h75l-38 -238h-99l22 138h-205q-87 0 -131 49t-31 131z" />
    <glyph glyph-name="uni044E" unicode="&#x44e;" 
d="M-13 0l87 550h93l-36 -228h90l10 63q13 82 65 128.5t134 46.5q83 0 120.5 -46.5t23.5 -128.5l-34 -220q-14 -82 -66 -128.5t-134 -46.5t-119.5 46.5t-24.5 128.5l11 70h-90l-37 -235h-93zM289 165q-7 -45 10.5 -68.5t53.5 -23.5q37 0 61.5 23.5t31.5 68.5l35 220
q7 45 -10 68.5t-54 23.5t-61.5 -23.5t-31.5 -68.5z" />
    <glyph glyph-name="uni0447" unicode="&#x447;" 
d="M248 155q-97 0 -145 54.5t-33 147.5l31 193h109l-30 -190q-8 -49 20.5 -78t84.5 -29q32 0 54 3.5t36 8.5q17 5 27 11l44 274h109l-87 -550h-109l18 116q6 33 9 48q1 9 3 16q-15 -7 -36 -12q-18 -5 -44 -9t-61 -4z" />
    <glyph glyph-name="uni044B" unicode="&#x44b;" 
d="M29 150l64 400h96l-30 -190h68q77 0 117 -42.5t28 -114.5l-9 -53q-5 -34 -21.5 -62.5t-42 -49t-58 -31.5t-70.5 -11q-37 0 -66 11t-47.5 31t-26 48.5t-2.5 63.5zM398 0l88 550h96l-87 -550h-97zM185 80q32 0 54.5 19.5t27.5 51.5l8 53q5 32 -12 51.5t-49 19.5h-69
l-20 -125q-5 -32 11.5 -51t48.5 -19z" />
    <glyph glyph-name="uni0437" unicode="&#x437;" 
d="M217 -7q-88 0 -139 39t-52 108h110q3 -26 28.5 -40.5t67.5 -14.5h59q44 0 71.5 20.5t32.5 54.5q5 35 -15 55.5t-66 20.5h-140l15 90h136q41 0 65.5 19t29.5 51q5 33 -13.5 51t-59.5 18h-57q-37 0 -65.5 -16t-39.5 -42h-111q11 34 32.5 61.5t51.5 47t67.5 30.5t79.5 11h57
q91 0 137 -40.5t35 -112.5q-8 -50 -46 -81t-98 -35l-1 -4q72 -5 100 -37.5t19 -92.5q-6 -37 -25 -67t-49 -51t-70 -32t-88 -11h-59z" />
    <glyph glyph-name="uni0431" unicode="&#x431;" 
d="M248 -10q-106 0 -159 58t-37 159l38 238q11 67 38 120t68.5 89.5t96 56t118.5 19.5h155l-17 -108h-155q-77 0 -128.5 -47.5t-65.5 -129.5l-8 -48h10q12 28 35 50q19 19 51 34.5t81 15.5q77 0 119 -43t42 -119q0 -11 -1 -23.5t-3 -26.5l-13 -78q-17 -101 -87 -159
t-178 -58zM162 207q-9 -57 18.5 -88.5t83.5 -31.5t93.5 31.5t46.5 88.5l12 78q9 57 -18 88.5t-84 31.5q-56 0 -93.5 -31.5t-46.5 -88.5z" />
    <glyph glyph-name="notequal" unicode="&#x2260;" 
d="M141 159h-86l16 99h131l88 144h-196l15 100h243l100 163h110l-100 -163h87l-15 -100h-134l-88 -144h199l-16 -99h-244l-98 -159h-110z" />
    <glyph glyph-name="uni0401" unicode="&#x401;" 
d="M155 720h434l-15 -96h-325l-33 -205h290l-15 -98h-290l-36 -224h325l-15 -97h-434zM455 886q5 28 26 44.5t50 16.5t44 -16.5t10 -44.5q-5 -29 -25.5 -46t-49.5 -17t-44.5 17t-10.5 46zM252 886q5 28 25.5 44.5t49.5 16.5t44.5 -16.5t10.5 -44.5q-5 -29 -25.5 -46
t-49.5 -17t-44.5 17t-10.5 46z" />
    <glyph glyph-name="uni0406" unicode="&#x406;" 
d="M39 0l15 96h156l84 528h-156l15 96h422l-15 -96h-156l-84 -528h156l-15 -96h-422z" />
    <glyph glyph-name="uni0407" unicode="&#x407;" 
d="M39 0l15 96h156l84 528h-156l15 96h422l-15 -96h-156l-84 -528h156l-15 -96h-422zM435 886q5 28 26 44.5t50 16.5t44 -16.5t10 -44.5q-5 -29 -25.5 -46t-49.5 -17t-44.5 17t-10.5 46zM232 886q5 28 25.5 44.5t49.5 16.5t44.5 -16.5t10.5 -44.5q-5 -29 -25.5 -46
t-49.5 -17t-44.5 17t-10.5 46z" />
    <glyph glyph-name="uni0408" unicode="&#x408;" 
d="M218 -10q-48 0 -86 14t-64.5 39.5t-40 62t-11.5 81.5h110q-1 -45 28.5 -73t79.5 -28q58 0 97.5 33.5t48.5 89.5l65 412h-267l16 99h377l-81 -511q-8 -51 -30.5 -91.5t-58 -69t-82 -43.5t-101.5 -15z" />
    <glyph glyph-name="uni0457" unicode="&#x457;" 
d="M422 726q5 28 26 44.5t50 16.5t44 -16.5t10 -44.5q-5 -29 -25.5 -46t-49.5 -17t-44.5 17t-10.5 46zM219 726q5 28 25.5 44.5t49.5 16.5t44.5 -16.5t10.5 -44.5q-5 -29 -25.5 -46t-49.5 -17t-44.5 17t-10.5 46zM54 100h199l55 351h-173l16 99h279l-71 -450h162l-16 -100
h-467z" />
    <glyph glyph-name="uni0458" unicode="&#x458;" 
d="M6 -170l17 102h136q54 0 91.5 32t45.5 84l64 401h-226l17 101h334l-79 -502q-7 -48 -30 -88.5t-57 -69t-78 -44.5t-94 -16h-141zM424 638q-31 0 -47 16.5t-11 45.5t26.5 47t52.5 18h23q31 0 47 -17.5t11 -46.5t-26 -46t-53 -17h-23z" />
    <glyph glyph-name="uni0490" unicode="&#x490;" 
d="M496 720l17 105h104l-32 -206h-325l-98 -619h-110l114 720h330z" />
    <glyph glyph-name="uni0491" unicode="&#x491;" 
d="M469 550l17 105h104l-32 -206h-325l-71 -449h-110l87 550h330z" />
    <glyph glyph-name="uni0403" unicode="&#x403;" 
d="M601 720l-16 -101h-325l-98 -619h-110l114 720h435zM466 946l-134 -146h-103l114 146h123z" />
    <glyph glyph-name="uni0453" unicode="&#x453;" 
d="M230 -10q-103 0 -151.5 43.5t-35.5 123.5q22 142 209 166l84 11q79 10 88 66q5 35 -17 53t-68 18h-36q-37 0 -64 -14.5t-37 -39.5h-113q20 66 81 104.5t147 38.5h36q98 0 145 -42t35 -118q-22 -139 -200 -163l-82 -10q-45 -5 -69.5 -24t-29.5 -49q-5 -35 19 -55t74 -20
h35q40 0 70 16t41 43h113q-20 -68 -84 -108t-154 -40h-36zM478.502 793h-123.992l-98.4912 -146h102.993z" />
    <glyph glyph-name="uni040C" unicode="&#x40c;" 
d="M146 720h110l-48 -298h103l197 298h124l-232 -351l127 -369h-120l-107 324h-107l-51 -324h-110zM466 946l-134 -146h-103l114 146h123z" />
    <glyph glyph-name="uni045C" unicode="&#x45c;" 
d="M35 0l88 550h109l-35 -223h96l185 223h126l-225 -272l141 -278h-126l-115 232h-97l-37 -232h-110zM471.502 793h-123.992l-98.4912 -146h102.993z" />
    <glyph glyph-name="uni040E" unicode="&#x40e;" 
d="M97 720h118l76 -327q5 -20 6.5 -39.5t2.5 -35.5q0 -18 -1 -35h8q3 16 8 35q5 16 11.5 35.5t16.5 39.5l169 327h119l-384 -720h-116l104 188zM267 940h88q-11 -65 66 -65q38 0 62 16.5t29 48.5h88q-5 -31 -21.5 -56.5t-41.5 -43.5t-57 -28t-70 -10q-75 0 -114.5 37.5
t-28.5 100.5z" />
    <glyph glyph-name="uni045E" unicode="&#x45e;" 
d="M74 241l49 309h108l-46 -290q-9 -56 15.5 -88t75.5 -32t86 31.5t44 85.5l47 293h108l-87 -535q-14 -87 -74 -136t-154 -49h-158l15 95h152q46 0 75 23.5t36 66.5l7 43l20 92h-8q-19 -50 -61 -76.5t-101 -26.5q-82 0 -122.5 52.5t-26.5 141.5zM211 790h87q-5 -32 14.5 -50
t58.5 -18t65 18t32 50h89q-5 -32 -21.5 -58.5t-42 -45t-59.5 -28.5t-73 -10q-38 0 -68.5 10.5t-50 29t-28 45t-3.5 57.5z" />
    <glyph glyph-name="uni040F" unicode="&#x40f;" 
d="M146 720h110l-98 -619h217l98 619h109l-114 -720h-163l-20 -125h-110l20 125h-163z" />
    <glyph glyph-name="uni045F" unicode="&#x45f;" 
d="M119 550h110l-71 -449h217l71 449h109l-87 -550h-163l-20 -125h-110l20 125h-163z" />
    <glyph glyph-name="uni040A" unicode="&#x40a;" 
d="M113 720h93l-45 -282h137l44 282h94l-45 -282h42q77 0 117 -44.5t27 -120.5l-18 -108q-6 -38 -22.5 -68.5t-42.5 -52t-59 -33t-72 -11.5h-135l56 352h-136l-56 -352h-93zM335 87h42q35 0 59 21t30 57l17 107q6 37 -11.5 58.5t-52.5 21.5h-42z" />
    <glyph glyph-name="uni045A" unicode="&#x45a;" 
d="M-1 0l87 550h93l-30 -192h136l31 192h93l-31 -192h54q72 0 109 -42t26 -112l-9 -61q-6 -34 -21 -61.5t-38.5 -47t-53 -30.5t-63.5 -11q-69 0 -105.5 41t-25.5 109l20 129h-136l-43 -272h-93zM344 143q-5 -30 9 -48t41 -18t46.5 18t24.5 48l9 62q5 30 -10.5 48t-45.5 18
h-53z" />
    <glyph glyph-name="uni0409" unicode="&#x409;" 
d="M-57 -5l14 92h19q26 0 46 31t29 80l88 522h297l-46 -285h42q78 0 117 -44.5t27 -120.5l-17 -105q-6 -38 -22.5 -68.5t-42.5 -52t-59 -33t-72 -11.5h-135l101 634h-112l-74 -436q-8 -46 -24.5 -83.5t-39.5 -64t-53 -41t-64 -14.5h-19zM335 87h42q35 0 59 21t30 57l17 104
q5 37 -12 58t-52 21h-42z" />
    <glyph glyph-name="uni0459" unicode="&#x459;" 
d="M-34 90h18q26 0 46 29t29 79l60 352h296l-30 -192h60q35 0 61.5 -10.5t43.5 -29.5t23.5 -46t1.5 -60l-12 -75q-5 -32 -20.5 -58.5t-38.5 -45.5t-52.5 -29.5t-64.5 -10.5q-69 0 -104.5 39.5t-25.5 103.5l51 326h-111l-44 -264q-16 -93 -65 -148t-118 -55h-19zM350 136
q-4 -26 9.5 -42.5t41.5 -16.5q27 0 45.5 16.5t23.5 43.5l12 75q5 27 -9 43.5t-42 16.5h-60z" />
    <glyph glyph-name="uni0454" unicode="&#x454;" 
d="M43 201l23 147q8 48 30.5 87.5t57 67t79.5 42.5t97 15q94 0 147.5 -47.5t55.5 -134.5h-110q-2 40 -31.5 63t-76.5 23q-56 0 -94 -31.5t-46 -87.5l-3 -20h190l-15 -92h-190l-4 -28q-8 -57 19 -87.5t83 -30.5q48 0 84 23t51 62h110q-29 -86 -97.5 -134t-162.5 -48
q-109 0 -161 55.5t-36 155.5z" />
    <glyph glyph-name="uni0404" unicode="&#x404;" 
d="M47 203l49 314q8 49 30.5 88.5t57 67t79.5 42.5t98 15q49 0 87 -14t63.5 -40.5t37.5 -64t9 -84.5h-109q4 49 -24 77t-80 28q-56 0 -93 -31.5t-46 -86.5l-16 -101h232l-15 -97h-233l-17 -109q-9 -56 18 -87.5t84 -31.5q52 0 88.5 28t48.5 77h110q-12 -47 -36 -84.5
t-58 -64t-77 -40.5t-92 -14q-52 0 -92.5 15t-66 43t-35.5 67.5t-2 87.5z" />
    <glyph glyph-name="uni045B" unicode="&#x45b;" 
d="M117 550h-66l12 78h66l16 102h110l-16 -102h101l-12 -78h-101l-8 -48q-2 -15 -6 -31.5t-7.5 -30.5t-5.5 -23.5l-2 -9.5h9q18 50 61 77.5t103 27.5q83 0 123.5 -54t26.5 -144l-50 -314h-110l47 299q9 56 -15 87.5t-76 31.5q-51 0 -86.5 -33t-44.5 -90l-47 -295h-109z" />
    <glyph glyph-name="uni0452" unicode="&#x452;" 
d="M120 550h-66l13 78h65l17 102h109l-16 -102h101l-12 -78h-101l-8 -48q-5 -31 -13 -62q-4 -17 -8 -33h9q19 50 62 77.5t102 27.5q83 0 122.5 -53t27.5 -142l-45 -289q-7 -45 -28.5 -81.5t-54 -62.5t-75 -40t-90.5 -14h-64l17 103h66q49 0 80.5 26.5t39.5 74.5l42 265
q9 56 -15.5 87.5t-75.5 31.5q-52 0 -87 -31t-43 -85l-48 -302h-110z" />
    <glyph glyph-name="uni040B" unicode="&#x40b;" 
d="M48 621l16 99h333l-15 -99h-117l-34 -216l18 17q37 35 76.5 54t77.5 19q39 0 69 -13.5t49 -38t26 -59t0 -77.5l-49 -307h-110l46 292q17 109 -64 109q-27 0 -52.5 -13t-54.5 -40l-48 -45l-48 -303h-110l98 621h-107z" />
    <glyph glyph-name="uni0402" unicode="&#x402;" 
d="M50 621l16 99h333l-15 -99h-117l-34 -216l18 17q37 35 76.5 54t77.5 19q39 0 69 -13.5t48.5 -38t25.5 -59t1 -77.5l-44 -277q-7 -45 -28.5 -81.5t-54 -62.5t-74.5 -40t-91 -14h-63l16 102h67q48 0 79.5 26.5t39.5 74.5l40 257q18 109 -64 109q-52 0 -107 -50l-48 -45
l-48 -306h-110l98 621h-107z" />
    <glyph glyph-name="ij" unicode="&#x133;" 
d="M137 -165l16 98h83q48 0 79.5 26t39.5 71l83 520h109l-82 -520q-7 -44 -28 -80t-53 -61.5t-74 -39.5t-90 -14h-83zM134 550h107l-87 -550h-107zM490 638q-31 0 -47 16.5t-11 45.5t26 47t52 18h24q31 0 47 -17.5t11 -46.5t-26.5 -46t-52.5 -17h-23zM189 638
q-31 0 -47.5 16.5t-11.5 45.5t26.5 47t52.5 18h23q31 0 47 -17.5t11 -46.5t-26 -46t-52 -17h-23z" />
    <glyph glyph-name="IJ" unicode="&#x132;" 
d="M223 91h56q57 0 92 29t43 83l66 417h-143l16 100h253l-82 -517q-16 -101 -83.5 -155t-176.5 -54h-57zM126 720h111l-114 -720h-111z" />
    <glyph glyph-name="SPC" 
 />
    <glyph glyph-name="bracketleft_bar_bar_bracketright.liga" 
d="M-1466 827h265l-14 -100h-155l-121 -741h155l-14 -99h-265zM18 -14h155l122 741h-155l13 100h265l-149 -940h-265zM-284 827h110l-149 -940h-110zM-864 827h110l-149 -940h-110z" />
    <glyph glyph-name="bar_braceright.liga" 
d="M-120 -15h114q41 0 65.5 19.5t30.5 58.5l26 160q9 56 46 92t97 38l1 5q-60 2 -84.5 39t-15.5 93l25 160q7 38 -11 57.5t-59 19.5h-114l14 100h124q87 0 128 -46t29 -127l-26 -157q-4 -23 -3 -40t9.5 -28t25 -16.5t43.5 -5.5h98l-14 -100h-98q-54 0 -76 -22t-30 -68
l-26 -161q-13 -80 -67.5 -125t-142.5 -45h-123zM-270 827h110l-149 -940h-110z" />
    <glyph glyph-name="bracketleft_bar.liga" 
d="M-409 -113l149 940h395l-14 -100h-285l-121 -741h285l-14 -99h-395zM310 827h110l-149 -940h-110z" />
    <glyph glyph-name="bracketleft_less.liga" 
d="M-33 288l18 114l474 210l-18 -112l-320 -135q-14 -6 -26.5 -9.5t-22.5 -5.5q-11 -2 -21 -3l-1 -8q9 -2 20 -4q9 -2 20.5 -6t22.5 -10l277 -137l-16 -104zM-300 830h265l-18 -100h-155l-113 -740h155l-18 -100h-265z" />
    <glyph glyph-name="braceleft_bar.liga" 
d="M-441 306l14 100h98q53 0 75 22t30 68l26 160q13 81 68 126t142 45h123l-14 -100h-113q-83 0 -96 -77l-27 -161q-8 -56 -45.5 -91.5t-96.5 -37.5l-1 -5q30 -1 51 -11.5t33.5 -28.5t16 -41.5t-0.5 -51.5l-26 -159q-7 -38 11.5 -58t59.5 -20h113l-14 -99h-123
q-87 0 -129 45.5t-28 126.5l26 158q8 46 -6.5 68t-68.5 22h-98zM310 826h110l-149 -940h-110z" />
    <glyph glyph-name="bar_bracketright.liga" 
d="M-134 -113l14 99h285l121 741h-285l14 100h395l-149 -940h-395zM-419 -113l149 940h110l-149 -940h-110z" />
    <glyph glyph-name="slash_equal.liga" 
d="M-86 830h116l-175 -330h665l-17 -100h-701l-74 -140h753l-18 -100h-788l-143 -270h-117z" />
    <glyph glyph-name="less_less.liga" 
d="M36 393l478 208l-17 -110l-323 -139q-15 -6 -27.5 -9t-20.5 -5q-11 -1 -19 -1l-2 -8q8 0 18 -2q9 -2 20.5 -5t24.5 -10l278 -141l-16 -103l-412 209zM-489 393l478 208l-17 -110l-323 -139q-15 -6 -27.5 -9t-21.5 -5q-10 -1 -18 -1l-2 -8q8 0 18 -2q9 -2 20 -5t25 -10
l278 -141l-16 -103l-412 209z" />
    <glyph glyph-name="less_bar_bar_bar.liga" 
d="M-1377 278l18 114l645 358h110l-131 -830h-110zM-1285 328q8 0 18 -2q8 -2 19 -6.5t25 -13.5l398 -261l90 572l-479 -259q-17 -8 -29.5 -13t-21.5 -7q-10 -2 -18 -2zM18 -79l131 829h110l-131 -829h-110zM-413 -79l132 829h110l-132 -829h-110z" />
    <glyph glyph-name="less_bar_bar.liga" 
d="M-945 274l19 115l645 361h110l-132 -833h-110zM-776 294l383 -254l92 582l-462 -257q-15 -8 -29.5 -14t-26.5 -11q-13 -5 -25 -8l-1 -8q11 -3 22 -7t23 -9.5t24 -13.5zM18 -80l131 830h110l-131 -830h-110z" />
    <glyph glyph-name="less_bar.liga" 
d="M-393 274l19 115l645 361h110l-132 -833h-110zM-224 294l383 -254l92 582l-462 -257q-15 -8 -29.5 -14t-26.5 -11q-13 -5 -25 -8l-1 -8q11 -3 22 -7t23 -9.5t24 -13.5z" />
    <glyph glyph-name="greater_greater.liga" 
d="M11 68l18 114l322 137q15 7 27.5 9.5t21.5 3.5q11 2 19 1l1 8q-8 0 -18 2q-9 2 -20 5t-25 10l-278 141l16 102l412 -208l-18 -117zM-497 182l323 137q15 7 27.5 9.5t20.5 3.5q11 2 19 1l1 8q-8 0 -18 2q-19 3 -44 15l-278 141l16 102l412 -208l-19 -117l-478 -208z" />
    <glyph glyph-name="greater_bracketright.liga" 
d="M-412 189l319 136q14 6 26.5 10t22.5 6q11 3 21 4l1 8q-9 1 -20 4q-19 3 -43 15l-279 140l18 100l407 -210l-19 -114l-473 -210zM307 -110h-265l18 100h155l113 740h-155l18 100h265z" />
    <glyph glyph-name="colon_question.liga" 
d="M86 617l16 103h135q54 0 94.5 -15.5t67 -44t37 -68.5t2.5 -90q-14 -88 -73 -139.5t-152 -54.5l-15 -96h-102l29 191h67q57 0 94 28t45 79t-20.5 79t-85.5 28h-139zM-376 76q7 38 35 62.5t68 24.5t59.5 -24.5t13.5 -62.5q-6 -39 -34.5 -62.5t-67.5 -23.5q-40 0 -60 24
t-14 62zM-310 472q7 39 35 63.5t67 24.5q40 0 60.5 -24.5t13.5 -63.5q-7 -38 -35.5 -61.5t-67.5 -23.5t-59 23.5t-14 61.5zM51 58q5 29 27 46.5t53 17.5h24q31 0 46 -17.5t10 -46.5t-27 -46t-53 -17h-23q-31 0 -46.5 17t-10.5 46z" />
    <glyph glyph-name="colon_question_greater.liga" 
d="M-511 720h135q53 0 94 -15.5t67 -44t36.5 -68.5t3.5 -90q-14 -88 -73 -139.5t-152 -54.5l-16 -96h-101l29 191h66q57 0 94 28t45 79t-20 79t-86 28h-138zM-41 63l18 111l318 136q14 6 26.5 10t22.5 6q11 3 21 4l1 8q-9 1 -20 4q-19 3 -43 15l-278 140l16 100l408 -210
l-18 -114zM-963 472q6 39 34 63.5t68 24.5q39 0 59.5 -24.5t14.5 -63.5q-6 -38 -34.5 -61.5t-67.5 -23.5t-59.5 23.5t-14.5 61.5zM-1026 76q6 38 34 62.5t68 24.5q39 0 59.5 -24.5t14.5 -62.5q-6 -39 -34.5 -62.5t-67.5 -23.5t-59.5 24t-14.5 62zM-566 58q5 29 27 46.5
t53 17.5h24q30 0 45.5 -18t10.5 -47t-27 -45.5t-53 -16.5h-23q-31 0 -46.5 17t-10.5 46z" />
    <glyph glyph-name="colon_colon_equal.liga" 
d="M-481 527q7 39 34.5 63.5t67.5 24.5t60.5 -24.5t13.5 -63.5q-7 -38 -35 -61.5t-67 -23.5q-40 0 -60 23.5t-14 61.5zM-546 131q6 38 34 62.5t68 24.5q39 0 59 -24.5t14 -62.5q-6 -39 -34.5 -62.5t-67.5 -23.5t-59.5 24t-13.5 62zM-59 258h440l-16 -99h-440zM-21 502h440
l-15 -100h-440zM-929 527q7 39 34.5 63.5t67.5 24.5t60.5 -24.5t13.5 -63.5q-7 -38 -35 -61.5t-67 -23.5q-40 0 -60 23.5t-14 61.5zM-994 131q6 38 34 62.5t68 24.5q39 0 59 -24.5t14 -62.5q-6 -39 -34.5 -62.5t-67.5 -23.5t-59.5 24t-13.5 62z" />
    <glyph glyph-name="bar_bar_bar_greater.liga" 
d="M-477 -80l132 830h110l532 -358l-19 -114l-645 -358h-110zM-346 54l480 262q17 9 29.5 12.5t21.5 5.5q10 1 18 0l1 8q-8 0 -17 2q-8 2 -19 6.5t-25 13.5l-398 265zM-909 -79l132 829h110l-132 -829h-110zM-1344 -79l132 829h109l-131 -829h-110z" />
    <glyph glyph-name="bar_bar_greater.liga" 
d="M-425 -83l132 833h110l532 -361l-19 -115l-645 -357h-110zM168 303q15 8 29.5 14t25.5 9q13 4 25 7l1 8q-11 3 -22 7t-23 9.5t-24 13.5l-382 257l-92 -579zM-727 750h110l-132 -829h-110z" />
    <glyph glyph-name="bar_greater.liga" 
d="M-385 -83l132 833h110l532 -361l-19 -115l-645 -357h-110zM-254 49l462 254q15 8 29.5 14t25.5 9q13 4 25 7l1 8q-11 3 -22 7t-23 9.5t-24 13.5l-382 257z" />
    <glyph glyph-name="zero.alt" 
d="M248 -10q-52 0 -92 15.5t-65.5 44t-35.5 69t-3 89.5l49 305q17 101 87 159t178 58q52 0 92 -15.5t65.5 -44t36 -68.5t2.5 -89l-49 -305q-8 -50 -30.5 -90.5t-57 -69t-79.5 -43.5t-98 -15zM453 521q6 52 -21.5 82.5t-81.5 30.5q-55 0 -93 -32.5t-46 -88.5l-37 -227z
M161 199q-6 -52 21.5 -82t81.5 -30q55 0 93 32.5t47 88.5l36 226z" />
    <glyph glyph-name="a.alt" 
d="M53 207l22 138q8 48 27.5 88t49 68t66.5 43.5t79 15.5q60 0 94 -28t38 -77h8l16 95h103l-87 -550h-103l15 95h-9q-19 -48 -63 -76.5t-102 -28.5q-74 0 -116 45.5t-42 123.5q0 25 4 48zM257 86q54 0 90.5 33t45.5 88l24 151q2 50 -23.5 78.5t-73.5 28.5q-56 0 -92 -32.5
t-45 -89.5l-21 -135q-9 -57 16 -89.5t79 -32.5z" />
    <glyph glyph-name="uni03BC" unicode="&#x3bc;" 
d="M5 -167l114 717h110l-56 -349q-8 -56 13 -85.5t77 -29.5q109 0 127 115l56 349h109l-55 -349q-16 -100 -78.5 -155.5t-162.5 -55.5q-48 0 -75.5 13t-41.5 28q-17 18 -22 41h-6q1 0 2.5 -8.5t2.5 -21.5t2 -28t0 -27l-10 -154h-106z" />
    <glyph glyph-name="pi" unicode="&#x3c0;" 
d="M54 550h545l-16 -98h-78l-44 -276q-6 -38 8.5 -59t47.5 -21h28l-16 -101h-28q-81 0 -121.5 49t-26.5 133l43 272h-174l-71 -449h-108l71 450h-76z" />
    <glyph glyph-name="uni2126" unicode="&#x2126;" 
d="M0 0l16 100h145l1 5q-34 6 -59 26q-21 17 -35.5 48.5t-6.5 85.5l40 247q8 50 30.5 90t57 68.5t79.5 44t98 15.5t93 -15.5t65.5 -44t35.5 -68.5t2 -90l-39 -247q-8 -54 -33 -85.5t-51 -48.5q-31 -19 -67 -25l-1 -6h146l-16 -100h-211l24 150q35 0 62.5 30.5t35.5 79.5
l40 252q9 56 -18.5 89t-83.5 33q-55 0 -93 -33t-47 -89l-40 -252q-8 -49 10 -79.5t54 -30.5l-24 -150h-210z" />
    <glyph glyph-name="partialdiff" unicode="&#x2202;" 
d="M248 -10q-52 0 -92.5 15.5t-66 43.5t-35.5 67.5t-2 88.5l12 74q18 110 77.5 164.5t150.5 54.5q47 0 72.5 -14.5t38.5 -31.5q15 -20 19 -46h13q-1 22 -9 50q-8 23 -24 55t-47 69l-125 150h141l96 -119q72 -87 72 -208q0 -16 -1.5 -32t-3.5 -33l-21 -135
q-7 -48 -29.5 -87.5t-57 -67.5t-80 -43t-98.5 -15zM162 205q-8 -56 18.5 -87t83.5 -31t93.5 31t45.5 87l12 74q10 59 -17 92.5t-84 33.5t-94.5 -33.5t-46.5 -93.5z" />
    <glyph glyph-name="uni2206" unicode="&#x2206;" 
d="M0 0l14 89l274 631h151l68 -631l-14 -89h-493zM403 89l-43 460q-2 19 -2.5 36.5t-0.5 31.5q0 16 1 30h-5q-4 -14 -9 -30q-5 -14 -11 -31.5t-14 -36.5l-189 -460h273z" />
    <glyph glyph-name="product" unicode="&#x220f;" 
d="M146 720h436l-114 -720h-109l98 619h-217l-98 -619h-110z" />
    <glyph glyph-name="summation" unicode="&#x2211;" 
d="M-22 -170l16 101l357 353l-248 335l16 101h485l-16 -99h-282l-72 3v-2l216 -289l-18 -114l-301 -291v-2l73 3h275l-16 -99h-485z" />
    <glyph glyph-name="radical" unicode="&#x221a;" 
d="M-7 452l16 98h180l34 -370q2 -21 2 -39t-1 -32q-1 -16 -3 -29h8q2 13 6 29q4 14 10 32t15 39l238 550h109l-327 -730h-132l-50 452h-105z" />
    <glyph glyph-name="infinity" unicode="&#x221e;" 
d="M138 160q-60 0 -90.5 37.5t-20.5 99.5l11 71q10 61 55 99t109 38q52 0 83.5 -25.5t42.5 -73.5h4q11 28 29 50q16 18 42 33.5t64 15.5q60 0 90.5 -37.5t20.5 -99.5l-11 -71q-10 -61 -55 -99t-109 -38q-51 0 -83 25.5t-43 73.5h-3q-11 -28 -30 -49q-16 -19 -42 -34.5
t-64 -15.5zM107 297q-5 -31 10 -50t44 -19q28 0 47.5 11.5t32 26t19 28t7.5 17.5l-16 76q-14 50 -57 50q-29 0 -50 -19t-26 -50zM354 278q14 -50 57 -50q29 0 50 19t26 50l11 71q5 31 -10 50t-44 19q-27 0 -46.5 -11.5t-32.5 -26t-19 -28t-8 -17.5z" />
    <glyph glyph-name="integral" unicode="&#x222b;" 
d="M-50 -170l16 103h115q48 0 80 26.5t39 74.5l78 488q7 45 28.5 81.5t54 62.5t74.5 40t91 14h111l-16 -103h-115q-48 0 -79.5 -26.5t-39.5 -74.5l-78 -488q-7 -45 -28 -81.5t-54 -62.5t-75 -40t-91 -14h-111z" />
    <glyph glyph-name="approxequal" unicode="&#x2248;" 
d="M50 355l11 70q10 60 50 95t102 35q45 0 71.5 -18.5t44.5 -41t34.5 -41.5t42.5 -19q43 0 51 49l11 66h93l-11 -70q-10 -60 -50.5 -95t-100.5 -35q-30 0 -52 9t-37.5 22t-27.5 29t-23.5 29t-24 22t-29.5 9q-43 0 -51 -49l-11 -66h-93zM50 110l11 70q10 60 50 95t102 35
q45 0 71.5 -18.5t44.5 -41t34.5 -41.5t42.5 -19q43 0 51 49l11 66h93l-11 -70q-10 -60 -50.5 -95t-100.5 -35q-30 0 -52 9t-37.5 22t-27.5 29t-23.5 29t-24 22t-29.5 9q-43 0 -51 -49l-11 -66h-93z" />
    <glyph glyph-name="lozenge" unicode="&#x25ca;" 
d="M54 316l13 86l223 318h151l119 -318l-13 -85l-217 -317h-151zM164 331l61 -166q7 -18 12.5 -35t10.5 -31q5 -15 9 -29h5q8 14 18 29q8 14 19 31t24 35l115 166l9 58l-58 166q-6 19 -11.5 35.5t-10.5 30.5q-5 15 -9 29h-5q-8 -14 -18 -29q-17 -28 -44 -66l-118 -166z" />
    <glyph glyph-name="estimated" unicode="&#x212e;" 
d="M248 -10q-95 0 -149 56t-54 150q0 13 1.5 26.5t3.5 27.5l34 220q9 58 34.5 106t62.5 82t84 53t101 19q96 0 149 -55.5t53 -149.5q0 -14 -1 -27.5t-3 -27.5l-17 -111h-380l-41 -259q9 -18 27 -32q15 -13 40 -23t63 -10q60 0 113 30t81 80h50q-18 -35 -45 -63.5t-60 -49
t-70.5 -31.5t-76.5 -11zM175 409h280l33 211q-9 18 -26 33q-15 12 -40 22t-63 10t-66.5 -10t-47.5 -22q-22 -15 -37 -33z" />
    <glyph glyph-name="uni2113" unicode="&#x2113;" 
d="M49 290l109 39l36 236q6 37 22.5 67.5t42 52t58.5 33.5t71 12q75 0 112.5 -45t26.5 -120l-8 -47q-13 -77 -67.5 -138.5t-139.5 -92.5l-55 -20l-15 -100q-5 -33 10.5 -52t47.5 -19q20 0 37 8.5t30 19.5q15 12 28 28l74 -54q-21 -28 -49 -50q-23 -20 -57 -35.5t-79 -15.5
q-81 0 -122 45t-29 125l9 58l-73 -27zM293 378q51 18 81.5 54t38.5 86l7 47q5 31 -8.5 49t-39.5 18t-45 -18t-24 -49l-30 -194z" />
    <glyph glyph-name="uni2215" unicode="&#x2215;" 
d="M506 720h72l-471 -720h-73z" />
    <glyph glyph-name="uni2219" unicode="&#x2219;" 
d="M218 327q7 42 36 67.5t71 25.5t63 -25.5t14 -67.5t-36.5 -68t-71.5 -26t-63 26t-13 68z" />
    <glyph glyph-name="uni02C9" unicode="&#x2c9;" 
d="M262 935h273l-15 -93h-273z" />
    <glyph glyph-name="lessequal" unicode="&#x2264;" 
d="M107 512l474 210l-18 -112l-320 -135q-14 -6 -26.5 -9.5t-22.5 -5.5q-11 -2 -21 -3l-1 -8q9 -2 20 -4q9 -2 20.5 -6t22.5 -10l277 -137l-16 -103l-407 209zM44 100h440l-16 -100h-440z" />
    <glyph glyph-name="greaterequal" unicode="&#x2265;" 
d="M76 299l319 136q14 6 26 10t22 6q11 2 21 4l2 8q-10 1 -20 4q-9 2 -20.5 5.5t-23.5 9.5l-278 140l17 100l408 -210l-20 -114l-473 -210zM29 0l15 100h440l-15 -100h-440z" />
    <glyph glyph-name="asterisk_asterisk_asterisk.liga" 
d="M42 380l50 96l72 -27q16 -6 33 -16t32.5 -21t30 -22.5t24.5 -20.5l5 3q-2 14 -4.5 33.5t-4 40.5t-1 42t3.5 40l13 82h102l-13 -82q-3 -19 -9.5 -40t-14.5 -42t-16.5 -40t-15.5 -34l3 -3q14 9 31 20.5t36.5 23t39 21.5t37.5 16l80 28l19 -101l-79 -27q-18 -6 -38 -10
t-40.5 -6.5t-40 -4t-34.5 -1.5l-3 -6q11 -9 23.5 -21t25.5 -26.5t24.5 -29.5t19.5 -30l37 -67l-90 -57l-37 67q-8 15 -14.5 33.5t-12 38t-9 38t-6.5 32.5h-7q-6 -14 -15 -32.5t-20 -38t-23 -38.5t-25 -34l-58 -68l-76 59l57 67q13 15 29.5 30t34 29.5t35 27t30.5 21.5l-2 5
q-15 1 -34 2.5t-39 4.5t-39 7.5t-35 10.5zM-520 540l50 96l72 -27q16 -6 33 -16t32.5 -21t30 -22.5t24.5 -20.5l5 3q-2 14 -4.5 33.5t-4 40.5t-1 42t3.5 40l13 82h102l-13 -82q-3 -19 -9.5 -40t-14.5 -42t-16.5 -40t-15.5 -34l3 -3q14 9 31 20.5t36.5 23t39 21.5t37.5 16
l80 28l19 -101l-79 -27q-18 -6 -38 -10t-40.5 -6.5t-40 -4t-34.5 -1.5l-3 -6q11 -9 23.5 -21t25.5 -26.5t24.5 -29.5t19.5 -30l37 -67l-90 -57l-37 67q-8 15 -14.5 33.5t-12 38t-9 38t-6.5 32.5h-7q-6 -14 -15 -32.5t-20 -38t-23 -38.5t-25 -34l-58 -68l-76 59l57 67
q13 15 29.5 30t34 29.5t35 27t30.5 21.5l-2 5q-15 1 -34 2.5t-39 4.5t-39 7.5t-35 10.5zM-1079 380l50 96l72 -27q16 -6 33 -16t32.5 -21t30 -22.5t24.5 -20.5l5 3q-2 14 -4.5 33.5t-4 40.5t-1 42t3.5 40l13 82h102l-13 -82q-3 -19 -9.5 -40t-14.5 -42t-16.5 -40t-15.5 -34
l3 -3q14 9 31 20.5t36.5 23t39 21.5t37.5 16l80 28l19 -101l-79 -27q-18 -6 -38 -10t-40.5 -6.5t-40 -4t-34.5 -1.5l-3 -6q11 -9 23.5 -21t25.5 -26.5t24.5 -29.5t19.5 -30l37 -67l-90 -57l-37 67q-8 15 -14.5 33.5t-12 38t-9 38t-6.5 32.5h-7q-6 -14 -15 -32.5t-20 -38
t-23 -38.5t-25 -34l-58 -68l-76 59l57 67q13 15 29.5 30t34 29.5t35 27t30.5 21.5l-2 5q-15 1 -34 2.5t-39 4.5t-39 7.5t-35 10.5z" />
    <glyph glyph-name="colon_colon.liga" 
d="M-280 472q7 39 34.5 63.5t67.5 24.5t60.5 -24.5t13.5 -63.5q-7 -38 -35 -61.5t-67 -23.5q-40 0 -60 23.5t-14 61.5zM-345 76q6 38 34 62.5t68 24.5q39 0 59 -24.5t14 -62.5q-6 -39 -34.5 -62.5t-67.5 -23.5t-59.5 24t-13.5 62zM160 472q7 39 34.5 63.5t67.5 24.5
t60.5 -24.5t13.5 -63.5q-7 -38 -35 -61.5t-67 -23.5q-40 0 -60 23.5t-14 61.5zM95 76q6 38 34 62.5t68 24.5q39 0 59 -24.5t14 -62.5q-6 -39 -34.5 -62.5t-67.5 -23.5t-59.5 24t-13.5 62z" />
    <glyph glyph-name="colon_colon_colon.liga" 
d="M-800 472q7 39 34.5 63.5t67.5 24.5t60.5 -24.5t13.5 -63.5q-7 -38 -35 -61.5t-67 -23.5q-40 0 -60 23.5t-14 61.5zM-865 76q6 38 34 62.5t68 24.5q39 0 59 -24.5t14 -62.5q-6 -39 -34.5 -62.5t-67.5 -23.5t-59.5 24t-13.5 62zM-360 472q7 39 34.5 63.5t67.5 24.5
t60.5 -24.5t13.5 -63.5q-7 -38 -35 -61.5t-67 -23.5q-40 0 -60 23.5t-14 61.5zM-425 76q6 38 34 62.5t68 24.5q39 0 59 -24.5t14 -62.5q-6 -39 -34.5 -62.5t-67.5 -23.5t-59.5 24t-13.5 62zM80 472q7 39 34.5 63.5t67.5 24.5t60.5 -24.5t13.5 -63.5q-7 -38 -35 -61.5
t-67 -23.5q-40 0 -60 23.5t-14 61.5zM15 76q6 38 34 62.5t68 24.5q39 0 59 -24.5t14 -62.5q-6 -39 -34.5 -62.5t-67.5 -23.5t-59.5 24t-13.5 62z" />
    <glyph glyph-name="colon_greater.liga" 
d="M-360 527q7 39 34.5 63.5t67.5 24.5t60.5 -24.5t13.5 -63.5q-7 -38 -35 -61.5t-67 -23.5q-40 0 -60 23.5t-14 61.5zM-425 131q6 38 34 62.5t68 24.5q39 0 59 -24.5t14 -62.5q-6 -39 -34.5 -62.5t-67.5 -23.5t-59.5 24t-13.5 62zM-42 174l319 136q14 6 26.5 10t22.5 6
q11 3 21 4l1 8q-9 1 -20 4q-19 3 -43 15l-279 140l18 100l407 -210l-19 -114l-473 -210z" />
    <glyph glyph-name="colon_less.liga" 
d="M-360 527q7 39 34.5 63.5t67.5 24.5t60.5 -24.5t13.5 -63.5q-7 -38 -35 -61.5t-67 -23.5q-40 0 -60 23.5t-14 61.5zM-425 131q6 38 34 62.5t68 24.5q39 0 59 -24.5t14 -62.5q-6 -39 -34.5 -62.5t-67.5 -23.5t-59.5 24t-13.5 62zM-68 273l18 114l474 210l-18 -112
l-320 -135q-14 -6 -26.5 -9.5t-22.5 -5.5q-11 -2 -21 -3l-1 -8q9 -2 20 -4q9 -2 20.5 -6t22.5 -10l277 -137l-16 -104z" />
    <glyph glyph-name="equal_exclam_equal.liga" 
d="M-6 502h553l-16 -100h-553zM-1093 502h553l-16 -100h-553zM-1132 258h554l-16 -99h-554zM-45 258h553l-15 -99h-554zM-352 225l31 335l25 160h120l-26 -160l-75 -335h-75zM-422 58q5 29 26.5 46.5t52.5 17.5h23q31 0 46.5 -18t10.5 -47t-26 -45.5t-52 -16.5h-23
q-31 0 -47 17t-11 46z" />
    <glyph glyph-name="exclam_exclam.liga" 
d="M-261 560l26 160h119l-26 -160l-75 -335h-75zM-362 57q5 29 26.5 47t52.5 18h23q31 0 47 -17.5t11 -46.5t-26.5 -46t-52.5 -17h-23q-31 0 -47 16.5t-11 45.5zM219 560l26 160h119l-26 -160l-75 -335h-75zM118 57q5 29 26.5 47t52.5 18h23q31 0 47 -17.5t11 -46.5
t-26.5 -46t-52.5 -17h-23q-31 0 -47 16.5t-11 45.5z" />
    <glyph glyph-name="greater_colon.liga" 
d="M240 527q7 39 34.5 63.5t67.5 24.5t60.5 -24.5t13.5 -63.5q-7 -38 -35 -61.5t-67 -23.5q-40 0 -60 23.5t-14 61.5zM175 131q6 38 34 62.5t68 24.5q39 0 59 -24.5t14 -62.5q-6 -39 -34.5 -62.5t-67.5 -23.5t-59.5 24t-13.5 62zM-402 174l319 136q14 6 26.5 10t22.5 6
q11 3 21 4l1 8q-9 1 -20 4q-19 3 -43 15l-279 140l18 100l407 -210l-19 -114l-473 -210z" />
    <glyph glyph-name="less_colon.liga" 
d="M240 527q7 39 34.5 63.5t67.5 24.5t60.5 -24.5t13.5 -63.5q-7 -38 -35 -61.5t-67 -23.5q-40 0 -60 23.5t-14 61.5zM175 131q6 38 34 62.5t68 24.5q39 0 59 -24.5t14 -62.5q-6 -39 -34.5 -62.5t-67.5 -23.5t-59.5 24t-13.5 62zM-390 273l18 114l474 210l-18 -112
l-320 -135q-14 -6 -26.5 -9.5t-22.5 -5.5q-11 -2 -21 -3l-1 -8q9 -2 20 -4q9 -2 20.5 -6t22.5 -10l277 -137l-16 -104z" />
    <glyph glyph-name="less_greater.liga" 
d="M-436 387l480 210l413 -210l-18 -114l-480 -210l-413 210zM-372 326q10 -1 21 -3q9 -2 21 -5.5t24 -9.5l278 -140l330 138q14 6 26.5 9.5t22.5 5.5q12 3 22 4l1 8q-9 1 -20 4q-9 2 -20.5 6t-23.5 10l-281 139l-329 -141q-14 -6 -26.5 -9t-22.5 -5q-11 -2 -21 -3z" />
    <glyph glyph-name="numbersign_numbersign.liga" 
d="M369 190l-65 -190h-83l65 190h-146l-65 -190h-84l65 190h-227l-65 -190h-83l65 190h-146l-65 -190h-84l65 190h-81l10 77h97l63 186h-96l11 77h111l65 190h84l-65 -190h146l65 190h83l-65 -190h227l65 190h84l-65 -190h146l65 190h83l-65 -190h82l-11 -77h-97l-63 -186
h95l-10 -77h-111zM82 267l63 186h-227l-63 -186h227zM312 267l63 186h-146l-63 -186h146zM-228 267l63 186h-146l-63 -186h146z" />
    <glyph glyph-name="numbersign_numbersign_numbersign.liga" 
d="M368 187l-64 -187h-84l64 187h-145l-64 -187h-84l64 187h-257l-64 -187h-84l64 187h-145l-64 -187h-84l64 187h-257l-64 -187h-84l64 187h-145l-64 -187h-84l64 187h-82l12 76h95l65 190h-96l12 77h110l65 190h84l-65 -190h145l65 190h84l-65 -190h257l65 190h84
l-65 -190h145l65 190h84l-65 -190h257l65 190h84l-65 -190h145l65 190h84l-65 -190h83l-12 -77h-97l-65 -190h97l-12 -76h-110zM80 263l65 190h-257l-65 -190h257zM-490 263l65 190h-257l-65 -190h257zM-261 263l65 190h-145l-65 -190h145zM309 263l65 190h-145l-65 -190
h145zM-831 263l65 190h-145l-65 -190h145z" />
    <glyph glyph-name="numbersign_numbersign_numbersign_numbersign.liga" 
d="M368 187l-64 -187h-84l64 187h-145l-64 -187h-84l64 187h-267l-64 -187h-84l64 187h-145l-64 -187h-84l64 187h-267l-64 -187h-84l64 187h-145l-64 -187h-84l64 187h-267l-64 -187h-84l64 187h-145l-64 -187h-84l64 187h-82l12 76h95l65 190h-96l12 77h110l65 190h84
l-65 -190h145l65 190h84l-65 -190h267l65 190h84l-65 -190h145l65 190h84l-65 -190h267l65 190h84l-65 -190h145l65 190h84l-65 -190h267l65 190h84l-65 -190h145l65 190h84l-65 -190h83l-12 -77h-97l-65 -190h97l-12 -76h-110zM80 263l65 190h-267l-65 -190h267zM-1080 263
l65 190h-267l-65 -190h267zM-500 263l65 190h-267l-65 -190h267zM-271 263l65 190h-145l-65 -190h145zM-851 263l65 190h-145l-65 -190h145zM-1431 263l65 190h-145l-65 -190h145zM309 263l65 190h-145l-65 -190h145z" />
    <glyph glyph-name="period_question.liga" 
d="M79 617l16 103h135q54 0 94.5 -15.5t67 -44t37 -68.5t2.5 -90q-14 -88 -73 -139.5t-152 -54.5l-15 -96h-102l29 191h67q57 0 94 28t45 79t-20.5 79t-86.5 28h-138zM44 58q5 29 27 46.5t53 17.5h24q31 0 46 -17.5t10 -46.5t-27 -46t-53 -17h-23q-31 0 -46.5 17t-10.5 46z
M-382 84q7 42 36 67.5t71 25.5t63 -25.5t14 -67.5t-36.5 -68t-71.5 -26t-63 26t-13 68z" />
    <glyph glyph-name="plus_plus_plus.liga" 
d="M-1020 380h184l29 187h109l-30 -187h382l29 187h109l-30 -187h382l29 187h109l-30 -187h184l-15 -100h-185l-29 -187h-109l30 187h-382l-29 -187h-109l30 187h-382l-29 -187h-109l30 187h-184z" />
    <glyph glyph-name="question_colon.liga" 
d="M190 472q7 39 34.5 63.5t67.5 24.5t60.5 -24.5t13.5 -63.5q-7 -38 -35 -61.5t-67 -23.5q-40 0 -60 23.5t-14 61.5zM125 76q6 38 34 62.5t68 24.5q39 0 59 -24.5t14 -62.5q-6 -39 -34.5 -62.5t-67.5 -23.5t-59.5 24t-13.5 62zM-319 617l16 103h135q54 0 94.5 -15.5t67 -44
t37 -68.5t2.5 -90q-14 -88 -73 -139.5t-152 -54.5l-15 -96h-102l29 191h67q57 0 94 28t45 79t-20.5 79t-86.5 28h-138zM-354 58q5 29 27 46.5t53 17.5h24q31 0 46 -17.5t10 -46.5t-27 -46t-53 -17h-23q-31 0 -46.5 17t-10.5 46z" />
    <glyph glyph-name="question_equal.liga" 
d="M-365 720h135q53 0 94 -15.5t67 -44t36 -68.5t3 -90q-14 -88 -73 -139.5t-152 -54.5l-15 -96h-101l28 191h67q57 0 94 28t45 79t-20.5 79t-85.5 28h-139zM-115 254q24 10 42 25t26 32h520l-16 -99h-579zM57 455q2 10 3.5 24.5t3.5 29t3 27.5t1 19h444l-16 -100h-439z
M-417 57q5 29 27.5 47t53.5 18h23q31 0 46 -17.5t10 -46.5t-27 -46t-53 -17h-23q-31 0 -46.5 16.5t-10.5 45.5z" />
    <glyph glyph-name="question_period.liga" 
d="M137 84q7 42 36 67.5t71 25.5t63 -25.5t14 -67.5t-36.5 -68t-71.5 -26t-63 26t-13 68zM-319 617l16 103h135q54 0 94.5 -15.5t67 -44t37 -68.5t2.5 -90q-14 -88 -73 -139.5t-152 -54.5l-15 -96h-102l29 191h67q57 0 94 28t45 79t-20.5 79t-86.5 28h-138zM-354 58
q5 29 27 46.5t53 17.5h24q31 0 46 -17.5t10 -46.5t-27 -46t-53 -17h-23q-31 0 -46.5 17t-10.5 46z" />
    <glyph glyph-name="uni2047.liga" 
d="M134 617l16 103h135q54 0 94.5 -15.5t67 -44t37 -68.5t2.5 -90q-14 -88 -73 -139.5t-152 -54.5l-15 -96h-102l29 191h67q57 0 94 28t45 79t-20.5 79t-86.5 28h-138zM99 58q5 29 27 46.5t53 17.5h24q31 0 46 -17.5t10 -46.5t-27 -46t-53 -17h-23q-31 0 -46.5 17t-10.5 46z
M-371 617l16 103h135q54 0 94.5 -15.5t67 -44t37 -68.5t2.5 -90q-14 -88 -73 -139.5t-152 -54.5l-15 -96h-102l29 191h67q57 0 94 28t45 79t-20.5 79t-86.5 28h-138zM-406 58q5 29 27 46.5t53 17.5h24q31 0 46 -17.5t10 -46.5t-27 -46t-53 -17h-23q-31 0 -46.5 17t-10.5 46z
" />
    <glyph glyph-name="semicolon_semicolon.liga" 
d="M-413 -160l130 311h146l-179 -311h-97zM-255 471q6 40 34.5 64.5t69.5 24.5t61 -24.5t14 -64.5t-34.5 -64t-68.5 -24q-41 0 -61.5 24.5t-14.5 63.5zM27 -160l130 311h146l-179 -311h-97zM185 471q6 40 34.5 64.5t69.5 24.5t61 -24.5t14 -64.5t-34.5 -64t-68.5 -24
q-41 0 -61.5 24.5t-14.5 63.5z" />
    <glyph glyph-name="slash_equal_equal.liga" 
d="M-1200 -110l498 940h117l-174 -329h1278l-15 -99h-1316l-76 -144h1369l-16 -99h-1405l-143 -269h-117z" />
    <glyph glyph-name="less_bar_greater.liga" 
d="M-148 -86l21 130l463 255q15 8 28.5 14t24.5 10q12 4 23 7l1 8q-10 3 -21 7q-9 4 -21 10t-24 14l-381 261l19 120l531 -363l-18 -114zM-478 -86l-531 359l18 114l646 363l-21 -129l-463 -261q-15 -8 -28.5 -14t-24.5 -10q-12 -5 -23 -8l-1 -8q10 -3 21 -7q9 -3 21 -8.5
t24 -13.5l381 -257zM-230 780h109l-141 -890h-109z" />
    <glyph glyph-name="uniE000" unicode="&#xe000;" 
d="M212 -226q-99 23 -155.5 91t-56.5 170q0 63 20 105t65 67q-24 5 -32 37q-5 20 3 35t25 19q16 4 29 -6.5t18 -31.5t-5 -37q66 22 177 22t177 -22q-9 16 -5 38q4 20 17.5 30.5t30.5 6.5q16 -4 23.5 -18.5t3.5 -34.5q-8 -33 -33 -38q46 -25 66 -67t20 -104
q0 -103 -56.5 -171t-155.5 -91v-44h-38v38q-24 -3 -50 -3t-50 3v-38h-38v44zM160 205q-57 0 -91 -35.5t-34 -94.5q0 -36 15.5 -64t43.5 -47t68 -29t88 -10q23 0 39 1t27 3q13 2 21 4q-4 -10 -13 -22q-7 -11 -20 -23.5t-35 -26.5q67 0 121.5 13.5t93.5 40.5t60 67.5t21 92.5
q0 59 -34 94.5t-91 35.5q-52 0 -83.5 -28.5t-31.5 -75.5q0 -25 13 -48t33 -34l64 -34h-146q-20 0 -32 11t-12 28q0 18 11 29t29 11q0 27 -9.5 52.5t-26 45t-39.5 31.5t-50 12zM151 725q0 81 31.5 130.5t83.5 49.5t83.5 -49.5t31.5 -130.5v-180q0 -81 -31.5 -130.5
t-83.5 -49.5t-83.5 49.5t-31.5 130.5v180zM514 610q-3 -9 -6 -22q-2 -11 -4 -28t-2 -40q0 -45 15 -72.5t40 -27.5t40 27.5t15 72.5q0 50 -15 80t-40 30h-27v55h27q23 0 36.5 23.5t13.5 61.5q0 36 -13.5 58t-36.5 22t-36.5 -22t-13.5 -57q0 -32 5 -50q1 -9 4 -16h-60
q-3 7 -4 16q-5 18 -5 50q0 60 30 97t80 37t80 -35.5t30 -93.5q0 -40 -10 -62.5t-23 -33.5q-15 -13 -33 -16v-5q20 -6 36 -23q13 -14 24 -41t11 -75q0 -70 -31.5 -112.5t-83.5 -42.5t-83.5 42.5t-31.5 112.5q0 23 2 40t4 28q3 13 6 22h60zM266 850q-25 0 -40 -34t-15 -91
v-180q0 -57 15 -91t40 -34t40 34t15 91v180q0 57 -15 91t-40 34zM51 905v-536h-64v421l-66 -46l-1 65zM385 90q0 23 13.5 36.5t36.5 13.5t36.5 -13.5t13.5 -36.5t-13.5 -36.5t-36.5 -13.5t-36.5 13.5t-13.5 36.5zM165 40q-23 0 -36.5 13.5t-13.5 36.5q0 22 14 36t36 14
q23 0 36.5 -13.5t13.5 -36.5t-13.5 -36.5t-36.5 -13.5zM441 423v-55h-57v55h57zM148 423v-55h-57v55h57z" />
    <glyph glyph-name="period_equal.liga" 
d="M-424 335q5 28 18.5 51.5t33.5 41t45.5 27t53.5 9.5q56 0 86.5 -36.5t22.5 -92.5q-4 -27 -17.5 -50.5t-33.5 -41t-45.5 -27t-53.5 -9.5q-57 0 -87.5 36.5t-22.5 91.5zM71 258h440l-16 -99h-440zM109 502h440l-15 -100h-440z" />
    <glyph glyph-name="period_hyphen.liga" 
d="M108 380h400l-15 -96h-400zM-424 330q5 28 18.5 51.5t33.5 41t45.5 27t53.5 9.5q56 0 86.5 -36.5t22.5 -92.5q-4 -27 -17.5 -50.5t-33.5 -41t-45.5 -27t-53.5 -9.5q-57 0 -87.5 36.5t-22.5 91.5z" />
    <glyph glyph-name="underscore_underscore.liga" 
d="M-587 -25h1087l-16 -97h-1086z" />
    <glyph glyph-name="equal_slash_equal.liga" 
d="M-380 159l-128 -159h-110l128 159h-660l16 99h724l115 144h-817l16 100h882l131 163h110l-131 -163h661l-15 -100h-727l-115 -144h819l-16 -99h-883z" />
    <glyph glyph-name="less_hyphen_less.liga" 
d="M-860 625h131l-212 -228q-5 -5 -8.5 -9t-8.5 -8h1184l227 245h131l-212 -228q-16 -17 -30 -29.5t-25 -20.5q-13 -10 -24 -17l-1 -3q6 -6 13 -15q6 -8 14.5 -19.5t19.5 -28.5l143 -229h-120l-151 245h-1196q3 -4 5.5 -7.5t5.5 -8.5l142 -229h-119l-182 295zM263 280
l10 100h-47l-46 -50l31 -50h52zM-1042 280h57q-8 13 -14.5 21.5t-11.5 14.5q-6 7 -10 11v3q8 5 18 12q9 7 20 16t25 22h-73z" />
    <glyph glyph-name="less_less_less.liga" 
d="M-528 272l18 116l478 207l-17 -111l-323 -136q-29 -12 -49 -15q-11 -2 -19 -3l-2 -8q8 0 18 -2q9 -2 20 -5t25 -10l279 -139l-16 -101zM-1 272l18 116l478 207l-18 -111l-322 -136q-29 -12 -49 -15q-11 -2 -20 -3l-1 -8q8 0 18 -2q9 -2 20.5 -5t24.5 -10l279 -139
l-16 -101zM-1051 272l18 116l478 207l-18 -111l-323 -136q-29 -12 -49 -15q-11 -2 -19 -3l-1 -8q8 0 18 -2q9 -2 20 -5t25 -10l279 -139l-16 -101z" />
    <glyph glyph-name="greater_greater_greater.liga" 
d="M-498 175l322 133q14 6 26 10t21 6q11 3 21 5l1 8q-9 1 -19 3q-9 2 -20 5.5t-23 9.5l-279 138l16 102l413 -207l-19 -117l-477 -206zM10 65l18 110l321 133q14 6 26.5 10t21.5 6q11 3 21 5l1 8q-9 1 -19 3q-20 5 -43 15l-279 138l16 102l412 -207l-18 -117zM-1022 175
l321 133q14 6 26.5 10t21.5 6q11 3 21 5l1 8q-9 1 -19 3q-9 2 -20.5 6t-22.5 9l-279 138l16 102l412 -207l-18 -117l-478 -206z" />
    <glyph glyph-name="less_equal_less.liga" 
d="M-1133 330l273 295h131l-114 -123h1182l114 123h131l-212 -228q-16 -17 -30 -29.5t-25 -20.5q-13 -10 -24 -17l-1 -3q6 -6 13 -15q6 -8 14.5 -19.5t19.5 -28.5l143 -229h-120l-77 124h-1194l77 -124h-119zM-1021 327q5 -6 13 -15q6 -8 14.5 -19.5t19.5 -28.5l4 -6h-14
l-16 -99h91l-61 99h1194l61 -99h28l16 99h-105l-44 72l67 72h105l16 100h-29l-92 -100h-1183l93 100h-103l-16 -100h26l-5 -5q-17 -17 -31.5 -29.5t-25.5 -20.5q-12 -10 -23 -17v-3z" />
    <glyph glyph-name="less_less_equal.liga" 
d="M-636 35l-182 295l273 295h131l-114 -123h1029l-16 -100h-1106l-5 -5q-17 -17 -31 -29.5t-25 -20.5q-13 -10 -23 -17l-1 -3q5 -6 13 -15q6 -8 14.5 -19.5t19.5 -28.5l4 -6h1117l-15 -99h-1040l77 -124h-120zM-1133 330l273 295h131l-212 -228q-16 -17 -30.5 -29.5
t-25.5 -20.5q-13 -10 -24 -17v-3q6 -6 13 -15q12 -13 34 -48l142 -229h-119zM-643 502l-16 -100h38l93 100h-115zM-681 258l-16 -99h104l-62 99h-26z" />
    <glyph glyph-name="less_equal_equal.liga" 
d="M-1133 330l273 295h131l-114 -123h1344l-16 -100h-1421l-5 -5q-17 -17 -31.5 -29.5t-25.5 -20.5q-12 -10 -23 -17v-3q5 -6 13 -15q6 -8 14.5 -19.5t19.5 -28.5l4 -6h1432l-15 -99h-1356l77 -124h-119zM-956 502l-16 -100h36l93 100h-113zM-1010 159h101l-61 99h-24z" />
    <glyph glyph-name="less_equal_equal_greater.liga" 
d="M-1732 330l273 295h131l-117 -125h1757l-77 125h120l179 -295l-273 -295h-130l117 125h-1757l78 -125h-120zM-1620 327q5 -6 13 -15q6 -8 14.5 -19.5t19.5 -28.5l4 -6h-9l-15 -98h84l-60 98h1908l6 6q17 17 30.5 29t23.5 20q12 9 21 16l1 3q-6 5 -14 14q-6 8 -14 20.5
t-18 31.5l-2 4h-1909l91 98h-94l-16 -98h19l-5 -5q-17 -17 -31 -29.5t-25 -20.5q-13 -10 -23 -17v-3z" />
    <glyph glyph-name="equal_equal_greater.liga" 
d="M-1097 158l16 100h1420l19 20q13 14 24 23t19 16q10 7 19 12l1 3q-4 4 -10 11q-5 7 -12 17t-17 26l-10 16h-1430l15 100h1354l-76 123h120l179 -295l-273 -295h-131l116 123h-1343z" />
    <glyph glyph-name="equal_greater_greater.liga" 
d="M-1085 258h1119l6 6q17 17 30.5 29t24.5 20q11 9 21 16v3q-6 5 -14 14q-6 8 -14 20.5t-18 31.5l-2 4h-1130l15 100h1053l-76 123h120l180 -295l-273 -295h-131l116 124h-1043zM131 35l214 229q16 17 29.5 29t23.5 20q12 10 22 16l1 3q-5 6 -12 15q-5 8 -14 20.5t-20 30.5
l-140 227h120l179 -295l-273 -295h-130z" />
    <glyph glyph-name="greater_equal_greater.liga" 
d="M-920 264q16 17 29.5 29t23.5 20q12 10 22 16l1 3q-5 6 -12 15q-6 8 -14.5 20.5t-19.5 30.5l-140 227h120l75 -123h1146l-76 123h120l179 -295l-273 -295h-130l116 124h-1136l-115 -124h-130zM-798 258h1137l6 6q17 17 30.5 29t23.5 20q12 9 21 16l1 3q-6 5 -14 14
q-6 8 -14 20.5t-18 31.5l-2 4h-1148l44 -72z" />
    <glyph glyph-name="greater_greater_equal.liga" 
d="M-616 264q16 17 29.5 29t24.5 20q12 10 22 16v3q-5 6 -12 15q-6 8 -14.5 20.5t-19.5 30.5l-140 227h120l75 -123h1032l-16 -100h-955l44 -72l-67 -72h955l-15 -99h-1031l-115 -124h-131zM-920 264q16 17 29.5 29t23.5 20q12 10 22 16l1 3q-5 6 -12 15q-6 8 -14.5 20.5
t-19.5 30.5l-140 227h120l179 -295l-273 -295h-130z" />
    <glyph glyph-name="greater_greater_hyphen.liga" 
d="M-830 35l214 229q16 17 29.5 29t24.5 20q12 10 22 16v3q-5 6 -12 15q-6 8 -14.5 20.5t-19.5 30.5l-140 227h120l149 -245h958l-16 -100h-957l-227 -245h-131zM-1134 35l214 229q16 17 29.5 29t23.5 20q12 10 22 16l1 3q-5 6 -12 15q-6 8 -14.5 20.5t-19.5 30.5l-140 227
h120l179 -295l-273 -295h-130z" />
    <glyph glyph-name="greater_hyphen.liga" 
d="M-534 35l214 229q16 17 29.5 29t24.5 20q12 10 22 16l1 3q-5 6 -12 15q-6 8 -15 20.5t-20 30.5l-140 227h120l149 -245h662l-16 -100h-661l-227 -245h-131z" />
    <glyph glyph-name="less_asciitilde_greater.liga" 
d="M-740 263l7 41q10 58 51.5 93.5t101.5 35.5q30 0 50.5 -9t34.5 -22t24.5 -29t20 -29t21 -22t27.5 -9t30 9t27.5 22t28.5 29t33.5 29t42 22t54.5 9t51 -9t33.5 -22t23 -29t18 -29t19 -22t26.5 -9q45 0 53 49l6 37h93l-7 -41q-10 -58 -51.5 -93.5t-101.5 -35.5q-30 0 -50 9
t-34 22t-24 29t-19.5 29t-20.5 22t-27 9q-24 0 -43.5 -18.5t-42 -41t-53 -41.5t-76.5 -19q-31 0 -51.5 9t-34.5 22t-24 29t-19 29t-19.5 22t-26.5 9q-45 0 -53 -49l-6 -37h-93zM-1123 273l18 114l467 210l-18 -111l-314 -137q-14 -6 -26 -9t-22 -5q-11 -2 -21 -3l-1 -8
q9 -1 20 -4q9 -2 20 -6t23 -10l271 -138l-17 -103zM58 173l314 137q14 6 26.5 10t22.5 6q11 3 21 4l1 8q-9 1 -20 3q-9 2 -20.5 5.5t-23.5 9.5l-270 140l16 100l400 -209l-18 -114l-466 -210z" />
    <glyph glyph-name="hyphen_less.liga" 
d="M-485 380h711l227 245h131l-212 -228q-16 -17 -30 -29.5t-25 -20.5q-13 -10 -24 -17l-1 -3q6 -6 13 -15q6 -8 14.5 -19.5t19.5 -28.5l143 -229h-120l-151 245h-712zM276 380h-50l-46 -50l31 -50h50z" />
    <glyph glyph-name="hyphen_less_less.liga" 
d="M-1101 280l16 100h996l227 245h131l-212 -228q-16 -17 -30.5 -29.5t-25.5 -20.5q-13 -10 -24 -17v-3q6 -6 13 -15q7 -8 15.5 -19.5t18.5 -28.5l142 -229h-119l-151 245h-997zM453 625h131l-212 -228q-16 -17 -30 -29.5t-25 -20.5q-13 -10 -24 -17l-1 -3q6 -6 13 -15
q6 -8 14.5 -19.5t19.5 -28.5l143 -229h-120l-182 295zM-39 280l15 100h-65l-46 -50l31 -50h65z" />
    <glyph glyph-name="equal_less_less.liga" 
d="M-1085 258h994l-44 72l67 72h-994l15 100h1071l114 123h131l-212 -228q-16 -17 -30.5 -29.5t-25.5 -20.5q-13 -10 -24 -17v-3q6 -6 13 -15q7 -8 15.5 -19.5t18.5 -28.5l142 -229h-119l-77 124h-1071zM584 625l-212 -228q-16 -17 -30 -29.5t-25 -20.5q-13 -10 -24 -17
l-1 -3q6 -6 13 -15q6 -8 14.5 -19.5t19.5 -28.5l143 -229h-120l-182 295l273 295h131zM37 502h-13l-92 -100h89zM-2 258h-89l61 -99h12z" />
    <glyph glyph-name="hyphen_hyphen_hyphen.liga" 
d="M23 280l16 100h470l-16 -100h-470zM-526 380h470l-16 -100h-470zM-1107 280l16 100h470l-16 -100h-470z" />
    <glyph glyph-name="less_hyphen_bar.liga" 
d="M-1133 330l273 295h131l-212 -228q-5 -5 -8.5 -9t-8.5 -8h1366l39 245h109l-93 -590h-110l39 245h-1377q3 -4 5.5 -7.5t5.5 -8.5l142 -229h-119zM-1022 380l-11 -100h48q-8 13 -14.5 21.5t-11.5 14.5q-6 7 -10 11v3q8 5 18 12q9 7 20 16t25 22h-64z" />
    <glyph glyph-name="less_equal_bar.liga" 
d="M-860 625h131l-114 -123h1270l20 123h109l-93 -590h-110l20 124h-1282l77 -124h-119l-182 295zM-1021 327q5 -6 13 -15q6 -8 14.5 -19.5t19.5 -28.5l4 -6h-18l-16 -99h95l-61 99h1359l22 144h-1347l93 100h-106l-16 -100h29l-5 -5q-17 -17 -31.5 -29.5t-25.5 -20.5
q-12 -10 -23 -17v-3z" />
    <glyph glyph-name="bar_equal_greater.liga" 
d="M-1063 625h110l-20 -125h1285l-77 125h120l179 -295l-273 -295h-130l117 125h-1274l-20 -125h-110zM339 258l6 6q17 17 30.5 29t23.5 20q12 9 21 16l1 3q-6 5 -14 14q-6 8 -14 20.5t-18 31.5l-2 4h-1361l-23 -144h1350z" />
    <glyph glyph-name="bar_hyphen_greater.liga" 
d="M-1156 35l93 590h110l-39 -245h1378q-2 4 -5 8.5t-6 9.5l-140 227h120l179 -295l-273 -295h-130l214 229q4 5 8 8.5t8 7.5h-1368l-39 -245h-110z" />
    <glyph glyph-name="less_asciitilde_asciitilde.liga" 
d="M-951 35l-182 295l273 295h131l-188 -202q25 -10 40.5 -28.5t27.5 -36.5t24.5 -31.5t32.5 -13.5q16 0 29.5 9t27 22t28 29t33 29t42 22t54.5 9q30 0 50.5 -9t35 -22t24.5 -29t20 -29t21.5 -22t27.5 -9q24 0 44 19t43 41.5t53.5 41t76.5 18.5q30 0 51 -9t36 -22t25.5 -29
t21 -29t22 -22t27.5 -9q24 0 44.5 19t44 41.5t55 41t77.5 18.5q31 0 51 -9t33.5 -22t23 -29t18 -29t19 -22t26.5 -9q45 0 53 49l6 37h93l-7 -41q-10 -58 -51.5 -93.5t-101.5 -35.5q-30 0 -50 9t-34 22t-24 29t-19.5 29t-20.5 22t-27 9q-24 0 -44.5 -18.5t-44.5 -41
t-55.5 -41.5t-77.5 -19q-31 0 -52 9t-36 22t-25.5 29t-20.5 29t-21.5 22t-27.5 9t-30 -9t-28 -22t-29 -29t-33.5 -29t-42 -22t-54.5 -9t-52 9t-35.5 22t-24.5 29t-20 29t-21 22t-27 9q-24 0 -43 -18.5t-41.5 -41t-53 -41.5t-76.5 -19q-31 0 -51.5 9t-34.5 22t-24 29t-19 29
t-20 22t-27 9h-12q-13 -10 -20 -14q-4 -3 -7 -5v-3q6 -6 13 -15q12 -13 34 -48l142 -229h-119zM-941 397l24 26q-23 10 -52 10h-38l-13 -84h26q24 18 53 48z" />
    <glyph glyph-name="less_asciitilde.liga" 
d="M-351 35l-182 295l273 295h131l-212 -228q-16 -17 -30.5 -29.5t-25.5 -20.5q-13 -10 -24 -17h22q24 0 43 16t41.5 35.5t52.5 35.5t76 16q45 0 69.5 -18.5t41 -41t31 -41.5t38.5 -19t44.5 19t44 41.5t54.5 41t77 18.5q31 0 51 -9t33.5 -22t22.5 -29t17.5 -29t18.5 -22
t26 -9q21 0 35 12.5t18 36.5l6 37h93l-6 -41q-4 -29 -17.5 -52.5t-33.5 -40.5t-46.5 -26.5t-56.5 -9.5t-50 9t-33.5 22t-23 29t-18.5 29t-20 22t-27 9q-24 0 -44.5 -18.5t-44.5 -41t-55 -41.5t-78 -19q-31 0 -51.5 9t-35 22t-24.5 29t-20 29t-21 22t-27 9q-21 0 -38.5 -12
t-36.5 -27.5t-41.5 -31t-53.5 -23.5l136 -220h-119zM-463 250h52q12 0 22.5 1.5t20.5 3.5l-6 9q-11 17 -19.5 28.5t-14.5 19.5q-8 9 -13 15v3h-30z" />
    <glyph glyph-name="asciitilde_asciitilde.liga" 
d="M-432 263l7 41q10 58 52 94t102 36q30 0 50 -9t34.5 -22t25 -29t20 -29t21 -22t27.5 -9t30 9t27.5 22t28.5 29t33.5 29t41.5 22t54 9t51.5 -9t34.5 -22t23.5 -29t19 -29t20 -22t26.5 -9q44 0 52 50l6 37h93l-6 -42q-4 -28 -17.5 -52t-33.5 -41.5t-46.5 -27t-56.5 -9.5
q-45 0 -69.5 19t-40.5 41.5t-30 41t-38 18.5q-16 0 -30 -9t-27.5 -22t-28.5 -29t-33.5 -29t-42 -22t-54.5 -9t-51.5 9t-34.5 22t-23.5 29t-18.5 29t-19.5 22t-26.5 9q-21 0 -35 -12.5t-18 -36.5l-6 -37h-93z" />
    <glyph glyph-name="asciitilde_asciitilde_greater.liga" 
d="M-1138 358l7 41h93l-6 -37q-8 -49 36 -49q16 0 29 9t26.5 22t27.5 29t32 29t41 22t54 9t52 -9t35.5 -22t25 -29t20.5 -29t21.5 -22t27.5 -9t30.5 9t29 22t30 29t35 29t43 22t53.5 9q31 0 52 -9t35.5 -22t24.5 -29t19.5 -29t20.5 -22t27 -9q24 0 44.5 19t44 41.5t54 41
t75.5 18.5q31 0 51.5 -9t34.5 -22t24 -29t19 -29t20 -22t27 -9q22 0 40 15t37.5 34t44 37t59.5 24l-124 202h120l179 -295l-273 -295h-130l214 229q16 17 29.5 29t23.5 20q12 10 22 16l1 3q-1 1 -2 3q-2 1 -7 8h-34q-24 0 -43 -18t-41.5 -39t-52 -39t-76.5 -18
q-31 0 -51.5 9t-34.5 22t-24 29t-19 29t-20 22t-27 9t-30 -9t-28 -22t-29 -29t-33.5 -29t-42 -22t-54.5 -9t-52 9t-35.5 22t-24.5 29t-20 29t-21 22t-27 9t-30 -9t-28.5 -22t-30 -29t-34.5 -29t-42.5 -22t-54.5 -9t-52 9t-36.5 22t-26 29t-21 29t-22 22t-27.5 9t-30 -9
t-27.5 -22t-28 -29t-32.5 -29t-41 -22t-53 -9q-60 0 -91.5 35.5t-21.5 93.5z" />
    <glyph glyph-name="asciitilde_greater.liga" 
d="M-524 358l7 41h93l-7 -37q-5 -24 5.5 -36.5t31.5 -12.5q16 0 29 9t26 22t27 29t32 29t41 22t54 9t51.5 -9t35 -22t25 -29t20.5 -29t21 -22t27 -9q24 0 44.5 19t44.5 41.5t55 41t76 18.5q46 0 71 -16t41 -35.5t30 -35.5t38 -16h25l1 2q-5 6 -12 15q-5 8 -14 20.5t-20 30.5
l-140 227h120l179 -295l-273 -295h-130l207 221q-27 8 -44 23.5t-30.5 31t-27 27t-34.5 11.5q-24 0 -44 -18.5t-43.5 -41t-54.5 -41.5t-77 -19q-31 0 -52 9t-36 22t-25.5 29t-20 29t-21 22t-27.5 9t-30 -9t-27.5 -22t-28 -29t-32.5 -29t-41 -22t-53 -9q-60 0 -91.5 35.5
t-21.5 93.5z" />
    <glyph glyph-name="less_dollar_greater.liga" 
d="M-1078 273l18 114l449 216l-17 -106l-297 -145q-14 -7 -26.5 -10.5t-22.5 -5.5q-11 -2 -21 -2l-1 -8q10 -1 21 -3q9 -2 20.5 -5.5t23.5 -9.5l386 -182q38 -17 84.5 -27t94.5 -12l37 235l-17 6q-85 30 -123 82t-25 130q14 82 74.5 132t155.5 57l19 121h60l-19 -121
q44 -5 89 -20.5t102 -47.5l493 -274l-18 -114l-450 -217l17 108l297 144q14 7 26.5 10.5t22.5 5.5q11 2 21 3l1 8q-10 1 -20 3q-9 2 -20.5 5.5t-23.5 9.5l-396 221q-90 50 -156 59l-34 -215l33 -11q82 -27 119 -82.5t24 -133.5q-7 -45 -28 -80.5t-53 -60.5t-73.5 -40
t-89.5 -19l-21 -131h-60l21 130q-61 2 -115.5 14t-99.5 34zM-272 303l-34 -215q51 8 82 33t38 66q7 42 -13.5 72.5t-68.5 42.5zM-279 633q-45 -6 -72.5 -29.5t-33.5 -61.5q-12 -71 75 -104z" />
    <glyph glyph-name="less_dollar.liga" 
d="M-512 273l18 114l450 216l-17 -104l-297 -145q-14 -7 -26.5 -10.5t-22.5 -5.5q-11 -2 -21 -2l-1 -8q10 -1 21 -3q9 -2 20.5 -5.5t23.5 -9.5l386 -182q38 -17 84.5 -28t94.5 -13l37 235l-17 6q-85 30 -123 82t-26 130q14 81 75 131.5t155 57.5l19 121h60l-19 -122
q88 -8 132 -58.5t34 -133.5h-109q5 37 -15 62.5t-57 33.5l-34 -213l34 -12q82 -26 119 -82t24 -134q-7 -45 -28 -80.5t-53 -60.5t-73.5 -40t-89.5 -19l-21 -131h-60l21 130q-61 2 -116 14.5t-99 33.5zM295 303l-34 -215q50 8 81.5 33t38.5 66q7 42 -13.5 72.5t-68.5 42.5z
M287 633q-45 -6 -72 -29.5t-33 -61.5q-12 -71 74 -104z" />
    <glyph glyph-name="dollar_greater.liga" 
d="M-346 -9q-50 3 -88 18.5t-63 41t-35 60.5t-3 77h112q-7 -42 18 -68t74 -32l37 234l-17 6q-85 30 -123 82t-25 130q14 82 74.5 132t155.5 57l19 121h60l-19 -122q85 -7 191 -67l493 -274l-18 -114l-450 -217l17 106l297 144q14 7 26.5 10.5t22.5 5.5q11 2 21 3l1 8
q-10 1 -20 3q-9 2 -20.5 5.5t-23.5 9.5l-396 223q-44 25 -83 39.5t-73 19.5l-34 -215l33 -11q82 -27 119 -82.5t24 -133.5q-7 -45 -28 -80.5t-53.5 -61t-74 -40t-88.5 -18.5l-21 -131h-60zM-237 303l-34 -215q50 7 81.5 33t38.5 66q7 42 -13.5 72.5t-68.5 42.5zM-244 633
q-45 -6 -72.5 -29.5t-33.5 -61.5q-12 -71 75 -104z" />
    <glyph glyph-name="less_plus_greater.liga" 
d="M-577 380h231l37 235h108l-37 -235h231l-16 -100h-231l-37 -235h-108l37 235h-231zM-1111 273l18 114l473 210l-18 -112l-320 -135q-14 -5 -26 -9t-22 -6q-11 -2 -21 -3l-2 -8q9 -2 20 -4q9 -2 20.5 -6t23.5 -10l276 -137l-15 -104zM42 174l319 136q14 6 26 10t22 6
q11 2 21 4l2 8q-10 1 -20 4q-9 2 -20.5 5.5t-23.5 9.5l-278 140l17 100l408 -210l-20 -114l-473 -210z" />
    <glyph glyph-name="less_plus.liga" 
d="M-17 380h231l37 235h108l-37 -235h231l-16 -100h-231l-37 -235h-108l37 235h-231zM-538 387l473 210l-17 -112l-321 -135q-14 -5 -26 -9t-22 -6q-11 -2 -21 -3l-1 -8q9 -2 20 -4q9 -2 20 -6t23 -10l277 -137l-16 -104l-407 210z" />
    <glyph glyph-name="plus_greater.liga" 
d="M-583 280l16 100h231l37 235h108l-37 -235h231l-16 -100h-231l-37 -235h-108l37 235h-231zM58 174l319 136q14 6 26.5 10t22.5 6q11 3 21 4l1 8q-9 1 -20 4q-19 3 -43 15l-279 140l18 100l407 -210l-19 -114l-473 -210z" />
    <glyph glyph-name="less_asterisk_greater.liga" 
d="M-590 390l50 96l101 -37q16 -6 32.5 -16t32 -21.5t29.5 -23t25 -20.5l6 4q-2 15 -4.5 34t-4 40t-1.5 42t3 40l18 112h102l-18 -112q-3 -19 -9.5 -40t-14.5 -42t-16.5 -40t-15.5 -34l4 -3q13 9 31 20.5t37 22.5t39 21t38 16l112 37l20 -96l-113 -37q-18 -6 -38 -10
t-40.5 -7t-40 -4.5t-34.5 -2.5l-4 -7q21 -19 49 -48t45 -59l52 -97l-93 -58l-52 97q-8 15 -14.5 34t-11.5 38.5t-8.5 38t-5.5 32.5h-7q-7 -14 -16 -32.5t-20 -38t-23.5 -38.5t-25.5 -34l-83 -97l-74 58l82 97q13 15 29.5 30.5t34 29.5t34.5 26.5t31 21.5l-2 6q-15 1 -34 2.5
t-38.5 4.5t-38.5 7t-35 10zM-1106 387l473 210l-18 -112l-320 -135q-14 -6 -26.5 -9.5t-22.5 -5.5q-11 -2 -21 -3l-1 -8q9 -2 20 -4q9 -2 20.5 -6t23.5 -10l276 -137l-16 -104l-406 210zM42 174l319 136q14 6 26 10t22 6q11 2 21 4l2 8q-10 1 -20 4q-9 2 -20.5 5.5
t-23.5 9.5l-278 140l17 100l408 -210l-20 -114l-473 -210z" />
    <glyph glyph-name="less_asterisk.liga" 
d="M-5 390l50 96l101 -37q32 -13 65 -37.5t54 -43.5l6 4q-2 15 -4.5 34t-4 40t-1.5 42t3 40l18 112h102l-18 -112q-3 -19 -9.5 -40t-14.5 -42t-16.5 -40t-15.5 -34l4 -3q14 9 31.5 20.5t36.5 22.5t39 21t38 16l112 37l20 -96l-113 -37q-18 -6 -38 -10t-40.5 -7t-40 -4.5
t-34.5 -2.5l-4 -7q21 -19 49.5 -48t44.5 -59l52 -97l-93 -58l-52 97q-8 15 -14.5 34t-11.5 38.5t-8.5 38t-5.5 32.5h-7q-7 -14 -16 -32.5t-20.5 -38t-23.5 -38.5t-25 -34l-82 -97l-75 58l82 97q13 15 29.5 30.5t34 29.5t35 26.5t30.5 21.5l-2 6q-15 1 -33.5 2.5t-38.5 4.5
t-39 7t-35 10zM-515 387l473 210l-17 -112l-320 -135q-14 -6 -26.5 -9.5t-22.5 -5.5q-11 -2 -21 -3l-1 -8q9 -2 20 -4q9 -2 20 -6t23 -10l277 -137l-16 -104l-407 210z" />
    <glyph glyph-name="asterisk_greater.liga" 
d="M-515 486l101 -37q16 -6 32.5 -16t32 -21.5t29.5 -23t25 -20.5l6 4q-2 15 -4.5 34t-4 40t-1.5 42t3 40l18 112h102l-18 -112q-3 -19 -9.5 -40t-14.5 -42t-16.5 -40t-15.5 -34l4 -3q13 9 31 20.5t37 22.5t39 21t38 16l112 37l20 -96l-113 -37q-18 -6 -38 -10t-40.5 -7
t-40 -4.5t-34.5 -2.5l-4 -7q21 -19 49 -48t45 -59l52 -97l-93 -58l-52 97q-8 15 -14.5 34t-11.5 38.5t-8.5 38t-5.5 32.5h-7q-7 -14 -16 -32.5t-20 -38t-23.5 -38.5t-25.5 -34l-83 -97l-74 58l82 97q13 15 29.5 30.5t34 29.5t34.5 26.5t31 21.5l-2 6q-15 1 -34 2.5
t-38.5 4.5t-38.5 7t-35 10l-101 37zM63 174l319 136q14 6 26.5 10t22.5 6q11 3 21 4l1 8q-9 1 -20 4q-19 3 -43 15l-279 140l18 100l407 -210l-19 -114l-473 -210z" />
    <glyph glyph-name="less_slash.liga" 
d="M-487 273l18 114l474 210l-18 -109l-320 -138q-28 -12 -49 -15q-11 -3 -21 -4l-2 -8q10 -1 20 -3q9 -2 20.5 -5.5t23.5 -9.5l413 -216l395 741h114l-500 -940h-115l61 114z" />
    <glyph glyph-name="less_slash_greater.liga" 
d="M-1030 387l473 210l-17 -109l-320 -138q-28 -12 -49 -15q-11 -3 -21 -4l-2 -8q10 -1 20 -3q9 -2 20.5 -5.5t23.5 -9.5l408 -213l393 738h115l-89 -167l525 -276l-18 -114l-473 -210l17 109l321 138q28 12 49 15q11 2 21 3l1 8q-10 1 -20 4q-9 2 -20.5 5.5t-23.5 9.5
l-424 223l-367 -688h-115l62 117l-508 266z" />
    <glyph glyph-name="slash_greater.liga" 
d="M-67 830h115l-87 -164l530 -279l-18 -114l-473 -210l17 109l321 138q28 12 49 15q11 2 21 3l1 8q-10 1 -20 4q-9 2 -20.5 5.5t-23.5 9.5l-430 226l-368 -691h-114z" />
    <glyph glyph-name="less_hyphen_greater.liga" 
d="M-1133 330l273 295h131l-212 -228q-5 -5 -8.5 -9t-8.5 -8h1344q-2 4 -5 8.5t-6 9.5l-140 227h120l179 -295l-273 -295h-130l214 229q4 5 8 8.5t8 7.5h-1346q3 -4 5.5 -7.5t5.5 -8.5l142 -229h-119zM-985 280q-8 13 -14.5 21.5t-11.5 14.5q-6 7 -10 11v3q8 5 18 12
q9 7 20 16t25 22h-60l-11 -100h44z" />
    <glyph glyph-name="period_period_less.liga" 
d="M-911 84q7 42 36 67.5t71 25.5t63 -25.5t14 -67.5t-36.5 -68t-71.5 -26t-63 26t-13 68zM-473 84q7 42 36 67.5t71 25.5t63 -25.5t14 -67.5t-36.5 -68t-71.5 -26t-63 26t-13 68zM-118 273l18 114l474 210l-18 -112l-320 -135q-14 -6 -26.5 -9.5t-22.5 -5.5q-11 -2 -21 -3
l-1 -8q9 -2 20 -4q9 -2 20.5 -6t22.5 -10l277 -137l-16 -104z" />
    <glyph glyph-name="asciitilde_equal.liga" 
d="M-370 358l5 29q6 36 24.5 65.5t46 50.5t63 32.5t77.5 11.5q55 0 102 -17t89.5 -37.5t81.5 -37.5t78 -17q42 0 70.5 22t34.5 57l4 25h94l-5 -29q-6 -36 -24.5 -65.5t-46 -50.5t-63 -32.5t-77.5 -11.5q-55 0 -102 17t-89.5 37.5t-81.5 37.5t-78 17q-42 0 -70.5 -22
t-34.5 -57l-4 -25h-94zM-386 253h740l-16 -99h-740z" />
    <glyph glyph-name="asciitilde_hyphen.liga" 
d="M-509 235l10 63q11 66 60 105.5t120 39.5q35 0 59.5 -10.5t42.5 -26t32 -34t27.5 -34t29 -26t36.5 -10.5q29 0 50 19t26 51l18 -1l1 9h506l-16 -100h-455q-25 -30 -61 -46.5t-81 -16.5q-34 0 -58 10.5t-42 26t-32 34t-28 34t-29.5 26t-37.5 10.5q-29 0 -49.5 -18
t-25.5 -47l-10 -58h-93z" />
    <glyph glyph-name="hyphen_asciitilde.liga" 
d="M-505 280l15 100h507l-1 -9l17 1q-5 -32 10 -51t44 -19q32 0 58.5 22t56.5 48.5t67.5 48.5t89.5 22q35 0 62.5 -10.5t45 -29.5t24.5 -45.5t2 -59.5l-10 -63h-94l10 58q5 29 -10.5 47t-44.5 18q-33 0 -60 -22t-57 -48.5t-67 -48.5t-88 -22q-45 0 -76 16.5t-47 46.5h-454z
" />
    <glyph glyph-name="asciitilde_at.liga" 
d="M-549 322q10 60 53 96.5t106 36.5q48 0 82.5 -18.5t62 -41t51.5 -41.5t50 -19q30 0 54.5 17t46.5 44.5t44 63t46.5 73t53 73t64.5 63t80.5 44.5t100.5 17q98 0 151.5 -44.5t53.5 -128.5q0 -11 -1 -23t-3 -24l-68 -435h-85l14 95q-41 -105 -134 -105q-108 0 -108 120
q0 13 1.5 26.5t3.5 28.5l13 80q14 86 54 130.5t104 44.5q88 0 99 -94q1 12 3 36.5t7 52.5l3 20q10 65 -22.5 100t-99.5 35q-43 0 -77 -17t-62.5 -44.5t-53 -63t-48.5 -73t-49 -73t-54 -63t-64 -44.5t-79 -17q-47 0 -81.5 19t-62 41.5t-51.5 41t-49 18.5q-49 0 -57 -52
l-10 -63h-94zM314 135q74 0 95 93l14 86q18 111 -63 111q-32 0 -53.5 -27t-29.5 -78l-12 -80q-8 -51 4.5 -78t44.5 -27z" />
    <glyph glyph-name="asciicircum_equal.liga" 
d="M-446 402l260 358h96l104 -258h430l-15 -100h-485l-78 218q-5 11 -6.5 23t-2.5 21v22h-4q-3 -10 -8 -21q-8 -21 -23 -45l-155 -218h-113zM-79 258h485l-16 -99h-485z" />
    <glyph glyph-name="hyphen_bar.liga" 
d="M-427 280l16 100h664l58 370h110l-132 -835h-110l58 365h-664z" />
    <glyph glyph-name="underscore_bar_underscore.liga" 
d="M-1064 -25h635l123 775h110l-123 -775h635l-15 -96l-1380 -1z" />
    <glyph glyph-name="bar_hyphen.liga" 
d="M-286 750h110l-59 -370h665l-16 -100h-665l-58 -365h-109z" />
    <glyph glyph-name="bar_bar_hyphen.liga" 
d="M-370 750h109l-58 -370h700l-16 -100h-700l-58 -365h-110zM-933 -85l133 835h109l-132 -835h-110z" />
    <glyph glyph-name="bar_equal.liga" 
d="M-286 750h110l-40 -248h665l-15 -100h-666l-22 -144h665l-16 -99h-665l-39 -244h-109z" />
    <glyph glyph-name="bar_bar_equal.liga" 
d="M-522 -85l132 835h110l-39 -248h700l-16 -100h-700l-23 -144h701l-16 -99h-701l-38 -244h-110zM-820 750h110l-132 -835h-110z" />
    <glyph glyph-name="numbersign_braceleft.liga" 
d="M-586 265h97l65 190h-98l12 75h111l65 190h82l-65 -190h148l65 190h82l-65 -190h397l13 129q4 40 21 72t45 54t64.5 33.5t79.5 11.5h58l-14 -100h-48q-42 0 -67 -19t-29 -58l-16 -160q-5 -56 -44 -91.5t-99 -37.5l-1 -5q30 -1 51.5 -11.5t34.5 -28.5t16.5 -41.5
t-2.5 -51.5l-36 -159q-8 -38 11 -58t60 -20h48l-14 -99h-58q-75 0 -118.5 34.5t-43.5 96.5q0 18 5 41l29 128h-459l-64 -190h-82l65 190h-149l-64 -190h-82l65 190h-84zM-177 265h444q-3 24 -22 36t-57 12h-107l14 93h107q38 0 60.5 12.5t33.5 36.5h-408zM-259 265l65 190
h-148l-65 -190h148z" />
    <glyph glyph-name="numbersign_bracketleft.liga" 
d="M-598 190l13 77h96l64 186h-97l12 77h111l65 190h82l-65 -190h148l65 190h82l-65 -190h314l48 300h265l-18 -100h-155l-113 -740h155l-18 -100h-265l48 300h-376l-65 -190h-82l64 190h-147l-65 -190h-82l64 190h-83zM-177 267h363l29 186h-328zM-259 267l64 186h-148
l-64 -186h148z" />
    <glyph glyph-name="bracketright_numbersign.liga" 
d="M-528 -110l18 100h155l113 740h-155l18 100h265l-48 -300h363l65 190h84l-65 -190h145l65 190h84l-64 -190h82l-12 -77h-96l-64 -186h95l-12 -77h-109l-65 -190h-84l65 190h-145l-65 -190h-84l65 190h-301l-48 -300h-265zM-203 267h314l64 186h-349zM196 267h145l64 186
h-146z" />
    <glyph glyph-name="numbersign_parenleft.liga" 
d="M-598 190l13 77h96l64 186h-97l12 77h111l65 190h82l-65 -190h148l65 190h82l-65 -190h302q38 121 128.5 201.5t227.5 113.5l-18 -110q-100 -24 -163.5 -95t-82.5 -185l-31 -190q-2 -16 -3.5 -31.5t-1.5 -29.5q0 -85 41.5 -142.5t117.5 -76.5l-18 -110q-124 32 -189 114
t-64 201h-361l-65 -190h-82l64 190h-147l-65 -190h-82l64 190h-83zM166 267l31 186h-310l-64 -186h343zM-407 267h148l64 186h-148z" />
    <glyph glyph-name="numbersign_question.liga" 
d="M-597 190l12 77h97l64 186h-97l12 77h111l64 190h83l-65 -190h148l64 190h83l-65 -190h137q10 44 34 79t59 60t79.5 38t96.5 13h29q54 0 96 -15t68.5 -42.5t37 -66.5t2.5 -87q-7 -43 -27 -80t-50 -64t-68.5 -42.5t-82.5 -17.5l-15 -93h-102l28 188h67q57 0 94 29.5
t45 80.5t-20 80.5t-85 29.5h-37q-57 0 -94.5 -28.5t-45.5 -78.5l-8 -52h-7l-1 -8h-256l-64 -186h96l-12 -77h-110l-64 -190h-83l65 190h-148l-64 -190h-83l65 190h-83zM-406 267h148l64 186h-148zM153 58q5 29 26 46.5t52 17.5h23q31 0 47 -18t11 -47t-26 -45.5t-52 -16.5
h-23q-31 0 -47 17t-11 46z" />
    <glyph glyph-name="numbersign_underscore.liga" 
d="M-597 190l12 77h96l64 186h-96l12 77h110l65 190h84l-65 -190h145l65 190h84l-65 -190h83l-12 -77h-96l-64 -186h95l-12 -77h-108l-74 -216h774l-16 -97h-875l106 313h-145l-65 -190h-84l64 190h-82zM-405 267h146l63 186h-145z" />
    <glyph glyph-name="numbersign_underscore_parenleft.liga" 
d="M-1185 267h96l64 186h-96l12 77h110l65 190h84l-65 -190h145l65 190h84l-65 -190h83l-12 -77h-96l-64 -186h95l-12 -77h-109l-75 -220h1111q-39 40 -60 92.5t-21 116.5q0 18 1.5 36.5t5.5 38.5l35 201q26 152 121 252t252 138l-17 -110q-100 -24 -163.5 -95t-82.5 -185
l-35 -201q-3 -16 -4 -31.5t-1 -29.5q0 -86 41.5 -145t117.5 -78l-15 -96h-1403l108 316h-145l-65 -190h-84l64 190h-82zM-859 267l63 186h-145l-64 -186h146z" />
    <glyph glyph-name="numbersign_colon.liga" 
d="M-585 267h97l63 186h-96l12 77h110l65 190h84l-65 -190h145l65 190h84l-65 -190h83l-12 -77h-97l-63 -186h95l-12 -77h-109l-65 -190h-84l65 190h-145l-65 -190h-84l65 190h-83zM195 215q6 40 34 64t68 24t60 -24t14 -64t-34 -64.5t-68 -24.5t-60 24.5t-14 64.5zM241 506
q7 41 34.5 64.5t67.5 23.5q41 0 61.5 -23.5t13.5 -64.5q-7 -40 -34.5 -63.5t-67.5 -23.5t-60.5 23.5t-14.5 63.5zM-259 267l63 186h-145l-63 -186h145z" />
    <glyph glyph-name="numbersign_exclam.liga" 
d="M-201 190l-65 -190h-84l65 190h-145l-65 -190h-84l65 190h-83l12 77h97l63 186h-96l12 77h110l65 190h84l-65 -190h145l65 190h84l-65 -190h83l-12 -77h-97l-63 -186h95l-12 -77h-109zM208 225l98 362l43 133h122l-43 -133l-141 -362h-79zM-259 267l63 186h-145l-63 -186
h145zM199 122h24q24 0 37.5 -11t13.5 -31q0 -18 -8 -33.5t-21.5 -27t-30.5 -18t-34 -6.5h-23q-24 0 -37.5 10.5t-13.5 29.5q0 18 8 34t21 28t30 18.5t34 6.5z" />
    <glyph glyph-name="numbersign_equal.liga" 
d="M-585 267h97l63 186h-96l12 77h110l65 190h84l-65 -190h145l65 190h84l-65 -190h83l-12 -77h-97l-63 -186h95l-12 -77h-109l-65 -190h-84l65 190h-145l-65 -190h-84l65 190h-83zM-259 267l63 186h-145l-63 -186h145zM71 288h440l-16 -99h-440zM109 532h440l-15 -100h-440
z" />
    <glyph glyph-name="uni2116" unicode="&#x2116;" 
d="M86 720h110l40 -423q2 -20 3 -54t1 -66v-80h13l1 31.5t3 75.5t5.5 91.5t8.5 80.5l54 344h87l-114 -720h-110l-38 424q-2 25 -3 59t-2 66v75h-12q-2 -55 -5 -106q-2 -45 -6 -92.5t-9 -81.5l-55 -344h-86zM402 402l36 226q8 46 38.5 74t72.5 28t64.5 -28t14.5 -74l-36 -226
q-8 -46 -38.5 -74t-72.5 -28t-64.5 28t-14.5 74zM490 360q12 0 22.5 7.5t13.5 26.5l38 242q2 16 -5 25t-20 9q-12 0 -22.5 -9t-12.5 -25l-38 -242q-3 -19 4.5 -26.5t19.5 -7.5z" />
    </font>
</defs>
</svg>
